<?xml version="1.0" encoding="utf-8"?>
<!-- Generator: Adobe Illustrator 23.0.1, SVG Export Plug-In . SVG Version: 6.00 Build 0)  -->
<svg version="1.1" id="Layer_1" xmlns="http://www.w3.org/2000/svg" xmlns:xlink="http://www.w3.org/1999/xlink" x="0px" y="0px"
	 viewBox="0 0 512 512" style="enable-background:new 0 0 512 512;" xml:space="preserve">
<style type="text/css">
	.st0{fill:#026CA2;}
	.st1{fill:#CBCBCB;}
	.st2{fill:#FDC9A6;}
	.st3{fill:#E6AF89;}
	.st4{fill:#015078;}
	.st5{fill:#0296E5;}
	.st6{fill:#55300B;}
	.st7{fill:#EBEBEB;}
</style>
<g id="filled_outline">
	<path class="st0" d="M296,362l147.9,73.9c17.6,8.8,29.8,25.7,32.6,45.2L480,506H32l3.6-24.9c2.8-19.5,15-36.4,32.6-45.2L216,362
		H296z"/>
	<path class="st1" d="M216,362h80v144h-80V362z"/>
	<path class="st2" d="M216,330v32l-8,24v8h96v-8l-8-24v-32H216z"/>
	<path class="st2" d="M296,330v19.6c-0.1,0.1-0.2,0.1-0.3,0.2c-24.1,16.3-55.7,16.2-79.8-0.2V330H296z"/>
	<path class="st3" d="M296,330v19.6c-0.1,0.1-0.2,0.1-0.3,0.2c-24.1,16.3-55.7,16.2-79.8-0.2V330H296z"/>
	<path class="st4" d="M72,506v-32c0-4.4,3.6-8,8-8s8,3.6,8,8v32H72z"/>
	<path class="st4" d="M424,506v-32c0-4.4,3.6-8,8-8s8,3.6,8,8v32H424z"/>
	<path class="st5" d="M230.9,406.6L240,434h32l9.1-27.4L256,394L230.9,406.6z"/>
	<path class="st0" d="M240,434l-8,72h48l-8-72H240z"/>
	<path class="st6" d="M360.9,189.9l3.4-13.6c7.3-29,0-59.8-19.6-82.5c-20-26.7-53.9-39.1-86.4-31.5c-5.3,1.2-10.6,2.5-15.6,3.6
		c-22.1,5.1-40.7,19.8-50.8,40.1h-2.1c-13.8,0-26.7,6.5-35,17.5c-7,9.3-10,21-8.3,32.4l5.4,38.1l2.9,24H352l6.6-20
		C359.5,195.3,360.2,192.6,360.9,189.9L360.9,189.9z"/>
	<path class="st2" d="M256,346c-29,0-55.1-17.7-65.8-44.6C180.8,278,176,253,176,227.8V170l24-40.7c25.6,26.1,60.6,40.7,97.1,40.7
		H336v57.8c0,25.2-4.8,50.2-14.2,73.6C311.1,328.4,285,346,256,346L256,346z"/>
	<g>
		<path class="st6" d="M304,202h-24c-4.4,0-8-3.6-8-8s3.6-8,8-8h24c4.4,0,8,3.6,8,8S308.4,202,304,202z"/>
		<circle class="st6" cx="290" cy="220" r="10"/>
		<path class="st6" d="M232,202h-24c-4.4,0-8-3.6-8-8s3.6-8,8-8h24c4.4,0,8,3.6,8,8S236.4,202,232,202z"/>
		<circle class="st6" cx="222" cy="220" r="10"/>
	</g>
	<path class="st3" d="M272,298h-32c-4.4,0-8-3.6-8-8s3.6-8,8-8h32c4.4,0,8,3.6,8,8S276.4,298,272,298z"/>
	<path class="st3" d="M264,266h-16c-4.4,0-8-3.6-8-8v-24c0-4.4,3.6-8,8-8s8,3.6,8,8v16h8c4.4,0,8,3.6,8,8S268.4,266,264,266z"/>
	<path class="st2" d="M176,194h-11.1c-11.6,0-20.9,9.4-20.9,20.9v14.1c0,3.3,0.8,6.5,2.2,9.4c3.5,7.1,10.8,11.6,18.7,11.6H179
		L176,194z"/>
	<path class="st2" d="M336,194h11.1c11.6,0,20.9,9.4,20.9,20.9v14.1c0,3.3-0.8,6.5-2.2,9.4c-3.5,7.1-10.8,11.6-18.7,11.6H333
		L336,194z"/>
	<path class="st7" d="M216,362l40,32l-48,24v-32L216,362z"/>
	<path class="st7" d="M296,362l-40,32l48,24v-32L296,362z"/>
	<path class="st5" d="M216,506h-40l-24-72l64-72V506z"/>
	<path class="st5" d="M296,506h40l24-72l-64-72V506z"/>
	<path d="M280,202h24c4.4,0,8-3.6,8-8s-3.6-8-8-8h-24c-4.4,0-8,3.6-8,8S275.6,202,280,202z"/>
	<circle cx="290" cy="220" r="10"/>
	<path d="M240,194c0-4.4-3.6-8-8-8h-24c-4.4,0-8,3.6-8,8s3.6,8,8,8h24C236.4,202,240,198.4,240,194z"/>
	<circle cx="222" cy="220" r="10"/>
	<path d="M272,282h-32c-4.4,0-8,3.6-8,8s3.6,8,8,8h32c4.4,0,8-3.6,8-8S276.4,282,272,282z"/>
	<path d="M64.5,428.8c-20,10-33.7,29.1-36.9,51.2l-3.6,24.9c-0.6,4.4,2.4,8.4,6.8,9.1c0.4,0.1,0.8,0.1,1.1,0.1h448c4.4,0,8-3.6,8-8
		c0-0.4,0-0.8-0.1-1.1l-3.6-24.9c-3.2-22.1-17-41.2-36.9-51.2L304,357.1v-19.3c11.3-8.7,20-20.2,25.3-33.4
		c6-14.9,10.2-30.5,12.5-46.4h5.3c11,0,21-6.2,25.9-16c2-4,3.1-8.5,3.1-12.9v-14.1c0-7.5-2.9-14.7-8.1-20l4.2-16.6
		c7.9-31.5,0-64.8-21.1-89.5c-21.9-29.1-59-42.6-94.5-34.3c-5.3,1.2-10.6,2.5-15.6,3.6c-22.7,5.2-42.2,19.7-53.8,39.9
		c-15.3,0.8-29.5,8.4-38.7,20.6c-8.3,11-11.8,24.8-9.8,38.4l5.4,38c-5.1,5.4-8,12.5-8,19.9v14.1c0,4.5,1.1,8.9,3.1,12.9
		c4.9,9.8,14.9,16,25.9,16h5.3c2.3,15.9,6.6,31.5,12.5,46.4c5.3,13.2,14,24.7,25.3,33.4v19.3L64.5,428.8z M88,498v-24
		c0-4.4-3.6-8-8-8s-8,3.6-8,8v24H41.2l2.3-15.7c2.4-16.9,13-31.5,28.2-39.2l110.7-55.4l-36.4,41c-1.9,2.1-2.5,5.1-1.6,7.8l20.5,61.5
		L88,498z M200,418v80h-18.2l-20.7-62.1L200,392V418z M440.3,443.1c15.3,7.6,25.8,22.3,28.2,39.2l2.3,15.7H440v-24c0-4.4-3.6-8-8-8
		s-8,3.6-8,8v24h-76.9l20.5-61.5c0.9-2.7,0.3-5.7-1.6-7.8l-36.4-41L440.3,443.1z M312,418v-26l38.9,43.8L330.2,498H312V418z
		 M224.8,498H216v-75.1l10.2-5.1l5.7,17L224.8,498z M241.2,392.4L216,405.1v-17.8l4-11.9L241.2,392.4z M224,358.2v-10.9
		c20.4,9,43.6,9,64,0v10.9l-32,25.6L224,358.2z M240.9,498l6.2-56h17.7l6.2,56H240.9z M266.2,426h-20.5l-5.1-15.4l15.4-7.7l15.4,7.7
		L266.2,426z M296,498h-8.8l-7-63.1l5.7-17l10.2,5.1L296,498z M296,405.1l-25.2-12.6l21.3-17l4,11.9L296,405.1z M360,229.1
		c0,2-0.5,4-1.4,5.8c-2.2,4.4-6.7,7.2-11.6,7.2h-3.5c0.3-4.7,0.5-9.4,0.5-14.2V202h3.1c7.1,0,12.9,5.8,12.9,12.9V229.1z M164.9,242
		c-4.9,0-9.4-2.8-11.6-7.2c-0.9-1.8-1.4-3.8-1.4-5.8v-14.1c0-7.1,5.8-12.9,12.9-12.9h3.1v25.8c0,4.7,0.2,9.5,0.5,14.2H164.9z
		 M169.1,165.9c-0.7,1.2-1.1,2.6-1.1,4.1v16h-3.1c-2,0-4,0.2-6,0.6l-4.5-31.8c-1.4-9.4,1.1-18.9,6.8-26.5c6.8-9,17.4-14.3,28.6-14.3
		h2.1c3,0,5.8-1.7,7.2-4.4c9-18.1,25.7-31.3,45.5-35.8c5-1.2,10.3-2.4,15.6-3.6c29.4-6.8,60.1,4.4,78.2,28.5
		c0.1,0.1,0.2,0.3,0.3,0.4c17.9,20.7,24.5,48.8,17.9,75.3l-3.1,12.4c-2.1-0.5-4.3-0.7-6.4-0.7H344v-16c0-4.4-3.6-8-8-8h-38.9
		c-34.4-0.1-67.2-13.9-91.4-38.3c-3.1-3.2-8.2-3.2-11.3-0.1c-0.5,0.5-0.9,1-1.3,1.6L169.1,165.9z M197.6,298.5
		c-9-22.5-13.6-46.4-13.6-70.6v-55.7l17.8-30.2c26.4,23.1,60.2,35.9,95.3,36H328v49.8c0,24.2-4.6,48.2-13.6,70.6
		c-12.9,32.3-49.5,47.9-81.8,35C216.7,327.1,204,314.4,197.6,298.5L197.6,298.5z"/>
	<path d="M240,258c0,4.4,3.6,8,8,8h16c4.4,0,8-3.6,8-8s-3.6-8-8-8h-8v-16c0-4.4-3.6-8-8-8s-8,3.6-8,8V258z"/>
</g>
</svg>
