<?xml version="1.0" encoding="utf-8"?>
<!-- Generator: Adobe Illustrator 23.0.1, SVG Export Plug-In . SVG Version: 6.00 Build 0)  -->
<svg version="1.1" id="Layer_1" xmlns="http://www.w3.org/2000/svg" xmlns:xlink="http://www.w3.org/1999/xlink" x="0px" y="0px"
	 viewBox="0 0 512 512" style="enable-background:new 0 0 512 512;" xml:space="preserve">
<style type="text/css">
	.st0{fill:#48351B;}
	.st1{fill:#332613;}
	.st2{fill:#5F4623;}
	.st3{fill:#6E5129;}
	.st4{fill:#E6AF89;}
	.st5{fill:#FDC9A6;}
	.st6{fill:#026CA2;}
	.st7{fill:#55300B;}
</style>
<g id="filled_outline">
	<path class="st0" d="M339.3,507h149.9l-3.7-25.9c-2.9-20.3-15.6-37.9-33.9-47l-153.9-77h-83.3l-153.9,77c-18.3,9.2-31,26.7-33.9,47
		L22.8,507h149.9"/>
	<path class="st1" d="M430.9,507v-33.3c0-4.6,3.7-8.3,8.3-8.3s8.3,3.7,8.3,8.3V507H430.9z"/>
	<path class="st2" d="M214.4,357.1l-66.6,33.3l25,50l41.6-33.3V357.1z"/>
	<path class="st3" d="M206,507h-33.3l-25-74.9l58.3-25V507z"/>
	<path class="st2" d="M297.6,357.1l66.6,33.3l-25,50l-41.6-33.3V357.1z"/>
	<path class="st3" d="M306,507h33.3l25-74.9l-58.3-25V507z"/>
	<path class="st4" d="M297.6,323.8v20.4c-0.1,0.1-0.2,0.1-0.3,0.2c-25.1,17-58,16.9-83-0.2v-20.4H297.6z"/>
	<path class="st5" d="M214.4,323.8v33.3l-8.3,25l50,50l50-50l-8.3-25v-33.3H214.4z"/>
	<path class="st4" d="M297.6,323.8v20.4c-0.1,0.1-0.2,0.1-0.3,0.2c-25.1,17-58,16.9-83-0.2v-20.4H297.6z"/>
	<path class="st6" d="M306,382.1l-50,50l-50-50V507H306V382.1z"/>
	<path class="st1" d="M64.5,507v-33.3c0-4.6,3.7-8.3,8.3-8.3c4.6,0,8.3,3.7,8.3,8.3V507H64.5z"/>
	<path class="st7" d="M147.7,207.2v-75c0-16,6.3-31.3,17.6-42.6L180.1,75c11.3-11.3,26.6-17.6,42.6-17.6h46.1
		c22.8,0,43.7,12.9,53.9,33.3c15.6,0,30.2,7.8,38.8,20.8c1.8,2.7,2.8,6,2.8,9.2v86.6H147.7z"/>
	<path class="st5" d="M256,340.5c-30.2,0-57.3-18.4-68.5-46.4c-9.7-24.4-14.8-50.4-14.8-76.6v-60.2l25-42.4h116.6l25,42.4v60.2
		c0,26.2-5,52.2-14.8,76.6C313.3,322.1,286.2,340.5,256,340.5L256,340.5z"/>
	<g>
		<path class="st7" d="M306,190.6h-25c-4.6,0-8.3-3.7-8.3-8.3c0-4.6,3.7-8.3,8.3-8.3h25c4.6,0,8.3,3.7,8.3,8.3
			C314.3,186.8,310.6,190.6,306,190.6z"/>
		<circle class="st7" cx="291.4" cy="209.3" r="10.4"/>
		<path class="st7" d="M231,190.6h-25c-4.6,0-8.3-3.7-8.3-8.3c0-4.6,3.7-8.3,8.3-8.3h25c4.6,0,8.3,3.7,8.3,8.3
			C239.3,186.8,235.6,190.6,231,190.6z"/>
		<circle class="st7" cx="220.6" cy="209.3" r="10.4"/>
	</g>
	<path class="st4" d="M272.7,290.5h-33.3c-4.6,0-8.3-3.7-8.3-8.3c0-4.6,3.7-8.3,8.3-8.3h33.3c4.6,0,8.3,3.7,8.3,8.3
		C281,286.8,277.3,290.5,272.7,290.5z"/>
	<path class="st4" d="M264.3,257.2h-16.7c-4.6,0-8.3-3.7-8.3-8.3v-25c0-4.6,3.7-8.3,8.3-8.3s8.3,3.7,8.3,8.3v16.7h8.3
		c4.6,0,8.3,3.7,8.3,8.3S268.9,257.2,264.3,257.2z"/>
	<path class="st5" d="M172.7,182.2h-11.5c-12,0-21.8,9.8-21.8,21.8v14.7c0,3.4,0.8,6.7,2.3,9.7c3.7,7.4,11.2,12.1,19.5,12.1h19.8
		L172.7,182.2z"/>
	<path class="st5" d="M339.3,182.2h11.5c12,0,21.8,9.8,21.8,21.8v14.7c0,3.4-0.8,6.7-2.3,9.7c-3.7,7.4-11.2,12.1-19.5,12.1h-19.8
		L339.3,182.2z"/>
	<path d="M281,190.6h25c4.6,0,8.3-3.7,8.3-8.3c0-4.6-3.7-8.3-8.3-8.3h-25c-4.6,0-8.3,3.7-8.3,8.3C272.7,186.8,276.4,190.6,281,190.6
		z"/>
	<circle cx="291.4" cy="209.3" r="10.4"/>
	<path d="M239.3,182.2c0-4.6-3.7-8.3-8.3-8.3h-25c-4.6,0-8.3,3.7-8.3,8.3c0,4.6,3.7,8.3,8.3,8.3h25
		C235.6,190.6,239.3,186.8,239.3,182.2z"/>
	<circle cx="220.6" cy="209.3" r="10.4"/>
	<path d="M272.7,273.8h-33.3c-4.6,0-8.3,3.7-8.3,8.3c0,4.6,3.7,8.3,8.3,8.3h33.3c4.6,0,8.3-3.7,8.3-8.3
		C281,277.6,277.3,273.8,272.7,273.8z"/>
	<path d="M22.8,515.3h466.3c4.6,0,8.3-3.7,8.3-8.3c0-0.4,0-0.8-0.1-1.2l-3.7-25.9c-3.3-23-17.6-42.9-38.4-53.3L306,352v-20
		c11.7-9,20.8-21,26.3-34.8c6.2-15.5,10.6-31.7,13-48.3h5.5c11.4,0,21.9-6.4,26.9-16.7c2.1-4.2,3.2-8.8,3.2-13.5V204
		c0-7.7-3-15.2-8.3-20.8v-67.7c0-1.6-0.5-3.3-1.4-4.6l-2.8-4.2c-9.2-13.8-24.2-22.7-40.7-24.3c-12.3-20.9-34.7-33.6-59-33.5h-46.1
		c-18.2,0-35.7,7.2-48.5,20.1l-14.7,14.7c-12.9,12.8-20.1,30.3-20.1,48.5v51c-5.3,5.6-8.3,13-8.3,20.8v14.7c0,4.7,1.1,9.3,3.2,13.5
		c5.1,10.2,15.5,16.7,26.9,16.7h5.5c2.4,16.6,6.8,32.8,13,48.3c5.5,13.7,14.6,25.8,26.3,34.8v20L56.7,426.6
		c-20.8,10.4-35.1,30.3-38.4,53.3l-3.7,25.9c-0.7,4.6,2.5,8.8,7.1,9.4C22,515.3,22.4,515.3,22.8,515.3L22.8,515.3z M368,401.6
		l79.9,39.9c15.9,7.9,26.9,23.2,29.4,40.8l2.3,16.4h-32v-25c0-4.6-3.7-8.3-8.3-8.3s-8.3,3.7-8.3,8.3v25h-80l21.3-64
		c1.4-4.1-0.6-8.6-4.6-10.3l-9-3.9L368,401.6z M333.3,498.7h-19v-79l39.6,17L333.3,498.7z M353.1,394.2l-9.9,19.8l-28.9-12.4
		c0,0,0-20.3-0.1-20.7c0-0.1-2.3-7.3-2.3-7.3L353.1,394.2z M297.6,498.7h-83.3v-96.5l35.7,35.8c3.3,3.3,8.5,3.3,11.8,0c0,0,0,0,0,0
		l35.7-35.8V498.7z M289.4,358.6c0.1,0.4,0.2,0.8,0.3,1.2l6.7,20.1L256,420.3l-40.4-40.4l6.7-20.1c0.1-0.4,0.3-1.3,0.3-1.4
		c0.1-0.4,0.1-16.6,0.1-16.6c21.2,9.3,45.4,9.3,66.6,0C289.3,341.8,289.4,358.5,289.4,358.6z M364.3,204v14.7c0,2.1-0.5,4.2-1.4,6
		c-2.3,4.6-6.9,7.5-12.1,7.4h-3.2v-41.6h3.2C358.2,190.6,364.3,196.6,364.3,204z M164.4,217.5v14.7h-3.2c-5.1,0-9.8-2.9-12.1-7.4
		c-0.9-1.9-1.4-3.9-1.4-6V204c0-7.4,6-13.5,13.5-13.5h3.2V217.5z M165.5,153c-0.8,1.3-1.2,2.7-1.2,4.2v16.7h-3.2
		c-1.7,0-3.4,0.2-5.1,0.4v-42.1c0-13.8,5.4-27,15.2-36.7l14.7-14.7c9.7-9.8,22.9-15.2,36.7-15.2h46.1c19.7-0.1,37.7,11.1,46.4,28.7
		c1.4,2.8,4.3,4.6,7.4,4.6c12.8,0,24.8,6.4,31.9,17.1l1.4,2.1v56.2c-1.7-0.3-3.4-0.4-5.1-0.4h-3.2v-16.7c0-1.5-0.4-2.9-1.2-4.2
		l-25-42.4c-1.5-2.5-4.2-4.1-7.2-4.1H197.7c-2.9,0-5.7,1.6-7.2,4.1L165.5,153z M195.2,291c-9.4-23.4-14.2-48.3-14.2-73.5v-57.9
		l21.4-36.3h107.1l21.4,36.3v57.9c0,25.2-4.8,50.1-14.2,73.5c-4.7,11.8-12.7,22-23.1,29.3c-0.5,0.3-1,0.6-1.5,1
		c-22,14.5-50.5,14.5-72.5,0c-0.5-0.4-1-0.7-1.5-1C207.9,312.9,199.9,302.8,195.2,291L195.2,291z M200.1,373.6c0,0-2.3,7.3-2.3,7.3
		c-0.1,0.4-0.1,20.7-0.1,20.7L168.8,414l-9.9-19.8L200.1,373.6z M197.7,419.7v79h-19l-20.7-62L197.7,419.7z M34.8,482.3
		c2.5-17.6,13.5-32.8,29.4-40.8l79.9-39.9l9.5,18.9l-9,3.9c-4,1.7-6,6.2-4.6,10.3l21.3,64h-80v-25c0-4.6-3.7-8.3-8.3-8.3
		c-4.6,0-8.3,3.7-8.3,8.3v25h-32L34.8,482.3z"/>
	<path d="M239.3,248.9c0,4.6,3.7,8.3,8.3,8.3h16.7c4.6,0,8.3-3.7,8.3-8.3s-3.7-8.3-8.3-8.3H256v-16.7c0-4.6-3.7-8.3-8.3-8.3
		s-8.3,3.7-8.3,8.3V248.9z"/>
</g>
</svg>
