<?xml version="1.0" encoding="utf-8"?>
<!-- Generator: Adobe Illustrator 23.0.1, SVG Export Plug-In . SVG Version: 6.00 Build 0)  -->
<svg version="1.1" id="Layer_1" xmlns="http://www.w3.org/2000/svg" xmlns:xlink="http://www.w3.org/1999/xlink" x="0px" y="0px"
	 viewBox="0 0 512 512" style="enable-background:new 0 0 512 512;" xml:space="preserve">
<style type="text/css">
	.st0{fill:#2E2C44;}
	.st1{fill:#EACA65;}
	.st2{fill:#F2DBC0;}
</style>
<g>
	<path class="st0" d="M363.9,374.2h-69.4L256,412.8l-38.6-38.6H148c-25.5,0-46.3,20.7-46.3,46.3v84.8h308.4v-84.8
		C410.2,394.9,389.5,374.2,363.9,374.2z"/>
	<path class="st1" d="M429.2,405.1c17-19,15.4-48.3-3.6-65.3c-8.5-7.6-19.5-11.8-30.8-11.8H387c12.8,0,23.1-10.4,23.1-23.1
		s-10.4-23.1-23.1-23.1h-7.7V185c0-66.4-51-123.6-117.4-126.7C193.9,55,136,107.5,132.8,175.5c-0.1,2-0.1,4-0.1,6v100.2h-7.7
		c-12.8,0-23.1,10.4-23.1,23.1s10.4,23.1,23.1,23.1h-7.7c-25.5,0-46.3,20.7-46.3,46.3c0,24.3,7,44.2,30.8,46.1v15.6
		c0,17,13.8,30.8,30.8,30.8h38.6c25.5,0,46.3-20.7,46.3-46.3s-20.7-46.3-46.3-46.3h208.2l23.1,23.1v7.7h23.1"/>
	<path class="st2" d="M334,196.9c-14.2,0-26.5-9.6-29.9-23.4l-17.3-61.5L271,167.7c-4.3,17.2-19.7,29.2-37.4,29.2h-62.5v46.3
		c0,31.9,17.9,61,46.3,75.5l0,0v55.6l38.6,38.6l38.6-38.6v-55.6l0,0c28.4-14.5,46.3-43.6,46.3-75.5v-46.3H334z"/>
	<path d="M94.1,505.3c0,4.3,3.5,7.7,7.7,7.7h308.4c4.3,0,7.7-3.5,7.7-7.7v-84.8c0-29.8-24.2-53.9-54-54h-61.7v-43.4
		c28.6-16.5,46.2-47,46.3-80v-38.6h7.7v-15.4H334c-10.7,0-20-7.3-22.5-17.7L294.2,110c-0.9-3.3-4-5.6-7.4-5.6l0,0
		c-3.4,0-6.5,2.3-7.4,5.6l-15.9,55.9c-3.4,13.7-15.8,23.4-29.9,23.4h-77.9v15.4h7.7v38.6c0,33,17.7,63.5,46.3,80v51.1
		c0,2,0.8,4,2.3,5.5l38.6,38.6c3,3,7.9,3,10.9,0l36.3-36.3h66.2c21.3,0,38.5,17.3,38.6,38.6v77.1h-293v-7.7H94.1L94.1,505.3
		L94.1,505.3z M178.9,243.2v-38.6h54.7c21.2,0.1,39.6-14.3,44.8-34.8l8.4-29.4l9.9,35c4.2,16.8,19.1,28.7,36.4,29.1v38.6
		c0,42.6-34.5,77.1-77.1,77.1S178.9,285.7,178.9,243.2z M256,401.9L225.1,371v-40.8c19.9,7.2,41.8,7.2,61.7,0V371L256,401.9z"/>
	<path d="M171.2,459h-38.6c-12.8,0-23.1-10.4-23.1-23.1H94.1c0,21.3,17.3,38.5,38.6,38.6h38.6c29.8,0,54-24.2,54-54
		c0-29.8-24.2-54-54-54H148v15.4h23.1c21.3,0,38.6,17.3,38.6,38.6C209.7,441.8,192.5,459,171.2,459z"/>
	<path d="M411.8,323.1c3.9-5.3,6.1-11.6,6.1-18.2c0-17-13.8-30.8-30.8-30.8v-89c1.1-71-53.9-130.2-124.8-134.4
		c-72.3-3.5-133.8,52.3-137.2,124.6c-0.1,2.1-0.2,4.2-0.2,6.3V274c-17,0-30.8,13.8-30.8,30.8c0,6.6,2.2,13,6.1,18.2
		c-28.3,9.5-43.5,40.1-34,68.3c7.4,22,27.9,36.8,51.1,36.8h46.3v-15.4h-46.3c-21.3,0-38.6-17.3-38.6-38.6s17.3-38.6,38.6-38.6h46.3
		v-15.4h-38.6c-8.5,0-15.4-6.9-15.4-15.4s6.9-15.4,15.4-15.4h7.7c4.3,0,7.7-3.5,7.7-7.7V181.5c0-63.9,51.8-115.7,115.6-115.7
		c1.9,0,3.7,0,5.6,0.1c62.6,3.9,111.1,56.3,110,119v96.7c0,4.3,3.5,7.7,7.7,7.7h7.7c8.5,0,15.4,6.9,15.4,15.4
		c0,8.5-6.9,15.4-15.4,15.4h-38.6v15.4h46.3c21.3,0,38.6,17.3,38.6,38.6c0,9.5-3.5,18.6-9.8,25.7l11.5,10.3
		c19.8-22.2,17.9-56.4-4.3-76.2C425.2,329.1,418.8,325.4,411.8,323.1L411.8,323.1z"/>
	<path d="M217.4,221.9c-7.5,0-13.5,6-13.5,13.5c0,7.5,6,13.5,13.5,13.5c7.5,0,13.5-6,13.5-13.5C230.9,228,224.9,222,217.4,221.9z
		 M215.5,235.4c0-1.1,0.9-1.9,1.9-1.9s1.9,0.9,1.9,1.9C219.4,237.6,215.5,237.6,215.5,235.4z"/>
	<path d="M294.5,248.9c7.5,0,13.5-6,13.5-13.5c0-7.5-6-13.5-13.5-13.5c-7.5,0-13.5,6-13.5,13.5C281,242.9,287.1,248.9,294.5,248.9z
		 M294.5,233.5c1.1,0,1.9,0.9,1.9,1.9c0,2.1-3.9,2.1-3.9,0C292.6,234.4,293.5,233.5,294.5,233.5z"/>
	<path d="M284.9,274h-11.6c0,9.6-7.8,17.3-17.3,17.3c-9.6,0-17.3-7.8-17.3-17.3h-11.6c0,16,12.9,28.9,28.9,28.9S284.9,290,284.9,274
		z"/>
</g>
</svg>
