<?xml version="1.0" encoding="utf-8"?>
<!-- Generator: Adobe Illustrator 23.0.1, SVG Export Plug-In . SVG Version: 6.00 Build 0)  -->
<svg version="1.1" id="Capa_1" xmlns="http://www.w3.org/2000/svg" xmlns:xlink="http://www.w3.org/1999/xlink" x="0px" y="0px"
	 viewBox="0 0 480 480" style="enable-background:new 0 0 480 480;" xml:space="preserve">
<style type="text/css">
	.st0{fill:#2E2C44;}
	.st1{fill:#EACA65;}
	.st2{fill:#F2DBC0;}
	.st3{fill:#48351B;}
	.st4{fill:#332613;}
	.st5{fill:#5F4623;}
	.st6{fill:#6E5129;}
	.st7{fill:#E6AF89;}
	.st8{fill:#FDC9A6;}
	.st9{fill:#026CA2;}
	.st10{fill:#55300B;}
</style>
<path class="st0" d="M352,336h-72l-40,40l-40-40h-72c-26.5,0-48,21.5-48,48v88h320v-88C400,357.5,378.5,336,352,336z"/>
<path class="st1" d="M419.8,368c17.7-19.8,16-50.1-3.8-67.8c-8.8-7.9-20.2-12.2-32-12.2h-8c13.3,0,24-10.7,24-24s-10.7-24-24-24h-8
	V139.6c0-68.9-53-128.2-121.8-131.5c-70.6-3.4-130.6,51.1-134,121.7c-0.1,2.1-0.2,4.1-0.1,6.2v104h-8c-13.3,0-24,10.7-24,24
	s10.7,24,24,24h-8c-26.5,0-48,21.5-48,48c0,25.2,7.3,45.8,32,47.8V400c0,17.7,14.3,32,32,32h40c26.5,0,48-21.5,48-48s-21.5-48-48-48
	h216l24,24v8h24"/>
<path class="st2" d="M321,152c-14.7,0-27.5-10-31-24.2L272,64l-16.4,57.7c-4.4,17.8-20.4,30.3-38.8,30.3H152v48
	c0,33.1,18.6,63.3,48,78.3l0,0V336l40,40l40-40v-57.7l0,0c29.4-15,48-45.3,48-78.3v-48H321z"/>
<path d="M72,472c0,4.4,3.6,8,8,8h320c4.4,0,8-3.6,8-8v-88c0-30.9-25.1-56-56-56h-64v-45c29.7-17.1,48-48.8,48-83v-40h8v-16h-23
	c-11.1,0-20.7-7.6-23.3-18.4l-17.9-63.8c-1-3.5-4.1-5.8-7.7-5.8l0,0c-3.6,0-6.7,2.4-7.7,5.8l-16.5,58c-3.6,14.2-16.3,24.2-31,24.2
	H136v16h8v40c0,34.3,18.3,65.9,48,83v53c0,2.1,0.8,4.2,2.3,5.7l40,40c3.1,3.1,8.2,3.1,11.3,0l37.7-37.7H352c22.1,0,40,17.9,40,40v80
	H88v-8H72L72,472L72,472z M160,200v-40h56.8c21.9,0.1,41.1-14.8,46.5-36.1l8.7-30.5l10.2,36.3c4.4,17.4,19.8,29.8,37.8,30.2V200
	c0,44.2-35.8,80-80,80S160,244.2,160,200z M240,364.7l-32-32v-42.3c20.7,7.5,43.3,7.5,64,0v42.3L240,364.7z"/>
<path d="M152,424h-40c-13.3,0-24-10.7-24-24H72c0,22.1,17.9,40,40,40h40c30.9,0,56-25.1,56-56s-25.1-56-56-56h-24v16h24
	c22.1,0,40,17.9,40,40S174.1,424,152,424z"/>
<path d="M401.7,282.9c4.1-5.5,6.3-12.1,6.3-18.9c0-17.7-14.3-32-32-32v-92.4C377.1,66,320,4.6,246.5,0.2
	c-75-3.6-138.8,54.3-142.4,129.3c-0.1,2.2-0.2,4.4-0.2,6.6v96c-17.7,0-32,14.3-32,32c0,6.8,2.2,13.4,6.3,18.9
	C49,292.7,33.2,324.5,43,353.8c7.6,22.8,29,38.1,53,38.2h48v-16H96c-22.1,0-40-17.9-40-40s17.9-40,40-40h48v-16h-40
	c-8.8,0-16-7.2-16-16s7.2-16,16-16h8c4.4,0,8-3.6,8-8V136c0-66.3,53.7-120,120-120c1.9,0,3.9,0,5.8,0.1c65,4,115.3,58.4,114.2,123.5
	V240c0,4.4,3.6,8,8,8h8c8.8,0,16,7.2,16,16c0,8.8-7.2,16-16,16h-40v16h48c22.1,0,40,17.9,40,40c0,9.8-3.6,19.3-10.2,26.7l11.9,10.7
	c20.6-23.1,18.6-58.5-4.5-79.1C415.5,289.2,408.9,285.4,401.7,282.9L401.7,282.9z"/>
<path d="M200,178c-7.7,0-14,6.3-14,14s6.3,14,14,14s14-6.3,14-14C214,184.3,207.7,178,200,178z M198,192c0-1.1,0.9-2,2-2s2,0.9,2,2
	C202,194.2,198,194.2,198,192z"/>
<path d="M280,206c7.7,0,14-6.3,14-14s-6.3-14-14-14s-14,6.3-14,14C266,199.7,272.2,206,280,206z M280,190c1.1,0,2,0.9,2,2
	c0,2.2-4,2.2-4,0C278,190.9,278.9,190,280,190z"/>
<path d="M270,232h-12c0,9.9-8.1,18-18,18s-18-8.1-18-18h-12c0,16.6,13.4,30,30,30S270,248.6,270,232z"/>
<g id="filled_outline">
	<path class="st3" d="M-158.7,471.9H-8.8l-3.7-25.9c-2.9-20.3-15.6-37.9-33.9-47l-153.9-77h-83.3l-153.9,77
		c-18.3,9.2-31,26.7-33.9,47l-3.7,25.9h149.9"/>
	<path class="st4" d="M-67.1,471.9v-33.3c0-4.6,3.7-8.3,8.3-8.3s8.3,3.7,8.3,8.3v33.3H-67.1z"/>
	<path class="st5" d="M-283.6,322l-66.6,33.3l25,50l41.6-33.3V322z"/>
	<path class="st6" d="M-292,471.9h-33.3l-25-74.9l58.3-25V471.9z"/>
	<path class="st5" d="M-200.4,322l66.6,33.3l-25,50l-41.6-33.3V322z"/>
	<path class="st6" d="M-192,471.9h33.3l25-74.9l-58.3-25V471.9z"/>
	<path class="st7" d="M-200.4,288.6v20.4c-0.1,0.1-0.2,0.1-0.3,0.2c-25.1,17-58,16.9-83-0.2v-20.4H-200.4z"/>
	<path class="st8" d="M-283.6,288.6V322l-8.3,25l50,50l50-50l-8.3-25v-33.3H-283.6z"/>
	<path class="st7" d="M-200.4,288.6v20.4c-0.1,0.1-0.2,0.1-0.3,0.2c-25.1,17-58,16.9-83-0.2v-20.4H-200.4z"/>
	<path class="st9" d="M-192,346.9l-50,50l-50-50v124.9h99.9V346.9z"/>
	<path class="st4" d="M-433.5,471.9v-33.3c0-4.6,3.7-8.3,8.3-8.3s8.3,3.7,8.3,8.3v33.3H-433.5z"/>
	<path class="st10" d="M-350.3,172.1v-75c0-16,6.3-31.3,17.6-42.6l14.7-14.7c11.3-11.3,26.6-17.6,42.6-17.6h46.1
		c22.8,0,43.7,12.9,53.9,33.3c15.6,0,30.2,7.8,38.8,20.8c1.8,2.7,2.8,6,2.8,9.2v86.6H-350.3z"/>
	<path class="st8" d="M-242,305.3c-30.2,0-57.3-18.4-68.5-46.4c-9.7-24.4-14.8-50.4-14.8-76.6v-60.2l25-42.4h116.6l25,42.4v60.2
		c0,26.2-5,52.2-14.8,76.6C-184.7,286.9-211.8,305.3-242,305.3L-242,305.3z"/>
	<g>
		<path class="st10" d="M-192,155.4h-25c-4.6,0-8.3-3.7-8.3-8.3c0-4.6,3.7-8.3,8.3-8.3h25c4.6,0,8.3,3.7,8.3,8.3
			C-183.7,151.7-187.4,155.4-192,155.4z"/>
		<circle class="st10" cx="-206.6" cy="174.1" r="10.4"/>
		<path class="st10" d="M-267,155.4h-25c-4.6,0-8.3-3.7-8.3-8.3c0-4.6,3.7-8.3,8.3-8.3h25c4.6,0,8.3,3.7,8.3,8.3
			C-258.7,151.7-262.4,155.4-267,155.4z"/>
		<circle class="st10" cx="-277.4" cy="174.1" r="10.4"/>
	</g>
	<path class="st7" d="M-225.3,255.3h-33.3c-4.6,0-8.3-3.7-8.3-8.3c0-4.6,3.7-8.3,8.3-8.3h33.3c4.6,0,8.3,3.7,8.3,8.3
		C-217,251.6-220.7,255.3-225.3,255.3z"/>
	<path class="st7" d="M-233.7,222h-16.7c-4.6,0-8.3-3.7-8.3-8.3v-25c0-4.6,3.7-8.3,8.3-8.3c4.6,0,8.3,3.7,8.3,8.3v16.7h8.3
		c4.6,0,8.3,3.7,8.3,8.3S-229.1,222-233.7,222z"/>
	<path class="st8" d="M-325.3,147.1h-11.5c-12,0-21.8,9.8-21.8,21.8v14.7c0,3.4,0.8,6.7,2.3,9.7c3.7,7.4,11.2,12.1,19.5,12.1h19.8
		L-325.3,147.1z"/>
	<path class="st8" d="M-158.7,147.1h11.5c12,0,21.8,9.8,21.8,21.8v14.7c0,3.4-0.8,6.7-2.3,9.7c-3.7,7.4-11.2,12.1-19.5,12.1h-19.8
		L-158.7,147.1z"/>
	<path d="M-217,155.4h25c4.6,0,8.3-3.7,8.3-8.3c0-4.6-3.7-8.3-8.3-8.3h-25c-4.6,0-8.3,3.7-8.3,8.3
		C-225.3,151.7-221.6,155.4-217,155.4z"/>
	<circle cx="-206.6" cy="174.1" r="10.4"/>
	<path d="M-258.7,147.1c0-4.6-3.7-8.3-8.3-8.3h-25c-4.6,0-8.3,3.7-8.3,8.3c0,4.6,3.7,8.3,8.3,8.3h25
		C-262.4,155.4-258.7,151.7-258.7,147.1z"/>
	<circle cx="-277.4" cy="174.1" r="10.4"/>
	<path d="M-225.3,238.7h-33.3c-4.6,0-8.3,3.7-8.3,8.3c0,4.6,3.7,8.3,8.3,8.3h33.3c4.6,0,8.3-3.7,8.3-8.3
		C-217,242.4-220.7,238.7-225.3,238.7z"/>
	<path d="M-475.2,480.2H-8.8c4.6,0,8.3-3.7,8.3-8.3c0-0.4,0-0.8-0.1-1.2l-3.7-25.9c-3.3-23-17.6-42.9-38.4-53.3L-192,316.8v-20
		c11.7-9,20.8-21,26.3-34.8c6.2-15.5,10.6-31.7,13-48.3h5.5c11.4,0,21.9-6.4,26.9-16.7c2.1-4.2,3.2-8.8,3.2-13.5v-14.7
		c0-7.7-3-15.2-8.3-20.8V80.5c0-1.6-0.5-3.3-1.4-4.6l-2.8-4.2c-9.2-13.8-24.2-22.7-40.7-24.3c-12.3-20.9-34.7-33.6-59-33.5h-46.1
		c-18.2,0-35.7,7.2-48.5,20.1l-14.7,14.7c-12.9,12.8-20.1,30.3-20.1,48.5v51c-5.3,5.6-8.3,13-8.3,20.8v14.7c0,4.7,1.1,9.3,3.2,13.5
		c5.1,10.2,15.5,16.7,26.9,16.7h5.5c2.4,16.6,6.8,32.8,13,48.3c5.5,13.7,14.6,25.8,26.3,34.8v20l-149.3,74.7
		c-20.8,10.4-35.1,30.3-38.4,53.3l-3.7,25.9c-0.7,4.6,2.5,8.8,7.1,9.4C-476,480.2-475.6,480.2-475.2,480.2L-475.2,480.2z
		 M-130,366.4l79.9,39.9c15.9,7.9,26.9,23.2,29.4,40.8l2.3,16.4h-32v-25c0-4.6-3.7-8.3-8.3-8.3s-8.3,3.7-8.3,8.3v25h-80l21.3-64
		c1.4-4.1-0.6-8.6-4.6-10.3l-9-3.9L-130,366.4z M-164.7,463.5h-19v-79l39.6,17L-164.7,463.5z M-144.9,359l-9.9,19.8l-28.9-12.4
		c0,0,0-20.3-0.1-20.7c0-0.1-2.3-7.3-2.3-7.3L-144.9,359z M-200.4,463.5h-83.3V367l35.7,35.8c3.3,3.3,8.5,3.3,11.8,0c0,0,0,0,0,0
		l35.7-35.8V463.5z M-208.6,323.4c0.1,0.4,0.2,0.8,0.3,1.2l6.7,20.1l-40.4,40.4l-40.4-40.4l6.7-20.1c0.1-0.4,0.3-1.3,0.3-1.4
		c0.1-0.4,0.1-16.6,0.1-16.6c21.2,9.3,45.4,9.3,66.6,0C-208.7,306.6-208.6,323.3-208.6,323.4z M-133.7,168.9v14.7
		c0,2.1-0.5,4.2-1.4,6c-2.3,4.6-6.9,7.5-12.1,7.4h-3.2v-41.6h3.2C-139.8,155.4-133.7,161.4-133.7,168.9z M-333.6,182.3V197h-3.2
		c-5.1,0-9.8-2.9-12.1-7.4c-0.9-1.9-1.4-3.9-1.4-6v-14.7c0-7.4,6-13.5,13.5-13.5h3.2V182.3z M-332.5,117.9c-0.8,1.3-1.2,2.7-1.2,4.2
		v16.7h-3.2c-1.7,0-3.4,0.2-5.1,0.4V97.1c0-13.8,5.4-27,15.2-36.7l14.7-14.7c9.7-9.8,22.9-15.2,36.7-15.2h46.1
		c19.7-0.1,37.7,11.1,46.4,28.7c1.4,2.8,4.3,4.6,7.4,4.6c12.8,0,24.8,6.4,31.9,17.1l1.4,2.1v56.2c-1.7-0.3-3.4-0.4-5.1-0.4h-3.2
		v-16.7c0-1.5-0.4-2.9-1.2-4.2l-25-42.4c-1.5-2.5-4.2-4.1-7.2-4.1h-116.6c-2.9,0-5.7,1.6-7.2,4.1L-332.5,117.9z M-302.8,255.8
		c-9.4-23.4-14.2-48.3-14.2-73.5v-57.9l21.4-36.3h107.1l21.4,36.3v57.9c0,25.2-4.8,50.1-14.2,73.5c-4.7,11.8-12.7,22-23.1,29.3
		c-0.5,0.3-1,0.6-1.5,1c-22,14.5-50.5,14.5-72.5,0c-0.5-0.4-1-0.7-1.5-1C-290.1,277.8-298.1,267.6-302.8,255.8L-302.8,255.8z
		 M-297.9,338.4c0,0-2.3,7.3-2.3,7.3c-0.1,0.4-0.1,20.7-0.1,20.7l-28.9,12.4l-9.9-19.8L-297.9,338.4z M-300.3,384.6v79h-19l-20.7-62
		L-300.3,384.6z M-463.2,447.1c2.5-17.6,13.5-32.8,29.4-40.8l79.9-39.9l9.5,18.9l-9,3.9c-4,1.7-6,6.2-4.6,10.3l21.3,64h-80v-25
		c0-4.6-3.7-8.3-8.3-8.3s-8.3,3.7-8.3,8.3v25h-32L-463.2,447.1z"/>
	<path d="M-258.7,213.7c0,4.6,3.7,8.3,8.3,8.3h16.7c4.6,0,8.3-3.7,8.3-8.3s-3.7-8.3-8.3-8.3h-8.3v-16.7c0-4.6-3.7-8.3-8.3-8.3
		c-4.6,0-8.3,3.7-8.3,8.3V213.7z"/>
</g>
</svg>
