<?xml version="1.0" encoding="utf-8"?>
<!-- Generator: Adobe Illustrator 23.0.1, SVG Export Plug-In . SVG Version: 6.00 Build 0)  -->
<svg version="1.1" id="Layer_1" xmlns="http://www.w3.org/2000/svg" xmlns:xlink="http://www.w3.org/1999/xlink" x="0px" y="0px"
	 viewBox="0 0 512 512" style="enable-background:new 0 0 512 512;" xml:space="preserve">
<style type="text/css">
	.st0{fill:#FFCD29;}
	.st1{fill:#231F20;}
</style>
<g>
	<g>
		<path class="st0" d="M301.3,250c0.5-0.5,0.5-1.3,0-1.8c-0.2-0.2-0.4-0.3-0.7-0.3l-30.3-4.4c-0.4-0.1-0.8-0.3-0.9-0.7l-13.6-27.5
			c-0.3-0.6-1-0.9-1.7-0.6c-0.3,0.1-0.4,0.3-0.6,0.6l-13.5,27.5c-0.2,0.3-0.5,0.6-0.9,0.7l-30.3,4.4c-0.7,0.1-1.1,0.8-1,1.4
			c0,0.3,0.2,0.5,0.3,0.7l22,21.4c0.3,0.3,0.4,0.7,0.3,1.1l-5.2,30.3c-0.1,0.7,0.3,1.3,1,1.4c0.3,0.1,0.5,0,0.8-0.1l27.2-14.3
			c0.3-0.2,0.8-0.2,1.2,0l27.2,14.3c0.6,0.3,1.4,0.1,1.7-0.5c0.1-0.3,0.2-0.5,0.1-0.8l-5.2-30.3c-0.1-0.4,0.1-0.9,0.3-1.1L301.3,250
			z"/>
		<path class="st1" d="M303.6,248c-0.4-1.2-1.4-2.1-2.7-2.3l-29.9-4.3l-13.4-27.1l0,0c-0.6-1.2-1.7-1.9-3-1.9l0,0
			c-1.3,0-2.5,0.8-3,1.9l-13.4,27.1l-29.9,4.3c-1.9,0.3-3.2,2-2.8,3.8c0.1,0.8,0.4,1.4,1,2l21.6,21l-5.1,29.7
			c-0.3,1.9,0.9,3.6,2.7,3.9c0.8,0.1,1.4,0,2.1-0.3l26.8-14.1l26.8,14.1c1.6,0.9,3.7,0.3,4.5-1.4c0.3-0.7,0.4-1.4,0.3-2.1l-5.1-29.7
			l21.6-21C303.7,250.6,304,249.2,303.6,248z M277.8,269.8c-0.8,0.8-1.2,1.9-0.9,3l4.9,28.5l-25.6-13.5c-1-0.5-2.1-0.5-3.2,0
			l-25.6,13.5l4.9-28.5c0.2-1.1-0.2-2.2-0.9-3l-20.7-20.2l28.5-4.2c1.1-0.2,2-0.9,2.6-1.9l12.8-25.9l12.8,25.9
			c0.5,1,1.4,1.7,2.6,1.9l28.5,4.2L277.8,269.8z"/>
	</g>
	<g>
		<path class="st0" d="M406,250c0.5-0.5,0.5-1.3,0-1.8c-0.2-0.2-0.4-0.3-0.7-0.3l-30.3-4.4c-0.4-0.1-0.8-0.3-0.9-0.7l-13.6-27.5
			c-0.3-0.6-1-0.9-1.7-0.6c-0.3,0.1-0.4,0.3-0.6,0.6l-13.5,27.5c-0.2,0.3-0.5,0.6-0.9,0.7l-30.3,4.4c-0.7,0.1-1.1,0.8-1,1.4
			c0,0.3,0.2,0.5,0.3,0.7l22,21.4c0.3,0.3,0.4,0.7,0.3,1.1l-5.2,30.3c-0.1,0.7,0.3,1.3,1,1.4c0.3,0.1,0.5,0,0.8-0.1l27.2-14.3
			c0.3-0.2,0.8-0.2,1.2,0l27.2,14.3c0.6,0.3,1.4,0.1,1.7-0.5c0.1-0.3,0.2-0.5,0.1-0.8l-5.2-30.3c-0.1-0.4,0.1-0.9,0.3-1.1L406,250z"
			/>
		<path class="st1" d="M408.3,248c-0.4-1.2-1.4-2.1-2.7-2.3l-29.9-4.3l-13.4-27.1l0,0c-0.6-1.2-1.7-1.9-3-1.9l0,0
			c-1.3,0-2.5,0.8-3,1.9l-13.4,27.1l-29.9,4.3c-1.9,0.3-3.2,2-2.8,3.8c0.1,0.8,0.4,1.4,1,2l21.6,21l-5.1,29.7
			c-0.3,1.9,0.9,3.6,2.7,3.9c0.8,0.1,1.4,0,2.1-0.3l26.8-14.1l26.8,14.1c1.6,0.9,3.7,0.3,4.5-1.4c0.3-0.7,0.4-1.4,0.3-2.1l-5.1-29.7
			l21.6-21C408.4,250.6,408.7,249.2,408.3,248z M382.5,269.8c-0.8,0.8-1.2,1.9-0.9,3l4.9,28.5l-25.6-13.5c-1-0.5-2.1-0.5-3.2,0
			l-25.6,13.5l4.9-28.5c0.2-1.1-0.2-2.2-0.9-3l-20.7-20.2l28.5-4.2c1.1-0.2,2-0.9,2.6-1.9l12.8-25.9l12.8,25.9
			c0.5,1,1.4,1.7,2.6,1.9l28.5,4.2L382.5,269.8z"/>
	</g>
	<g>
		<path class="st0" d="M511.7,250c0.5-0.5,0.5-1.3,0-1.8c-0.2-0.2-0.4-0.3-0.7-0.3l-30.3-4.4c-0.4-0.1-0.8-0.3-0.9-0.7l-13.6-27.5
			c-0.3-0.6-1-0.9-1.7-0.6c-0.3,0.1-0.4,0.3-0.6,0.6l-13.5,27.5c-0.2,0.3-0.5,0.6-0.9,0.7l-30.3,4.4c-0.7,0.1-1.1,0.8-1,1.4
			c0,0.3,0.2,0.5,0.3,0.7l22,21.4c0.3,0.3,0.4,0.7,0.3,1.1l-5.2,30.3c-0.1,0.7,0.3,1.3,1,1.4c0.3,0.1,0.5,0,0.8-0.1l27.2-14.3
			c0.3-0.2,0.8-0.2,1.2,0l27.2,14.3c0.6,0.3,1.4,0.1,1.7-0.5c0.1-0.3,0.2-0.5,0.1-0.8l-5.2-30.3c-0.1-0.4,0.1-0.9,0.3-1.1L511.7,250
			z"/>
		<path class="st1" d="M514,248c-0.4-1.2-1.4-2.1-2.7-2.3l-29.9-4.3L468,214.3l0,0c-0.6-1.2-1.7-1.9-3-1.9l0,0c-1.3,0-2.5,0.8-3,1.9
			l-13.4,27.1l-29.9,4.3c-1.9,0.3-3.2,2-2.8,3.8c0.1,0.8,0.4,1.4,1,2l21.6,21l-5.1,29.7c-0.3,1.9,0.9,3.6,2.7,3.9
			c0.8,0.1,1.4,0,2.1-0.3l26.8-14.1l26.8,14.1c1.6,0.9,3.7,0.3,4.5-1.4c0.3-0.7,0.4-1.4,0.3-2.1l-5.1-29.7l21.6-21
			C514.1,250.6,514.5,249.2,514,248z M488.2,269.8c-0.8,0.8-1.2,1.9-0.9,3l4.9,28.5l-25.6-13.5c-1-0.5-2.1-0.5-3.2,0l-25.6,13.5
			l4.9-28.5c0.2-1.1-0.2-2.2-0.9-3l-20.7-20.2l28.5-4.2c1.1-0.2,2-0.9,2.6-1.9l12.8-25.9l12.8,25.9c0.5,1,1.4,1.7,2.6,1.9l28.5,4.2
			L488.2,269.8z"/>
	</g>
	<g>
		<path class="st0" d="M197.6,250.1c0.5-0.5,0.5-1.3,0-1.8c-0.2-0.2-0.4-0.3-0.7-0.3l-30.3-4.4c-0.4-0.1-0.8-0.3-0.9-0.7L152,215.4
			c-0.3-0.6-1-0.9-1.7-0.6c-0.3,0.1-0.4,0.3-0.6,0.6l-13.5,27.5c-0.2,0.3-0.5,0.6-0.9,0.7l-30.3,4.4c-0.7,0.1-1.1,0.8-1,1.4
			c0,0.3,0.2,0.5,0.3,0.7l22,21.4c0.3,0.3,0.4,0.7,0.3,1.1l-5.2,30.3c-0.1,0.7,0.3,1.3,1,1.4c0.3,0.1,0.5,0,0.8-0.1l27.2-14.3
			c0.3-0.2,0.8-0.2,1.2,0l27.2,14.3c0.6,0.3,1.4,0.1,1.7-0.5c0.1-0.3,0.2-0.5,0.1-0.8l-5.2-30.3c-0.1-0.4,0.1-0.9,0.3-1.1
			L197.6,250.1z"/>
		<path class="st1" d="M199.9,248.2c-0.4-1.2-1.4-2.1-2.7-2.3l-29.9-4.3l-13.4-27.1l0,0c-0.6-1.2-1.7-1.9-3-1.9l0,0
			c-1.3,0-2.5,0.8-3,1.9l-13.4,27.1l-29.9,4.3c-1.9,0.3-3.2,2-2.8,3.8c0.1,0.8,0.4,1.4,1,2l21.6,21l-5.1,29.7
			c-0.3,1.9,0.9,3.6,2.7,3.9c0.8,0.1,1.4,0,2.1-0.3L151,292l26.8,14.1c1.6,0.9,3.7,0.3,4.5-1.4c0.3-0.7,0.4-1.4,0.3-2.1l-5.1-29.7
			l21.6-21C200,250.7,200.3,249.4,199.9,248.2z M174.1,270c-0.8,0.8-1.2,1.9-0.9,3l4.9,28.5L152.4,288c-1-0.5-2.1-0.5-3.2,0
			l-25.6,13.5l4.9-28.5c0.2-1.1-0.2-2.2-0.9-3l-20.7-20.2l28.5-4.2c1.1-0.2,2-0.9,2.6-1.9l12.8-25.9l12.8,25.9
			c0.5,1,1.4,1.7,2.6,1.9l28.5,4.2L174.1,270z"/>
	</g>
	<g>
		<path class="st0" d="M93.6,250c0.5-0.5,0.5-1.3,0-1.8c-0.2-0.2-0.4-0.3-0.7-0.3l-30.3-4.4c-0.4-0.1-0.8-0.3-0.9-0.7L48,215.2
			c-0.3-0.6-1-0.9-1.7-0.6c-0.3,0.1-0.4,0.3-0.6,0.6l-13.5,27.5c-0.2,0.3-0.5,0.6-0.9,0.7l-30.3,4.4c-0.7,0.1-1.1,0.8-1,1.4
			c0,0.3,0.2,0.5,0.3,0.7l22,21.4c0.3,0.3,0.4,0.7,0.3,1.1l-5.2,30.3c-0.1,0.7,0.3,1.3,1,1.4c0.3,0.1,0.5,0,0.8-0.1l27.2-14.3
			c0.3-0.2,0.8-0.2,1.2,0l27.2,14.3c0.6,0.3,1.4,0.1,1.7-0.5c0.1-0.3,0.2-0.5,0.1-0.8l-5.2-30.3c-0.1-0.4,0.1-0.9,0.3-1.1L93.6,250z
			"/>
		<path class="st1" d="M95.9,248c-0.4-1.2-1.4-2.1-2.7-2.3l-29.9-4.3l-13.4-27.1l0,0c-0.6-1.2-1.7-1.9-3-1.9l0,0
			c-1.3,0-2.5,0.8-3,1.9l-13.4,27.1l-29.9,4.3c-1.9,0.3-3.2,2-2.8,3.8c0.1,0.8,0.4,1.4,1,2l21.6,21l-5.1,29.7
			c-0.3,1.9,0.9,3.6,2.7,3.9c0.8,0.1,1.4,0,2.1-0.3L47,291.8l26.8,14.1c1.6,0.9,3.7,0.3,4.5-1.4c0.3-0.7,0.4-1.4,0.3-2.1l-5.1-29.7
			l21.6-21C96,250.6,96.3,249.2,95.9,248z M70.1,269.8c-0.8,0.8-1.2,1.9-0.9,3l4.9,28.5l-25.6-13.5c-1-0.5-2.1-0.5-3.2,0l-25.6,13.5
			l4.9-28.5c0.2-1.1-0.2-2.2-0.9-3L2.9,249.6l28.5-4.2c1.1-0.2,2-0.9,2.6-1.9l12.8-25.9l12.8,25.9c0.5,1,1.4,1.7,2.6,1.9l28.5,4.2
			L70.1,269.8z"/>
	</g>
</g>
</svg>
