<svg id="Capa_1" enable-background="new 0 0 512 512" height="512" viewBox="0 0 512 512" width="512" xmlns="http://www.w3.org/2000/svg"><g><g><g><g><path d="m443.834 279.926h5.845c20.771 0 37.542-17.123 36.969-38.023-.553-20.144-17.587-35.943-37.738-35.943h-32.06-55.431-64.562c-15.752 0-25.617-17.03-17.781-30.694 13.7-23.888 23.636-49.745 29.459-76.659l8.842-40.866c4.753-22.493-9.629-44.58-32.122-49.332-22.493-4.753-44.58 9.629-49.332 32.121l-4.283 20.27c-5.837 27.623-16.001 54.151-30.118 78.602l-27.63 47.856c-14.62 25.322-41.638 40.921-70.878 40.921v247.901h47.936c19.361 0 38.468 4.401 55.878 12.872 17.41 8.47 36.517 12.871 55.878 12.871h98.155 46.27 9.719v-1.299c15.709-4.269 27.264-18.623 27.264-35.684 0-17.06-11.555-31.415-27.264-35.683v-1.299h10.743c20.425 0 36.983-16.558 36.983-36.983 0-20.425-16.558-36.983-36.983-36.983h16.24c20.425 0 36.983-16.558 36.983-36.983.001-20.426-16.557-36.983-36.982-36.983z" fill="#ffddce"/></g><g fill="#ffcbbe"><path d="m261.274 57.74-8.842 40.866c-5.823 26.915-15.76 52.771-29.459 76.659-7.837 13.665 2.028 30.694 17.781 30.694h56.103c-15.752 0-25.617-17.03-17.781-30.694 13.7-23.888 23.636-49.745 29.459-76.659l8.842-40.866c4.753-22.493-9.629-44.58-32.122-49.332-13.623-2.878-27.089 1.27-36.653 9.98 10.524 9.62 15.833 24.393 12.672 39.352z"/><path d="m443.834 279.926h5.845c20.771 0 37.542-17.123 36.969-38.023-.553-20.144-17.587-35.943-37.738-35.943h-32.06-24.044c20.151 0 37.185 15.8 37.738 35.943.573 20.9-16.198 38.023-36.969 38.023h-5.845c20.425 0 36.983 16.558 36.983 36.983 0 20.425-16.558 36.983-36.983 36.983h-16.24c20.425 0 36.983 16.558 36.983 36.983 0 20.425-16.558 36.983-36.983 36.983h-10.743v1.299c15.709 4.269 27.264 18.623 27.264 35.683s-11.555 31.415-27.264 35.684v1.299h.114 46.27 9.719v-1.299c15.709-4.269 27.264-18.623 27.264-35.684 0-17.06-11.555-31.415-27.264-35.683v-1.299h10.743c20.425 0 36.983-16.558 36.983-36.983 0-20.425-16.558-36.983-36.983-36.983h16.24c20.425 0 36.983-16.558 36.983-36.983.001-20.426-16.557-36.983-36.982-36.983z"/></g><path d="m107.563 504.5h-58.196c-13.27 0-24.028-10.758-24.028-24.028v-258.846c0-13.27 10.758-24.028 24.028-24.028h58.196c13.27 0 24.028 10.758 24.028 24.028v258.846c0 13.27-10.758 24.028-24.028 24.028z" fill="#9bc4f9"/><path d="m107.563 197.597h-5.825c2.808 3.933 4.466 8.743 4.466 13.944v213.469c0 13.27-10.758 24.028-24.028 24.028h-56.838v31.434c0 13.27 10.758 24.028 24.028 24.028h58.196c13.27 0 24.028-10.758 24.028-24.028v-258.846c.001-13.271-10.757-24.029-24.027-24.029z" fill="#60a0f7"/></g></g><g><path d="m471.227 281.889c13.858-7.699 23.394-22.697 22.914-40.188-.654-23.841-20.947-43.237-45.235-43.237h-42.27c-4.107 0-7.688 3.165-7.811 7.27-.127 4.247 3.278 7.73 7.496 7.73h42.584c16.241 0 29.807 12.851 30.241 28.649.454 16.563-12.603 30.316-30.173 30.316-5.131 0-106.958 0-102.449 0-4.107 0-7.688 3.165-7.811 7.27-.127 4.247 3.278 7.73 7.496 7.73 2.047 0 98.31 0 96.993 0 16.042 0 29.62 12.554 30.096 28.589.495 16.662-12.916 30.376-29.469 30.376-20.33 0-99.825 0-97.306 0-4.107 0-7.688 3.165-7.811 7.27-.127 4.247 3.278 7.73 7.496 7.73h80.753c16.042 0 29.62 12.554 30.096 28.589.495 16.662-12.916 30.376-29.469 30.376h-70.746c-4.107 0-7.688 3.165-7.811 7.27-.127 4.247 3.278 7.73 7.496 7.73 26.141.202 52.335-.619 58.325 1.029.008.002.016.005.025.007 12.795 3.478 21.731 15.175 21.731 28.446 0 13.113-8.723 24.689-21.272 28.317-15.675 2.035-14.238.796-152.633 1.166-18.117 0-36.305-4.189-52.596-12.116-18.324-8.915-38.781-13.627-59.158-13.627h-11.859v-240.535c17.278-7.638 31.821-20.624 41.296-37.035 18.973-36.161 45.727-67.778 58.59-128.656 3.912-12.785 2.199-30.695 18.873-41.696 14.809-9.771 34.038-6.38 44.758 6.313 6.976 8.26 9.614 18.883 7.437 29.188-7.513 28.671-9.508 66.613-37.476 115.378-10.674 18.615 2.546 41.925 24.862 41.925h73.219c4.107 0 7.688-3.165 7.811-7.27.127-4.247-3.278-7.73-7.496-7.73h-73.737c-10.51 0-16.594-10.835-11.646-19.463 29.38-51.23 31.653-91.285 39.132-119.705 2.713-12.839.264-25.966-6.896-36.961-14.812-22.751-45.215-29.178-67.972-14.361-23.507 15.305-21.725 39.703-25.542 51.281-12.236 57.909-37.876 88.087-56.904 124.257-7.031 12.178-17.413 22.097-29.775 28.611-4.043-12.752-15.988-22.02-30.06-22.02h-58.195c-17.412 0-31.528 14.116-31.528 31.528v164.897c0 4.106 3.164 7.687 7.269 7.811 4.247.128 7.731-3.277 7.731-7.496v-165.212c0-9.128 7.4-16.528 16.528-16.528h58.196c9.128 0 16.528 7.4 16.528 16.528v258.843c0 9.128-7.4 16.528-16.528 16.528h-58.196c-9.128 0-16.528-7.4-16.528-16.528v-57.96c0-4.106-3.164-7.687-7.269-7.811-4.247-.128-7.731 3.277-7.731 7.496v58.275c0 17.412 14.116 31.528 31.528 31.528h58.196c16.336 0 29.807-12.489 31.373-28.42h12.109c18.423 0 36.506 4.437 53.113 12.411 18.166 8.723 38.394 13.332 58.546 13.332 136.747-.424 137.336 1.013 155.135-1.366 15.138-2.024 33.77-19.803 33.77-43.117 0-11.851-4.726-22.87-12.587-30.979 19.004-5.06 33.049-22.41 33.049-42.986 0-12.533-5.21-23.873-13.578-31.965 17.345-6.073 29.818-22.606 29.818-41.999 0-14.203-6.691-26.874-17.086-35.023z"/></g></g></svg>