<svg height="511pt" viewBox="-69 0 511 511.9968" width="511pt" xmlns="http://www.w3.org/2000/svg"><path d="m74.925781 372.734375v32.902344c0 6.234375 5.054688 11.289062 11.289063 11.289062h201.046875c6.238281 0 11.289062-5.054687 11.289062-11.289062v-32.902344c0-44.308594-35.917969-80.230469-80.230469-80.230469h-63.164062c-44.308594 0-80.230469 35.921875-80.230469 80.230469zm0 0" fill="#8cbafa"/><path d="m218.320312 292.503906h-25.3125c44.308594 0 80.230469 35.921875 80.230469 80.230469v32.902344c0 6.234375-5.054687 11.289062-11.289062 11.289062h25.3125c6.238281 0 11.289062-5.054687 11.289062-11.289062v-32.902344c.003907-44.308594-35.917969-80.230469-80.230469-80.230469zm0 0" fill="#5692d8"/><path d="m183.992188 253.207031c-29.4375 1.351563-53.476563 16.390625-55.292969 45.800781-1.523438 24.714844 12.402343 46.355469 33.035156 56.199219 2.074219.984375 4.414063-.574219 4.410156-2.871093 0-.015626 0-.035157 0-.050782 0-15.585937 9.21875-28.21875 20.59375-28.21875s20.597657 12.632813 20.597657 28.21875v.050782c-.003907 2.296874 2.335937 3.855468 4.410156 2.867187 19.597656-9.347656 33.144531-29.34375 33.144531-52.507813 0-33.027343-27.535156-51.027343-60.898437-49.488281zm0 0" fill="#e9e9ea"/><path d="m280.34375 62.125c-20.585938-46.023438-68.402344-63.644531-117.15625-46.023438-39.320312 14.210938-69.394531 1.367188-85.105469-7.644531-4.613281-2.644531-10.1875.507813-11.050781 6.238281-5.546875 36.699219-7.863281 126.921876 40.949219 166.65625h166.570312c19.566407-23.3125 64.082031-114.410156 5.792969-119.226562zm0 0" fill="#575b7a"/><path d="m280.34375 62.125c-18.871094-42.1875-60.625-60.488281-105.003906-49.675781 34.609375-1.050781 65.195312 17.511719 80.402344 52.675781 54.191406 4.628906 16.496093 89.007812-3.304688 116.226562h22.113281c19.566407-23.3125 64.082031-114.410156 5.792969-119.226562zm0 0" fill="#252d4c"/><path d="m142.550781 236.582031v39.828125c0 24.40625 19.785157 44.191406 44.1875 44.191406 24.40625 0 44.1875-19.785156 44.1875-44.191406v-39.828125zm0 0" fill="#ffd2c0"/><path d="m230.925781 276.410156v-39.828125h-88.375v39.554688c12.871094 10.34375 29.214844 16.546875 47.011719 16.546875h6.890625c12.117187 0 23.550781-2.886719 33.6875-7.980469.507813-2.6875.785156-5.457031.785156-8.292969zm0 0" fill="#edaa9d"/><path d="m281.054688 154.863281h-15.75v-12.066406c0-17.734375-8.207032-33.550781-21.023438-43.871094-4.015625-3.230469-9.59375-3.539062-14.011719-.886719-12.726562 7.632813-27.613281 12.027344-43.53125 12.027344s-30.804687-4.394531-43.53125-12.027344c-4.417969-2.652343-9.996093-2.347656-14.011719.886719-12.816406 10.320313-21.023437 26.136719-21.023437 43.871094v12.066406h-15.75c-10.386719 0-19.238281 8.078125-19.605469 18.457031-.386718 10.902344 8.332032 19.863282 19.148438 19.863282h16.207031v7.378906c0 41.488281 33.632813 75.121094 75.121094 75.121094h6.890625c41.488281 0 75.117187-33.632813 75.117187-75.121094v-7.382812h16.210938c10.8125 0 19.535156-8.957032 19.148437-19.859376-.367187-10.382812-9.21875-18.457031-19.605468-18.457031zm0 0" fill="#ffd2c0"/><path d="m300.800781 504.5h-228.121093c-35.722657 0-64.679688-28.957031-64.679688-64.679688 0-35.722656 28.957031-64.679687 64.679688-64.679687h228.117187c35.722656 0 64.679687 28.957031 64.679687 64.679687.003907 35.722657-28.957031 64.679688-64.675781 64.679688zm0 0" fill="#ed5176"/><g fill="#ffcd34"><path d="m109.441406 454.546875 3.828125 16.449219c1.308594 5.640625-4.808593 10.089844-9.769531 7.097656l-14.460938-8.722656c-2.082031-1.253906-4.6875-1.253906-6.769531 0l-14.460937 8.722656c-4.960938 2.992188-11.078125-1.453125-9.765625-7.097656l3.824219-16.449219c.550781-2.367187-.253907-4.84375-2.09375-6.4375l-12.761719-11.058594c-4.378907-3.792969-2.042969-10.984375 3.730469-11.480469l16.824218-1.445312c2.421875-.210938 4.53125-1.742188 5.476563-3.980469l6.574219-15.554687c2.253906-5.335938 9.816406-5.335938 12.074218 0l6.570313 15.554687c.949219 2.238281 3.054687 3.769531 5.476562 3.980469l16.824219 1.445312c5.773438.496094 8.109375 7.6875 3.730469 11.480469l-12.757813 11.058594c-1.835937 1.59375-2.640625 4.070313-2.09375 6.4375zm0 0"/><path d="m210.527344 454.546875 3.824218 16.449219c1.3125 5.640625-4.804687 10.089844-9.765624 7.097656l-14.460938-8.722656c-2.082031-1.253906-4.6875-1.253906-6.769531 0l-14.460938 8.722656c-4.960937 2.992188-11.082031-1.453125-9.769531-7.097656l3.824219-16.449219c.550781-2.367187-.253907-4.84375-2.089844-6.4375l-12.761719-11.058594c-4.378906-3.792969-2.042968-10.984375 3.730469-11.480469l16.824219-1.445312c2.421875-.210938 4.53125-1.742188 5.476562-3.980469l6.570313-15.554687c2.257812-5.335938 9.820312-5.335938 12.074219 0l6.574218 15.554687c.945313 2.238281 3.054688 3.769531 5.476563 3.980469l16.824219 1.445312c5.773437.496094 8.109374 7.6875 3.730468 11.480469l-12.761718 11.058594c-1.835938 1.59375-2.640626 4.070313-2.089844 6.4375zm0 0"/><path d="m311.609375 454.546875 3.828125 16.449219c1.308594 5.640625-4.808594 10.089844-9.769531 7.097656l-14.460938-8.722656c-2.082031-1.253906-4.6875-1.253906-6.769531 0l-14.460938 8.722656c-4.960937 2.992188-11.078124-1.453125-9.765624-7.097656l3.824218-16.449219c.550782-2.367187-.253906-4.84375-2.09375-6.4375l-12.761718-11.058594c-4.378907-3.792969-2.042969-10.984375 3.730468-11.480469l16.824219-1.445312c2.421875-.210938 4.53125-1.742188 5.476563-3.980469l6.574218-15.554687c2.253906-5.335938 9.816406-5.335938 12.074219 0l6.570313 15.554687c.945312 2.238281 3.054687 3.769531 5.476562 3.980469l16.824219 1.445312c5.773437.496094 8.109375 7.6875 3.730469 11.480469l-12.761719 11.058594c-1.832031 1.59375-2.640625 4.070313-2.089844 6.4375zm0 0"/></g><path d="m144.988281 155.433594c2.46875-3.480469 3.890625-3.902344 3.878907-3.921875.078124.019531 1.5.4375 3.96875 3.921875 2.394531 3.378906 7.074218 4.179687 10.457031 1.78125 3.378906-2.394532 4.175781-7.074219 1.78125-10.453125-4.820313-6.800781-10.257813-10.25-16.160157-10.25-5.90625 0-11.34375 3.449219-16.164062 10.25-2.394531 3.378906-1.59375 8.0625 1.785156 10.457031 1.316406.933594 2.832032 1.378906 4.328125 1.378906 2.351563 0 4.664063-1.101562 6.125-3.164062zm0 0"/><path d="m210.1875 157.21875c3.382812 2.394531 8.0625 1.59375 10.457031-1.785156 2.46875-3.480469 3.890625-3.902344 3.878907-3.921875.074218.019531 1.496093.441406 3.96875 3.921875 1.460937 2.066406 3.773437 3.164062 6.125 3.164062 1.5 0 3.011718-.445312 4.328124-1.378906 3.378907-2.394531 4.179688-7.078125 1.78125-10.457031-4.816406-6.800781-10.257812-10.246094-16.160156-10.246094s-11.34375 3.445313-16.160156 10.246094c-2.394531 3.378906-1.597656 8.058593 1.78125 10.457031zm0 0"/><path d="m153.453125 190.394531c-3.761719 1.734375-5.40625 6.191407-3.671875 9.953125 6.628906 14.371094 21.136719 23.65625 36.957031 23.65625 15.824219 0 30.328125-9.285156 36.957031-23.65625 1.734376-3.761718.09375-8.21875-3.667968-9.953125-3.761719-1.734375-8.21875-.089843-9.953125 3.671875-4.183594 9.074219-13.34375 14.9375-23.335938 14.9375-9.988281 0-19.148437-5.867187-23.335937-14.9375-1.734375-3.761718-6.1875-5.40625-9.949219-3.671875zm0 0"/><path d="m121.207031 418.097656-16.253906-1.398437-6.351563-15.027344c-2.203124-5.214844-7.285156-8.582031-12.945312-8.582031s-10.742188 3.367187-12.945312 8.582031l-6.351563 15.027344-16.257813 1.398437c-5.640624.484375-10.414062 4.273438-12.164062 9.660156-1.746094 5.382813-.113281 11.257813 4.164062 14.960938l12.332032 10.6875-3.695313 15.890625c-1.28125 5.515625.847657 11.226563 5.429688 14.554687 4.578125 3.324219 10.667969 3.585938 15.515625.664063l13.972656-8.425781 13.972656 8.425781c2.242188 1.355469 4.753906 2.023437 7.257813 2.023437 2.90625 0 5.800781-.902343 8.257812-2.6875 4.582031-3.328124 6.710938-9.039062 5.429688-14.554687l-3.695313-15.890625 12.332032-10.6875c4.277343-3.707031 5.910156-9.578125 4.160156-14.960938-1.746094-5.382812-6.523438-9.175781-12.164063-9.660156zm-14.582031 24.34375c-3.953125 3.421875-5.671875 8.710938-4.488281 13.804688l3.320312 14.269531-12.542969-7.566406c-4.476562-2.699219-10.039062-2.699219-14.515624 0l-12.542969 7.566406 3.320312-14.269531c1.183594-5.09375-.535156-10.382813-4.488281-13.804688l-11.070312-9.59375 14.59375-1.25c5.210937-.449218 9.707031-3.71875 11.746093-8.53125l5.699219-13.496094 5.703125 13.496094c2.035156 4.8125 6.535156 8.082032 11.742187 8.53125l14.59375 1.253906zm0 0"/><path d="m222.292969 418.097656-16.257813-1.398437-6.351562-15.027344c-2.203125-5.214844-7.285156-8.582031-12.945313-8.582031-5.660156 0-10.742187 3.367187-12.945312 8.582031l-6.351563 15.027344-16.253906 1.398437c-5.640625.484375-10.417969 4.273438-12.164062 9.660156-1.75 5.382813-.117188 11.257813 4.160156 14.960938l12.332031 10.6875-3.695313 15.890625c-1.28125 5.515625.851563 11.226563 5.429688 14.554687 2.457031 1.785157 5.351562 2.6875 8.257812 2.6875 2.503907 0 5.015626-.667968 7.261719-2.023437l13.96875-8.425781 13.972657 8.425781c4.847656 2.925781 10.9375 2.664063 15.519531-.664063 4.578125-3.328124 6.710937-9.039062 5.425781-14.554687l-3.695312-15.890625 12.332031-10.6875c4.277343-3.707031 5.914062-9.578125 4.164062-14.960938-1.75-5.382812-6.527343-9.175781-12.164062-9.660156zm-14.585938 24.34375c-3.949219 3.421875-5.667969 8.714844-4.484375 13.804688l3.316406 14.269531-12.542968-7.566406c-4.476563-2.699219-10.035156-2.699219-14.515625 0l-12.542969 7.566406 3.320312-14.269531c1.183594-5.09375-.535156-10.382813-4.484374-13.804688l-11.074219-9.59375 14.597656-1.25c5.207031-.449218 9.707031-3.71875 11.742187-8.53125l5.703126-13.496094 5.699218 13.496094c2.035156 4.8125 6.535156 8.082032 11.742188 8.53125l14.59375 1.25zm0 0"/><path d="m323.375 418.097656-16.253906-1.398437-6.351563-15.027344c-2.207031-5.214844-7.289062-8.582031-12.949219-8.582031-5.660156 0-10.738281 3.367187-12.941406 8.582031l-6.351562 15.027344-16.257813 1.398437c-5.640625.484375-10.414062 4.273438-12.164062 9.660156-1.746094 5.382813-.113281 11.253907 4.164062 14.960938l12.332031 10.6875-3.695312 15.890625c-1.28125 5.515625.847656 11.226563 5.425781 14.554687 4.582031 3.328126 10.671875 3.585938 15.519531.664063l13.972657-8.425781 13.972656 8.425781c2.242187 1.355469 4.753906 2.023437 7.257813 2.023437 2.90625 0 5.800781-.902343 8.261718-2.6875 4.578125-3.328124 6.707032-9.039062 5.425782-14.554687l-3.695313-15.890625 12.332031-10.6875c4.277344-3.707031 5.910156-9.578125 4.164063-14.960938-1.75-5.382812-6.527344-9.175781-12.167969-9.660156zm-14.585938 24.34375c-3.949218 3.421875-5.667968 8.714844-4.480468 13.804688l3.316406 14.269531-12.542969-7.566406c-4.476562-2.699219-10.039062-2.699219-14.515625 0l-12.542968 7.5625 3.316406-14.265625c1.183594-5.089844-.535156-10.382813-4.484375-13.804688l-11.070313-9.59375 14.59375-1.253906c5.207032-.445312 9.707032-3.714844 11.742188-8.53125l5.703125-13.492188 5.699219 13.492188c2.035156 4.816406 6.535156 8.085938 11.742187 8.53125l14.597656 1.253906zm0 0"/><path d="m305.925781 367.820312c-.625-11.414062-3.429687-22.417968-8.359375-32.769531-1.78125-3.742187-6.253906-5.328125-9.996094-3.546875-3.738281 1.777344-5.324218 6.253906-3.546874 9.996094 3.9375 8.265625 6.238281 17.039062 6.859374 26.140625h-208.28125c1.765626-25.246094 16.5625-47.667969 38.722657-59.308594 1.957031 23.046875 15.84375 43.464844 37.179687 53.640625 1.453125.691406 3.007813 1.039063 4.554688 1.039063 1.957031 0 3.90625-.550781 5.628906-1.644531 3.117188-1.972657 4.96875-5.363282 4.953125-9.082032 0-11.039062 6.121094-20.71875 13.097656-20.71875 6.980469 0 13.101563 9.679688 13.101563 20.738282-.019532 3.695312 1.832031 7.082031 4.941406 9.058593 3.078125 1.953125 6.886719 2.183594 10.195312.609375 21.023438-10.027344 35.164063-30.691406 37.164063-53.65625 5.742187 3.015625 11.050781 6.792969 15.871094 11.304688 1.445312 1.355468 3.285156 2.023437 5.121093 2.023437 2.003907 0 4.003907-.796875 5.480469-2.375 2.832031-3.023437 2.671875-7.769531-.351562-10.601562-7.917969-7.410157-16.945313-13.191407-26.882813-17.222657-1.734375-9.355468-5.6875-17.722656-11.699218-24.71875 20.816406-15.558593 33.09375-39.84375 33.125-66.050781h8.710937c7.300781 0 14.109375-2.894531 19.179687-8.148437 5.066407-5.25 7.714844-12.164063 7.457032-19.46875-.25-7.160156-3.472656-13.640625-8.464844-18.304688 8.929688-18.269531 25.308594-58.136718 12.109375-82.230468-6.253906-11.410157-17.113281-15.800782-26.425781-17.335938-10.996094-22.265625-28.328125-38.445312-50.34375-46.9375-22.839844-8.808594-48.5625-8.535156-74.386719.796875-27.054687 9.777344-53.574219 7.390625-78.820313-7.085937-4.222656-2.425782-9.148437-2.609376-13.515624-.5-4.640626 2.242187-7.886719 6.773437-8.691407 12.105468-2.367187 15.628906-3.367187 34.925782-2.75 52.941406.144531 4.140626 3.640625 7.382813 7.753907 7.238282 4.140624-.144532 7.378906-3.613282 7.238281-7.753906-.835938-24.332032 1.53125-43.195313 2.589843-50.1875.046876-.304688.140626-.519532.222657-.652344 29.160156 16.613281 59.792969 19.304687 91.070312 8.003906 45.800781-16.554688 89.109375.335938 107.761719 42.027344 1.117188 2.496094 3.503906 4.1875 6.230469 4.410156 9.414062.777344 15.597656 4.09375 18.910156 10.136719 8.265625 15.09375-.917969 44.914062-12.285156 68.152343-1.71875-.34375-3.488281-.523437-5.300781-.523437h-8.25v-4.5625c0-19.402344-8.683594-37.519531-23.8125-49.699219-6.390626-5.164062-15.460938-5.761718-22.582032-1.488281-11.953125 7.171875-25.671875 10.960937-39.671875 10.960937s-27.714843-3.792968-39.671875-10.960937c-7.117187-4.269531-16.191406-3.671875-22.570312 1.476563-15.140625 12.191406-23.824219 30.308593-23.824219 49.710937v4.5625h-8.25c-.691406 0-1.375.023437-2.054687.078125-7.617188-14.453125-12.984376-32.15625-15.984376-52.722656-.597656-4.097656-4.394531-6.933594-8.503906-6.339844-4.101562.601562-6.9375 4.40625-6.339844 8.503906 3.132813 21.46875 8.730469 40.214844 16.679688 55.851563-6.359375 4.703125-10.609375 12.0625-10.894531 20.316406-.261719 7.308594 2.386719 14.226563 7.457031 19.480469 5.066406 5.253906 11.878906 8.148437 19.179688 8.148437h8.707031c.035156 26.21875 12.324219 50.511719 33.15625 66.070313-6.035157 6.914062-10.023438 15.300781-11.75 24.714844-31.367188 12.753906-52.628907 42.550781-54.515625 76.355468-37.421875 2.636719-67.058594 33.921875-67.058594 72 0 39.800782 32.378906 72.179688 72.179688 72.179688h228.117187c39.800781 0 72.179687-32.378906 72.179687-72.179688 0-38.070312-29.636718-69.359375-67.050781-71.996094zm-146.746093-22.617187c-15.265626-9.871094-24.140626-27.175781-22.992188-45.734375.035156-.5625.078125-1.117188.132812-1.667969.011719-.097656.019532-.195312.027344-.292969.210938-2.015624.542969-3.957031 1.003906-5.824218 4.730469 15.273437 16.367188 27.539062 31.238282 33.132812-4.773438 5.082032-8.15625 12.183594-9.410156 20.386719zm64.246093-68.984375c-.050781.261719 1.085938 14.300781-10.738281 26.140625-6.9375 6.929687-16.152344 10.746094-25.949219 10.746094-20.230469 0-36.6875-16.460938-36.6875-36.691407v-.195312c20.816407 9.25 50.40625 10.050781 73.375 0zm-9.121093 68.96875c-1.246094-8.179688-4.625-15.273438-9.394532-20.355469 6.816406-2.554687 13.074219-6.5625 18.382813-11.867187 6.027343-6.035156 10.382812-13.292969 12.832031-21.210938.433594 1.773438.757812 3.609375.96875 5.503906.011719.269532.039062.535157.082031.796876.140625 1.511718.210938 3.054687.210938 4.640624 0 17.191407-8.878907 33.234376-23.082031 42.492188zm-98.632813-144.621094v-7.390625c0-4.140625-3.359375-7.496093-7.5-7.496093h-16.210937c-3.1875 0-6.167969-1.269532-8.386719-3.566407-2.214844-2.296875-3.371094-5.324219-3.257813-8.535156.214844-6.1875 5.644532-11.21875 12.105469-11.21875h15.75c4.140625 0 7.5-3.359375 7.5-7.5v-12.0625c0-14.835937 6.644531-28.699219 18.242187-38.035156 1.53125-1.238281 3.667969-1.351563 5.4375-.289063 14.285157 8.566406 30.671876 13.097656 47.386719 13.097656 16.714844 0 33.101563-4.53125 47.386719-13.097656 1.769531-1.0625 3.90625-.949218 5.449219.300782 11.585937 9.324218 18.234375 23.1875 18.234375 38.023437v12.0625c0 4.140625 3.355468 7.5 7.5 7.5h15.746094c6.460937 0 11.890624 5.03125 12.105468 11.21875v.007813c.113282 3.203124-1.042968 6.230468-3.257812 8.527343-2.21875 2.296875-5.195313 3.5625-8.386719 3.5625h-16.210937c-4.140626 0-7.5 3.359375-7.5 7.5v7.390625c0 37.640625-30.535157 67.617188-67.617188 67.617188-8.496094-.027344-25.1875 1.085937-43.566406-10.796875-19.378906-12.53125-30.949219-33.773438-30.949219-56.820313zm185.128906 296.433594h-228.121093c-31.527344 0-57.179688-25.648438-57.179688-57.179688 0-31.527343 25.652344-57.179687 57.179688-57.179687.101562 0 224.601562.003906 228.117187 0 31.53125 0 57.179687 25.652344 57.179687 57.179687 0 31.53125-25.648437 57.179688-57.175781 57.179688zm0 0"/></svg>