<svg id="_x33_0" enable-background="new 0 0 64 64" height="512" viewBox="0 0 64 64" width="512" xmlns="http://www.w3.org/2000/svg"><g><g><g><path d="m14 54h10 4v8h-15c-3.87 0-7-3.13-7-7v-9c0-1.1.45-2.1 1.17-2.83.73-.72 1.73-1.17 2.83-1.17 1.48 0 2.77.8 3.46 2 .34.59.54 1.27.54 2z" fill="#4fc1e9"/></g><g><path d="m24 53.21v.79h-10v-8c0-.73-.2-1.41-.54-2h1.3c1.37 0 2.63-.77 3.24-2 1.88 1.25 3.38 2.93 4.41 4.86 1.03 1.92 1.59 4.1 1.59 6.35z" fill="#4fc1e9"/></g><g><path d="m22 20c-.73 0-1.42-.2-2.57-.94-.71.6-1.62.94-2.57.94h-2.98c-1.72 0-3.25 1.1-3.79 2.74l-.09.26h-.67c-.92 0-1.75.37-2.35.98-.61.6-.98 1.43-.98 2.35 0 1.05.49 2.04 1.33 2.67l2.67 2v6l-1.87-1.4c-3.86-2.9-6.13-7.44-6.13-12.27 0-4.23 1.72-8.07 4.49-10.84s6.61-4.49 10.84-4.49h4.67c3.31 0 6 2.69 6 6 0 1.66-.67 3.16-1.76 4.24-.35.35-.73.65-1.16.9-.9.55-1.95.86-3.08.86z" fill="#b27946"/></g><g><path d="m32 26v12 12.02c.09-.01.17-.02.26-.02.96 0 1.74.78 1.74 1.74v2.26h.03c1.1.01 2.09.46 2.81 1.18s1.16 1.72 1.16 2.82c0 2.21-1.79 4-4 4h27c.55 0 1-.45 1-1v-23-12z" fill="#e6e9ed"/></g><g><path d="m32 26v-7c0-.55.45-1 1-1h28c.55 0 1 .45 1 1v7z" fill="#b4dd7f"/></g><g><path d="m56 46.5v11.5h-12v-12h12z" fill="#ff826e"/></g><g><path d="m36.84 55.18c.72.72 1.16 1.72 1.16 2.82 0 2.21-1.79 4-4 4h-6v-8l.3-.15c1.09-.54 1.92-1.5 2.3-2.66.21-.63.76-1.08 1.4-1.17.09-.01.17-.02.26-.02.96 0 1.74.78 1.74 1.74v2.26h.03c1.1.01 2.09.46 2.81 1.18z" fill="#f0d0b4"/></g><g><path d="m25.09 19.15s2.91 4.85 2.91 8.85l-2 1v2.52c0 .16-.01.32-.02.48-.23 2.88-2.51 5.23-5.44 5.5l-2.54.23v4.27c-.61 1.23-1.87 2-3.24 2h-1.3c-.69-1.2-1.98-2-3.46-2v-5-6l-2.67-2c-.84-.63-1.33-1.62-1.33-2.67 0-.92.37-1.75.98-2.35.6-.61 1.43-.98 2.35-.98h.67l.09-.26c.54-1.64 2.07-2.74 3.79-2.74h2.98c.95 0 1.86-.34 2.57-.94 1.15.74 1.84.94 2.57.94 1.13 0 2.18-.31 3.08-.86z" fill="#f0d0b4"/></g><g><path d="m62 6-3.09 2.18 1.42 3.82-3.33-2.36-3.33 2.36 1.42-3.82-3.09-2.18h3.82l1.18-4 1.18 4z" fill="#fcd770"/></g><g><path d="m52 6-3.09 2.18 1.42 3.82-3.33-2.36-3.33 2.36 1.42-3.82-3.09-2.18h3.82l1.18-4 1.18 4z" fill="#fcd770"/></g><g><path d="m42 6-3.09 2.18 1.42 3.82-3.33-2.36-3.33 2.36 1.42-3.82-3.09-2.18h3.82l1.18-4 1.18 4z" fill="#fcd770"/></g></g><g><path d="m21 23h-2c0 1.654 1.346 3 3 3s3-1.346 3-3h-2c0 .551-.449 1-1 1s-1-.449-1-1z"/><path d="m61 17h-28c-1.103 0-2 .897-2 2v30.304c-.623.32-1.114.875-1.346 1.572-.304.913-.945 1.652-1.805 2.082l-2.864.009c-.077-4.569-2.294-8.789-5.985-11.461v-2.866l1.634-.148c3.629-.33 6.366-3.327 6.366-6.971v-1.902l2-1v-.619c0-3.275-1.755-6.961-2.606-8.559 1.588-1.284 2.606-3.245 2.606-5.441 0-3.86-3.14-7-7-7h-4.667c-9.006 0-16.333 7.327-16.333 16.333 0 5.113 2.442 9.998 6.533 13.066l1.467 1.101v3.601c-2.279.465-4 2.485-4 4.899v9c0 4.411 3.589 8 8 8h48c1.103 0 2-.897 2-2v-42c0-1.103-.897-2-2-2zm0 2v6h-28v-6zm-38.014 33.974-7.986.026v-7c0-.347-.036-.686-.104-1.014 1.312-.037 2.518-.606 3.354-1.571 2.929 2.307 4.665 5.802 4.736 9.559zm3.991-25.58-1.977.988v2.618h-.764c-.998 0-1.895-.555-2.341-1.447l-1.789.895c.788 1.575 2.37 2.553 4.13 2.553h.523c-.581 1.892-2.229 3.311-4.306 3.5l-5.543.504.181 1.992 1.909-.174v2.884c-.47.794-1.301 1.293-2.236 1.293h-.79c-.721-.953-1.762-1.652-2.974-1.899v-10.601l-3.066-2.3c-.585-.438-.934-1.136-.934-1.867 0-1.286 1.047-2.333 2.333-2.333h1.387l.317-.949c.409-1.227 1.553-2.051 2.846-2.051h2.976c.915 0 1.806-.259 2.582-.728.751.452 1.62.728 2.559.728.946 0 1.848-.191 2.673-.533.726 1.38 2.108 4.304 2.304 6.927zm-18.244 7.406c-3.59-2.693-5.733-6.979-5.733-11.467 0-7.903 6.43-14.333 14.333-14.333h4.667c2.757 0 5 2.243 5 5s-2.243 5-5 5c-1.654 0-3-1.346-3-3 0-.551.449-1 1-1s1 .449 1 1v1h2v-1c0-1.654-1.346-3-3-3s-3 1.346-3 3c0 1.047.326 2.017.878 2.821-.325.117-.669.179-1.019.179h-2.976c-2.005 0-3.794 1.189-4.583 3-2.374.018-4.3 1.955-4.3 4.333 0 1.356.648 2.653 1.733 3.466l2.267 1.701v3.5zm-1.733 20.2v-9c0-1.654 1.346-3 3-3s3 1.346 3 3v7.586l-1.707 1.707 1.414 1.414 1.707-1.707h12.586v6h-14c-3.309 0-6-2.691-6-6zm27 6h-5v-6.415c1.202-.683 2.111-1.755 2.551-3.077.101-.304.385-.508.705-.508.411 0 .744.333.744.744v2.256l.032.993.992.007c1.641.014 2.976 1.359 2.976 3 0 1.654-1.346 3-3 3zm3.998 0c.628-.836 1.002-1.875 1.002-3 0-2.401-1.714-4.422-4-4.896v-1.361c0-1.255-.847-2.316-2-2.641v-22.102h28v34z"/><path d="m31.423 6.817 2.461 1.736-1.155 3.098c-.153.411-.021.874.327 1.142.349.269.83.278 1.188.023l2.756-1.951 2.755 1.951c.174.123.376.184.578.184.215 0 .43-.069.61-.208.348-.268.48-.73.327-1.142l-1.155-3.098 1.885-1.328 1.884 1.329-1.155 3.098c-.153.411-.021.874.327 1.142.348.269.831.278 1.188.023l2.756-1.951 2.755 1.951c.174.123.376.184.578.184.215 0 .43-.069.61-.208.348-.268.48-.73.327-1.142l-1.155-3.098 1.885-1.328 1.884 1.329-1.155 3.098c-.153.411-.021.874.327 1.142.349.269.831.278 1.188.023l2.756-1.951 2.755 1.951c.174.123.376.184.578.184.215 0 .43-.069.61-.208.348-.268.48-.73.327-1.142l-1.155-3.098 2.461-1.736c.356-.251.508-.704.376-1.119-.131-.415-.516-.697-.952-.697h-3.072l-.969-3.283c-.126-.425-.516-.717-.959-.717s-.833.292-.959.717l-.969 3.283h-3.072-3.072l-.969-3.283c-.126-.425-.516-.717-.959-.717s-.833.292-.959.717l-.969 3.283h-3.072-3.072l-.969-3.283c-.126-.425-.516-.717-.959-.717s-.833.292-.959.717l-.969 3.283h-3.072c-.436 0-.821.282-.953.698-.132.415.02.868.376 1.119zm24.397.183c.443 0 .833-.292.959-.717l.221-.749.221.75c.126.424.516.716.959.716h.667l-.515.363c-.371.262-.519.741-.36 1.166l.29.779-.685-.485c-.172-.122-.374-.184-.577-.184s-.405.062-.578.184l-.685.485.29-.779c.159-.425.011-.904-.36-1.166l-.515-.363zm-10 0c.443 0 .833-.292.959-.717l.221-.749.221.75c.126.424.516.716.959.716h.667l-.515.363c-.371.262-.519.741-.36 1.166l.29.779-.685-.485c-.172-.122-.374-.184-.577-.184s-.405.062-.578.184l-.685.485.29-.779c.159-.425.011-.904-.36-1.166l-.515-.363zm-10 0c.443 0 .833-.292.959-.717l.221-.749.221.75c.126.424.516.716.959.716h.667l-.515.363c-.371.262-.519.741-.36 1.166l.29.779-.685-.485c-.172-.122-.374-.184-.577-.184s-.405.062-.578.184l-.685.485.29-.779c.159-.425.011-.904-.36-1.166l-.515-.363z"/><path d="m57.219 43.375-1.299 1.625h-12.92v14h14v-12.149l1.781-2.226zm-2.219 13.625h-10v-10h9.32l-4.403 5.503-2.21-2.21-1.414 1.414 3.79 3.79 4.917-6.146z"/><path d="m35 21h2v2h-2z"/><path d="m39 21h2v2h-2z"/><path d="m43 21h2v2h-2z"/><path d="m35 29h6v2h-6z"/><path d="m43 29h16v2h-16z"/><path d="m35 33h6v2h-6z"/><path d="m43 33h16v2h-16z"/><path d="m35 37h20v2h-20z"/><path d="m57 37h2v2h-2z"/><path d="m35 41h12v2h-12z"/><path d="m35 45h2v2h-2z"/><path d="m39 45h2v2h-2z"/></g></g></svg>