<svg id="regular" enable-background="new 0 0 24 24" height="512" viewBox="0 0 24 24" width="512" xmlns="http://www.w3.org/2000/svg"><g><path d="m14.25 21h-4.5c-.414 0-.75-.336-.75-.75s.336-.75.75-.75h4.5c.414 0 .75.336.75.75s-.336.75-.75.75z"/></g><g><path d="m12 3.457c-.414 0-.75-.336-.75-.75v-1.957c0-.414.336-.75.75-.75s.75.336.75.75v1.957c0 .414-.336.75-.75.75z"/></g><g><path d="m18.571 6.179c-.192 0-.384-.073-.53-.22-.293-.293-.293-.768 0-1.061l1.384-1.384c.293-.293.768-.293 1.061 0s.293.768 0 1.061l-1.384 1.384c-.147.146-.339.22-.531.22z"/></g><g><path d="m23.25 12.75h-1.957c-.414 0-.75-.336-.75-.75s.336-.75.75-.75h1.957c.414 0 .75.336.75.75s-.336.75-.75.75z"/></g><g><path d="m19.955 20.705c-.192 0-.384-.073-.53-.22l-1.384-1.384c-.293-.293-.293-.768 0-1.061s.768-.293 1.061 0l1.384 1.384c.293.293.293.768 0 1.061-.147.147-.339.22-.531.22z"/></g><g><path d="m4.045 20.705c-.192 0-.384-.073-.53-.22-.293-.293-.293-.768 0-1.061l1.384-1.384c.293-.293.768-.293 1.061 0s.293.768 0 1.061l-1.384 1.384c-.147.147-.339.22-.531.22z"/></g><g><path d="m2.707 12.75h-1.957c-.414 0-.75-.336-.75-.75s.336-.75.75-.75h1.957c.414 0 .75.336.75.75s-.336.75-.75.75z"/></g><g><path d="m5.429 6.179c-.192 0-.384-.073-.53-.22l-1.384-1.384c-.293-.293-.293-.768 0-1.061s.768-.293 1.061 0l1.384 1.384c.293.293.293.768 0 1.061-.148.146-.339.22-.531.22z"/></g><g><path d="m15.75 12.5c-.414 0-.75-.336-.75-.75 0-1.517-1.233-2.75-2.75-2.75-.414 0-.75-.336-.75-.75s.336-.75.75-.75c2.343 0 4.25 1.907 4.25 4.25 0 .414-.336.75-.75.75z"/></g><g><path d="m13.25 24h-2.5c-.843 0-1.75-.64-1.75-2.044v-1.764c0-1.061-.452-2.035-1.209-2.605-2.185-1.645-3.196-4.351-2.639-7.062.545-2.656 2.694-4.813 5.347-5.368 2.109-.443 4.268.07 5.914 1.408 1.644 1.336 2.587 3.317 2.587 5.435 0 2.158-.975 4.161-2.675 5.498-.842.662-1.325 1.584-1.325 2.529v2.223c0 .965-.785 1.75-1.75 1.75zm-1.264-17.498c-.392 0-.787.041-1.182.123-2.076.434-3.757 2.122-4.184 4.201-.439 2.137.355 4.269 2.072 5.562 1.131.852 1.807 2.274 1.807 3.804v1.764c0 .091.012.544.25.544h2.5c.138 0 .25-.112.25-.25v-2.223c0-1.409.692-2.76 1.898-3.709 1.337-1.05 2.103-2.624 2.103-4.318 0-1.664-.742-3.221-2.034-4.271-.988-.802-2.213-1.227-3.48-1.227z"/></g></svg>