<?xml version="1.0" encoding="utf-8"?>
<!-- Generator: Adobe Illustrator 23.0.1, SVG Export Plug-In . SVG Version: 6.00 Build 0)  -->
<svg version="1.1" id="Capa_1" xmlns="http://www.w3.org/2000/svg" xmlns:xlink="http://www.w3.org/1999/xlink" x="0px" y="0px"
	 viewBox="0 0 512 512" style="enable-background:new 0 0 512 512;" xml:space="preserve">
<g>
	<g>
		<g>
			<path d="M298.7,25.6h-85.3c-4.7,0-8.5,3.8-8.5,8.5s3.8,8.5,8.5,8.5h85.3c4.7,0,8.5-3.8,8.5-8.5C307.2,29.4,303.4,25.6,298.7,25.6
				z"/>
		</g>
	</g>
	<g>
		<g>
			<path d="M358.4,25.6h-8.5c-4.7,0-8.5,3.8-8.5,8.5s3.8,8.5,8.5,8.5h8.5c4.7,0,8.5-3.8,8.5-8.5C366.9,29.4,363.1,25.6,358.4,25.6z"
				/>
		</g>
	</g>
	<g>
		<g>
			<path d="M266.6,435.2h-21.2c-13,0-23.5,10.6-23.5,23.5v4.1c0,13,10.6,23.5,23.5,23.5h21.2c13,0,23.5-10.6,23.5-23.5v-4.1
				C290.1,445.8,279.6,435.2,266.6,435.2z M273.1,462.9c0,3.6-2.9,6.5-6.5,6.5h-21.2c-3.6,0-6.5-2.9-6.5-6.5v-4.1
				c0-3.6,2.9-6.5,6.5-6.5h21.2c3.6,0,6.5,2.9,6.5,6.5V462.9z"/>
		</g>
	</g>
	<g>
		<g>
			<path d="M370.2,0H141.8c-17,0-30.8,13.8-30.8,30.8v450.3c0,17,13.8,30.8,30.8,30.8h228.4c17,0,30.8-13.8,30.8-30.8V30.8
				C401.1,13.8,387.2,0,370.2,0z M384,481.2c0,7.6-6.2,13.8-13.8,13.8H141.8c-7.6,0-13.8-6.2-13.8-13.8V30.8
				c0-7.6,6.2-13.8,13.8-13.8h228.4c7.6,0,13.8,6.2,13.8,13.8L384,481.2L384,481.2z"/>
		</g>
	</g>
	<g>
		<g>
			<path d="M392.5,51.2H119.5c-4.7,0-8.5,3.8-8.5,8.5v358.4c0,4.7,3.8,8.5,8.5,8.5h273.1c4.7,0,8.5-3.8,8.5-8.5V59.7
				C401.1,55,397.2,51.2,392.5,51.2z M384,409.6H128V68.3h256V409.6z"/>
		</g>
	</g>
</g>
</svg>
