<svg id="Layer_1" data-name="Layer 1" xmlns="http://www.w3.org/2000/svg" viewBox="0 0 997.31 1168.2"><defs><style>.cls-1{fill:#e6e6e7;}.cls-13,.cls-2,.cls-9{fill:#c32033;}.cls-12,.cls-14,.cls-15,.cls-2{stroke:#152c52;}.cls-12,.cls-13,.cls-14,.cls-15,.cls-2{stroke-miterlimit:10;}.cls-13,.cls-15,.cls-2{stroke-width:5px;}.cls-3{fill:#e9a287;}.cls-12,.cls-14,.cls-15,.cls-4{fill:#152c52;}.cls-5{fill:#e2997b;}.cls-6{fill:#eeedee;}.cls-7{fill:#412a1d;}.cls-8{fill:#fbfbfa;}.cls-10{fill:#231f20;}.cls-11{fill:#fff;}.cls-12{stroke-width:2px;}.cls-13{stroke:#c32033;}.cls-14{stroke-width:6px;}</style></defs><title>contact-man</title><path class="cls-1" d="M1551.37,620.48c4.27-27.32,13.4-54.1,9.07-82.36l-10,.16C1545.8,565.74,1548.12,593.11,1551.37,620.48Z" transform="translate(-1018.06 -280.19)"/><path class="cls-1" d="M1566.52,506.35l-34.17,16.48,42.06,42.66,69.66-40.74a61.95,61.95,0,0,1-35.47-30Z" transform="translate(-1018.06 -280.19)"/><path class="cls-2" d="M1417.83,1414.64l-7.08,1.7c-3.64,1.78-7.25,3.61-10.91,5.32s-4.49,3.27-5,3.86a15,15,0,0,0-3.08,10.09c.14,2.18.36,5.88,3,7.9,1.56,1.2,2.87,1,10.7,1.45,4.28.27,2.26.25,6,.44,5.72.29,11.48.26,17.22.45l89.81-1.5c-.46-7.49,2.88-13.51,7.14-19.32,4.91-6.71,16.38-4.62,18.89-14.35l-3.9-34.13-59.35.3c-8.65,25.19-32.43,27.07-52.78,34.24Z" transform="translate(-1018.06 -280.19)"/><path class="cls-2" d="M1549.17,1409.82a47.42,47.42,0,0,0-12.55,5.54,39.41,39.41,0,0,0-11,9.67,36.8,36.8,0,0,0-7.14,19.32l10.75,1.54,65-.69a27.59,27.59,0,0,1,3.46-.21,26.06,26.06,0,0,1,3.36.21q15.35-.12,30.71-.21,19.15-.12,38.33-.21l3.59,0a65.08,65.08,0,0,0-4.09-32.47,129.52,129.52,0,0,1-4.67-17.58,94.2,94.2,0,0,1-1.88-18.1l-59.26.18a38.19,38.19,0,0,1-10.51,16.34c-1.58,1.42-5.68,4.81-22.27,10.44C1565.59,1405.37,1558.19,1407.67,1549.17,1409.82Z" transform="translate(-1018.06 -280.19)"/><path class="cls-3" d="M1565.84,324.38c22.5.88,30.84,5,36.12,4.6a5.87,5.87,0,0,1,4.32,1.09,5.34,5.34,0,0,1,1.63,3.94c.92,24.74,25.09,44.43,15.44,71.57-1.21,3.41.58,7.91,4.65,8.33,4.49.47,5.38-3.69,5.69-7.5a39.26,39.26,0,0,1,5.89-15.3c2.15-3.39,6.6-7.29,16.88-9a35.47,35.47,0,0,1,2.65,23.34,49.36,49.36,0,0,1-4.18,24.34l-2.23,4q-2.49,5.14-5,10.3l-3.69,4.26.14-.24a7.5,7.5,0,0,0-3.33.71l-10.88,0c-9.08,10.32-6.61,23-7.43,35.09-.58,8.5,3.39,17.73-3.4,25.41,0-10.1,0-20.21,0-30.31,0-3.76-1.38-8.9-5.53-5.54-16.54,13.38-38.6,14.21-55.84,25.67-5.42-4.91-11.22-1.38-16.91-.81-27.48,2.76-41.59-8.95-43.63-36.35-.48-6.5-.42-13-.62-19.56-4.82-17.11-2.72-34.67-3.45-52.06l4.5-62.32C1500.21,327.73,1537.71,323.28,1565.84,324.38Zm-31.53,124c-3.74.52-9.63-1.74-10.16,4-.33,3.54,2.16,8,4.64,11,9.29,11.28,41.43,4.54,45.73-9.9,3.67-12.34-6.88-7.13-11.66-8.63C1553.1,446,1543.69,447,1534.31,448.33Zm31-85.84c-.11,1.93,25.86,19.12,28.41,18.7,4.09-.67,7.5-4.84,6.62-7.21-4.47-12-15.91-14.88-25.76-18.15C1568.54,355.14,1565.58,357.25,1565.29,362.49Zm-60.06,12.8c5.44-4.08,14.38-3.49,16.62-11.46,1-3.58-2.08-5.16-5.42-5-7.68.48-13.58,3.64-16.09,11.08C1500.57,373.54,1502.33,377.48,1505.23,375.29Z" transform="translate(-1018.06 -280.19)"/><path class="cls-4" d="M1477.88,1311.49l-1.34,33.73-.92,23c-.1,2.41-.09,5.12,1.59,6.86s4.38,1.84,6.8,1.83l56.64-.29c1.85,0,3.84-.06,5.34-1.16,2.11-1.55,2.42-4.53,2.54-7.15,3.71-78.35,4-156.65,7.62-234.91l11.23-241.45c.2-4.37,1.52-10,5.87-10.47,5.07-.53,7.07,6.34,7.2,11.44l2.64,104.1c.84,33,4.73,65.63,3,98.7q.09,7.27.19,14.55c6.37,84.84,4.81,170,11.13,254.92.34,4.5-3,11.73,6.32,11.62l59.26-.18c10.9,0,6.31-8.43,6.23-13.06-2.49-138.63-9.09-277.13-15.17-415.62q-1.05-24-2-48.07c-.51-12.87,3.19-28.06,1.31-40.31-.2-1.36-1-6.53-4.9-9.81-1.3-1.09-5.49-4.11-21.58-1-15,2.91-16.2,6.48-26,6.53-4,0-12.41,0-18.63-5.51-3.45-3.1-5.8-7.61-6.94-13.86q-3.2-17.48-6.43-34.95c-7.69,11.11-6.78,24.66-10,37-3.3,12.48-7.21,17.72-22,14.63-13.17-2.75-25.56-9.87-39.58-8.44-4,.41-5,109-5.38,118.58C1487.19,1078.64,1477.88,1195.47,1477.88,1311.49Z" transform="translate(-1018.06 -280.19)"/><path class="cls-5" d="M1481.86,405.37c3.92,12.75-3.58,30,14.76,37-4.83-17.1-2.73-34.67-3.46-52.05C1480.67,388.8,1482.35,397.91,1481.86,405.37Z" transform="translate(-1018.06 -280.19)"/><path class="cls-5" d="M1317.18,506a11.31,11.31,0,0,0-.89-3.75c-1.34-3.07-1.17-6.72-5.31-7-3.27-.24-4.25.4-5.55,3a27.77,27.77,0,0,0-2.57,7.71c-.42,2.7.49,6-1.2,8.39-2.77,3.88-9.3,2.43-13.33,2.45-1.16,2.14-10.37-3.85-4.92,4.59,2.43,3.75,9.89,6.86,6.29,11.22-9.6,11.62-7.23,27.79-16.52,39.16,3.7,9.24,13.23,8.07,19.69,8.48,16.61,1.06,24.52-8.48,27.14-25.05,1.42-9-.64-17.94-2.12-26.78a75.77,75.77,0,0,1-1.34-13.27C1316.58,511.93,1317.38,509,1317.18,506Z" transform="translate(-1018.06 -280.19)"/><path class="cls-5" d="M1557.77,499.13c.66,10.35,9.17,16.09,14,24,2.68,4.34,6.18,5.23,10.58,3.21,12.27-5.62,24.5-11.31,36.75-17,0-10.11,0-20.22,0-30.32,0-3.76-1.38-8.9-5.53-5.54C1597.07,486.85,1575,487.68,1557.77,499.13Z" transform="translate(-1018.06 -280.19)"/><path class="cls-6" d="M1562.86,444.81c-9.76,1.19-19.17,2.23-28.55,3.52-3.74.52-9.63-1.74-10.16,4-.33,3.54,2.16,8,4.64,11,9.29,11.28,41.43,4.54,45.73-9.9C1578.19,441.1,1567.64,446.31,1562.86,444.81Z" transform="translate(-1018.06 -280.19)"/><path class="cls-7" d="M1574.56,355.83c-6-.69-9,1.42-9.27,6.66-.11,1.93,25.86,19.12,28.41,18.7,4.09-.67,7.5-4.84,6.62-7.21C1595.85,362,1584.41,359.1,1574.56,355.83Z" transform="translate(-1018.06 -280.19)"/><path class="cls-7" d="M1500.34,370c.23,3.59,2,7.53,4.89,5.34,5.44-4.08,14.38-3.49,16.62-11.46,1-3.58-2.08-5.16-5.42-5C1508.75,359.35,1502.85,362.51,1500.34,370Z" transform="translate(-1018.06 -280.19)"/><path class="cls-8" d="M1644,448.33l3.69-4.25Z" transform="translate(-1018.06 -280.19)"/><path class="cls-8" d="M1652.7,433.77l2.23-4Q1653.81,431.77,1652.7,433.77Z" transform="translate(-1018.06 -280.19)"/><path class="cls-9" d="M1567.79,801c1.79,12.42,2.7,19.63,5.62,30.29,3.42,12.51,6,16.47,9.37,19.29,5.66,4.69,12.17,5,21.35,5.37,7.78.34,9.55-.75,34.72-4.72,10.73-1.69,11.57-1.91,13.66-3,10.86-5.82,12.29-21,9.48-33-3.09-13.2-7.37-24.71-6.9-38.48.57-16.46,4.48-32.43,8-48.45,2.36-10.9,5.07-21.72,7.82-32.52,1.46-5.73,10.06-25.43,7.8-30.52,15.57,35,30.4,70.93,36.61,109a243.1,243.1,0,0,1,2.22,59.28c-.92,11.13-9.39,30.91-2.33,41a19.4,19.4,0,0,0,10.48,7.34c6.19,1.5,9.9-1.7,17.4-1a26.7,26.7,0,0,1,11.77,4.1,33.88,33.88,0,0,0,6.78-7.87c7-11.22,6.57-27.78,7.9-40.51,2.8-26.8,4.29-53.49-.93-80-4.93-25.1-13.19-49.41-21.64-73.51-14.18-40.42-27.3-83.89-51.57-119.63-9.84-14.48-23.33-27.09-39.91-32.68l-21.28,68c-6.65,21.28-14,43.71-31,58.22a24.94,24.94,0,0,0-6.26,6.6,25.79,25.79,0,0,0-3.65,12.82c-.53,10.6-5.69,47.27-22.25,57.5-1.81,1.12-5.74,3.24-7.93,7.75-2.33,4.79-1.07,9.75-.62,11.73C1566,769,1565.51,785.19,1567.79,801Z" transform="translate(-1018.06 -280.19)"/><path class="cls-9" d="M1568.81,800.94q-3.54-28.85-7.09-57.68-.08-10.72-.17-21.46c-19.08-10.09-29.28-29.88-25.68-50.14,1.21-6.84.31-12.82-4.43-18.36-10.16-11.86-9.86-25.2-7.75-40.22,4.2-29.9,5.92-60.15,8.66-90.25-.07.81-37.21,17.48-41.24,20.46a103,103,0,0,0-30.29,34.81c-13.29,25.53-25.21,51.74-37.12,77.94-6.35,14-12.33,50.49-31.07,52.89-10.91,1.39-17.86-11-21.62-21.39q-18.46-50.94-37-101.86c-1.22-3.36-3-7.21-6.47-7.93a10.53,10.53,0,0,0-5.32.75l-18.13,5.85c-3.29,1.07-6.78,2.27-8.89,5s-1.87,7.52,1.3,8.91c-3-1.31-6.6,1.47-7.36,4.7s.39,6.57,1.54,9.68c15.32,41.53,29.61,88.21,54.9,124.57,22.52,32.36,45.95,37.27,79.26,16.88q8.73-10.87,17.44-21.76l38-62.25,3.78.66c1.23.21,5.6,52,6.25,57.17q2.82,22.35,4,44.85c.63,12.82-3.85,23.46-4.12,35.45-.28,12.48-4.66,25.77,7.06,35.89,14-1.43,26.41,5.69,39.58,8.44,14.77,3.09,18.68-2.15,22-14.63C1562,825.6,1561.12,812.05,1568.81,800.94Z" transform="translate(-1018.06 -280.19)"/><path class="cls-4" d="M1533,520.58c-4.08,3.48-1.43,10.74-2,17.91-.7,8.39-1.36,16.79-2.06,25.18-1.39,16.51-2.94,33-5.25,49.41-2.11,15-2.41,28.36,7.75,40.22a20.24,20.24,0,0,1,3.83,6.53,22.51,22.51,0,0,1,.6,11.83c-2.51,13.29,3.68,34.82,4.53,37.78,2.1,7.33,7.14,19.69,21.07,32.79q.33-8.13.59-16.4c.17-5.44.3-10.84.42-16.19-3.13-29.79-11.86-58.88-11.11-89.16a359.61,359.61,0,0,1-2-83.89c.13-2.69.39-6.68,1-11.53.73-6.23,1.34-8.56,0-9.61-.91-.71-2.09-.37-10.57,2.56C1533.68,520.11,1533.44,520.23,1533,520.58Z" transform="translate(-1018.06 -280.19)"/><path class="cls-9" d="M1551.11,621c.48,12.95,1.44,26.72,3.05,41.21,2.13,19.17,5.1,36.93,8.48,53.12a13.07,13.07,0,0,0,7.61-1.17,14.81,14.81,0,0,0,5.27-5.27c3.22-5.36,6.12-22.33,7.09-45.23-6-34.51-2-69.25-2-103.87,0-5.64,3.78-11.18,9.51-14.21a17.14,17.14,0,0,0-11.4-14.39c-7.45-2.42-16.11,1.08-20.26,8.6a58.34,58.34,0,0,1,3.06,14.66c.18,2.44.45,8.15-2.45,23.81-1.43,7.75-2.12,9.71-3.66,17.1C1554.14,601.27,1552.49,610,1551.11,621Z" transform="translate(-1018.06 -280.19)"/><path class="cls-1" d="M1590.09,545.55c-5.73,3-9.51,8.57-9.51,14.21,0,34.62-4,69.36,2,103.87,13.42-43,29.26-85.14,40.33-128.83C1611.1,535.67,1602.65,546.88,1590.09,545.55Z" transform="translate(-1018.06 -280.19)"/><path class="cls-3" d="M1288.33,516.77c-10.11-3.36-22.16-10.37-28.26,3.74-10,23.16-6.57,44.75,13.11,51.23,9.29-11.37,6.92-27.54,16.52-39.16,3.6-4.36-3.86-7.47-6.29-11.22C1278,512.92,1287.17,518.91,1288.33,516.77Z" transform="translate(-1018.06 -280.19)"/><path class="cls-3" d="M1736.7,999.81a17.35,17.35,0,0,0,2.32.24c8.26.26,21-5.39,25.06-12.75,4.52-8.19,1.94-18.6,1.94-27.39a177.29,177.29,0,0,0-3.24-33.23c-1.86-9.46-9.28-19.45-8.8-28.87.43-8.55,1-10.92-7.93-12.16a40.68,40.68,0,0,0-16.8.82c-11.09,3.15-18.87,12-23.86,22-3,10.27-5.62,20.64-9,30.76-2.31,6.9-3.53,14.31,4.82,16,7.62,1.52,5.41-7.08,7.14-11.52.8-2,2.35-3.79,4.07-6.48,8,6.59,8.23,15,8.86,23s-.62,16.49,1.32,24.45C1724.33,991.86,1729.13,998.46,1736.7,999.81Z" transform="translate(-1018.06 -280.19)"/><rect class="cls-10" x="1563.72" y="379.02" width="20.82" height="20.82" rx="10.41" transform="translate(2130.21 498.67) rotate(180)"/><rect class="cls-10" x="1507.22" y="379.77" width="20.82" height="20.82" rx="10.41" transform="translate(2017.2 500.17) rotate(-180)"/><rect class="cls-11" x="1566.7" y="386.14" width="6.97" height="6.97" rx="3.48" transform="translate(2122.31 499.05) rotate(-180)"/><rect class="cls-11" x="1509.65" y="386.54" width="6.97" height="6.97" rx="3.48" transform="translate(2008.21 499.86) rotate(-180)"/><path class="cls-4" d="M1655.32,531.08c-7.48-6.21-16.29-10-25.14-13.74l-7.24,17.46c-5,19.81-11,39.31-17.33,58.71-12.65,38.89-17.48,48.52-23,70.12-2.38,9.32-6.91,18.08-8.61,27.56-1.17,6.52-1.81,13.49-7,16.79-3.16,2-6.85,1.92-9.46,1.53a89.17,89.17,0,0,1,1.61,22.18q1.33,5.7,2.66,11.4c3-2.2,22.84-16.64,30.71-31.31a34.32,34.32,0,0,0,4.1-11.12c1.1-6.6-.78-8.64-.51-15.81a43.43,43.43,0,0,1,4.61-17.56c1.92-3.91,3.53-5.67,10.56-14.19,6.44-7.81,10.44-12.66,12.27-15.08,5.21-6.9,6.29-11.88,13.07-38.53,4.48-17.58,7.52-29.18,9.07-35C1649.54,550.05,1653,538.44,1655.32,531.08Z" transform="translate(-1018.06 -280.19)"/><path class="cls-7" d="M1527.07,291.62a184.13,184.13,0,0,0-24.44,11.2c-6,3.38-11.63,5.86-18.75,4.55a24.1,24.1,0,0,1-13.23-7.44c-.2,1-2.63,14.57,7.06,23.86a25.48,25.48,0,0,0,15.83,6.77c23-3.27,46.27,2.9,69.52-4.37,11.58-3.62,25.12,4.41,38.24,2.79,3.44-.43,6,1.35,6.13,5,1,24.74,25.82,44.43,15.89,71.57-1.25,3.41.6,7.91,4.79,8.33a4.78,4.78,0,0,0,3-.56c1.71-1,1.84-3,2.81-6.94a63,63,0,0,1,2.67-8.62,32.41,32.41,0,0,1,3.4-6.27c4.31-5.89,12.06-7.48,15.45-8,1.34-.19,3.77-17.63,4.11-19.6a163,163,0,0,0,2.39-21.58c.38-10.58.77-22.05-2.87-32.16-3.42-9.5-15.47-21.1-25.28-23.89l-4.95-1.41-.28-.12a173,173,0,0,0-101.53,6.82Z" transform="translate(-1018.06 -280.19)"/><path class="cls-12" d="M1998.85,490.17h-131.5a14,14,0,0,0-14,14v95a14,14,0,0,0,14,14h47.12l-4.11,18.2h-19.72v9.35h84.92v-9.35h-19.71l-4.11-18.2h47.11a14,14,0,0,0,14-14v-95A14,14,0,0,0,1998.85,490.17Zm-131.5,9.35h131.5a4.68,4.68,0,0,1,4.68,4.67V579H1862.68V504.19A4.67,4.67,0,0,1,1867.35,499.52Zm74.8,113.74,4.11,18.2h-26.32l4.11-18.2Zm56.7-9.35h-131.5a4.68,4.68,0,0,1-4.67-4.68v-10.9h140.85v10.9A4.69,4.69,0,0,1,1998.85,603.91Z" transform="translate(-1018.06 -280.19)"/><path class="cls-12" d="M1898.47,551.68l31.47-31.47,6.61,6.61-31.47,31.47Z" transform="translate(-1018.06 -280.19)"/><path class="cls-12" d="M1929.63,551.68l31.47-31.47,6.61,6.61-31.47,31.47Z" transform="translate(-1018.06 -280.19)"/><path class="cls-13" d="M1937.08,1120.48a76,76,0,0,0-8.12.44,71.26,71.26,0,0,0-7.33,1.17l-1.4.31a75.61,75.61,0,0,0-37.34,20.91c-1,1-1.88,2-2.78,3a75.79,75.79,0,0,0,111.18,102.94c1-1,1.87-2,2.78-3a75.79,75.79,0,0,0-57-125.76Zm-50.83,26.62c.4-.42.82-.81,1.22-1.22s.94-.92,1.42-1.37.86-.77,1.29-1.16,1-.86,1.47-1.28.9-.73,1.34-1.08,1-.81,1.54-1.2.92-.68,1.39-1,1-.76,1.58-1.11,1-.64,1.45-1,1.08-.68,1.63-1l1.49-.87,1.69-.93,1.51-.79,1.74-.85c.51-.24,1-.48,1.56-.7l1.79-.76c.52-.22,1-.42,1.57-.63s1.23-.45,1.85-.66l1.59-.55c.63-.2,1.27-.39,1.9-.57l1.6-.46c.21,0,.41-.09.61-.15a62.81,62.81,0,0,0-16.14,26.22,84.49,84.49,0,0,1-17.31-6.66Zm-3.63,4.06a87.84,87.84,0,0,0,19.17,7.63,131.7,131.7,0,0,0-5.1,35H1866.4A70.65,70.65,0,0,1,1882.62,1151.16Zm0,90.22a70.6,70.6,0,0,1-16.22-42.58h30.29a131.16,131.16,0,0,0,5.1,35A88.34,88.34,0,0,0,1882.62,1241.38Zm36.24,23.24c-.52-.13-1-.3-1.57-.45l-1.91-.58c-.53-.17-1.06-.36-1.59-.54l-1.85-.67-1.57-.62-1.8-.76-1.54-.7-1.77-.86c-.5-.25-1-.5-1.52-.78s-1.13-.62-1.7-.94-1-.57-1.47-.86l-1.65-1c-.48-.31-1-.62-1.43-.94s-1.07-.74-1.6-1.12-.92-.66-1.38-1-1-.8-1.55-1.21-.89-.71-1.32-1.07-1-.86-1.49-1.3-.86-.75-1.28-1.14-.95-.92-1.42-1.38-.82-.8-1.22-1.21l-.22-.24a85.15,85.15,0,0,1,17.32-6.66,62.6,62.6,0,0,0,16.14,26.22C1919.27,1264.71,1919.06,1264.67,1918.86,1264.62Zm15.7,2.19c-10.81-1.53-20.29-12.82-26.25-29.48a128.76,128.76,0,0,1,26.25-3.09v32.57Zm0-37.62a133.15,133.15,0,0,0-27.84,3.32,126.51,126.51,0,0,1-5-33.71h32.81v30.39Zm0-35.44h-32.81a126.11,126.11,0,0,1,5-33.71,133.82,133.82,0,0,0,27.84,3.32Zm0-35.45a127.37,127.37,0,0,1-26.25-3.09c6-16.66,15.44-27.94,26.25-29.48v32.57Zm57-7.14a70.64,70.64,0,0,1,16.21,42.59h-30.29a130.89,130.89,0,0,0-5.1-35A87.72,87.72,0,0,0,1991.55,1151.16Zm-36.26-23.23c.53.13,1.06.3,1.59.45l1.91.58c.53.17,1.06.36,1.58.54l1.86.67,1.56.62,1.81.76,1.54.7,1.77.86c.5.25,1,.5,1.51.78s1.14.62,1.7.94,1,.57,1.48.86,1.1.68,1.64,1l1.44.93c.54.37,1.07.74,1.59,1.12s.93.67,1.39,1,1,.8,1.54,1.21.89.71,1.33,1.08,1,.85,1.48,1.29.87.76,1.28,1.15,1,.91,1.42,1.37.83.8,1.22,1.21l.22.24a84.49,84.49,0,0,1-17.31,6.66,62.63,62.63,0,0,0-16.17-26.21C1954.88,1127.83,1955.09,1127.87,1955.29,1127.93Zm-15.68-2.2c10.81,1.54,20.29,12.82,26.25,29.48a128.14,128.14,0,0,1-26.25,3.09v-32.57Zm0,37.63a133.82,133.82,0,0,0,27.84-3.32,126.51,126.51,0,0,1,5,33.71h-32.81Zm0,35.44h32.81a126.51,126.51,0,0,1-5,33.71h0a133.15,133.15,0,0,0-27.84-3.32Zm0,68v-32.57a128.84,128.84,0,0,1,26.25,3.09C1959.9,1254,1950.42,1265.28,1939.61,1266.81Zm48.3-21.36c-.4.41-.81.81-1.22,1.21s-.94.93-1.42,1.38-.85.76-1.28,1.15-1,.87-1.48,1.29-.89.72-1.34,1.08-1,.81-1.53,1.2-.93.68-1.4,1-1,.76-1.58,1.11l-1.44.94c-.54.35-1.09.69-1.64,1l-1.48.87c-.56.32-1.12.63-1.69.93s-1,.54-1.52.79-1.15.58-1.74.85-1,.48-1.55.71l-1.79.76-1.57.62-1.86.67c-.53.18-1.05.37-1.58.54l-1.91.58-1.59.45-.62.15a62.66,62.66,0,0,0,16.15-26.22,84.52,84.52,0,0,1,17.31,6.67Zm3.64-4.07a87.72,87.72,0,0,0-19.18-7.63,130.76,130.76,0,0,0,5.1-35h30.29A70.59,70.59,0,0,1,1991.55,1241.38Z" transform="translate(-1018.06 -280.19)"/><path class="cls-9" d="M1134.33,473.27h-36.72a6.12,6.12,0,1,1,0-12.24h36.72a6.12,6.12,0,1,1,0,12.24Z" transform="translate(-1018.06 -280.19)"/><path class="cls-9" d="M1116,330.14a6.12,6.12,0,0,1-6.12-6.12v-16a6.12,6.12,0,1,1,12.24,0v16A6.12,6.12,0,0,1,1116,330.14Z" transform="translate(-1018.06 -280.19)"/><path class="cls-9" d="M1169.58,352.35a6.13,6.13,0,0,1-4.32-10.45l11.29-11.3a6.12,6.12,0,1,1,8.66,8.66l-11.3,11.29A6.14,6.14,0,0,1,1169.58,352.35Z" transform="translate(-1018.06 -280.19)"/><path class="cls-9" d="M1207.76,406h-16a6.12,6.12,0,1,1,0-12.24h16a6.12,6.12,0,1,1,0,12.24Z" transform="translate(-1018.06 -280.19)"/><path class="cls-9" d="M1180.87,470.86a6.06,6.06,0,0,1-4.32-1.79l-11.29-11.29a6.12,6.12,0,0,1,8.65-8.66l11.3,11.29a6.12,6.12,0,0,1-4.34,10.45Z" transform="translate(-1018.06 -280.19)"/><path class="cls-9" d="M1051.07,470.86a6.12,6.12,0,0,1-4.33-10.45L1058,449.12a6.12,6.12,0,1,1,8.66,8.66l-11.29,11.29A6.1,6.1,0,0,1,1051.07,470.86Z" transform="translate(-1018.06 -280.19)"/><path class="cls-9" d="M1040.15,406h-16a6.12,6.12,0,0,1,0-12.24h16a6.12,6.12,0,0,1,0,12.24Z" transform="translate(-1018.06 -280.19)"/><path class="cls-9" d="M1062.36,352.35a6.08,6.08,0,0,1-4.33-1.8l-11.29-11.29a6.12,6.12,0,0,1,8.66-8.66l11.29,11.3a6.13,6.13,0,0,1-4.33,10.45Z" transform="translate(-1018.06 -280.19)"/><path class="cls-9" d="M1146.57,403.92a6.12,6.12,0,0,1-6.12-6.12A22.46,22.46,0,0,0,1118,375.36a6.12,6.12,0,1,1,0-12.23,34.71,34.71,0,0,1,34.67,34.67A6.12,6.12,0,0,1,1146.57,403.92Z" transform="translate(-1018.06 -280.19)"/><path class="cls-9" d="M1126.17,497.75h-20.4c-6.88,0-14.28-5.22-14.28-16.68V466.68c0-8.66-3.69-16.61-9.86-21.26a57.1,57.1,0,1,1,69.63-.72c-6.87,5.4-10.81,12.92-10.81,20.63v18.14a14.3,14.3,0,0,1-14.28,14.28ZM1115.86,355a47.36,47.36,0,0,0-9.65,1A44.84,44.84,0,0,0,1089,435.64c9.23,6.95,14.74,18.56,14.74,31v14.39c0,.74.1,4.44,2,4.44h20.4a2,2,0,0,0,2-2V465.33c0-11.49,5.65-22.52,15.49-30.26A44.83,44.83,0,0,0,1115.86,355Z" transform="translate(-1018.06 -280.19)"/><path class="cls-4" d="M1218.08,922.35H1215a3.1,3.1,0,0,0,0,6.2h3.1a3.1,3.1,0,1,0,0-6.2Z" transform="translate(-1018.06 -280.19)"/><path class="cls-4" d="M1219.73,1062.16H1212a8.56,8.56,0,0,0-8.55,8.55v1.5a8.56,8.56,0,0,0,8.55,8.55h7.69a8.57,8.57,0,0,0,8.56-8.55v-1.5A8.57,8.57,0,0,0,1219.73,1062.16Zm2.35,10a2.36,2.36,0,0,1-2.35,2.35H1212a2.35,2.35,0,0,1-2.35-2.35v-1.5a2.35,2.35,0,0,1,2.35-2.35h7.69a2.36,2.36,0,0,1,2.36,2.35Z" transform="translate(-1018.06 -280.19)"/><path class="cls-14" d="M1255.37,907.05h-83a11.22,11.22,0,0,0-11.21,11.21v163.59a11.22,11.22,0,0,0,11.21,11.21h83a11.22,11.22,0,0,0,11.21-11.21V918.26A11.22,11.22,0,0,0,1255.37,907.05Zm5,174.8a5,5,0,0,1-5,5h-83a5,5,0,0,1-5-5V918.26a5,5,0,0,1,5-5h83a5,5,0,0,1,5,5v163.59Z" transform="translate(-1018.06 -280.19)"/><path class="cls-15" d="M1263.48,937.44h-99.21a2.92,2.92,0,0,0-3.1,2.72v114.18a2.93,2.93,0,0,0,3.1,2.72h99.21a2.93,2.93,0,0,0,3.1-2.72V940.16A2.92,2.92,0,0,0,1263.48,937.44Zm-3.1,114.18h-93V942.87h93Z" transform="translate(-1018.06 -280.19)"/></svg>