<?xml version="1.0" encoding="utf-8"?>
<!-- Generator: Adobe Illustrator 23.0.1, SVG Export Plug-In . SVG Version: 6.00 Build 0)  -->
<svg version="1.1" id="Capa_1" xmlns="http://www.w3.org/2000/svg" xmlns:xlink="http://www.w3.org/1999/xlink" x="0px" y="0px"
	 viewBox="0 0 512 512" style="enable-background:new 0 0 512 512;" xml:space="preserve">
<style type="text/css">
	.st0{fill:#EB2027;}
	.st1{fill:#C32032;}
	.st2{fill:#142C52;}
</style>
<path class="st0" d="M145.4,261.4"/>
<path class="st1" d="M167.1,257.2c15.9-7.4,31.6-14.7,47.9-22.3c0,3.8,0.1,7.1-0.2,10.5c-0.1,0.7-1.4,1.6-2.3,2
	c-10.6,4.6-21.2,9.1-32.6,14c4.5,2,8.2,3.7,12,5.3c6.6,2.8,13.2,5.6,19.8,8.2c2,0.8,3.1,1.7,2.9,4.1c-0.3,2.6-0.1,5.3-0.2,8.6
	c-4.7-2.2-9.1-4.1-13.4-6.2c-10-4.7-19.9-9.7-30-14.1c-3.2-1.4-4.5-3.1-4-6.4C167.2,259.7,167.1,258.4,167.1,257.2z"/>
<g>
	<path class="st2" d="M255.7,511.5C115.3,511.5,1,397.2,1,256.7S115.3,2,255.7,2s254.7,114.3,254.7,254.7S396.2,511.5,255.7,511.5z
		 M255.7,27.1c-126.6,0-229.7,103-229.7,229.7s103,229.7,229.7,229.7c126.6,0,229.7-103,229.7-229.7S382.4,27.1,255.7,27.1z"/>
</g>
<path class="st2" d="M369.2,238.8c5.8,0.1,10.9,0.1,16.5,0.2c0,1.5,0,2.9-0.1,4.2c-0.4,34.3-0.8,68.5-1.2,102.8
	c-0.1,11.3-7.3,18.3-18.6,18.2c-29.1-0.3-58.2-0.7-87.2-1c-1.5,0-3,0-4.8-0.1c0,3.1-0.1,5.9-0.1,9.3c6,0.6,12,0.9,18,1.8
	c6.9,1.1,13.8,2.5,20.7,3.9c2.8,0.6,3.7,2.3,3.6,5.2c-0.2,7.5,0,7.9-7.6,9.2c-8.2,1.5-16.4,2.9-24.7,3c-19.8,0.5-39.7,0.8-59.5,0
	c-12.6-0.5-25.2-2.9-37.8-4.9c-5.3-0.8-8.1-7.6-5.4-12.1c0.7-1.2,2.6-2,4.1-2.3c6.7-1.2,13.3-2.4,20.1-3.2
	c5.9-0.7,11.8-0.9,17.9-1.3c0-3,0.1-5.9,0.1-9.4c-1.5,0-2.9,0-4.4-0.1c-29-0.3-57.9-0.7-86.9-1c-12.4-0.1-19.2-7-19-19.3
	c0.6-49.4,1.3-98.9,1.6-148.3c0.1-10.7,7.4-19.1,19.1-18.9c38.8,0.9,77.6,1.1,116.4,1.5c1.2,0,2.5,0,4,0c-0.1,5.5-0.1,10.7-0.2,16.4
	c-1.5,0-3,0-4.4-0.1c-37.5-0.4-75.1-0.9-112.6-1.3c-5.5-0.1-5.6,0-5.6,5.4c-0.6,47.4-1.1,94.8-1.7,142.2c-0.1,5.5,0.2,5.8,5.7,5.8
	c75.1,0.9,150.2,1.8,225.3,2.7c1.1,0,2.3,0,3.4,0c2.6,0.1,4.1-1,4-3.8c0-0.9,0-1.8,0-2.7c0.4-32.6,0.8-65.2,1.2-97.9
	C369.1,242,369.1,240.5,369.2,238.8z"/>
<path class="st1" d="M357.9,130.7c9.9,10.3,19.7,20.5,29.9,30.9c-5.8,5.6-12.1,11.7-18.3,17.7c-9.5,9.2-19.3,18.2-28.5,27.7
	c-4,4.1-9.1,4.6-13.9,6.1c-7.9,2.4-15.9,4.5-23.9,6.7c-5.5,1.5-7.9-0.9-6.3-6.3c3.2-10.8,6.6-21.6,10-32.3c0.4-1.3,1.2-2.5,2.1-3.5
	c15.9-15.5,31.9-30.9,47.9-46.3C357.2,131.2,357.6,130.9,357.9,130.7z M313.7,186.4c-1.5,4.8-3.2,10.1-4.8,15.5
	c-0.9,3,2.2,7.1,5,6.4c5.9-1.4,11.7-3.2,16.5-4.6c-0.9-5.3-1.6-10-2.4-14.8C323.5,188.2,318.8,187.3,313.7,186.4z"/>
<path class="st2" d="M225.8,303.5c3.8-9,7.4-17.7,11.2-26.3c8.1-18.9,16.4-37.7,24.5-56.6c1-2.4,2.1-3.2,4.6-3
	c3.4,0.3,6.8,0.1,10.7,0.2c-0.6,1.6-1.1,3-1.7,4.3c-11.4,26.3-22.8,52.6-34.2,79c-0.8,1.9-1.7,2.8-3.8,2.6
	C233.6,303.4,230.1,303.5,225.8,303.5z"/>
<path class="st1" d="M324.2,262.4c-10.9-4.9-20.7-9.5-30.7-13.8c-3.1-1.3-4.6-2.9-4.1-6.4c0.3-2.1,0.1-4.3,0.1-7
	c2.9,1.4,5.5,2.5,8,3.8c12.3,6,24.4,12.3,36.8,18.1c3.7,1.8,2.1,4.5,2.5,6.9c0.4,2.3-0.9,3.2-2.8,4c-14.2,6.2-28.4,12.6-42.6,18.9
	c-0.7,0.3-1.3,0.5-2.5,0.9c0-3.5-0.1-6.7,0.2-9.7c0.1-1,1.5-2.2,2.5-2.6c9-3.7,18.2-7.2,27.2-10.8
	C320.4,264,321.8,263.4,324.2,262.4z"/>
<path class="st1" d="M404.3,145c-9.6-9.8-19.1-19.5-29.2-29.9c1.5-1.2,3.1-2.4,4.7-3.8c3.9-3.4,9.2-3.9,13-0.4
	c5.7,5.3,11.3,10.8,16.4,16.7c3.7,4.2,2.9,9.6-1,13.6C406.9,142.4,405.5,143.7,404.3,145z"/>
<path class="st1" d="M363.1,124.8c2.2-1.9,4.3-3.7,6-5.2c10,10.3,19.8,20.3,29.7,30.5c-1.5,1.5-3.6,3.5-5.7,5.5
	C383.3,145.4,373.3,135.2,363.1,124.8z"/>
</svg>
