<?xml version="1.0" encoding="utf-8"?>
<!-- Generator: Adobe Illustrator 23.0.1, SVG Export Plug-In . SVG Version: 6.00 Build 0)  -->
<svg version="1.1" id="Layer_1" xmlns="http://www.w3.org/2000/svg" xmlns:xlink="http://www.w3.org/1999/xlink" x="0px" y="0px"
	 viewBox="0 0 1701.01 637.43" style="enable-background:new 0 0 1701.01 637.43;" xml:space="preserve">
<style type="text/css">
	.st0{fill:#142C52;}
	.st1{fill:#C32032;}
	.st2{fill:#EB2027;}
</style>
<g>
	<path class="st0" d="M606.97,133.63c0-6.76,3.34-10.14,10.03-10.14h126.58c15,0,28.82,2.84,41.45,8.52
		c12.63,5.68,23.51,13.27,32.65,22.76c9.14,9.49,16.23,20.39,21.28,32.69c5.05,12.3,7.58,25.14,7.58,38.52
		c0,13.09-2.49,25.71-7.48,37.87c-4.98,12.16-11.97,22.95-20.97,32.37c-9,9.42-19.75,16.98-32.24,22.66
		c-12.5,5.68-26.18,8.52-41.06,8.52h-73.41v107.24c0,6.19-3.33,9.28-9.99,9.28h-44.64c-6.52,0-9.77-3.09-9.77-9.28V133.63z
		 M781.47,225.66c0-5.91-1.19-11.71-3.57-17.41c-2.38-5.69-5.66-10.74-9.83-15.14s-9.15-7.96-14.96-10.7
		c-5.81-2.74-12.13-4.11-18.98-4.11h-62.75v94.73h62.75c6.7,0,12.95-1.29,18.76-3.89c5.8-2.6,10.83-6.09,15.07-10.49
		c4.24-4.4,7.56-9.44,9.94-15.14C780.28,237.81,781.47,231.86,781.47,225.66z"/>
</g>
<g>
	<g>
		<path class="st0" d="M1274.84,440.17c0,6.19-3.26,9.28-9.77,9.28h-44.64c-6.66,0-9.99-3.09-9.99-9.28V332.93h-73.41
			c-14.88,0-28.56-2.84-41.06-8.52c-12.49-5.68-23.24-13.23-32.24-22.66c-9-9.42-15.99-20.21-20.97-32.37
			c-4.98-12.15-7.48-24.78-7.48-37.87c0-13.38,2.53-26.22,7.58-38.52c5.05-12.3,12.15-23.2,21.28-32.69s20.02-17.08,32.65-22.76
			c12.63-5.68,26.45-8.52,41.45-8.52h126.58c6.69,0,10.03,3.38,10.03,10.14V440.17z M1103.92,249.03c2.38,5.7,5.7,10.75,9.94,15.14
			c4.24,4.4,9.27,7.89,15.07,10.49c5.81,2.6,12.06,3.89,18.76,3.89h62.75v-94.73h-62.75c-6.85,0-13.17,1.37-18.98,4.11
			c-5.81,2.74-10.79,6.31-14.96,10.7s-7.45,9.44-9.83,15.14c-2.38,5.7-3.57,11.5-3.57,17.41
			C1100.35,237.39,1101.54,243.34,1103.92,249.03z"/>
	</g>
</g>
<g>
	<path class="st0" d="M617.69,476.41c2.24,0,4.12,0.71,5.63,2.13s2.27,3.15,2.27,5.19c0,2.04-0.76,3.76-2.27,5.18
		c-1.51,1.42-3.39,2.13-5.63,2.13h-5.7v8.13h-3.69v-22.76H617.69z M611.99,479.67v8.13h5.7c1.16,0,2.15-0.39,2.97-1.17
		c0.82-0.78,1.23-1.74,1.23-2.89c0-1.15-0.41-2.11-1.23-2.9c-0.82-0.78-1.81-1.17-2.97-1.17H611.99z"/>
	<path class="st0" d="M630.95,476.41h9.9c2.17,0,3.98,0.67,5.41,2.02s2.15,3,2.15,4.98c0,0.93-0.16,1.8-0.49,2.61
		c-0.33,0.81-0.72,1.45-1.18,1.91s-0.92,0.87-1.38,1.22c-0.46,0.35-0.85,0.59-1.18,0.71l-0.48,0.21l5.38,9.09h-4.03l-5.03-8.78
		h-5.38v8.78h-3.69V476.41z M643.59,480.74c-0.74-0.71-1.65-1.07-2.75-1.07h-6.21v7.47h6.21c1.09,0,2.01-0.36,2.75-1.07
		c0.74-0.71,1.11-1.6,1.11-2.67C644.7,482.34,644.33,481.45,643.59,480.74z"/>
	<path class="st0" d="M656.67,479.49c2.38-2.26,5.33-3.4,8.84-3.4c3.51,0,6.46,1.13,8.84,3.4c2.38,2.26,3.57,5.03,3.57,8.3
		c0,3.27-1.19,6.04-3.57,8.3c-2.38,2.26-5.33,3.4-8.84,3.4c-3.51,0-6.46-1.13-8.84-3.4c-2.38-2.26-3.57-5.03-3.57-8.3
		C653.09,484.52,654.28,481.75,656.67,479.49z M659.31,493.79c1.69,1.64,3.75,2.46,6.19,2.46s4.51-0.82,6.19-2.46s2.53-3.64,2.53-6
		s-0.84-4.36-2.53-5.99c-1.69-1.63-3.75-2.45-6.19-2.45s-4.51,0.82-6.19,2.45c-1.69,1.63-2.53,3.63-2.53,5.99
		S657.62,492.15,659.31,493.79z"/>
	<path class="st0" d="M704.6,476.41h3.2v22.76h-3.69V482.6L695.54,493l-8.55-10.39v16.57h-3.69v-22.76h3.18l9.06,11.06L704.6,476.41
		z"/>
	<path class="st0" d="M714.5,476.41h3.69v22.76h-3.69V476.41z"/>
	<path class="st0" d="M735.28,490.91c-0.46-0.47-1.05-0.84-1.78-1.11c-0.73-0.27-1.53-0.51-2.42-0.73s-1.77-0.48-2.65-0.8
		s-1.69-0.7-2.42-1.14s-1.32-1.08-1.78-1.9c-0.46-0.82-0.69-1.81-0.69-2.96c0-1.76,0.69-3.22,2.08-4.4
		c1.39-1.18,3.27-1.77,5.64-1.77c0.87,0,1.71,0.1,2.52,0.31c0.8,0.21,1.47,0.45,2,0.73s0.99,0.56,1.39,0.84
		c0.4,0.28,0.69,0.52,0.88,0.72l0.26,0.32l-2.34,2.29c-0.04-0.04-0.11-0.11-0.19-0.21c-0.08-0.1-0.27-0.26-0.56-0.48
		c-0.29-0.22-0.6-0.41-0.93-0.59c-0.33-0.17-0.77-0.33-1.31-0.47c-0.54-0.14-1.11-0.21-1.71-0.21c-1.21,0-2.19,0.29-2.93,0.87
		c-0.74,0.58-1.11,1.26-1.11,2.05c0,0.7,0.23,1.29,0.69,1.76c0.46,0.48,1.05,0.85,1.78,1.12s1.53,0.51,2.42,0.73
		c0.89,0.22,1.77,0.48,2.66,0.79c0.88,0.31,1.69,0.69,2.42,1.13s1.32,1.08,1.78,1.9c0.46,0.83,0.69,1.81,0.69,2.95
		c0,2.01-0.74,3.65-2.23,4.92s-3.54,1.9-6.16,1.9c-1.07,0-2.09-0.12-3.06-0.37c-0.97-0.25-1.76-0.54-2.38-0.89
		c-0.62-0.34-1.16-0.69-1.62-1.04c-0.46-0.35-0.79-0.64-1-0.87l-0.33-0.4l2.34-2.27c0.04,0.06,0.12,0.16,0.22,0.28
		c0.1,0.12,0.34,0.33,0.7,0.63c0.37,0.3,0.76,0.57,1.19,0.79s0.99,0.43,1.7,0.62c0.7,0.18,1.45,0.28,2.24,0.28
		c1.45,0,2.6-0.34,3.44-1.03s1.26-1.54,1.26-2.55C735.97,491.96,735.74,491.38,735.28,490.91z"/>
	<path class="st0" d="M744.69,476.41h3.69v22.76h-3.69V476.41z"/>
	<path class="st0" d="M775.04,476.41v22.76h-3.18l-13.09-16.41v16.41h-3.69v-22.76h3.18l13.09,16.42v-16.42H775.04z"/>
	<path class="st0" d="M802.9,487.14v8.13c-0.09,0.11-0.22,0.26-0.4,0.45c-0.18,0.2-0.58,0.54-1.21,1.03
		c-0.63,0.49-1.3,0.92-2.02,1.29c-0.72,0.37-1.66,0.7-2.82,1s-2.37,0.45-3.61,0.45c-3.52,0-6.47-1.13-8.85-3.4
		c-2.38-2.26-3.57-5.03-3.57-8.3c0-3.27,1.19-6.04,3.57-8.3c2.38-2.26,5.33-3.4,8.85-3.4c1.19,0,2.33,0.15,3.43,0.45
		c1.09,0.3,2,0.67,2.71,1.1c0.72,0.43,1.34,0.86,1.88,1.29c0.54,0.42,0.93,0.79,1.18,1.09l0.36,0.44l-2.34,2.29
		c-0.07-0.08-0.16-0.2-0.29-0.36c-0.13-0.15-0.41-0.43-0.86-0.83c-0.45-0.4-0.93-0.75-1.44-1.04c-0.51-0.29-1.18-0.56-2.01-0.81
		c-0.83-0.25-1.7-0.37-2.61-0.37c-2.44,0-4.5,0.82-6.19,2.45c-1.69,1.63-2.54,3.63-2.54,5.99s0.84,4.36,2.53,6s3.76,2.46,6.2,2.46
		c0.81,0,1.58-0.08,2.32-0.23c0.74-0.15,1.34-0.34,1.81-0.57s0.88-0.45,1.24-0.68s0.61-0.42,0.76-0.56l0.25-0.24v-3.57h-4.54v-3.25
		H802.9z"/>
	<path class="st0" d="M822.34,476.41h3.69v22.76h-3.69V476.41z"/>
	<path class="st0" d="M852.69,476.41v22.76h-3.18l-13.09-16.41v16.41h-3.69v-22.76h3.18l13.09,16.42v-16.42H852.69z"/>
	<path class="st0" d="M879.38,476.41v22.76h-3.18l-13.09-16.41v16.41h-3.69v-22.76h3.18l13.09,16.42v-16.42H879.38z"/>
	<path class="st0" d="M888.33,479.49c2.38-2.26,5.33-3.4,8.84-3.4s6.46,1.13,8.84,3.4s3.57,5.03,3.57,8.3c0,3.27-1.19,6.04-3.57,8.3
		c-2.38,2.26-5.33,3.4-8.84,3.4s-6.46-1.13-8.84-3.4c-2.38-2.26-3.57-5.03-3.57-8.3C884.75,484.52,885.94,481.75,888.33,479.49z
		 M890.97,493.79c1.69,1.64,3.75,2.46,6.19,2.46c2.44,0,4.51-0.82,6.19-2.46c1.69-1.64,2.53-3.64,2.53-6s-0.84-4.36-2.53-5.99
		c-1.69-1.63-3.75-2.45-6.19-2.45c-2.44,0-4.51,0.82-6.19,2.45c-1.69,1.63-2.53,3.63-2.53,5.99S889.28,492.15,890.97,493.79z"/>
	<path class="st0" d="M911.25,476.41h3.87l7.21,18.2l7.23-18.2h3.85l-9.23,22.76h-3.69L911.25,476.41z"/>
	<path class="st0" d="M942.13,476.41h3.69l9.73,22.76h-3.85l-2.52-6.01h-10.41l-2.52,6.01h-3.85L942.13,476.41z M940.12,489.9h7.72
		l-3.85-9.43L940.12,489.9z"/>
	<path class="st0" d="M972.66,476.41v3.25h-7.05v19.5h-3.69v-19.5h-7.05v-3.25H972.66z"/>
	<path class="st0" d="M976.7,476.41h3.69v22.76h-3.69V476.41z"/>
	<path class="st0" d="M984.73,476.41h3.87l7.21,18.2l7.23-18.2h3.85l-9.23,22.76h-3.69L984.73,476.41z"/>
	<path class="st0" d="M1028.19,495.92v3.25h-16.95v-22.76h16.62v3.25h-12.93v6.01h10.24v3.25h-10.24v6.98H1028.19z"/>
	<path class="st0" d="M1056.02,476.41c2.24,0,4.12,0.71,5.63,2.13c1.51,1.42,2.27,3.15,2.27,5.19c0,2.04-0.76,3.76-2.27,5.18
		c-1.51,1.42-3.39,2.13-5.63,2.13h-5.7v8.13h-3.69v-22.76H1056.02z M1050.32,479.67v8.13h5.7c1.16,0,2.15-0.39,2.97-1.17
		c0.82-0.78,1.23-1.74,1.23-2.89c0-1.15-0.41-2.11-1.23-2.9c-0.82-0.78-1.81-1.17-2.97-1.17H1050.32z"/>
	<path class="st0" d="M1069.28,476.41h9.9c2.17,0,3.98,0.67,5.41,2.02c1.43,1.34,2.15,3,2.15,4.98c0,0.93-0.16,1.8-0.49,2.61
		c-0.33,0.81-0.72,1.45-1.18,1.91c-0.46,0.47-0.92,0.87-1.38,1.22c-0.46,0.35-0.85,0.59-1.18,0.71l-0.48,0.21l5.38,9.09h-4.03
		l-5.03-8.78h-5.38v8.78h-3.69V476.41z M1081.92,480.74c-0.74-0.71-1.65-1.07-2.75-1.07h-6.21v7.47h6.21c1.09,0,2.01-0.36,2.75-1.07
		c0.74-0.71,1.11-1.6,1.11-2.67C1083.03,482.34,1082.66,481.45,1081.92,480.74z"/>
	<path class="st0" d="M1094.99,479.49c2.38-2.26,5.33-3.4,8.84-3.4s6.46,1.13,8.84,3.4s3.57,5.03,3.57,8.3
		c0,3.27-1.19,6.04-3.57,8.3c-2.38,2.26-5.33,3.4-8.84,3.4s-6.46-1.13-8.84-3.4c-2.38-2.26-3.57-5.03-3.57-8.3
		C1091.42,484.52,1092.61,481.75,1094.99,479.49z M1097.64,493.79c1.69,1.64,3.75,2.46,6.19,2.46c2.44,0,4.51-0.82,6.19-2.46
		c1.69-1.64,2.53-3.64,2.53-6s-0.84-4.36-2.53-5.99c-1.69-1.63-3.75-2.45-6.19-2.45c-2.44,0-4.51,0.82-6.19,2.45
		c-1.69,1.63-2.53,3.63-2.53,5.99S1095.95,492.15,1097.64,493.79z"/>
	<path class="st0" d="M1136.13,476.55c1.09,0.3,2,0.67,2.71,1.1s1.34,0.86,1.88,1.29c0.54,0.42,0.93,0.79,1.18,1.09l0.36,0.45
		l-2.34,2.29c-0.07-0.08-0.16-0.2-0.29-0.36c-0.13-0.15-0.41-0.43-0.86-0.83c-0.45-0.4-0.93-0.75-1.44-1.04
		c-0.51-0.29-1.18-0.56-2.01-0.81c-0.83-0.25-1.7-0.37-2.61-0.37c-2.44,0-4.5,0.82-6.19,2.45c-1.69,1.63-2.54,3.63-2.54,5.99
		s0.84,4.36,2.53,6c1.69,1.64,3.75,2.46,6.2,2.46c0.92,0,1.79-0.12,2.63-0.37c0.83-0.25,1.53-0.55,2.08-0.9
		c0.55-0.35,1.04-0.7,1.46-1.04c0.42-0.34,0.74-0.64,0.94-0.88l0.26-0.4l2.36,2.29c-0.09,0.13-0.22,0.29-0.4,0.5
		c-0.18,0.21-0.58,0.57-1.2,1.09c-0.62,0.52-1.27,0.98-1.97,1.38c-0.69,0.4-1.6,0.76-2.72,1.09c-1.12,0.32-2.27,0.48-3.45,0.48
		c-3.52,0-6.47-1.13-8.85-3.4c-2.38-2.26-3.57-5.03-3.57-8.3c0-3.27,1.19-6.04,3.57-8.3c2.38-2.26,5.33-3.4,8.85-3.4
		C1133.89,476.09,1135.04,476.25,1136.13,476.55z"/>
	<path class="st0" d="M1164.07,495.92v3.25h-16.95v-22.76h16.62v3.25h-12.93v6.01h10.24v3.25h-10.24v6.98H1164.07z"/>
	<path class="st0" d="M1177.33,476.41c3.27,0,6.07,1.12,8.41,3.36c2.34,2.24,3.51,4.91,3.51,8.01s-1.17,5.77-3.51,8.01
		s-5.14,3.36-8.41,3.36h-8.23v-22.76H1177.33z M1172.79,479.67v16.25h4.54c2.28,0,4.22-0.79,5.82-2.36
		c1.59-1.57,2.39-3.49,2.39-5.77s-0.8-4.2-2.39-5.77c-1.6-1.57-3.53-2.36-5.82-2.36H1172.79z"/>
	<path class="st0" d="M1208.53,494.42c1.23-1.22,1.84-2.67,1.84-4.35v-13.66h3.7v13.66c0,2.6-0.96,4.82-2.89,6.66
		c-1.93,1.83-4.27,2.75-7.01,2.75s-5.09-0.92-7.01-2.76c-1.93-1.84-2.89-4.06-2.89-6.65v-13.66h3.7v13.66
		c0,1.69,0.62,3.14,1.84,4.36c1.23,1.21,2.68,1.82,4.36,1.82S1207.3,495.64,1208.53,494.42z"/>
	<path class="st0" d="M1220.44,476.41h9.9c2.17,0,3.98,0.67,5.41,2.02c1.43,1.34,2.15,3,2.15,4.98c0,0.93-0.16,1.8-0.49,2.61
		c-0.33,0.81-0.72,1.45-1.18,1.91c-0.46,0.47-0.92,0.87-1.38,1.22c-0.46,0.35-0.85,0.59-1.18,0.71l-0.48,0.21l5.38,9.09h-4.03
		l-5.03-8.78h-5.38v8.78h-3.69V476.41z M1233.08,480.74c-0.74-0.71-1.65-1.07-2.75-1.07h-6.21v7.47h6.21c1.09,0,2.01-0.36,2.75-1.07
		c0.74-0.71,1.11-1.6,1.11-2.67C1234.19,482.34,1233.82,481.45,1233.08,480.74z"/>
	<path class="st0" d="M1260.87,495.92v3.25h-16.95v-22.76h16.62v3.25h-12.93v6.01h10.24v3.25h-10.24v6.98H1260.87z"/>
	<path class="st0" d="M1276.29,490.91c-0.46-0.47-1.05-0.84-1.78-1.11c-0.73-0.27-1.53-0.51-2.42-0.73
		c-0.88-0.22-1.77-0.48-2.65-0.8s-1.69-0.7-2.42-1.14s-1.32-1.08-1.78-1.9c-0.46-0.82-0.69-1.81-0.69-2.96
		c0-1.76,0.69-3.22,2.08-4.4c1.39-1.18,3.27-1.77,5.64-1.77c0.87,0,1.71,0.1,2.52,0.31c0.8,0.21,1.47,0.45,2,0.73
		c0.53,0.28,0.99,0.56,1.39,0.84c0.4,0.28,0.69,0.52,0.88,0.72l0.26,0.32l-2.34,2.29c-0.04-0.04-0.11-0.11-0.19-0.21
		s-0.27-0.26-0.56-0.48c-0.29-0.22-0.6-0.41-0.93-0.59c-0.33-0.17-0.77-0.33-1.31-0.47c-0.54-0.14-1.11-0.21-1.71-0.21
		c-1.21,0-2.19,0.29-2.92,0.87c-0.74,0.58-1.11,1.26-1.11,2.05c0,0.7,0.23,1.29,0.69,1.76c0.46,0.48,1.05,0.85,1.78,1.12
		s1.53,0.51,2.42,0.73s1.77,0.48,2.65,0.79c0.88,0.31,1.69,0.69,2.42,1.13c0.73,0.44,1.32,1.08,1.78,1.9s0.69,1.81,0.69,2.95
		c0,2.01-0.74,3.65-2.23,4.92c-1.49,1.27-3.54,1.9-6.16,1.9c-1.07,0-2.09-0.12-3.06-0.37c-0.97-0.25-1.76-0.54-2.38-0.89
		c-0.62-0.34-1.16-0.69-1.62-1.04c-0.46-0.35-0.79-0.64-1-0.87l-0.33-0.4l2.34-2.27c0.04,0.06,0.12,0.16,0.22,0.28
		c0.1,0.12,0.34,0.33,0.71,0.63c0.37,0.3,0.76,0.57,1.19,0.79c0.43,0.23,0.99,0.43,1.7,0.62c0.71,0.18,1.45,0.28,2.24,0.28
		c1.45,0,2.6-0.34,3.44-1.03c0.84-0.69,1.26-1.54,1.26-2.55C1276.98,491.96,1276.75,491.38,1276.29,490.91z"/>
</g>
<polygon class="st1" points="941.09,447.37 902.21,447.37 900.4,274.82 939.29,274.82 "/>
<polygon class="st0" points="979.98,447.37 941.09,447.37 939.29,274.82 978.18,274.82 "/>
<path class="st0" d="M557.07,217.62c-11.87-9.3-23.46-18.92-35.05-28.52c-11.53-9.68-23.04-19.38-34.4-29.23
	c-11.42-9.8-22.75-19.69-34.01-29.67c-11.27-9.96-22.47-20-33.63-30.08l8.09-2.15c-4.84,14.87-9.78,29.71-14.78,44.53
	c-5.05,14.8-10.08,29.61-15.37,44.34l-7.88,22.11l-8.08,22.04c-5.53,14.65-11.01,29.31-16.95,43.82
	c3.78-15.22,8.02-30.29,12.2-45.38l6.5-22.56l6.7-22.49c4.44-15,9.12-29.93,13.79-44.86c4.72-14.91,9.5-29.8,14.38-44.67l2.4-7.32
	l5.69,5.17c11.13,10.12,22.22,20.28,33.24,30.52c11.03,10.23,21.99,20.53,32.86,30.94c10.93,10.34,21.71,20.85,32.47,31.37
	C535.94,196.14,546.65,206.72,557.07,217.62z"/>
<path class="st0" d="M414.64,98.08c-26.86,54.7-53.72,109.4-80.57,164.1c30.73-0.77,61.45-1.55,92.18-2.32
	c-10.18-32.87-10.23-58.63-8.64-75.52c3.86-40.86,21.59-74.77,9.16-84.35C422.99,97.09,417.82,97.51,414.64,98.08z"/>
<path class="st0" d="M556.76,382.01c-9.41,11.67-19.17,23.01-28.89,34.39l-14.75,16.91c-4.92,5.63-9.93,11.18-14.89,16.78
	l-7.46,8.38l-7.52,8.32c-5,5.56-10.07,11.05-15.11,16.58l-15.21,16.48l-15.31,16.38l-5.4,5.78l-2.89-7.37
	c-5.31-13.53-10.57-27.09-15.72-40.68c-5.16-13.59-10.26-27.21-15.19-40.89c-2.46-6.84-5.01-13.65-7.41-20.52l-7.23-20.59
	c-4.7-13.77-9.41-27.54-13.72-41.47c6.34,13.13,12.28,26.41,18.24,39.69l8.75,19.99c2.93,6.66,5.71,13.38,8.57,20.06
	c5.72,13.37,11.27,26.81,16.77,40.27c5.5,13.46,10.89,26.96,16.24,40.48l-8.29-1.59l15.38-16.31l15.49-16.22
	c5.2-5.37,10.36-10.78,15.59-16.12l7.83-8.03l7.89-7.97c5.27-5.3,10.49-10.65,15.8-15.92l15.95-15.78
	C535,402.6,545.71,392.14,556.76,382.01z"/>
<path class="st0" d="M428.57,513.33c-31.57-52.12-63.13-104.25-94.7-156.37c30.68-1.93,61.35-3.87,92.03-5.8
	c-8.32,45.15-2.85,77.98,4.32,100.33c6.87,21.4,20.5,49.41,10.27,58.87C437.15,513.43,432.26,513.65,428.57,513.33z"/>
<circle class="st0" cx="550.66" cy="388.11" r="25.91"/>
<circle class="st0" cx="439.87" cy="511.63" r="27.33"/>
<circle class="st0" cx="423.32" cy="96.42" r="27.33"/>
<circle class="st1" cx="376.86" cy="310.74" r="87.97"/>
<circle class="st0" cx="552.24" cy="218.97" r="25.91"/>
<path class="st0" d="M365.35,118.1l-8.42,22.56l-8.48,22.53l-8.52,22.52l-8.61,22.48l-0.29,0.76l-0.83,0.45
	c-5,2.73-9.96,5.54-14.59,8.82c-2.37,1.55-4.59,3.33-6.85,5.03c-1.12,0.87-2.18,1.81-3.27,2.7l-1.62,1.36l-1.56,1.43
	c-4.23,3.74-8.1,7.87-11.69,12.19c-3.59,4.33-6.88,8.9-9.74,13.73c-5.75,9.62-10.09,20.09-12.72,30.94
	c-1.32,5.41-2.29,10.94-2.68,16.4c-0.05,0.68-0.08,1.36-0.11,2.02l-0.02,0.97l0,0.45l0.01,0.53l0.12,4.21l0.26,4.2
	c0.1,1.4,0.26,2.79,0.38,4.19c1.19,11.13,3.74,22.09,7.9,32.35c2.1,5.12,4.6,10.05,7.49,14.71c2.91,4.68,6.13,9.03,9.82,13.3
	c3.63,4.23,7.5,8.22,11.63,11.71c2.06,1.74,4.21,3.37,6.39,4.74c2.13,1.35,4.47,2.53,6.98,3.63c5.01,2.22,10.62,4.14,16.26,7.12
	c2.81,1.5,5.63,3.27,8.2,5.51c1.26,1.13,2.53,2.31,3.64,3.61c1.12,1.28,2.12,2.61,3.04,3.93c1.83,2.65,3.34,5.31,4.78,7.8l4.33,7.52
	l8.6,15.08l17.21,30.24c1.48,2.7,3.1,5.86,3.85,9.76c0.19,1.01,0.28,1.89,0.36,2.78c0.07,0.89,0.1,1.79,0.1,2.68
	c-0.02,1.78-0.17,3.55-0.48,5.29c-0.15,0.87-0.34,1.73-0.56,2.59c-0.21,0.84-0.52,1.75-0.66,2.3c-0.35,1.24-0.71,2.48-0.94,3.74
	c-0.31,1.25-0.45,2.52-0.66,3.78c-0.12,1.27-0.28,2.54-0.29,3.81c-0.1,2.54,0.01,5.1,0.38,7.61c0.36,2.52,0.89,5.02,1.7,7.45
	c0.8,2.43,1.76,4.82,2.94,7.11c1.19,2.29,2.55,4.49,4.05,6.62c6.07,8.46,14.68,15.2,24.35,19.45c4.84,2.14,9.95,3.62,15.13,4.36
	c2.58,0.51,5.22,0.52,7.84,0.7c1.31,0.01,2.63-0.09,3.94-0.13c0.66-0.03,1.32-0.03,1.97-0.09l1.96-0.26l1.96-0.25
	c0.65-0.09,1.31-0.15,1.95-0.32l3.87-0.86c0.65-0.12,1.28-0.34,1.91-0.54l1.89-0.6l1.9-0.59c0.62-0.23,1.23-0.5,1.84-0.75
	c4.98-1.85,9.62-4.58,14-7.6l3.23-2.37l3.03-2.63c0.49-0.45,1.04-0.85,1.5-1.33l1.41-1.43l1.41-1.42c0.48-0.47,0.95-0.94,1.37-1.47
	l2.59-3.07c0.45-0.5,0.83-1.05,1.22-1.6l1.17-1.63l1.17-1.63c0.4-0.54,0.7-1.14,1.06-1.71l2.07-3.44l1.78-2.95l3.13,0.02l45.6,0.3
	c15.2,0.11,30.4,0.17,45.6,0.37l45.6,0.5c15.2,0.16,30.4,0.33,45.6,0.59l45.6,0.69l45.6,0.85c30.4,0.57,60.8,1.33,91.19,2.21
	c-30.4,0.91-60.79,1.69-91.19,2.28l-45.6,0.88l-45.6,0.71c-15.2,0.26-30.4,0.43-45.6,0.59l-45.6,0.5c-15.2,0.2-30.4,0.26-45.6,0.37
	l-45.6,0.3l4.91-2.93l-2.34,4.03c-0.4,0.66-0.76,1.36-1.2,1.99l-1.33,1.91l-1.33,1.91c-0.45,0.64-0.88,1.28-1.39,1.87l-2.96,3.6
	c-0.48,0.61-1.02,1.17-1.56,1.73l-1.62,1.68l-1.62,1.68c-0.54,0.56-1.15,1.05-1.72,1.57l-3.52,3.07l-3.75,2.79
	c-5.1,3.56-10.53,6.75-16.39,8.98c-0.73,0.29-1.44,0.61-2.18,0.88l-2.24,0.72l-2.24,0.72c-0.75,0.24-1.49,0.5-2.26,0.65l-4.6,1.04
	c-0.76,0.2-1.55,0.28-2.33,0.39l-2.34,0.32l-2.34,0.31c-0.78,0.07-1.57,0.08-2.36,0.13c-1.58,0.05-3.15,0.17-4.73,0.16
	c-3.15-0.17-6.32-0.21-9.44-0.79c-6.26-0.88-12.39-2.64-18.14-5.15c-11.52-5.01-21.84-12.96-29.34-23.29
	c-3.72-5.18-6.7-10.95-8.64-17.12c-1-3.07-1.67-6.25-2.11-9.46c-0.45-3.21-0.58-6.47-0.44-9.7c0.04-1.62,0.23-3.23,0.4-4.84
	c0.26-1.59,0.46-3.2,0.84-4.76c0.31-1.58,0.76-3.12,1.2-4.67c0.24-0.85,0.41-1.31,0.55-1.87c0.14-0.55,0.27-1.1,0.37-1.65
	c0.21-1.11,0.3-2.23,0.32-3.35c0.01-0.56-0.01-1.11-0.05-1.66c-0.04-0.55-0.11-1.12-0.18-1.52c-0.32-1.81-1.27-3.93-2.57-6.29
	l-17-30.18l-8.52-15.13l-4.23-7.58c-1.41-2.54-2.75-4.93-4.18-7.06c-0.72-1.06-1.45-2.06-2.22-2.97c-0.76-0.91-1.62-1.71-2.49-2.53
	c-1.77-1.59-3.86-2.96-6.13-4.22c-4.56-2.51-9.91-4.46-15.45-6.98c-2.77-1.26-5.6-2.71-8.33-4.5c-2.69-1.75-5.13-3.67-7.47-5.69
	c-4.65-4.05-8.8-8.46-12.64-13.06c-3.82-4.54-7.48-9.54-10.55-14.76c-3.09-5.24-5.72-10.72-7.89-16.36
	c-4.3-11.3-6.76-23.17-7.77-35.06c-0.1-1.49-0.23-2.98-0.31-4.47l-0.17-4.47l-0.03-4.47l0-0.56l0.01-0.63l0.05-1.2
	c0.05-0.78,0.1-1.55,0.18-2.31c0.57-6.08,1.72-11.97,3.31-17.76c3.17-11.56,8.15-22.57,14.58-32.62c3.2-5.03,6.84-9.78,10.77-14.24
	c3.94-4.45,8.15-8.67,12.71-12.46l1.69-1.44l1.76-1.36c1.18-0.9,2.32-1.83,3.53-2.69c2.43-1.69,4.81-3.44,7.34-4.96
	c4.95-3.22,10.19-5.93,15.45-8.54l-1.12,1.21l9.49-22.13l9.57-22.09l9.61-22.08L365.35,118.1z"/>
<path class="st1" d="M1299.7,130.49v375.08h86.8V130.49H1299.7z M1322.21,167.02h36.48v-13.2h8.73v36.25h-8.73V176.9h-36.48V167.02z
	 M1322.21,224.29h45.21v33.96h-8.73V234.2h-9.05v18.77h-8.7V234.2h-10.03v24.72h-8.7V224.29z M1367.72,469.2
	c-0.43,1.76-0.94,3.2-1.51,4.33c-0.58,1.13-1.17,2.11-1.77,2.96c-0.6,0.85-1.12,1.45-1.56,1.82l-0.63,0.58l-6.15-5.92
	c0.29-0.26,0.66-0.62,1.09-1.08s1-1.43,1.72-2.91c0.71-1.48,1.07-3,1.07-4.57c0-1.89-0.47-3.41-1.42-4.56
	c-0.95-1.15-2.09-1.72-3.44-1.72c-1.51,0-2.73,0.78-3.64,2.33c-0.91,1.56-1.69,3.44-2.32,5.67c-0.63,2.22-1.37,4.45-2.21,6.7
	c-0.84,2.24-2.23,4.15-4.16,5.71c-1.93,1.57-4.38,2.35-7.35,2.35c-4.18,0-7.6-1.55-10.25-4.65s-3.97-7.38-3.97-12.83
	c0-2.15,0.26-4.22,0.77-6.23c0.51-2.01,1.13-3.66,1.84-4.96s1.44-2.44,2.18-3.43c0.74-0.99,1.36-1.7,1.86-2.12l0.79-0.74l5.8,5.96
	c-0.34,0.3-0.77,0.72-1.31,1.27c-0.54,0.55-1.26,1.77-2.16,3.65s-1.36,3.86-1.36,5.92c0,2.38,0.55,4.24,1.64,5.59
	c1.09,1.34,2.48,2.01,4.16,2.01c1.51,0,2.73-0.78,3.66-2.33c0.92-1.56,1.7-3.45,2.32-5.7c0.62-2.24,1.35-4.48,2.19-6.7
	c0.84-2.22,2.23-4.12,4.16-5.68c1.93-1.57,4.38-2.35,7.35-2.35c3.66,0,6.78,1.5,9.36,4.49c2.59,2.99,3.88,6.88,3.88,11.67
	C1368.36,465.62,1368.15,467.44,1367.72,469.2z M1322.21,381.74v-9.92h45.21v9.92h-18.1v19.77h18.1v9.88h-45.21v-9.88h18.41v-19.77
	H1322.21z M1367.43,324.44c-0.62,2.19-1.37,3.99-2.25,5.39c-0.88,1.41-1.77,2.65-2.65,3.73c-0.88,1.08-1.63,1.86-2.24,2.33
	l-0.95,0.74l-6.15-6.28c0.17-0.13,0.4-0.31,0.71-0.53c0.3-0.23,0.83-0.73,1.56-1.51c0.74-0.78,1.38-1.64,1.94-2.56
	c0.56-0.92,1.07-2.14,1.54-3.64s0.71-3.04,0.71-4.6c0-4.31-1.42-7.92-4.26-10.82c-2.84-2.9-6.37-4.35-10.59-4.35
	s-7.76,1.45-10.59,4.35c-2.84,2.9-4.26,6.5-4.26,10.82c0,1.67,0.23,3.28,0.68,4.81c0.45,1.53,0.99,2.81,1.61,3.81
	c0.62,1.01,1.25,1.9,1.88,2.67c0.63,0.77,1.18,1.33,1.64,1.67l0.66,0.52l-6.15,5.96c-0.25-0.17-0.58-0.43-0.99-0.79
	c-0.41-0.35-1.14-1.14-2.18-2.35c-1.04-1.21-1.95-2.51-2.74-3.9c-0.79-1.38-1.51-3.2-2.16-5.44c-0.65-2.24-0.98-4.57-0.98-6.97
	c0-7.04,2.31-12.98,6.92-17.82s10.17-7.26,16.66-7.26s12.04,2.42,16.65,7.26s6.9,10.78,6.9,17.82
	C1368.36,319.94,1368.05,322.25,1367.43,324.44z"/>
<path class="st2" d="M906.13,178.51"/>
<path class="st1" d="M912.38,177.29c4.58-2.13,9.1-4.23,13.8-6.42c-0.01,1.1,0.02,2.06-0.07,3.01c-0.02,0.21-0.4,0.45-0.66,0.57
	c-3.05,1.32-6.1,2.63-9.4,4.04c1.29,0.58,2.37,1.08,3.46,1.54c1.9,0.81,3.8,1.61,5.71,2.38c0.58,0.23,0.89,0.5,0.82,1.18
	c-0.08,0.76-0.03,1.53-0.05,2.49c-1.36-0.63-2.62-1.19-3.87-1.78c-2.88-1.36-5.73-2.79-8.64-4.07c-0.92-0.41-1.3-0.89-1.14-1.85
	C912.41,178.02,912.38,177.66,912.38,177.29z"/>
<g>
	<path class="st0" d="M939.82,248.89c-39.23,0-71.15-31.92-71.15-71.15s31.92-71.15,71.15-71.15s71.15,31.92,71.15,71.15
		S979.05,248.89,939.82,248.89z M939.82,113.59c-35.37,0-64.15,28.78-64.15,64.15s28.78,64.15,64.15,64.15
		c35.37,0,64.15-28.78,64.15-64.15S975.19,113.59,939.82,113.59z"/>
</g>
<path class="st0" d="M970.63,171.99c1.66,0.02,3.15,0.04,4.75,0.06c-0.01,0.44-0.01,0.83-0.01,1.22
	c-0.12,9.88-0.23,19.75-0.35,29.63c-0.04,3.25-2.11,5.29-5.36,5.25c-8.38-0.09-16.76-0.2-25.15-0.3c-0.43-0.01-0.86-0.01-1.39-0.02
	c-0.01,0.9-0.02,1.71-0.03,2.69c1.74,0.17,3.47,0.27,5.18,0.53c2,0.3,3.98,0.73,5.97,1.13c0.8,0.16,1.06,0.66,1.04,1.5
	c-0.07,2.16-0.01,2.27-2.2,2.67c-2.35,0.42-4.74,0.82-7.12,0.88c-5.71,0.13-11.43,0.23-17.14,0c-3.64-0.15-7.27-0.84-10.89-1.4
	c-1.52-0.24-2.34-2.19-1.54-3.49c0.21-0.34,0.76-0.58,1.19-0.66c1.92-0.35,3.85-0.69,5.78-0.93c1.69-0.2,3.4-0.26,5.17-0.39
	c0.01-0.88,0.02-1.7,0.03-2.71c-0.42-0.01-0.84-0.01-1.26-0.01c-8.35-0.1-16.69-0.2-25.04-0.3c-3.58-0.04-5.52-2.02-5.48-5.57
	c0.17-14.25,0.38-28.5,0.47-42.75c0.02-3.08,2.13-5.52,5.5-5.44c11.18,0.25,22.37,0.31,33.55,0.44c0.36,0,0.72,0.01,1.15,0.01
	c-0.02,1.59-0.04,3.1-0.06,4.74c-0.43-0.01-0.85-0.01-1.28-0.02c-10.82-0.13-21.65-0.26-32.47-0.39c-1.58-0.02-1.6,0.01-1.62,1.56
	c-0.16,13.67-0.33,27.33-0.49,41c-0.02,1.59,0.06,1.67,1.65,1.69c21.65,0.26,43.29,0.52,64.94,0.78c0.33,0,0.66-0.01,0.98,0.01
	c0.76,0.03,1.17-0.3,1.15-1.09c-0.01-0.25,0.01-0.51,0.01-0.77c0.11-9.4,0.22-18.8,0.34-28.21
	C970.62,172.92,970.62,172.49,970.63,171.99z"/>
<path class="st1" d="M967.39,140.84c2.86,2.97,5.69,5.89,8.61,8.92c-1.68,1.62-3.48,3.36-5.28,5.1c-2.75,2.66-5.55,5.26-8.22,8
	c-1.15,1.18-2.61,1.33-4,1.76c-2.28,0.7-4.58,1.31-6.88,1.94c-1.58,0.43-2.29-0.26-1.82-1.82c0.93-3.11,1.9-6.22,2.88-9.31
	c0.11-0.36,0.33-0.73,0.6-1c4.59-4.46,9.2-8.91,13.81-13.36C967.18,140.96,967.31,140.9,967.39,140.84z M954.65,156.89
	c-0.43,1.38-0.92,2.92-1.39,4.47c-0.26,0.86,0.63,2.05,1.45,1.85c1.7-0.42,3.38-0.93,4.76-1.31c-0.25-1.52-0.47-2.89-0.7-4.26
	C957.46,157.4,956.12,157.16,954.65,156.89z"/>
<path class="st0" d="M929.3,190.63c1.1-2.61,2.14-5.1,3.21-7.58c2.35-5.44,4.73-10.86,7.05-16.3c0.29-0.68,0.61-0.92,1.34-0.86
	c0.98,0.08,1.96,0.04,3.09,0.05c-0.18,0.47-0.31,0.85-0.48,1.23c-3.28,7.59-6.58,15.17-9.84,22.76c-0.23,0.54-0.48,0.8-1.1,0.75
	C931.56,190.62,930.54,190.65,929.3,190.63z"/>
<path class="st1" d="M957.67,178.78c-3.14-1.42-5.98-2.75-8.86-3.98c-0.9-0.38-1.33-0.84-1.17-1.84c0.09-0.6,0.03-1.23,0.04-2.02
	c0.83,0.39,1.58,0.72,2.3,1.08c3.54,1.74,7.05,3.54,10.61,5.2c1.08,0.5,0.59,1.3,0.71,2c0.12,0.67-0.25,0.92-0.82,1.16
	c-4.1,1.79-8.19,3.62-12.28,5.44c-0.19,0.08-0.39,0.15-0.71,0.27c0.01-1.01-0.04-1.92,0.07-2.8c0.03-0.28,0.42-0.63,0.72-0.75
	c2.61-1.06,5.23-2.08,7.85-3.11C956.56,179.26,956.98,179.07,957.67,178.78z"/>
<path class="st1" d="M980.74,144.95c-2.76-2.83-5.49-5.63-8.42-8.63c0.42-0.33,0.91-0.69,1.36-1.09c1.12-0.97,2.65-1.13,3.75-0.13
	c1.66,1.51,3.24,3.12,4.71,4.81c1.06,1.22,0.85,2.76-0.28,3.91C981.49,144.21,981.1,144.59,980.74,144.95z"/>
<path class="st1" d="M968.89,139.14c0.63-0.55,1.23-1.07,1.73-1.5c2.88,2.95,5.72,5.87,8.56,8.78c-0.44,0.42-1.05,1-1.64,1.57
	C974.69,145.08,971.82,142.14,968.89,139.14z"/>
<path class="st0" d="M866.21,132.24c6.42-13.38,16.88-24.97,29.54-33.31c12.62-8.4,27.76-13.51,43.21-13.71
	c15.37-0.28,30.84,4.06,43.62,12.42l2.36,1.62c0.78,0.54,1.59,1.05,2.32,1.67c1.47,1.21,3.02,2.32,4.4,3.63
	c1.36,1.33,2.79,2.57,4.08,3.96c1.26,1.42,2.59,2.76,3.76,4.24c4.73,5.88,8.57,12.43,11.06,19.42
	c-7.67-12.67-18.33-22.97-30.8-29.86c-12.47-6.86-26.6-10.36-40.69-10.11c-14.08,0.17-28.01,4.37-40.48,11.36
	C886.12,110.62,875.1,120.41,866.21,132.24z"/>
<path class="st0" d="M895.31,85.84c5.94-4.97,12.89-8.71,20.18-11.5c7.31-2.77,15.1-4.48,23-4.75c3.95-0.07,7.91,0.09,11.82,0.72
	c0.98,0.13,1.94,0.38,2.91,0.57l1.45,0.3l1.43,0.38c0.95,0.27,1.91,0.5,2.85,0.8l2.78,1c7.38,2.77,14.08,7.12,19.63,12.47
	c-6.58-4.04-13.42-7.41-20.62-9.51c-7.2-2.08-14.66-3.03-22.12-2.74c-3.73,0.06-7.46,0.5-11.15,1.14c-3.7,0.6-7.36,1.52-10.99,2.55
	C909.25,79.45,902.15,82.27,895.31,85.84z"/>
<path class="st0" d="M447.29,144.12c7.75,4.63,15.2,9.66,22.55,14.82c7.36,5.14,14.58,10.48,21.71,15.92
	c7.12,5.46,14.15,11.03,21.03,16.8c6.9,5.75,13.69,11.63,20.18,17.91c-7.76-4.63-15.21-9.65-22.55-14.82
	c-7.36-5.14-14.58-10.48-21.7-15.93c-7.12-5.46-14.15-11.04-21.03-16.81C460.58,156.28,453.79,150.39,447.29,144.12z"/>
<path class="st0" d="M453.06,459.8c5.9-6.12,12.12-11.86,18.44-17.47c6.3-5.63,12.76-11.06,19.31-16.39
	c6.56-5.32,13.2-10.52,20.01-15.54c6.78-5.04,13.68-9.93,20.89-14.45c-5.9,6.13-12.11,11.87-18.43,17.48
	c-6.3,5.63-12.76,11.06-19.32,16.39c-6.56,5.31-13.21,10.52-20.01,15.53C467.16,450.38,460.27,455.28,453.06,459.8z"/>
<g>
	<path class="st0" d="M1409.03,85.3h12.49c2.79,0,5.1,0.87,6.93,2.6c1.83,1.73,2.74,3.86,2.74,6.37c0,1.09-0.18,2.11-0.53,3.07
		c-0.35,0.95-0.77,1.72-1.25,2.3s-0.97,1.09-1.47,1.5s-0.92,0.7-1.28,0.86l-0.51,0.27l6.04,10.34h-6.45l-5.43-9.56h-5.23v9.56h-6.06
		V85.3z M1424.07,91.62c-0.73-0.7-1.64-1.05-2.74-1.05h-6.24v7.22h6.24c1.1,0,2.02-0.34,2.74-1.02c0.73-0.68,1.09-1.51,1.09-2.5
		C1425.16,93.2,1424.79,92.32,1424.07,91.62z"/>
</g>
<g>
	<path class="st1" d="M1419.14,125.95c-14.74,0-26.74-11.99-26.74-26.74s11.99-26.74,26.74-26.74c14.74,0,26.74,11.99,26.74,26.74
		S1433.88,125.95,1419.14,125.95z M1419.14,75.18c-13.25,0-24.03,10.78-24.03,24.03s10.78,24.03,24.03,24.03
		c13.25,0,24.03-10.78,24.03-24.03S1432.39,75.18,1419.14,75.18z"/>
	<path class="st1" d="M1419.14,126.95c-15.29,0-27.74-12.44-27.74-27.74c0-15.29,12.44-27.74,27.74-27.74
		c15.29,0,27.74,12.44,27.74,27.74C1446.88,114.51,1434.43,126.95,1419.14,126.95z M1419.14,73.47c-14.19,0-25.74,11.55-25.74,25.74
		c0,14.19,11.55,25.74,25.74,25.74c14.19,0,25.74-11.55,25.74-25.74C1444.88,85.02,1433.33,73.47,1419.14,73.47z M1419.14,124.25
		c-13.8,0-25.03-11.23-25.03-25.03s11.23-25.03,25.03-25.03s25.03,11.23,25.03,25.03S1432.94,124.25,1419.14,124.25z M1419.14,76.18
		c-12.7,0-23.03,10.33-23.03,23.03s10.33,23.03,23.03,23.03c12.7,0,23.03-10.33,23.03-23.03S1431.84,76.18,1419.14,76.18z"/>
</g>
<g>
</g>
<g>
</g>
<g>
</g>
<g>
</g>
<g>
</g>
</svg>
