<svg id="Layer_1" data-name="Layer 1" xmlns="http://www.w3.org/2000/svg" viewBox="0 0 627.34 755.22"><defs><style>.cls-1,.cls-5{fill:#662d91;}.cls-1,.cls-2,.cls-3,.cls-6{stroke:#662d91;stroke-miterlimit:10;}.cls-2,.cls-6{fill:none;}.cls-2{stroke-width:4px;}.cls-3,.cls-4,.cls-8{fill:#662d90;}.cls-6{stroke-width:2px;}.cls-7{fill:#00a99d;}.cls-8{font-size:116.31px;font-family:DylanGothic-Regular, Dylan Gothic;}</style></defs><title>project5</title><ellipse class="cls-1" cx="249.41" cy="146.82" rx="16.09" ry="15.62"/><ellipse class="cls-1" cx="130.19" cy="443.85" rx="33.19" ry="32.2"/><ellipse class="cls-1" cx="522.85" cy="344.59" rx="24.38" ry="23.65"/><ellipse class="cls-2" cx="370.62" cy="516.59" rx="28.78" ry="27.93"/><path class="cls-3" d="M1615.33,793.84a25.12,25.12,0,0,1-12.72-12.36,24,24,0,0,1-.65-19,25,25,0,0,1,13.4-13.9,26.17,26.17,0,0,1,19.6-.63,25.16,25.16,0,0,1,14.32,13,24.05,24.05,0,0,1,.66,19,25.05,25.05,0,0,1-13.4,13.9,26.17,26.17,0,0,1-19.6.63C1616.39,794.28,1615.86,794.07,1615.33,793.84Zm19.93-42.49q-.69-.3-1.41-.57a22.93,22.93,0,0,0-17.19.56,22,22,0,0,0-11.76,12.19,21.1,21.1,0,0,0,.58,16.69,22,22,0,0,0,12.56,11.4,23,23,0,0,0,17.2-.55,21.93,21.93,0,0,0,11.75-12.2h0a21.08,21.08,0,0,0-.57-16.68A22,22,0,0,0,1635.26,751.35Z" transform="translate(-1186.33 -522.39)"/><path class="cls-4" d="M1601.59,766.76c-2.7,1.15-5.34,2.43-7.95,3.74a54.31,54.31,0,0,0-7.45,4.45,14,14,0,0,0-1.6,1.34,3.57,3.57,0,0,0-1,1.46c-.29.66,1.19,1.24,2.52,1.45,2.79.38,5.8.6,8.7.82a219.18,219.18,0,0,0,35.13-.47c2.91-.26,5.83-.57,8.73-.95s5.77-.87,8.76-1.2a168,168,0,0,0,17.32-2.77,42.7,42.7,0,0,0,4.13-1.19,14.63,14.63,0,0,0,1.88-.83,3.82,3.82,0,0,0,1.37-1.07c.17-.43.28-.37-.26-.81a7.83,7.83,0,0,0-1.79-.85,37,37,0,0,0-4.17-1.13c-5.71-1.25-11.58-1.92-17.42-2.7,2.94.11,5.89.27,8.83.53s5.89.54,8.83,1a34.68,34.68,0,0,1,4.4,1,9.1,9.1,0,0,1,2.21,1,2.37,2.37,0,0,1,1,1.17,2.12,2.12,0,0,1-.23,1.66,5.16,5.16,0,0,1-1.91,1.73,15.7,15.7,0,0,1-2.11,1,39.84,39.84,0,0,1-4.3,1.39,144.07,144.07,0,0,1-17.49,3.22c-2.87.36-5.81.91-8.75,1.28s-5.88.74-8.83,1c-5.91.51-11.84.82-17.77.82s-11.86-.28-17.76-.88c-3-.34-5.84-.6-8.86-1.16a8.16,8.16,0,0,1-2.3-.82,1.87,1.87,0,0,1-.57-.39,2,2,0,0,1-.51-.57c-.07-.12-.13-.24-.19-.37a2.7,2.7,0,0,1-.08-.41,1.72,1.72,0,0,1,.06-.79,4.91,4.91,0,0,1,1.46-2,15.84,15.84,0,0,1,1.82-1.38,56.45,56.45,0,0,1,7.88-4.06C1596.05,768.74,1598.79,767.67,1601.59,766.76Z" transform="translate(-1186.33 -522.39)"/><path class="cls-5" d="M1682.85,931.24a220.33,220.33,0,0,1-14.59,24.8,209.28,209.28,0,0,1-68.62,62.71l3.66,13.42c3.25-1.82,6.49-3.67,9.62-5.7a208.92,208.92,0,0,0,25-18.19,219.78,219.78,0,0,0,22-21.43,212.87,212.87,0,0,0,33.74-50.64,216.37,216.37,0,0,0,10.37-26l-10.35-5.25A209.15,209.15,0,0,1,1682.85,931.24Z" transform="translate(-1186.33 -522.39)"/><path class="cls-5" d="M1465.13,1045.59a222.73,222.73,0,0,1-56.59-13.74,181,181,0,0,1-49.58-28.92c-.41-.34-.8-.7-1.2-1l-7,14.08a197.37,197.37,0,0,0,52,29.74,231.65,231.65,0,0,0,60.71,14.45,248.36,248.36,0,0,0,51.72-.17l-5.86-13.71A231.79,231.79,0,0,1,1465.13,1045.59Z" transform="translate(-1186.33 -522.39)"/><ellipse class="cls-6" cx="409.51" cy="119.77" rx="13.74" ry="13.33"/><path class="cls-5" d="M1708.26,789.17c-1.34-4.83-2.45-9.71-4.1-14.44-.78-2.38-1.51-4.78-2.33-7.14l-2.65-7-1.35-3.5-1.49-3.45-3-6.89L1690,740l-1.67-3.36-1.83-3.29-3.66-6.57c-1.29-2.15-2.64-4.26-4-6.4-2.56-4.31-5.56-8.35-8.36-12.51a260.78,260.78,0,0,0-19-23.35,252,252,0,0,0-31.57-29.24l-2.77,4.07a255.07,255.07,0,0,1,47.55,52.33c2.61,4.12,5.43,8.12,7.79,12.37l3.66,6.31,3.38,6.46,1.67,3.23,1.54,3.3,3.08,6.58,2.75,6.72L1690,760l1.22,3.41,2.41,6.83c.74,2.3,1.4,4.62,2.1,6.93,1.49,4.59,2.45,9.32,3.64,14a217,217,0,0,1,4.37,29.2h9.86A226.74,226.74,0,0,0,1708.26,789.17Z" transform="translate(-1186.33 -522.39)"/><path class="cls-5" d="M1573.27,626l-6.88-3.19-3.44-1.59c-1.15-.52-2.33-1-3.5-1.46l-7-2.87a270.91,270.91,0,0,0-58.59-15.1A269.2,269.2,0,0,1,1551.5,619l6.84,3.08c1.14.52,2.3,1,3.42,1.55l3.34,1.68,6.53,3.29,1.69-2.62Z" transform="translate(-1186.33 -522.39)"/><path class="cls-7" d="M1381.09,839.91l16.36,5" transform="translate(-1186.33 -522.39)"/><path class="cls-5" d="M1381.09,839.91a14.18,14.18,0,0,1,4.55-.24,21.48,21.48,0,0,1,8.18,2.5,14.21,14.21,0,0,1,3.63,2.75,13.91,13.91,0,0,1-4.55.25,20.62,20.62,0,0,1-4.22-.84,21.35,21.35,0,0,1-4-1.67A14.21,14.21,0,0,1,1381.09,839.91Z" transform="translate(-1186.33 -522.39)"/><path class="cls-7" d="M1390.74,805.07q11.1,11.94,22.19,23.87" transform="translate(-1186.33 -522.39)"/><path class="cls-5" d="M1390.74,805.07a45.41,45.41,0,0,1,6.7,4.9,78.49,78.49,0,0,1,5.86,5.67,76.82,76.82,0,0,1,5.24,6.26,44.82,44.82,0,0,1,4.39,7,44.7,44.7,0,0,1-6.7-4.9,76.54,76.54,0,0,1-5.86-5.67,80.62,80.62,0,0,1-5.23-6.26A46.11,46.11,0,0,1,1390.74,805.07Z" transform="translate(-1186.33 -522.39)"/><path class="cls-7" d="M1430.12,799.45q3.18,8.41,6.37,16.83" transform="translate(-1186.33 -522.39)"/><path class="cls-5" d="M1430.12,799.45a15.32,15.32,0,0,1,3.06,3.66,23.39,23.39,0,0,1,2,4,22.84,22.84,0,0,1,1.2,4.36,15.37,15.37,0,0,1,.12,4.76,15.14,15.14,0,0,1-3.07-3.65,23.64,23.64,0,0,1-3.17-8.42A15.66,15.66,0,0,1,1430.12,799.45Z" transform="translate(-1186.33 -522.39)"/><path class="cls-7" d="M1466.41,786q-2.43,14.28-4.88,28.56" transform="translate(-1186.33 -522.39)"/><path class="cls-5" d="M1466.41,786a36.27,36.27,0,0,1,.33,7.4,61.85,61.85,0,0,1-.79,7.21,59.86,59.86,0,0,1-1.65,7.07,35.63,35.63,0,0,1-2.77,6.88,36.4,36.4,0,0,1-.33-7.41,61.14,61.14,0,0,1,2.45-14.28A36.14,36.14,0,0,1,1466.41,786Z" transform="translate(-1186.33 -522.39)"/><path class="cls-7" d="M1493.84,807.77" transform="translate(-1186.33 -522.39)"/><path class="cls-7" d="M1493.84,807.77l-8.77,12.57" transform="translate(-1186.33 -522.39)"/><path class="cls-5" d="M1493.84,807.77a12.09,12.09,0,0,1-.91,4,17.4,17.4,0,0,1-4.38,6.29,11.85,11.85,0,0,1-3.48,2.24,11.85,11.85,0,0,1,.9-4,17,17,0,0,1,1.84-3.39,17.84,17.84,0,0,1,2.55-2.89A11.87,11.87,0,0,1,1493.84,807.77Z" transform="translate(-1186.33 -522.39)"/><path class="cls-7" d="M1532.82,817.81l-29.73,20.63" transform="translate(-1186.33 -522.39)"/><path class="cls-5" d="M1532.82,817.81a55.17,55.17,0,0,1-6.54,6.44c-2.31,2-4.71,3.8-7.18,5.52s-5,3.33-7.68,4.81a54.07,54.07,0,0,1-8.33,3.86,55.26,55.26,0,0,1,6.54-6.45q3.46-2.94,7.19-5.51c2.47-1.71,5-3.32,7.67-4.8A56,56,0,0,1,1532.82,817.81Z" transform="translate(-1186.33 -522.39)"/><path class="cls-7" d="M1530.5,855.65l-19.27,3.07" transform="translate(-1186.33 -522.39)"/><path class="cls-5" d="M1530.5,855.65a17.71,17.71,0,0,1-4.57,2.31,27.88,27.88,0,0,1-9.64,1.55,17.57,17.57,0,0,1-5.06-.79,17.44,17.44,0,0,1,4.57-2.32,26.42,26.42,0,0,1,4.75-1.19,27.41,27.41,0,0,1,4.89-.34A17.5,17.5,0,0,1,1530.5,855.65Z" transform="translate(-1186.33 -522.39)"/><path class="cls-7" d="M1511.27,882l29.66,3.59" transform="translate(-1186.33 -522.39)"/><path class="cls-5" d="M1511.27,882a37.92,37.92,0,0,1,7.6-.66,64,64,0,0,1,7.47.47,62.06,62.06,0,0,1,7.36,1.32,37.18,37.18,0,0,1,7.23,2.46,38.76,38.76,0,0,1-7.61.66,64.75,64.75,0,0,1-14.83-1.8A38.67,38.67,0,0,1,1511.27,882Z" transform="translate(-1186.33 -522.39)"/><path class="cls-7" d="M1504.79,900.94l15.67,6.78" transform="translate(-1186.33 -522.39)"/><path class="cls-5" d="M1504.79,900.94a13.85,13.85,0,0,1,4.54.26,21.15,21.15,0,0,1,4.09,1.29,21.57,21.57,0,0,1,3.75,2.09,14.09,14.09,0,0,1,3.29,3.14,14.14,14.14,0,0,1-4.54-.25,21.2,21.2,0,0,1-4.09-1.31,20.66,20.66,0,0,1-3.75-2.09A14.24,14.24,0,0,1,1504.79,900.94Z" transform="translate(-1186.33 -522.39)"/><path class="cls-7" d="M1488.93,917.21,1506.57,935" transform="translate(-1186.33 -522.39)"/><path class="cls-5" d="M1488.93,917.21a27.68,27.68,0,0,1,5.52,3.34,45.34,45.34,0,0,1,4.71,4.13,43.35,43.35,0,0,1,4.11,4.75,27.22,27.22,0,0,1,3.3,5.55,27.48,27.48,0,0,1-5.53-3.34,44.28,44.28,0,0,1-4.71-4.14,46.56,46.56,0,0,1-4.11-4.74A27.74,27.74,0,0,1,1488.93,917.21Z" transform="translate(-1186.33 -522.39)"/><line class="cls-7" x1="282.21" y1="404.57" x2="287.92" y2="416.08"/><path class="cls-5" d="M1468.54,927a9.14,9.14,0,0,1,2.83,2.18,12.16,12.16,0,0,1,2.86,5.75,9.13,9.13,0,0,1,0,3.58,9.3,9.3,0,0,1-2.84-2.18,12.15,12.15,0,0,1-2.85-5.75A9.33,9.33,0,0,1,1468.54,927Z" transform="translate(-1186.33 -522.39)"/><path class="cls-5" d="M1504.76,878.7a44.26,44.26,0,0,1-8.28,12.53,51.9,51.9,0,0,1-4.76,4.5,45.24,45.24,0,0,1-37.83,20.07c-24.83,0-45-19.53-45-43.63s20.14-43.63,45-43.63,45,19.54,45,43.63a42.4,42.4,0,0,1-5.24,20.44c.68-.7,1.34-1.41,2-2.14,6.36-7.4,10.42-16.9,9.72-26.41s-5.59-18.33-12.44-25a58,58,0,0,0-24.93-14.36,48.7,48.7,0,0,0-14.26-1.83A49.27,49.27,0,0,0,1433,828.2c-1,.57-2.17,1-3.16,1.67l-3,1.91a31.16,31.16,0,0,0-2.88,2.1,33.08,33.08,0,0,0-2.78,2.23,56.86,56.86,0,0,0-5.07,5,61.07,61.07,0,0,0-13.67,24.33,30.08,30.08,0,0,0-.82,3.37c-.21,1.14-.57,2.25-.67,3.41a51.2,51.2,0,0,0-.57,6.87c-.05,1.24,0,2.48,0,3.72,5,24.29,27.15,42.59,53.66,42.59,30.23,0,54.74-23.78,54.74-53.11a51.37,51.37,0,0,0-1.37-11.77,30.46,30.46,0,0,1,.27,3.45A34.37,34.37,0,0,1,1504.76,878.7Z" transform="translate(-1186.33 -522.39)"/><path class="cls-5" d="M1578.92,820.81a115.73,115.73,0,0,0-34.06-52c-15.85-14-35.25-23.77-55.59-29.4A174.9,174.9,0,0,0,1426.5,734a167.57,167.57,0,0,0-60.59,17.29,140,140,0,0,0-64.33,66.89,154.56,154.56,0,0,0-9.95,29.33,167.53,167.53,0,0,0-4,30.53,171.84,171.84,0,0,0,1.68,30.67q.5,3.42,1.14,6.81l14.6-9.28a157.37,157.37,0,0,1-1.58-27.68,152.38,152.38,0,0,1,3.53-27.75,131.79,131.79,0,0,1,23.15-50.46,125.15,125.15,0,0,1,42.93-35.86A155.58,155.58,0,0,1,1428,748.58a159.62,159.62,0,0,1,57.32,4.36c18.52,4.94,36,13.59,50.18,25.9a104.38,104.38,0,0,1,18.5,20.9,100.49,100.49,0,0,1,14.36,79.65c-4.27,18-13.91,34.88-28.12,47.06a97,97,0,0,1-51.44,22.44c-19,2.28-38.73-1.48-54.64-11.8a77.83,77.83,0,0,1-20.6-19.18,69.71,69.71,0,0,1-7.23-12,58.78,58.78,0,0,1-2.61-6.45,59.85,59.85,0,0,1-2-6.67,66.1,66.1,0,0,1-1.39-10c-.06-1.24-.07-2.48,0-3.72a51.2,51.2,0,0,1,.57-6.87c.1-1.16.46-2.27.67-3.41a30.08,30.08,0,0,1,.82-3.37,61.07,61.07,0,0,1,13.67-24.33,56.86,56.86,0,0,1,5.07-5,33.08,33.08,0,0,1,2.78-2.23,31.16,31.16,0,0,1,2.88-2.1l3-1.91c1-.66,2.11-1.1,3.16-1.67a49.27,49.27,0,0,1,20.64-5.38,48.7,48.7,0,0,1,14.26,1.83A58,58,0,0,1,1492.86,839c6.85,6.72,11.85,15.54,12.44,25s-3.36,19-9.72,26.41c-.63.73-1.29,1.44-2,2.14-.58,1.07-1.22,2.11-1.89,3.12a51.9,51.9,0,0,0,4.76-4.5,44.26,44.26,0,0,0,8.28-12.53A34.37,34.37,0,0,0,1507.7,864a30.46,30.46,0,0,0-.27-3.45,31.56,31.56,0,0,0-.78-4.08,36.82,36.82,0,0,0-2.6-7.17,42.79,42.79,0,0,0-3.86-6.6,49.11,49.11,0,0,0-4.86-5.93,61.72,61.72,0,0,0-26.12-16.16,53.41,53.41,0,0,0-15.59-2.5,56.77,56.77,0,0,0-15.68,2.43,59.3,59.3,0,0,0-7.37,2.89c-1.18.59-2.43,1.06-3.54,1.75l-3.39,2a38,38,0,0,0-3.24,2.23c-1,.8-2.17,1.48-3.12,2.37a65.59,65.59,0,0,0-5.72,5.33,67.48,67.48,0,0,0-15.81,26.46,61.82,61.82,0,0,0-1.59,30.79,74,74,0,0,0,12.49,28.31A86.82,86.82,0,0,0,1458.19,957a98.66,98.66,0,0,0,31.77,2,106.7,106.7,0,0,0,57.86-24.11c16.37-13.61,27.53-32.53,32.61-52.6A113.32,113.32,0,0,0,1578.92,820.81Z" transform="translate(-1186.33 -522.39)"/><path class="cls-4" d="M1260.6,619.46q-2.68,11.82-5.39,23.65l-23.19,6.2,23.1,4.61q3.14,9.89,6.28,19.75,2.56-10,5.12-20l22.48-4.2-22.73-6.61Z" transform="translate(-1186.33 -522.39)"/><path class="cls-4" d="M1514.76,522.39q-1.93,8.46-3.86,16.91l-16.57,4.43,16.51,3.29q2.23,7.07,4.49,14.12,1.83-7.17,3.65-14.33l16.08-3-16.25-4.72Z" transform="translate(-1186.33 -522.39)"/><path class="cls-4" d="M1219.61,863.54q-2.2,9.63-4.39,19.26l-18.89,5.05,18.81,3.76q2.55,8,5.12,16.08,2.09-8.16,4.16-16.33l18.32-3.42-18.52-5.38Q1221.91,873.05,1219.61,863.54Z" transform="translate(-1186.33 -522.39)"/><path class="cls-4" d="M1772.87,730.27q-1.92,8.46-3.85,16.92l-16.59,4.43,16.52,3.3,4.49,14.12,3.66-14.34,16.08-3L1776.92,747Z" transform="translate(-1186.33 -522.39)"/><path class="cls-4" d="M1733.65,970.29q-2.81,12.27-5.6,24.56l-24.09,6.44,24,4.79q3.27,10.26,6.53,20.52l5.31-20.83,23.36-4.37-23.62-6.86Z" transform="translate(-1186.33 -522.39)"/><text class="cls-8" transform="translate(0 720.79)">Astro</text><text class="cls-8" transform="translate(303.99 720.79)">Guide</text></svg>