<?xml version="1.0" encoding="utf-8"?>
<!-- Generator: Adobe Illustrator 23.0.1, SVG Export Plug-In . SVG Version: 6.00 Build 0)  -->
<svg version="1.1" id="Layer_1" xmlns="http://www.w3.org/2000/svg" xmlns:xlink="http://www.w3.org/1999/xlink" x="0px" y="0px"
	 viewBox="0 0 1142.6 952.6" style="enable-background:new 0 0 1142.6 952.6;" xml:space="preserve">
<style type="text/css">
	.st0{enable-background:new    ;}
	.st1{fill:none;}
	.st2{fill:#ED1C24;}
</style>
<title>project8</title>
<g>
	<g class="st0">
		<path d="M602.3,320.1v42.4c-2.5,2.3-5.3,4.2-8.3,5.7c-3,1.5-6.3,2.7-9.7,3.6c-3.4,0.9-7,1.5-10.7,1.8c-3.7,0.3-7.4,0.5-11.2,0.5
			c-7.8,0-15.1-1.5-21.9-4.4c-6.8-2.9-12.8-7-17.9-12.1c-5.1-5.1-9.2-11.1-12.1-17.9c-2.9-6.8-4.4-14.2-4.4-21.9
			c0-7.8,1.5-15.1,4.4-21.9c2.9-6.8,7-12.8,12.1-17.9c5.1-5.1,11.1-9.1,17.9-12.1c6.8-2.9,14.1-4.4,21.9-4.4
			c7.7,0,14.8,1.4,21.5,4.2c6.6,2.8,12.5,6.7,17.6,11.6l-0.8,0.7c-1,1-2,1.7-3.1,2.2c-1.1,0.5-2.3,0.7-3.7,0.7
			c-1.8,0-3.4-0.5-4.9-1.5c-3.8-2.6-7.9-4.7-12.4-6.1c-4.5-1.5-9.2-2.2-14.2-2.2c-4.3,0-8.4,0.6-12.4,1.7c-4,1.1-7.7,2.7-11.1,4.7
			c-3.5,2.1-6.6,4.5-9.5,7.3c-2.8,2.8-5.3,6-7.3,9.5c-2,3.5-3.6,7.2-4.7,11.2c-1.1,4-1.7,8.1-1.7,12.4s0.6,8.4,1.7,12.4
			c1.2,4,2.8,7.7,4.9,11.2c2.1,3.5,4.6,6.6,7.5,9.5c2.9,2.8,6.1,5.3,9.6,7.3c3.5,2,7.3,3.6,11.3,4.7c4,1.1,8.2,1.7,12.5,1.7
			c5.3,0,10.5-0.7,15.5-2.1c5-1.4,9.7-3.5,14.1-6.3v-26.4h-9.8c-1.4,0-2.7-0.3-3.8-0.8c-1.1-0.5-2.1-1.2-2.9-2
			c-0.8-0.8-1.4-1.8-1.8-3c-0.4-1.1-0.7-2.3-0.7-3.5v-0.3H602.3z"/>
	</g>
	<g class="st0">
		<path d="M626.3,373V262.8h9.6v100.5h50.4v9.6H626.3z"/>
	</g>
	<g class="st0">
		<path d="M683.5,317.8c0-7.8,1.5-15.1,4.4-21.9c2.9-6.8,7-12.8,12.1-17.9c5.1-5.1,11.1-9.1,17.9-12.1c6.8-2.9,14.1-4.4,21.9-4.4
			c7.8,0,15.1,1.5,21.9,4.4c6.8,2.9,12.8,7,17.9,12.1c5.1,5.1,9.1,11.1,12.1,17.9c2.9,6.8,4.4,14.2,4.4,21.9
			c0,7.8-1.5,15.1-4.4,21.9c-2.9,6.8-7,12.8-12.1,17.9c-5.1,5.1-11.1,9.1-17.9,12.1c-6.8,2.9-14.2,4.4-21.9,4.4
			c-7.8,0-15.1-1.5-21.9-4.4c-6.8-2.9-12.8-7-17.9-12.1c-5.1-5.1-9.2-11.1-12.1-17.9C685,332.9,683.5,325.6,683.5,317.8z
			 M693.1,317.8c0,4.3,0.6,8.4,1.7,12.4c1.1,4,2.7,7.7,4.7,11.2c2,3.5,4.5,6.6,7.3,9.5c2.8,2.8,6,5.3,9.5,7.3
			c3.5,2,7.2,3.6,11.1,4.7c4,1.1,8.1,1.7,12.4,1.7s8.4-0.6,12.4-1.7c4-1.1,7.7-2.7,11.2-4.7c3.5-2,6.6-4.5,9.5-7.3
			c2.8-2.8,5.3-6,7.3-9.5c2-3.5,3.6-7.2,4.7-11.2c1.1-4,1.7-8.1,1.7-12.4c0-6.5-1.2-12.5-3.7-18.2c-2.5-5.7-5.8-10.6-10-14.8
			s-9.2-7.6-14.8-10c-5.7-2.5-11.7-3.7-18.2-3.7c-4.3,0-8.4,0.6-12.4,1.7c-4,1.1-7.7,2.7-11.1,4.7c-3.5,2.1-6.6,4.5-9.5,7.3
			c-2.8,2.8-5.3,6-7.3,9.5c-2,3.5-3.6,7.2-4.7,11.2C693.7,309.4,693.1,313.5,693.1,317.8z"/>
		<path d="M829.5,373h-12.9V262.8h41.8c4,0,7.9,0.8,11.6,2.3s6.9,3.6,9.7,6.3c2.8,2.7,5,5.8,6.6,9.4c1.6,3.6,2.5,7.4,2.5,11.5
			c0,2.2-0.3,4.3-0.8,6.5c-0.5,2.2-1.2,4.2-2.1,6.1s-1.9,3.7-3.2,5.2c-1.2,1.6-2.5,2.8-4,3.8c-0.6,0.4-1.1,0.7-1.5,0.9
			c-0.4,0.2-0.6,0.3-0.8,0.4c-0.2,0.1-0.4,0.1-0.5,0c-0.1,0-0.2,0-0.2,0c1,0,2.1,0.2,3.2,0.7c1.1,0.5,2.1,1,2.9,1.5
			c2.2,1.5,4.1,3.3,5.6,5.3c1.5,2,2.7,4.1,3.7,6.3c0.9,2.2,1.6,4.5,2,6.8c0.4,2.3,0.6,4.6,0.6,6.8c0,3.9-0.7,7.8-2.2,11.4
			c-1.5,3.7-3.6,6.9-6.3,9.7s-5.9,5-9.6,6.7c-3.7,1.7-7.9,2.5-12.4,2.5L829.5,373z M826.2,272.4v39.8h32.2c2.8,0,5.4-0.5,7.9-1.6
			c2.5-1,4.7-2.5,6.6-4.3c1.9-1.8,3.4-3.9,4.5-6.3c1.1-2.4,1.7-5,1.7-7.7c0-2.8-0.6-5.4-1.7-7.8c-1.1-2.4-2.6-4.5-4.5-6.3
			c-1.9-1.8-4.1-3.2-6.6-4.3c-2.5-1-5.1-1.6-7.9-1.6H826.2z M863.1,363.3c2.9,0,5.6-0.6,8.1-1.7c2.5-1.1,4.7-2.6,6.6-4.5
			c1.9-1.9,3.4-4.1,4.5-6.6c1.1-2.5,1.7-5.2,1.7-8c0.1-3.3-0.4-6.2-1.3-8.8c-0.9-2.6-2.3-4.7-4.1-6.5c-1.8-1.8-4-3.1-6.6-4
			c-2.6-0.9-5.5-1.4-8.8-1.4h-37v41.4H863.1z"/>
		<path d="M947.5,262.8h8.1c4,9.3,8.1,18.6,12.1,27.7c4,9.2,8,18.3,12,27.4c4,9.1,8,18.2,12,27.4c4,9.1,8,18.4,12,27.6h-4.3
			c-1.9,0-3.6-0.5-5.1-1.5c-1.5-1-2.7-2.3-3.4-4l-9-20.5h-60.8l-8.8,20.5c-0.7,1.7-1.9,3-3.4,4c-1.6,1-3.3,1.5-5.2,1.5h-4.3
			L947.5,262.8z M925.4,337.3h52.3L953,280.7c-0.3-0.6-0.5-1.2-0.7-2c-0.2-0.7-0.4-1.4-0.5-2.1c-0.2-0.8-0.3-1.5-0.3-2.3
			c-0.1,0.8-0.2,1.5-0.4,2.3c-0.1,0.7-0.2,1.4-0.4,2.1c-0.2,0.7-0.4,1.4-0.7,2L925.4,337.3z"/>
		<path d="M1014.4,373V262.8h9.6v100.5h50.4v9.6H1014.4z"/>
	</g>
	<g class="st0">
		<path d="M516.4,666.7c0,4.7,0.9,9.1,2.7,13.2c1.8,4.1,4.2,7.7,7.3,10.8c3.1,3.1,6.7,5.5,10.8,7.3c4.1,1.8,8.5,2.7,13.2,2.7
			c4.7,0,9-0.9,13.2-2.7c4.1-1.8,7.7-4.2,10.8-7.3c3.1-3.1,5.5-6.7,7.3-10.8s2.7-8.5,2.7-13.2V599h9.7v67.7c0,6-1.1,11.7-3.4,17
			c-2.3,5.3-5.4,9.9-9.3,13.9c-3.9,3.9-8.6,7.1-13.9,9.3c-5.3,2.3-11,3.4-17,3.4c-6,0-11.6-1.1-16.9-3.4s-9.9-5.4-13.9-9.3
			c-4-3.9-7.1-8.6-9.4-13.9c-2.3-5.3-3.4-11-3.4-17V599h9.6V666.7z"/>
		<path d="M630.2,709h-9.6V599H659c4.6,0,8.9,0.9,13,2.6c4,1.7,7.6,4.1,10.6,7.1c3,3,5.4,6.6,7.1,10.6c1.7,4,2.6,8.4,2.6,13
			c0,4.6-0.9,8.9-2.6,13c-1.7,4.1-4.1,7.6-7.1,10.6c-3,3-6.6,5.4-10.6,7.1c-4,1.7-8.4,2.6-13,2.6h-28.8V709z M659,656.1
			c3.3,0,6.4-0.6,9.3-1.8s5.4-2.9,7.6-5.1s3.8-4.7,5.1-7.6s1.8-6,1.8-9.3c0-3.3-0.6-6.4-1.8-9.3s-2.9-5.4-5.1-7.6s-4.7-3.8-7.6-5.1
			c-2.9-1.2-6-1.8-9.3-1.8h-28.8v47.5H659z"/>
	</g>
	<g class="st0">
		<path d="M711.2,709V599h40.5c5.1,0,9.9,0.7,14.6,2c4.7,1.3,9.1,3.2,13.1,5.6c4.1,2.4,7.8,5.3,11.1,8.6c3.4,3.4,6.2,7.1,8.6,11.1
			c2.4,4.1,4.3,8.4,5.6,13.1c1.3,4.7,2,9.6,2,14.6s-0.7,9.9-2,14.6c-1.3,4.7-3.2,9.1-5.6,13.1c-2.4,4.1-5.3,7.8-8.6,11.1
			c-3.4,3.4-7.1,6.2-11.1,8.6s-8.4,4.2-13.1,5.5c-4.7,1.3-9.6,2-14.6,2H711.2z M751.6,699.4c6.3,0,12.2-1.2,17.7-3.6
			c5.5-2.4,10.3-5.6,14.4-9.7c4.1-4.1,7.4-8.9,9.8-14.4c2.4-5.5,3.6-11.4,3.6-17.7s-1.2-12.1-3.6-17.7c-2.4-5.5-5.6-10.4-9.8-14.5
			c-4.1-4.1-8.9-7.4-14.4-9.8c-5.5-2.4-11.4-3.6-17.7-3.6h-30.9v90.8H751.6z"/>
	</g>
	<g class="st0">
		<path d="M852.9,599h8.1c4,9.3,8.1,18.6,12.1,27.7c4,9.2,8,18.3,12,27.4c4,9.1,8,18.2,11.9,27.3c4,9.1,8,18.3,12,27.6h-4.3
			c-1.9,0-3.6-0.5-5.1-1.5c-1.5-1-2.6-2.3-3.4-4l-9-20.5h-60.7l-8.8,20.5c-0.7,1.7-1.9,3-3.4,4c-1.6,1-3.3,1.5-5.2,1.5h-4.3
			L852.9,599z M830.8,673.4H883l-24.7-56.5c-0.3-0.6-0.5-1.2-0.7-2c-0.2-0.7-0.4-1.4-0.5-2.1c-0.2-0.8-0.3-1.5-0.3-2.3
			c-0.1,0.8-0.2,1.5-0.4,2.3c-0.1,0.7-0.2,1.4-0.4,2.1s-0.4,1.4-0.7,2L830.8,673.4z"/>
	</g>
	<g class="st0">
		<path d="M894.7,608.6v-9.7h82.1v9.7h-36.2V709h-9.6V608.6H894.7z"/>
		<path d="M1057.9,709h-65.6V599h65.6v9.6h-56v40.1h45.3v9.6h-45.3v41.2h56V709z"/>
		<path d="M1121.2,613.4c-1.2-0.8-2.2-1.6-3.1-2.3c-0.9-0.7-1.9-1.3-2.9-1.8c-1-0.5-2.2-0.9-3.5-1.2c-1.3-0.3-3-0.5-5-0.5
			c-3,0-5.8,0.5-8.4,1.5c-2.7,1-5,2.3-7,4s-3.6,3.7-4.8,5.9c-1.2,2.3-1.8,4.6-1.8,7.1c0,2.9,0.4,5.2,1.1,7.1c0.7,1.8,2,3.5,3.8,4.9
			c1.8,1.4,4.1,2.7,7,3.9c2.9,1.2,6.5,2.5,10.7,4c2.3,0.8,4.4,1.6,6.3,2.3c1.9,0.7,3.8,1.4,5.5,2.2c1.7,0.7,3.4,1.5,4.9,2.4
			c1.5,0.8,3,1.8,4.3,2.9c3.6,2.8,6.1,6.1,7.6,10.1c1.5,4,2.2,8.4,2.2,13.1c0,4.8-0.9,9.1-2.8,13c-1.9,3.8-4.5,7.1-7.7,9.8
			s-7,4.8-11.3,6.2c-4.3,1.4-8.9,2.2-13.8,2.2c-9.6,0-17.6-2.8-24.2-8.5c-1.8-1.6-3.3-3.3-4.6-4.9c-1.3-1.6-2.3-3.1-3-4.4l1.2-0.7
			c1.7-1,3.3-1.5,4.8-1.5c1.2,0,2.4,0.2,3.5,0.5c1.1,0.3,2.1,0.9,3,1.8c2.1,1.9,4,3.4,5.7,4.5c1.7,1,3.3,1.8,4.8,2.3
			c1.5,0.5,3,0.8,4.4,0.9c1.4,0.1,2.9,0.2,4.3,0.2c3.1,0.1,6.2-0.2,9.3-1c3.1-0.8,5.9-2.1,8.4-3.8c2.5-1.8,4.5-4,6.1-6.7
			c1.6-2.7,2.3-6,2.3-9.8c0-4.2-0.6-7.6-1.8-10.1c-1.2-2.5-2.9-4.6-5.1-6.2c-2.2-1.6-4.8-2.9-7.7-4c-3-1-6.2-2.2-9.6-3.6
			c-4.4-1.7-8.3-3.4-11.9-4.8c-3.6-1.5-6.6-3.2-9.2-5.3c-2.5-2-4.5-4.5-5.9-7.5c-1.4-3-2.1-6.8-2.1-11.5c0-4.3,0.9-8.2,2.8-11.7
			c1.9-3.5,4.3-6.5,7.3-8.9c3-2.5,6.4-4.4,10.1-5.8c3.8-1.4,7.5-2,11.3-2c3.2,0,6.2,0.4,8.8,1.3c2.6,0.8,5,1.9,7.2,3.2
			c2.2,1.3,4.1,2.8,5.9,4.4s3.4,3.3,4.9,4.8l-2.4,1.7c-0.6,0.5-1.3,0.8-2.1,1.1c-0.8,0.3-1.8,0.4-2.9,0.4
			C1124.2,614.7,1122.6,614.3,1121.2,613.4z"/>
	</g>
	<g>
		<path class="st1" d="M112.1,439.5h63c21.8,0,43.5,0,65.3,0c10.5,0,10.7,0,10.5-10.6c-0.6-44.6,2.9-88.9,8.8-133.1
			c0.8-5.7-0.8-8.2-6.8-9.1c-24.7-3.8-49.3-8.5-73.7-14.2c-25.7-6-25.6-6.1-38,17.5c-22.6,43.1-36.6,88.7-40.1,137.4
			C100.3,439.5,100,439.5,112.1,439.5z"/>
	</g>
	<g>
		<path class="st1" d="M267,608.1c-7.5-41.3-12.9-82.9-14.7-125c-0.3-6.4-2.7-9.4-9.8-9.3c-22.3,0.4-44.6,0.1-66.8,0.1
			c-22.5,0-45,0.1-67.6-0.1c-6.4-0.1-8.6,2-7.5,8.6c1.7,11,2.3,22.1,4.1,33.1c6.8,41.3,21,81,41.9,117.3c1.9,3.3,3.4,6.9,8.5,5.5
			c35.1-9.6,70.8-17.3,106.7-23C265.8,614.9,267.9,612.9,267,608.1z"/>
	</g>
	<g>
		<path class="st1" d="M305.8,753.3c-11.2-31.7-20.7-64-28.6-96.8c-0.9-3.7-1.3-7.8-6.6-7.6c-0.6,0.1-1.1,0.2-1.6,0.3
			c-30.7,4.9-61.2,11-91.4,18.7c-5.9,1.5-5.4,3.7-2.3,7.7c11.9,15.1,25,29.3,39.2,42.3c27.9,25.8,59.8,47,94.5,62.6
			c1.8,0.8,3.8,2.7,5.5,1.1s0-3.8-0.7-5.6C311.3,768.6,308.5,761,305.8,753.3z"/>
	</g>
	<g>
		<path class="st1" d="M429.1,473.9c-22,0.3-44.1,0.1-66.1,0.1c-22.5,0-45.1,0.2-67.6-0.1c-6.7-0.1-9.2,2.3-8.6,9
			c1.3,14.4,2,28.8,3.3,43.1c2.4,26,6.4,51.7,11,77.4c0.8,4.4,2.8,6.1,7.9,5.6c40-4.3,80.1-6.9,120.4-7.8c6.7-0.1,8.7-2.7,8.7-9.1
			c-0.2-36.5-0.2-72.9,0-109.4C438.1,475.9,435.6,473.8,429.1,473.9z"/>
	</g>
	<g>
		<path class="st1" d="M437.9,649.9c0-13.5,0-13.6-13.9-13.4c-35.4,0.4-70.7,3.3-106,6.2c-7.4,0.6-7.8,4.1-6.4,10.1
			c11.9,48.1,27.5,95.3,46.6,141.1c1.9,4.7,5.1,6.3,9.6,7.4c19.9,4.9,40.1,8.2,60.6,9.8c9,0.7,9.5,0.7,9.5-8.5c0-26.1,0-52.1,0-78.2
			C437.9,699.5,437.9,674.8,437.9,649.9z"/>
	</g>
	<g>
		<path class="st1" d="M184.2,238c24.4,5.7,49.1,9.9,73.8,14.3c7,1.3,8.8-2.5,9.7-8.2c3.8-22.7,8.9-45.2,14.8-67.4
			c2.9-11.2,6-22.3,8.9-33.5c-1.2-0.2-1.7-0.5-2.1-0.3c-1.2,0.4-2.4,0.9-3.5,1.5c-39.9,21.8-75.3,50.9-104.4,85.9
			C177.5,234.9,178.4,236.6,184.2,238z"/>
	</g>
	<g>
		<path class="st1" d="M295.5,439.5c22,0,44.1,0,66.1,0c22.8,0,45.6-0.1,68.4,0c5.2,0,8.1-1.3,8-7.2c-0.1-40.5-0.1-81.1,0-121.6
			c0-4.7-1.7-7-6.6-7.1c-9.9-0.3-19.7-0.9-29.6-1.4c-32.6-1.5-65.2-4-97.5-8.5c-7.5-1-10.2,1.2-11,8.1c-5.3,42.5-7.9,85.2-7.9,128
			C285.4,439.1,285.8,439.5,295.5,439.5z"/>
	</g>
	<g>
		<path class="st1" d="M308.1,259.1c40.2,4.9,80.5,8,121,9c6.6,0.2,9-2.2,8.9-8.8c-0.3-24.8-0.1-49.6-0.1-74.4c0-25.1,0-50.1,0-75.2
			c0-4.8-0.4-8.4-7-7.8c-30.1,2.5-59.6,8-88.3,17.5c-5.6,1.9-8.7,4.9-10.6,10.5c-13,39.1-23.2,79.2-30.6,119.7
			C300.3,256,301.6,258.3,308.1,259.1z"/>
	</g>
	<g>
		<path class="st2" d="M727.9,229.1h43.9C715.4,147.5,633,94.8,524,73.6C356,40.9,192.8,125,113.4,269.2C87,317.1,71,368.2,67,422.9
			c-9.3,125.3,31.5,231.8,122.2,318.3c60.6,57.8,133.6,91.5,216.8,102.2c5.8,0.7,11.5,1.6,17.3,2.4h48.8V229.1h0.3v-44.3
			c0-24.8,0.2-49.6-0.1-74.4c-0.1-7.2,2.3-8.8,9.4-8.2c27.7,2.4,55.1,7.7,81.7,15.8c6.4,2,10.1,5.3,12.3,11.8
			c10.8,32.6,19.6,65.7,26.5,99.3h35c-5.3-27.9-12.1-55.5-20.3-82.8c-0.4-1.4-0.7-2.9-1.4-6.3c14.2,6.3,25.8,13.8,37.3,21.5
			C681,180.3,706.2,203.1,727.9,229.1z M301.5,249.7c7.4-40.6,17.6-80.6,30.6-119.7c1.9-5.7,4.9-8.7,10.6-10.5
			c28.8-9.5,58.2-15,88.3-17.5c6.6-0.6,7,3,7,7.8c0,25.1,0,50.1,0,75.2c0,24.8-0.2,49.6,0.1,74.4c0.1,6.6-2.3,8.9-8.9,8.8
			c-40.5-1-80.8-4.2-121-9C301.6,258.3,300.3,256,301.5,249.7L301.5,249.7z M304.2,293.8c32.3,4.5,64.9,7,97.5,8.5
			c9.9,0.5,19.7,1.1,29.6,1.4c4.9,0.1,6.7,2.4,6.6,7.1c-0.1,40.5-0.1,81.1,0,121.6c0,5.9-2.9,7.3-8,7.2c-22.8-0.1-45.6,0-68.4,0
			c-22,0-44.1,0-66.1,0c-9.7,0-10.1-0.4-10.1-9.7c0-42.8,2.6-85.5,7.9-128C294.1,295,296.7,292.7,304.2,293.8L304.2,293.8z
			 M181.4,230.1c29.1-34.9,64.5-64.1,104.4-85.9c1.1-0.6,2.3-1.1,3.5-1.5c0.4-0.1,0.9,0.1,2.1,0.3c-3,11.2-6,22.3-8.9,33.5
			c-5.9,22.3-11,44.7-14.8,67.4c-1,5.8-2.8,9.5-9.7,8.2c-24.7-4.5-49.3-8.6-73.8-14.3C178.4,236.6,177.5,234.9,181.4,230.1
			L181.4,230.1z M101.2,427.4c3.6-48.7,17.5-94.3,40.1-137.3c12.4-23.6,12.3-23.6,38-17.5c24.4,5.7,48.9,10.4,73.7,14.2
			c6,0.9,7.6,3.4,6.8,9.1c-6,44.2-9.4,88.5-8.8,133.1c0.1,10.6,0,10.6-10.5,10.6c-21.8,0-43.5,0-65.3,0h-63
			C100,439.5,100.3,439.5,101.2,427.4z M146.5,632.9c-20.9-36.3-35.1-76-41.9-117.3c-1.8-11-2.3-22.1-4.1-33.1
			c-1-6.6,1.2-8.7,7.5-8.6c22.5,0.2,45.1,0.1,67.6,0.1c22.3,0,44.6,0.2,66.8-0.1c7.1-0.1,9.5,3,9.8,9.3c1.8,42,7.2,83.6,14.7,125
			c0.9,4.8-1.3,6.7-5.3,7.3c-36,5.7-71.6,13.4-106.7,23C149.9,639.9,148.4,636.2,146.5,632.9z M314.6,781.8
			c-1.7,1.6-3.8-0.3-5.5-1.1c-34.7-15.6-66.6-36.8-94.5-62.6c-14.2-13-27.3-27.2-39.2-42.3c-3.1-4-3.6-6.2,2.3-7.7
			c30.2-7.7,60.7-13.8,91.4-18.7c0.5-0.1,1-0.2,1.6-0.3c5.3-0.3,5.7,3.8,6.6,7.6c7.8,32.7,17.4,65,28.6,96.8
			c2.7,7.6,5.5,15.2,8.2,22.9C314.6,778,316.5,780.2,314.6,781.8L314.6,781.8z M437.9,802.6c0,9.2-0.5,9.2-9.5,8.5
			c-20.4-1.6-40.7-4.8-60.6-9.8c-4.4-1.1-7.6-2.8-9.6-7.4c-19.1-45.8-34.6-92.9-46.5-141c-1.5-6-1-9.5,6.4-10.1
			c35.3-2.8,70.6-5.7,106-6.2c13.9-0.2,13.9-0.1,13.9,13.4c0,24.8,0,49.6,0,74.4C437.9,750.4,437.9,776.5,437.9,802.6z M438,592
			c0,6.4-2,9-8.7,9.1c-40.2,0.9-80.4,3.5-120.4,7.8c-5,0.5-7.1-1.1-7.9-5.6c-4.5-25.7-8.6-51.4-11-77.4c-1.3-14.4-2.1-28.8-3.3-43.1
			c-0.6-6.6,1.9-9,8.6-9c22.5,0.3,45.1,0.1,67.6,0.1c22,0,44.1,0.2,66.1-0.1c6.5-0.1,9,2,8.9,8.7C437.8,519,437.8,555.5,438,592
			L438,592z"/>
	</g>
	<g>
		<path class="st2" d="M684.9,478.2c1.6-0.8,3-1.9,4.2-3.3c1.2-1.4,2.2-2.9,2.9-4.6c1.5-3.3,1.5-7,0-10.3c-0.7-1.7-1.7-3.2-2.9-4.6
			c-1.2-1.3-2.6-2.4-4.2-3.3c-1.5-0.8-3.2-1.3-4.9-1.3h-21.1v28.5H680C681.7,479.5,683.4,479,684.9,478.2z"/>
	</g>
	<g>
		<path class="st2" d="M507.1,558.2h460.8V400H507.1L507.1,558.2z M840.3,463c4.3-15.4,14.5-28.5,28.3-36.5
			c4.6-2.7,9.6-4.7,14.7-6.2c5.3-1.5,10.8-2.2,16.3-2.2c4.5,0,9,0.6,13.3,1.7c4.4,1.1,8.8,2.7,12.9,4.8c4.3,2.1,8.3,4.6,12.1,7.5
			c3.9,3,7.6,6.4,11,10l-7.1,7.1c-1.7,1.7-3.6,3-5.8,4c-2.3,1-4.8,1.5-7.4,1.5c-3.6,0-7.1-1.1-10-3.1c-2.8-1.9-5.8-3.4-8.9-4.4
			c-3.2-1.1-6.6-1.6-10-1.6c-4.5,0-9,0.9-13.2,2.7c-4,1.7-7.7,4.2-10.9,7.3c-3.1,3.1-5.7,6.7-7.5,10.7c-3.7,8.3-3.7,17.9,0,26.2
			c3.6,8.1,10.2,14.6,18.3,18c4.2,1.8,8.6,2.7,13.2,2.6c3.4,0,6.8-0.5,10.1-1.6c3.1-1.1,6.1-2.6,8.8-4.4c2.9-2,6.4-3,10-3
			c2.6-0.1,5.1,0.4,7.4,1.4c2.1,1,4.1,2.3,5.7,4l7.1,7.1c-3.4,3.6-7.1,7-11,10c-3.8,2.9-7.8,5.3-12.1,7.4c-4.1,2-8.4,3.6-12.9,4.8
			c-4.4,1.1-8.8,1.7-13.3,1.7c-5.5,0-11-0.7-16.3-2.2c-5.2-1.4-10.1-3.5-14.7-6.2c-13.8-8-24-21.1-28.3-36.5
			C837.4,484.9,837.4,473.6,840.3,463L840.3,463z M741.9,419.3h79.9v25.6h-52.5v21H812v25.6h-42.7v22.1h52.5v25.6h-79.9V419.3z
			 M630.5,419.3h48.4c5.4,0,10.8,1.1,15.8,3.4c4.8,2.2,9.2,5.3,12.9,9.1c3.7,3.9,6.6,8.4,8.7,13.3c4.2,10.2,4.2,21.6,0,31.8
			c-2,4.9-5,9.5-8.7,13.3c-3.7,3.8-8.1,6.9-12.9,9.1c-5,2.3-10.3,3.4-15.8,3.4h-21v36.6h-27.4L630.5,419.3z M530.6,437.8
			c2.1-4.1,5.1-7.8,8.8-10.7c3.7-2.9,7.9-5.2,12.4-6.7c4.6-1.5,9.5-2.3,14.4-2.3c3.6,0,7.1,0.6,10.4,1.8c3.4,1.2,6.6,2.8,9.6,4.7
			c3,1.9,5.8,4.1,8.5,6.6c2.5,2.4,4.9,4.9,7.1,7.5l-8.5,7.1c-1.5,1.4-3.3,2.4-5.2,3.1c-2,0.6-4,1-6.1,0.9c-1.6,0-3.2-0.2-4.7-0.7
			c-1.3-0.5-2.6-0.9-3.8-1.5s-2.3-1-3.5-1.5c-1.2-0.5-2.5-0.7-3.9-0.7c-1.4,0-2.8,0.1-4.2,0.4c-1.3,0.2-2.5,0.6-3.6,1.2
			c-1,0.5-1.9,1.2-2.6,2.1c-0.7,0.9-1,1.9-1,3c-0.1,1.5,0.4,3,1.3,4.2c1.1,1.2,2.5,2.1,4.1,2.6c2.2,0.9,4.5,1.6,6.8,2.3
			c2.7,0.8,5.9,1.8,9.5,3c4.4,1.5,8.7,3.4,12.7,5.7c3.7,2.1,7,4.8,9.8,8c2.7,3,4.8,6.5,6.3,10.3c1.6,4.1,2.3,8.4,2.3,12.7
			c0.1,5.6-1.2,11-3.7,16c-2.4,4.8-5.8,9-9.8,12.4c-4.2,3.5-9,6.3-14.2,8.1c-5.3,1.9-11,2.9-16.7,2.9c-4.8,0-9.5-0.7-14-2.2
			c-4.4-1.4-8.5-3.5-12.2-6.2c-3.7-2.6-7-5.7-9.8-9.3c-2.8-3.6-5-7.5-6.5-11.8l8.7-5c1.4-0.8,2.9-1.4,4.5-1.9
			c1.6-0.5,3.2-0.7,4.8-0.7c2.3,0,4.5,0.5,6.5,1.5c1.9,1,3.8,2.1,5.7,3.3s3.7,2.3,5.7,3.3c2.1,1,4.4,1.6,6.7,1.5
			c1.9,0,3.7-0.3,5.5-0.8c1.9-0.5,3.8-1.3,5.5-2.3c1.6-0.9,3.1-2.2,4.2-3.7c1.1-1.5,1.7-3.3,1.7-5.2c0.1-1.6-0.5-3.3-1.6-4.5
			c-1.2-1.3-2.6-2.3-4.2-3.1c-2-0.9-4-1.7-6.1-2.4c-2.3-0.7-4.7-1.6-7.2-2.6c-4.1-1.6-8.2-3.3-12.2-5.1c-3.9-1.8-7.5-4.1-10.8-6.8
			c-3.2-2.7-5.9-6.1-7.8-9.9c-2-3.9-3-8.7-3-14.5C527.2,447.2,528.3,442.2,530.6,437.8L530.6,437.8z"/>
	</g>
	<g>
		<path d="M847.2,149.9c1.7,1.5,3.3,3.2,4.6,5l7.8-9c8.3-9.5,7.2-23.9-2.3-32.2c0,0,0,0,0,0l-99.6-86.4c-9.5-8.3-23.9-7.2-32.2,2.3
			c0,0,0,0,0,0l-8,9.2c2.5,1.2,4.7,2.7,6.8,4.5L847.2,149.9z"/>
	</g>
	<g>
		<path d="M41.1,731.6c-1.6-1.6-3-3.5-4.1-5.4l-8.6,8.2c-9.1,8.7-9.5,23.1-0.8,32.2c0,0,0,0,0,0l91,95.3c8.7,9.1,23.1,9.4,32.2,0.7
			c0,0,0,0,0,0l8.8-8.4c-2.3-1.4-4.5-3.1-6.3-5.1L41.1,731.6z"/>
	</g>
	<g>
		<path d="M79.7,657.3c-30-59.8-45.6-125.7-45.5-192.6c0-237.4,193.2-430.6,430.6-430.6c65.8-0.1,130.7,15,189.7,44.1
			c1.2-2.7,2.8-5.1,4.7-7.3l12.7-14.6l4.7-5.4c-10.1-5.1-20.3-10-30.8-14.4C409-63.2,136.3,47.7,36.5,284.3
			c-48.7,115.5-48.7,245.8,0,361.3c4.7,11.1,9.8,22,15.3,32.6l13.8-13.2C69.6,661.3,74.4,658.6,79.7,657.3z"/>
	</g>
	<g>
		<path d="M445.4,906.4c-0.6-3.8-0.5-7.7,0.3-11.5c-78.7-3.4-154.9-28.5-220.3-72.4c-1.3,1.9-2.8,3.7-4.4,5.3l-20.4,19.5
			c73.3,50.7,159.6,79.1,248.6,82c-0.2-0.9-0.4-1.9-0.6-2.9L445.4,906.4z"/>
	</g>
	<g>
		<path d="M593.6,882.6c-0.4-2.2-0.9-4.4-1.8-6.5c-5.4-13.6-19.5-21.7-33.9-19.4l-86.7,13.9c-17,2.7-28.6,18.7-25.8,35.7l3.2,20
			c0.2,1,0.4,1.9,0.6,2.9c4,15.6,19.2,25.5,35.1,23l86.7-13.9c17-2.7,28.6-18.6,25.9-35.6c0,0,0,0,0-0.1L593.6,882.6z"/>
	</g>
	<g>
		<path d="M225.4,822.5c3.3-4.9,5.1-10.7,5.2-16.6c0-0.4,0-0.8,0-1.2c-47.8-31.9-82.8-72-105.3-102.8
			c-10.3-14.1-19.8-28.8-28.5-43.9c-10.9-3.5-22.9-0.8-31.2,7.1l-13.8,13.2l-9.7,9.3c-10.6,10.1-12.7,26.2-5.1,38.7
			c1.2,1.9,2.6,3.8,4.1,5.4l112.3,117.6c11.9,12.4,31.6,12.9,44,1c0,0,0,0,0,0l3.1-2.9l20.4-19.5
			C222.7,826.1,224.1,824.4,225.4,822.5z"/>
	</g>
	<g>
		<path d="M659.1,70.9c-5.2,6-7.9,13.7-7.6,21.6l1.6,0.8c50.9,26.7,90,62.8,115.6,91c11.7,12.9,22.8,26.5,33.1,40.6
			c1,1.4,2,2.7,2.9,4c9.3,0.2,18.2-3.7,24.3-10.7l11.5-13.3l9.8-11.3c11.3-13,9.9-32.7-3.1-44c0,0,0,0,0,0L724.4,43.3
			c-13-11.3-32.6-9.9-43.9,3c0,0-0.1,0.1-0.1,0.1l-3.9,4.5l-4.7,5.4L659.1,70.9z"/>
	</g>
	<g class="st0">
		<path d="M519,828.3h-6.6v-76.2h6.6V828.3z"/>
		<path d="M599.8,828.3h-6.6l-46-65.8c-0.2-0.2-0.3-0.5-0.4-0.7c-0.1-0.3-0.2-0.6-0.3-0.9c-0.1-0.3-0.2-0.6-0.3-1v68.3h-6.6v-76.2
			h4.6c1.4,0,2.5,0.2,3.4,0.5c0.8,0.4,1.5,0.9,2.1,1.7l42.1,60.3c0.2,0.4,0.5,0.8,0.6,1.2c0.2,0.4,0.3,0.8,0.5,1.1
			c0.1,0.4,0.3,0.8,0.4,1.2v-66.1h6.6V828.3z"/>
		<path d="M620.6,790.2c0,3,0.4,5.8,1.2,8.6c0.8,2.7,1.9,5.3,3.3,7.7c1.4,2.4,3.1,4.6,5,6.5c2,1.9,4.1,3.6,6.5,5
			c2.4,1.4,5,2.5,7.7,3.3s5.6,1.1,8.6,1.1c3.4,0,6.7-0.5,9.8-1.5c3.1-1,6-2.4,8.6-4.2c0.5-0.3,1-0.6,1.6-0.7
			c0.6-0.2,1.2-0.3,1.8-0.3c1,0,1.9,0.2,2.7,0.5c0.8,0.4,1.4,0.8,2,1.4l0.5,0.5c-3.5,3.4-7.6,6-12.2,8c-4.6,1.9-9.5,2.9-14.8,2.9
			c-5.4,0-10.4-1-15.1-3.1c-4.7-2-8.8-4.8-12.4-8.3c-3.5-3.5-6.3-7.7-8.3-12.4s-3.1-9.8-3.1-15.2s1-10.4,3.1-15.2s4.8-8.9,8.3-12.4
			c3.5-3.5,7.6-6.3,12.4-8.3c4.7-2,9.8-3.1,15.1-3.1c5.3,0,10.3,1,14.9,2.9c4.6,1.9,8.6,4.6,12.2,8.1l-0.5,0.5
			c-0.6,0.6-1.3,1.1-2.1,1.5c-0.8,0.4-1.6,0.5-2.6,0.5c-1.2,0-2.4-0.4-3.4-1.1c-2.6-1.8-5.5-3.2-8.6-4.2s-6.4-1.5-9.8-1.5
			c-3,0-5.8,0.4-8.6,1.1c-2.7,0.8-5.3,1.9-7.7,3.3c-2.4,1.4-4.6,3.1-6.5,5c-2,1.9-3.6,4.1-5,6.5c-1.4,2.4-2.5,5-3.3,7.7
			C620.9,784.3,620.6,787.2,620.6,790.2z"/>
	</g>
</g>
</svg>
