<?xml version="1.0" encoding="utf-8"?>
<!-- Generator: Adobe Illustrator 23.0.1, SVG Export Plug-In . SVG Version: 6.00 Build 0)  -->
<svg version="1.1" id="Layer_1" xmlns="http://www.w3.org/2000/svg" xmlns:xlink="http://www.w3.org/1999/xlink" x="0px" y="0px"
	 viewBox="0 0 856.7 607.2" style="enable-background:new 0 0 856.7 607.2;" xml:space="preserve">
<style type="text/css">
	.st0{fill:#C1272D;}
	.st1{fill:#00FF00;}
	.st2{fill:none;}
	.st3{fill:#1B1464;}
	.st4{enable-background:new    ;}
</style>
<g>
	<title>project7</title>
	<g>
		<g>
			<path class="st0" d="M489.3,242.8v60.7h11.3v-51.7C497.2,248.4,493.4,245.4,489.3,242.8z"/>
		</g>
		<g>
			<path class="st0" d="M405.1,249.8c-0.5,0.5-1,1-1.5,1.5v52.3h9.8v-60.4C410.5,245.1,407.7,247.3,405.1,249.8z"/>
		</g>
		<g>
			<path class="st0" d="M472.5,235.5v68.1h10.2v-64.2C479.5,237.8,476,236.5,472.5,235.5z"/>
		</g>
		<g>
			<path class="st0" d="M518.3,303.5c0-1.5,0-3-0.1-4.5c-0.5-17-4.9-29.6-11.1-39.1v43.5L518.3,303.5z"/>
		</g>
		<g>
			<path class="st0" d="M454.6,232.4v71.1H466v-69.7C462.2,233,458.4,232.6,454.6,232.4z"/>
		</g>
		<g>
			<path class="st0" d="M387,299.1c0.2,2.3,0.4,3.9,0.5,4.5h9.5v-44.2C386.8,274.6,386.4,291.2,387,299.1z"/>
		</g>
		<g>
			<path class="st0" d="M420,239.3v64.2h10.4v-68.2C426.8,236.3,423.4,237.7,420,239.3z"/>
		</g>
		<g>
			<path class="st0" d="M437,233.7v69.9h11v-71.2C444.3,232.5,440.6,232.9,437,233.7z"/>
		</g>
		<g>
			<path class="st1" d="M501.1,224.7c0,0-0.7-0.5-2-1.3C499.8,223.9,500.4,224.4,501.1,224.7z"/>
		</g>
		<g>
			<polygon class="st0" points="278.7,124.2 247.4,85.1 214.5,76.3 218.3,62 255.9,72.1 290.2,115 			"/>
		</g>
		<g>
			<polygon class="st0" points="613,126.7 602.2,118.1 636.4,75.4 673.8,65.4 677.4,78.7 644.3,87.5 			"/>
		</g>
		<g>
			<path class="st0" d="M223.2,71c0,0-10.7-44.3-57.7-22.9c0,0-51.2,18.5-39.8,52.6c0,0,6.4,47.6,75.4,12.1
				C201.1,112.8,228.3,100.3,223.2,71z"/>
		</g>
		<g>
			<path class="st0" d="M671.2,71c0,0,10.7-44.3,57.7-22.9c0,0,51.2,18.5,39.8,52.6c0,0-6.4,47.6-75.4,12.1
				C693.4,112.8,666.2,100.3,671.2,71z"/>
		</g>
		<g>
			<path class="st2" d="M493.1,186.3c-45.8,20.8-87.7,0-87.7,0c13.9,17.7-6.3,38.4-6.3,38.4c52.7-25.2,91-6.5,100-1.3
				C482.5,212,493.1,186.3,493.1,186.3z"/>
		</g>
		<g>
			<path class="st2" d="M501.1,224.7c0,0-0.7-0.5-2-1.3C499.8,223.9,500.4,224.4,501.1,224.7z"/>
		</g>
		<g>
			<path class="st2" d="M493.1,186.3c-45.8,20.8-87.7,0-87.7,0c13.9,17.7-6.3,38.4-6.3,38.4c52.7-25.2,91-6.5,100-1.3
				C482.5,212,493.1,186.3,493.1,186.3z"/>
		</g>
		<g>
			<path class="st2" d="M501.1,224.7c0,0-0.7-0.5-2-1.3C499.8,223.9,500.4,224.4,501.1,224.7z"/>
		</g>
		<g>
			<path class="st2" d="M501.1,224.7c0,0-0.7-0.5-2-1.3C499.8,223.9,500.4,224.4,501.1,224.7z"/>
		</g>
		<g>
			<path class="st2" d="M493.1,186.3c-45.8,20.8-87.7,0-87.7,0c13.9,17.7-6.3,38.4-6.3,38.4c52.7-25.2,91-6.5,100-1.3
				C482.5,212,493.1,186.3,493.1,186.3z"/>
		</g>
		<g>
			<path class="st2" d="M426.8,251.6c10.9-0.6,21.9-0.9,32.8-0.9c18.9,0.2,37.8,1.1,56.5,2.9c-22.4-32.8-62.8-32.1-62.8-32.1
				c-4.8-0.2-33.8-1.1-56.5,21.4c-3.6,3.6-6.9,7.6-9.6,11.9c2.3-0.3,4.6-0.5,6.9-0.8C405,252.9,415.9,252.2,426.8,251.6z"/>
		</g>
		<g>
			<path class="st3" d="M546.8,198.2l-17.1-34.5l51.2-49l24.9,26c-0.4,0.4-7.7,9.6-3.9,20.5c3,8.2,10.8,13.7,19.5,13.9l39.1,44.6
				c-0.5,5.4,1,10.8,4.4,15.1c6.3,7.9,15.9,7.6,17,7.6c1.4,0.1,10.2,0.5,17-6.2c8.8-8.7,5.8-21,5.6-21.6c-2.2-5-6-9.2-10.7-12
				c-2.9-1.7-6.1-2.7-9.4-3.1l-34.5-41.4c2.1-8.8-1.2-17.9-8.3-23.4c-9-6.8-19.6-3.5-20.6-3.2l-28-42l-63.3,17.1H526
				c-0.7,42.7-35.8,76.7-78.4,76.1c-42.1-0.6-75.9-34.8-76.1-76.9l-72.4-16.3c-9.2,12.8-18.3,25.6-27.5,38.4
				c-1-0.3-13.6-3.1-23.5,5.8c-10.7,9.6-8.1,23.7-7.9,24.4l-35.8,43.3c-0.7,0.2-11.4,4.4-13.7,15.6c-1.7,8.6,2,17.3,9.3,22.2
				c0.6,0.4,10.4,7.3,21.5,2.8c8.2-3.5,13.7-11.5,13.7-20.5l32.2-46c1.3-0.1,12.7-1,18.9-10.7c5.4-8.4,4.6-19.9-2-28.5l23.2-23.1
				l61.6,52.6l-11.2,32.3v105.5h17.6c-0.7-10.1,0.4-20.2,3.2-29.9c0.9-2.9,1.9-5.8,3.1-8.6c0.3-0.7,0.6-1.4,1-2.1
				c1.3-2.8,2.8-5.5,4.5-8.2c2.8-4.3,6-8.3,9.6-11.9c22.7-22.6,51.7-21.6,56.5-21.4c0,0,40.5-0.6,62.8,32.1c1.8,2.7,3.5,5.5,4.9,8.4
				c0.7,1.5,1.4,3,2.1,4.5c1.2,2.9,2.3,5.9,3.2,8.9c2.6,9.1,4,18.5,4.2,28h16.2V198.2z M499.1,223.5c-9-5.3-47.3-24-100,1.3
				c0,0,20.2-20.8,6.3-38.4c0,0,41.9,20.8,87.7,0C493.2,186.3,482.5,212,499.1,223.5c1.3,0.8,2,1.3,2,1.3
				C500.4,224.4,499.8,223.9,499.1,223.5L499.1,223.5z"/>
		</g>
		<g>
			<path class="st3" d="M448.8,185c-44.2,0-80.1-35.9-80.2-80.1v-0.2c0-21.4,8.4-41.6,23.5-56.7c15.1-15.1,35.3-23.5,56.7-23.5
				c0,0,0,0,0,0c44.2,0,80.2,36,80.2,80.2v0.9c-0.3,21.3-8.7,41.2-23.8,56.1S470,185,448.8,185L448.8,185
				C448.8,185,448.8,185,448.8,185z M374.5,104.9c0.1,40.9,33.4,74.2,74.3,74.2c0,0,0,0,0,0h0c40.5,0,73.8-32.9,74.3-73.4v-0.9
				c0-41-33.3-74.3-74.3-74.4c0,0,0,0,0,0c-19.8,0-38.5,7.7-52.5,21.7c-14,14-21.8,32.7-21.8,52.5l-2.9,0.2L374.5,104.9z"/>
		</g>
		<g>
			<path class="st0" d="M448.6,46.4c-32.9,0-59.6,26.7-59.6,59.6s26.7,59.6,59.6,59.6c32.9,0,59.6-26.7,59.6-59.6c0,0,0,0,0,0
				C508.3,73.1,481.6,46.4,448.6,46.4z M446.7,73.5c-5.3,1.6-12.6,3.7-18.4,10.3c-8.8,9.9-10.8,25.9-4.4,38.3
				c6.1,12,17.8,16.2,22.3,17.8c10.2,3.5,21.2,3.4,31.3-0.2c-14.7,12.2-38.3,12.3-53.1,0.2c-25.8-21.1-16.1-64.2,15.4-73.5
				c3.7-1.1,7.4-1.7,11.3-1.7c14.4-0.2,32.1,9.5,32.1,25.7c0,11.6-9.3,20.9-20.9,20.9c-11.6,0-20.9-9.3-21-20.9
				c0-7.3,3.8-14.1,10.1-17.9C449.8,72.7,448.3,73,446.7,73.5z"/>
		</g>
		<g>
			<path class="st3" d="M95.4,366.3c28.2-12.8,57-24.1,86.4-33.7c7.4-2.3,14.7-4.7,22.2-6.9c3.7-1.1,7.4-2.2,11.2-3.3l11.2-3.1
				l5.6-1.5l5.6-1.4l11.3-2.8c3.8-0.9,7.6-1.7,11.3-2.6s7.6-1.7,11.4-2.5l11.4-2.3c3.8-0.8,7.6-1.6,11.4-2.2l11.5-2
				c3.8-0.7,7.7-1.3,11.5-1.9c7.7-1.2,15.3-2.4,23-3.3l11.6-1.5c3.8-0.5,7.7-0.8,11.6-1.2c15.4-1.7,31-2.8,46.5-3.7
				c15.5-0.9,31.1-1.2,46.6-1.2c62.3,0.3,124.3,7.9,184.8,21.1c15.1,3.5,30.2,6.9,45.2,11l11.2,3l11.1,3.3l11.1,3.3l5.6,1.6
				c1.8,0.6,3.7,1.2,5.5,1.8l22,7.3l2.8,0.9l2.7,1l5.5,2l10.9,3.9l10.9,4c3.6,1.4,7.2,2.8,10.8,4.2c7.2,2.9,14.4,5.7,21.5,8.7
				c-7.4-2.2-14.8-4.5-22.2-6.7l-11.1-3.4l-11.1-3.2l-11.1-3.2l-5.5-1.6l-2.8-0.8l-2.8-0.7l-22.3-5.9l-5.6-1.5l-5.6-1.4l-11.2-2.7
				l-11.2-2.7l-11.3-2.5l-11.3-2.5l-5.6-1.3l-5.6-1.1c-7.5-1.5-15.1-3-22.6-4.4c-30.2-5.5-60.6-9.9-91.1-13l-22.9-2.1L514,305
				c-3.8-0.3-7.6-0.5-11.5-0.7l-11.5-0.6c-3.8-0.2-7.6-0.3-11.5-0.4c-7.7-0.3-15.3-0.3-23-0.4s-15.3,0-23,0.2
				c-7.7,0.2-15.3,0.5-23,0.8c-15.3,0.7-30.6,1.6-45.9,3.1c-3.8,0.4-7.6,0.6-11.5,1l-11.4,1.3l-5.7,0.6l-2.9,0.3l-2.8,0.4l-11.4,1.5
				c-15.2,2-30.4,4.4-45.5,7c-3.8,0.6-7.5,1.4-11.3,2.1s-7.6,1.4-11.3,2.2l-11.3,2.4l-5.6,1.2l-5.6,1.2l-11.2,2.5
				c-3.7,0.9-7.5,1.8-11.2,2.7c-7.5,1.7-14.9,3.8-22.3,5.7C153.9,346.9,124.6,356.2,95.4,366.3z"/>
		</g>
		<g class="st4">
			<path class="st3" d="M143.6,380.1c-0.5-2,0.5-5.2,3.4-6.3c1-0.3,1.9-1,3-1.6c2.3-1.4,4.9-2.7,7.5-3.9c1.2-0.6,2.4-0.9,3.9-1.6
				l2.2-0.6c0.8,0,1.3-0.1,1.8-0.2l2.7-0.7c4.1-0.6,8.2-1.2,12.1-0.6c2.4,0.1,4.6,0.3,6.8,1.4c3.3,0.2,5.6,2,8.4,2.5
				c1,0.8,2.1,1,3.2,1.8c0.7,0.6,1.7,1.2,2.5,1.5c0.9,0.3,1.4,1.2,2.1,1.8c0.6,0.4,1.1,1,1.7,1.4c0.7,0.6,3.3,3.1,3.5,3.9
				c1.9,1.9,3.7,5.7,4.4,8.2c0.2,0.7,0,1.9,0.9,2.2l0.1,0.5c0,1.1,0.3,2.1,0.6,3.1c1.5,5.5-0.5,15.1-2.3,20.1
				c-1.5,3.3-3.1,6.4-5.2,9.4c-0.2,0.3-0.4,0.4-0.6,0.7c0.1,0.5,0.5,0.7,0.9,0.5c2.3,0.5,4.3,1.2,6.2,2.1c1.8,0.8,3.3,1.5,5.2,2.3
				c2.8,1.6,9.4,7.9,10.1,10.6c0,0.8,0.7,1.7,1.2,2.4c0.1,0.2,0.4,0.4,0.3,1c0,1.1,0.3,2.1,0.9,3.2c0.1,1.3,0.4,2.3,0.4,3.6
				c0,8.8-3.5,16.7-9.2,23.3c-1.5,1.5-2.9,3.2-4.7,4.2c-0.2,0.3-0.4,0.6-0.6,0.7c-1,1.1-2.2,1.9-3.3,2.5c-0.5,0.1-0.7,0.5-0.9,0.8
				c-1.4,0.9-3.3,1.7-4.6,2.8c-1.7,0.5-3,1.6-4.8,2.1c-0.5,0.1-1.2,0.6-1.9,0.8c-0.4,0.4-0.9,0.5-1.7,0.7l-1.7,0.5
				c-1.7,0.7-3.4,1.2-5.2,1.7l-7,1.9c-1.7,0.5-3.6,0.7-5,1.1c-2.9-0.8-5.8-3.8-6.6-6.8c-0.5-1.7-0.9-3.2-1.6-4.9l-0.3-1.2
				c-1.8-6.7-3.6-13.2-5.6-19.6c-0.4-1.5-0.7-2.7-1.3-3.9l-2.6-9.5c-0.4-1.5-1.3-2.9-1.5-4.4c-0.2-1.8-1.3-3.7-1.5-5.5
				c-0.2-0.7-0.7-1.4-0.6-2.2l-0.1-0.5c-1.2-3.4-1.9-7-3.1-10.4l-5.6-20.7c-0.5-1.7-1.2-3.4-1.7-5.2c-1-2.7-1.7-5.4-2.5-8.2
				C145.2,386.1,144.7,383.1,143.6,380.1z M178,418.4c0.2-0.1,0.3,0.2,0.5-0.1c5-3.2,9.4-7.9,11.3-13.5c1-2.1,1.5-4.4,1.6-7.1
				c-0.1-2.4-1.5-4.4-2.6-6.5c-0.1-0.2-0.4-0.4-0.6-0.4c-0.4-0.4-0.8-0.9-1.3-1c-1.4-1.2-2.9-1.9-4.8-1.9c-1.6,0.2-3.1,0.3-4.8,0.2
				c-0.6-0.1-1.1,0-1.6,0.2l-0.7,0.2c-0.3-0.2-0.5,0.1-1,0.3c-0.2,0.1-0.5,0.1-1,0.3c-0.1-0.2-0.3-0.2-0.5,0.1l-2,0.5
				c-0.4,0.6-0.2,1.1-0.2,1.4l5.1,18.9C176.2,412.7,177,415.7,178,418.4z M186.9,450.2l3.1,11.5c0.5,2,0.8,4.1,1.5,5.7
				c0.6,0.1,1-0.3,1.2-0.6c2.1-1.1,4.3-2,5.9-3.7c1-0.3,1.2-1.4,1.9-1.9c1.5-1.2,2.7-2.9,3.5-4.7c1-1.3,1.7-2.6,1.8-4.2
				c0.1-0.6,0.2-1.4,0.2-2.2c0.4-0.6,0.2-1.1,0-1.9c-0.5-0.7-0.7-1.7-1.2-2.6c-0.4-0.4-0.5-0.9-1.1-1c-1-0.8-2.2-1.3-3.2-1.8
				c-2.5-0.4-4.8-1.1-7.3-0.4c-0.2,0.3-0.5,0.1-0.5,0.1c-0.8,0-1.8,0.2-2.8,0.5c-1,0.3-1.7,0.5-2.8,0.5c-0.7,0.2-1.4,0.7-2.2,0.9
				C185.6,446.3,186.1,448.3,186.9,450.2z"/>
		</g>
		<g class="st4">
			<path class="st3" d="M228.4,359c0.5-2.7,1.6-3.8,4.1-4.5c1.5-0.6,2.7-0.8,4.2-1.4l10.1-2.1c1.3-0.3,2.6,0,3.5,1.7
				c0.9,3.2,1.6,6.8,2.4,10.3l10.5,51.3c0.3,1.3,0.5,2.5,1,3.7l0.4,2c-0.1,0.8,0.1,1.8,0.3,2.8c0.5,1,0.7,2,0.6,3
				c0.3,1.5,0.7,3.3,1.2,4.8c0.3,1.5,0.9,3,0.9,4.6c0.4,1.8,0.9,3.2,1,4.8l3.5,16.9c0.2,1,0.4,2,0.4,3.1l1,5.1
				c0.3,1.5-0.2,2.7-0.7,4.1l-0.6,0.9c-0.7,0.4-1.4,1.1-2.1,1.5l-5.6,1.1c-0.3-0.2-0.8-0.1-1,0.2L259,474c-0.7,0.4-1.6,0.1-2.2-0.3
				c-1.5-1-2.3-2.2-3.4-3.5c-0.5-1-1.2-1.9-1.1-2.9c-0.9-3.2-1.3-6.6-2-9.6c-0.7-2-1-3.7-1.4-5.5l-0.5-2.3c-0.1-0.3-0.3-0.2-0.1-0.5
				c-0.2-2.1-1.1-4-1.4-5.8l-1.2-5.8c-0.8-3.8-1.8-7.5-2.6-11.3c-0.9-3.2-1.6-6.5-2.3-9.8l-2.4-11.9c-0.6-2.8-1.4-5.5-1.7-8.3
				c-0.6-1.5-0.6-3-0.9-4.5c-0.1-0.5-0.5-1-0.3-1.3l-0.2-1c-0.5-1.2-0.8-2.5-1.1-4l-1.3-6.3c-1.7-6-3.3-12.2-4.6-18.6
				C228.4,360.1,228.3,359.6,228.4,359z"/>
		</g>
		<g class="st4">
			<path class="st3" d="M269.9,350.3c-0.5-3.6,2.4-5.3,5.4-5.7c0.8-0.1,1.5-0.2,2.5-0.6l3.8-0.6c1.2-0.4,2.8-0.7,4-0.8
				c1.8-0.3,3.4-0.2,5.2-0.2c0.3,0.5,0.9,0.9,1.3,1.6c2,11.7,3.4,23.7,5.4,35.7c0.5-0.3,0.7-0.9,0.6-1.1c0.5-2.2,1.5-3.9,2.3-5.8
				c1.1-3.3,2.5-6.4,3.6-9.4c1.8-3.9,3.5-8.1,5.6-11.8c1-2,1.8-3.7,2.6-5.6c0.4-0.6,0.8-1.4,1.2-2.3c0.2-0.5,0.4-1.1,1.1-1.7
				c0.9-0.7,2.1-1.6,3.6-1.8l3.6-0.5c1-0.1,2.3-0.3,3.4-0.2c0.7-0.4,1.5-0.5,2.5-0.6l2.3-0.3c3.1-0.4,6.1-0.9,9.2-1.1
				c0.3,0,0.8-0.1,1.1,0.1c0.2,1.5-0.1,2.9-0.7,4.3c-1.5,3.9-3.1,7.5-4.6,11.1l-2.9,6.7c-0.2,0.5-2.2,6.1-2.7,6.6
				c-1.7,4.2-3.2,8.3-5,12.5l-3.5,8.3c0,0.3-0.2,0.5-0.4,0.8c-0.4,1.1-0.2,2.1,0.4,3.1c0.6,0.7,1,1.2,1.4,2.2c0,0.3,0.4,0.7,0.7,0.9
				c0.6,0.7,1.3,1.6,1.4,2.4c0.3,0.5,0.4,0.7,0.7,0.9c1,1.4,2.2,2.8,3.2,4.2c1,1.7,2.3,3.3,3.3,5l3,4.3c1.6,2.1,3.2,4.2,4.6,6.4
				c0.6,0.7,1.3,1.6,1.9,2.6c0.4,0.7,0.7,1.2,1.1,1.9c0,0,0,0.3,0.3,0.5c1.5,1.6,2.6,3.8,4.2,5.6c1.6,2.1,3.3,4.5,4.6,6.6
				c2,2.8,3.9,5.4,5.9,8c0.6,0.7,1,1.4,1.8,1.8c0.8,0.4,1.2,1.4,1.4,2.2c0.1,0.8,0.2,1.3,0,2.1c0.1,0.5-0.1,1.1,0.3,1.8
				c0.3,0.5,0.4,1,0.2,1.3c-0.2,0.3-0.2,0.3-0.5,0.3c-0.3,1.6-1.3,2-2.5,2.2c-1.3,0.2-2.3,0.6-3.5,1c-2,0.3-4,0.8-6.1,1.1l-1.3,0.2
				c-0.5,0.1-1,0.1-1.5,0.5c-0.2,0.3-0.8,0.1-1.3,0.2c-1.3,0.2-4.1,0.3-5-0.3c-0.5-0.2-1.4-0.3-1.9-0.5c-5.9-8-12-16-17.3-24.3
				c-4.2-5.4-8.4-11.3-11.6-17.3c-1.1,1.2-1.7,2.6-2,3.9c-0.2,0.5-0.1,0.8-0.4,1.1c-0.4,0.8-0.8,1.4-1,2.2c-0.4,0.8-0.5,1.6-0.4,2.4
				l3.4,23.5c0.2,1.5,0.4,3.1,0.4,4.6l0.2,1.3c0.2,1.3,0.4,2.6,0.3,3.6c0.2,1.3,0.1,2.3,0,3.6c-0.7,0.6-1.5,0.7-1.9,1.6
				c-0.2,0.3-0.5,0.3-1,0.4c-1.2,0.4-2.7,0.9-4,1.4l-4.3,0.6c-1.3-0.1-2.4-0.2-3.4-0.3c-1.4-0.3-2.5-0.9-3.6-1.3
				c-0.3-0.2-0.6-0.7-0.9-0.9c-0.5-1.5-1.2-3-1.9-4.2l-0.1-0.8c-1.7-12-3.6-24.5-6.1-36.4c-0.7-2.8-1.1-5.6-1.5-8.6l-4.7-32.2
				c-0.7-3-1.1-5.8-1.5-8.6c-0.6-2-0.9-4.3-1.2-6.3l-0.1-0.5c-0.9-2.5-1-4.8-1.5-7.1L269.9,350.3z"/>
		</g>
		<g class="st4">
			<path class="st3" d="M362.1,395.2c0.3,0,0.2-0.3,0.2-0.5c-0.5-3.6-0.5-7-0.7-10.6c-0.5-7-0.7-14.2-0.9-21.1
				c-0.1-2.1-0.5-3.8-0.7-5.9c-0.4-1.5,0-3.4-0.6-4.9c0.1-2.1-0.3-4.4-0.4-6.4c-0.1-2.1-0.3-4.4-0.2-6.5c-0.1-1.8,0.6-3.1,1.8-4.3
				c0.7-0.6,2-0.9,3-1l3.1-0.2c0.2-0.3,0.5-0.3,0.8-0.3l8.8-0.6c0.8-0.1,1.8-0.1,2.6,0.1c0.8,0.2,1.8,0.1,2.6,0.1l3.6-0.2
				c2.3-0.4,4.4-0.5,6.4-0.9l1.8-0.1c1.3-0.1,2.3-0.2,3.6-0.5l4.9-0.3c1.3-0.1,2.3-0.2,3.6-0.5c0.5,0,1.3-0.1,2.1,0.1l0.5,0
				c0.2-0.3,0.5-0.3,0.8-0.3c0.5,0,1,0.2,1.6,0.4c0.3,0,0.5,0.2,0.8,0.2c1.3,0.2,1.9,1.4,1.7,2.5c0.1,0.8,0.4,1.8,0.4,2.6l0.3,4.9
				c0.1,1.3-0.1,2.6,0,3.9c0.4,2-0.2,4.2-0.1,6.2c-0.2,0.8-0.4,1.3-1.2,1.6c-1.5,0.9-3.6,1-5.1,1.1l-1.8,0.1
				c-0.2,0.3-0.8,0.3-1.3,0.3l-3.3,0.2c-0.5,0-1,0.1-1.3,0.3l-3.3,0.2c-2.3,0.4-4.6,0.6-6.9,0.7l-4.1,0.3c-0.2,0.3-0.8,0.3-1.3,0.3
				c-1-0.2-1.3,0.3-1.2,1.1c0.2,6.5,0.6,12.6,0.8,19.1c0.1,1-0.1,2.1,0.2,3.1c0.5,0.2,1,0.2,1.6,0.2l3.3-0.2c2-0.7,3.8-0.5,5.9-0.9
				c0.5,0,0.8,0.2,1.3,0.2c1.3-0.1,2.5-0.7,3.8-0.8l2.8-0.2c1,0.2,1.9,0.9,2.9,1.1c0.8,0.7,0.9,1.5,0.9,2.5
				c0.5,3.6,0.5,7.2,0.7,11.1c0.1,1.3,0.2,2.6,0,3.9c-0.2,0.5-0.2,1.3-0.1,1.8c0.1,1-0.4,1.6-1.1,2.1c-0.8,0.3-1.5,0.6-2.3,0.7
				c-1,0.1-2.1,0.1-3.3,0.5c-1,0.1-2.1,0.1-3.1,0.5l-0.5,0c-1,0.1-1.8,0.1-2.6-0.1c-1,0.1-1.5,0.6-2.5,0.7l-5.7,0.4
				c-0.3,0-0.3,0-0.5,0.3c-0.5,0.8-0.4,2.1-0.3,3.1l1,14.4c-0.2,1.3-0.1,2.6,0,3.9l0.5,7c0.3,0.5,0.5,0.5,0.8,0.5
				c3.1-0.2,5.9-0.4,9-0.9c1.5-0.4,3.1-0.5,4.6-0.6l1-0.1c0.2-0.3,0.5-0.3,0.8-0.3c0.3,0,0.8-0.1,1,0.2l1-0.1
				c0.8-0.3,1.8-0.4,2.6-0.4l6.2-0.4c0.2-0.3,0.8-0.3,1-0.3c1-0.1,1.9,0.9,2.9,0.8l0.8,0.7c0.3,0.5,0.6,1,0.4,1.5l0.8,11.3
				c0.1,2.1-0.2,4.2-0.1,6.2c-0.2,0.8-0.4,1.3-1.2,1.6c-1.5,0.9-3.6,1-5.4,1.1l-1.5,0.1c-0.8,0.3-1.5,0.4-2.3,0.4l-3.1,0.2
				c-1.3,0.6-2.6,0.4-3.8,0.8l-9.5,0.6c-0.5,0-1,0.1-1.3,0.3l-2.8,0.2c-1-0.2-2.3-0.1-3.6-0.3l-0.5,0c-0.8,0.3-1.8,0.6-2.5,0.7
				l-6.7,0.4c-0.5,0.3-1.3,0.3-1.8,0.4c-0.8,0.1-1.3,0.1-2.1-0.1c-1,0.1-2.4-0.6-3-1.6c-0.9-1.2-1.7-2.7-2.1-4.5l-0.1-0.8
				c-0.1-2.1-0.3-4.4-0.7-6.7l-0.4-6.4c-0.1-1.8,0-3.9-0.1-5.7c-0.2-3.3-0.2-6.5-0.6-9.5l-0.9-13.9c-0.1-1.8-0.5-3.8-0.4-5.7
				c-0.3-1.3-0.2-2.6-0.3-4.1C362.2,396.7,361.9,396,362.1,395.2z"/>
		</g>
		<g class="st4">
			<path class="st3" d="M528.7,411.7c1,1.1,1.5,2.1,1.4,3.4c-0.3,1-0.1,1.8-0.4,2.8c-0.3,0.5-0.1,1.3-0.3,2.1
				c-0.1,1.8-0.4,3.3-0.7,5.1c0,0.8-0.3,1.3-0.6,2c-0.9,2.8-2,5.6-3.2,8.4c-0.3,1.5-0.9,2.8-1.7,4.1c-0.9,2-2.5,3.5-4.3,4.7
				c-1.6,1-2.9,2.2-4.5,3.4c-0.3,0.2-0.5,0.2-0.8,0.5c-2.1,1.2-4.2,2.7-6.9,3.3c0,0.3-0.3,0.2-0.5,0.2c-1.8,1-3.9,1.1-6,1.3
				c-0.3,0-0.8,0-1,0c-0.8,0-1.3-0.1-2.1-0.1c-1.5-0.1-3.1-0.1-4.6-0.2c-0.3,0.2-0.5,0.2-0.8,0.2c-0.5,0-0.8,0-1-0.3
				c-1.5-0.1-3.1-0.1-4.6-0.4c-0.3,0-0.3,0-0.5,0c-1.8-0.6-3.3-1.2-4.8-1.7c-1,0-1.8-0.6-2.5-1.1c-1.3-0.6-2.5-1.4-3.5-2.2
				c-0.5-0.5-0.7-0.8-1.2-1.1c-0.5,0-0.8-0.5-1-0.8c-2-1.9-3.7-4-5.2-6.4c-1-1.8-1.9-3.4-2.9-5.5c-0.9-2.6-1.6-5.5-2-8.3
				c-0.4-1.8-0.4-3.6-0.6-5.4c-0.2-2.6-0.1-4.9,0-7.2c0.1-2.6,0.2-4.9,0.3-7.2c-0.2-2.3-0.1-4.9,0-7.2c0.2-3.9,0.3-7.7,0.2-11.6
				c0.1-2.3-0.1-4.9,0-7.2c0.2-4.9,0.4-9.5,0.6-14.4c0.1-2.1,0.2-4.1,0.2-6.2c0.1-1.3,0.1-2.6,0.4-3.9c0.3-0.5,0.3-1.3,0.6-1.8
				c0.3-0.2,0.3-0.5,0.3-0.8c0.9-2.8,2.3-5.3,3.9-7.6c1.7-2.8,3.8-5.3,6-7.8c1.3-0.7,2.2-2.2,3.7-2.7c1.1-1.2,2.6-1.4,3.7-2.4
				c1.6-1,3.2-1.4,5-1.9c0.5,0,0.8,0,1,0c3.4-1.4,7-1.3,10.6-1.1c1.5,0.1,3.1,0.1,4.7-0.1c0.5,0,1,0,1.3,0.1
				c1.3,0.1,2.3,0.1,3.3,0.4c2.3,0.4,4.3,1.2,6.4,2.1c1.8,1.1,3.5,2,5,3.3c1.2,1.1,2.5,2.2,4,3c1.5,1.1,2.5,2.2,3.7,3.5
				c0.2,0.3,0.5,0.5,0.7,0.8c0.2,0.3,0.5,0.5,0.7,1.1c0.7,1.6,1.7,3.2,2.6,5c0.2,0.5-0.1,1.3,0.4,1.8c0.5,0.8,0.7,1.6,0.9,2.4
				c0,0.5,0.2,1,0.4,1.8c0.4,2.3,0.8,4.9,0.5,7.3c-0.3,0.8-0.3,1.5-0.9,2.3c-2.1,1.2-3.2,1.9-5.8,1.8c-1.8-0.1-3.6,0.1-5.4,0.6
				c-1,0-7.5,0.2-7.8,0.5c-0.3,0.2-0.5,0.2-0.5,0.2c-0.5,0-1-0.6-1.5-0.8c-0.2-0.3-0.8-0.5-1-1.1c-0.2-1-1.2-1.6-1.2-2.6
				c0-0.5-0.2-0.8-0.2-1.3c0.3-0.5,0-1,0.1-1.3c-0.4-2.1-0.6-4.2-1.1-6c-0.2-1.8-1.2-3.1-2.4-4.2c-0.2-0.3-0.5-0.5-0.7-0.8
				c-1-1.3-2.2-1.9-3.8-2.5c-0.3,0-0.8,0-1.3-0.1c-3.4-0.1-4.9,0.1-7.6,2.5c-1.3,1-2.4,2.2-3,4c-0.6,1-1.1,2-1.7,3
				c-0.3,1-0.6,2.3-0.7,3.3c-0.1,1.8-0.1,3.6-0.2,5.4c-0.1,2.8-0.5,5.9-0.6,8.8c-1.2,9.5-1.6,21.4-2,30.9c-0.1,1.3-0.1,2.6,0.4,3.9
				c0,0.5,0,1-0.1,1.5c-0.1,1.8-0.2,3.9-0.2,5.7c-0.2,5.4,0.9,15.5,6.2,18.9c0.5,0.5,1.8,1.4,2.5,1.4c1,0.3,2.1,0.3,3.1,0.6
				c0,0,0.3,0,0.5,0c1.6-0.5,3.1-1.2,4.5-2.1c2.1-2,4-4.2,5.2-7c0-0.3,0-0.3,0.3-0.5c1.1-1.5,1.2-3.3,1-4.9c0.1-2.1,0.4-4.1,0.8-6.2
				c0.3-1.5,1.4-2.3,3.2-2.5c1.6-0.2,3.1-0.1,4.9-0.3c2.1,0.1,4.4-0.1,6.7,0c0.8,0,1.3-0.7,2.1-0.4c0.3,0,0.5,0,0.8,0
				c0.5,0,1,0,1.3,0.1C527.6,411.9,528.1,411.9,528.7,411.7z"/>
		</g>
		<g class="st4">
			<path class="st3" d="M533.6,450.1c0.4-1,0.8-2,0.9-3c0.4-1.2,1.1-2.5,1.8-3.7c2.2-5.2,4.5-10.4,6.7-15.8l6.8-16.3
				c0.4-1.2,1.1-2.5,1.8-3.9c1.2-3.2,2.7-6.7,4.1-9.9c1.9-4.7,3.8-9.4,5.8-14.3c1.2-3.2,2.7-6.7,4.1-9.9c3.6-9.7,8-19.5,12.3-29.1
				c0.9-2.7,3.2-4.5,5.7-5.5c0.8-0.2,1.4-0.6,2.2-0.8c2,0.3,4.1,0.5,6.1,0.8c1,0.1,2,0.3,3.1,0.4c0.8,0.1,1.5,0.2,2.3,0.3
				c0.5,0.1,0.8,0.1,1.3,0.2c0.3,0,0.7,0.4,1,0.6c0.9,0.9,1.8,2.1,2.1,3.7c0.6,1.1,0.7,2.4,0.8,3.7c-0.1,2.8,0.3,5.8,0.4,8.6
				c0.4,2.7,0.8,5.6,1.3,8.2l1.1,9.5c0.7,4.8,0.9,9.5,1.3,14.2c0.3,1.9,0.3,3.7,0.3,5.5c0.4,4.7,0.9,9.5,1.3,14.2
				c0.3,3.9,0.8,7.9,1.1,11.8l0.9,11c0.2,4.4,0.7,8.9,1.4,13.4c0.1,2.9,0.6,5.8,1.2,8.7c0.3,1.9,0.5,4,0.8,6.1
				c-0.3,0.5-0.6,0.7-0.9,1.2c-0.7,1.5-2.1,2.1-3.6,1.9c-2.3,0-4.6-0.3-7.2-0.4c-1.3-0.2-2.8-0.1-4.1-0.3c-0.5-0.1-0.8-0.1-1.3-0.2
				c-1-0.1-1.8-0.5-2.7-1.4c-0.2-0.5-0.3-1.3-0.5-1.9c0-2.1-0.5-4-0.8-6.1c-0.5-4-1.1-7.7-1.9-11.7l0.1-0.8
				c-0.1-1.1-0.4-1.1-1.4-1.2c-1.9,0.3-3.6-0.2-5.7-0.2l-6.1-0.8c-0.5,0.2-1.1,0.1-1.8,0l-6.7-0.9c-1.8,0-3.4-0.2-4.9-0.1
				c-0.5-0.1-1.3,0.1-1.8,0c-0.6,0.7-1,1.4-1,1.9c-2.2,5.2-4.6,9.8-7.1,14.7c-0.6,0.7-1,1.4-2.1,1.8c-0.3,0-0.6,0.4-0.9,0.7
				c-0.4,0.7-1.4,0.6-2.1,0.5c-0.3,0-0.5-0.1-0.5-0.1c-0.8-0.1-1-0.1-1.8-0.2c0,0-0.3,0-0.5-0.1c-0.7-0.4-1.8-0.5-2.5-0.6l-8.2-1.1
				c-0.3,0-0.5-0.3-0.5-0.3c-0.1-1.1-1.1-1.7-1.6-2C533.2,450.9,533.3,450.6,533.6,450.1z M569.9,418.4c0.4,0.6,1,0.4,1.5,0.5l7.4,1
				c0.8,0.1,1.5,0.2,2.3,0.3c1.5,0.2,3.1,0.4,4.6,0.6c1,0.1,1.8,0,2.8,0.1c0-0.3,0.3-0.5,0.1-0.8c0.1-1,0-2.3-0.3-3.7
				c-0.1-1.1-0.2-2.4-0.3-3.7l-0.7-6.3c-0.5-4.2-1.2-8.7-1.7-13c-0.2-2.1-0.8-4.3-0.5-6.6c-0.2-0.3-0.2-0.5-0.7-0.6
				c-5,10.5-9.7,21.1-14.5,31.9L569.9,418.4z"/>
		</g>
		<g class="st4">
			<path class="st3" d="M640.3,349.6c0.9-0.6,2-0.7,3.2-0.4s2.8,0.6,4.4,0.4l8.3,1.7c0.8,0.2,1.5,0.3,2.5,0.8c0.5,0.1,1.3,0.3,2,0.7
				c0.3,0,0.6-0.2,0.8,0.2l1.8,0.4c1.5,0.3,2.8,0.6,4.1,0.6c0.5,0.1,1,0.5,1.2,0.5c0.5,0.4,0.7,0.4,1.3,0.3c0.3,0.1,0.5,0.1,0.7,0.4
				c1.9,0.9,3.8,1.8,6,2.8c1.4,0.8,3,1.9,4.5,2.7c0.9,0.7,1.8,1.7,2.7,2.1c0.3,0.1,0.3,0.1,0.5,0.4c0.4,0.9,1.1,1.3,1.8,1.7
				c0.5,0.4,0.9,0.7,1.1,1.3c0.3,1.1,1.2,1.8,1.8,2.7c0.8,1.2,1.4,2.4,1.9,3.8c0.2,0.6,0.5,1.4,0.7,2c1.1,5.2,1.2,10,1.2,15.2
				c0.2,1.6-0.1,3.4-0.8,5.1c-0.7,2-1.3,3.7-1.9,5.4c-3,6-10.7,16.6-17.4,17.6c-0.6,0.2-1.4,0.5-2,0.9c0.2,1.6,0.7,3,1.2,4.7
				c1.3,5.3,3.2,10.4,4.5,15.6c0.3,1.1,0.6,2.2,0.6,3.5c-0.1,0.3,0.2,0.6,0.2,0.6c0.8,1.2,0.8,2.5,1.3,3.9c0.2,1.6,0.7,3,1.2,4.7
				c1.2,3.4,2.1,6.7,3,10.1c0.6,2.2,1.2,4.5,2.1,6.5c0.2,0.6,0.1,0.8,0.3,1.1c0.9,1,0.9,2,0.7,3.3c-0.2,0.8-0.3,1.3-0.6,1.7
				l-0.2,0.8c0.5,1.4-0.6,1.7-1,2.4c-0.7,0.9-1.8,1-2.6,1.1c-2-0.4-3.8-0.5-5.9-0.7c-1.3-0.3-2.3-0.5-3.6-0.5l-6.8-1.4
				c-0.8-0.2-1.5-0.6-1.9-0.9c-0.7-0.7-1.6-1.1-2.3-1.8c-0.2-0.3-0.4-0.9-0.6-1.2c0.1-0.5,0.2-0.8-0.1-1.1c-0.8-2.5-1.4-4.8-2.2-7.3
				l-2.3-8.3c-0.6-2.2-1.4-4.8-2-7l-2.7-10c-1.2-4.5-2.2-8.9-3.2-13c0.1-0.3,0.1-0.5-0.4-0.9c-0.3,0.2-0.2,0.8-0.2,1l-1.8,8.9
				c-0.2,0.8,0,1.3-0.4,2c-0.5,1-0.5,2.3-0.7,3.5c-0.1,2.1-0.8,4-1.2,6.1l-2.5,12.4c-0.4,2-0.8,4-1.5,6c-0.5,2.5-2.7,4.5-5.2,4.8
				c-0.3,0-0.6,0.2-0.8-0.2l-1-0.2c-1.5-0.3-2.8-0.3-4.1-0.6l-5.3-1.1c-3.5-0.7-4.6-5.9-4-9c0.7-3.3,1.1-6.6,1.8-10.2l3.1-15.4
				c0.3-1.3,0.3-2.6,0.5-3.8c-0.1-1.1,0.2-2.1,0.4-3.1l2.1-10.6c0.1-1.8,0.5-3.8,0.9-5.6c0.2-0.8,0.1-1.8,0.5-2.5
				c0.3-0.2,0.3-0.2,0.4-0.5c0.3-4.1,1.4-8.1,2.1-11.9c0.6-4.1,1.6-8.1,2.4-12.1c0.5-2.3,1-4.8,1.2-7.1c0.4-1.8,0.5-3.6,0.8-5.1
				c0.3-2.8,0.9-5.6,1.2-8.4l1.8-8.9C637.9,351.2,638.9,350.3,640.3,349.6z M656.3,376.4l-4.1,20.5c-0.1,0.3,0.2,0.6,0.1,0.8
				c0.2,0.3,0.7,0.4,1,0.5l1.5,0.3c0.5,0.1,1,0.2,1.6,0c0.3-0.2,1.1-0.1,1.6-0.2c2.2-0.4,4.6-0.7,6.7-1.8c1.7-0.7,3-2,3.6-3.7
				c0.5-1,0.7-2,1.1-2.9c0.9-1.9,0.8-4,0.2-6.3c-0.8-4.1-6.4-6-10-6.7c-0.5-0.1-0.8-0.2-1.2-0.5
				C657.7,376.2,657.2,376.1,656.3,376.4z"/>
		</g>
		<g class="st4">
			<path class="st3" d="M703.6,422.1c0.3,0.1,0.3-0.2,0.4-0.4c0.7-3.6,1.7-6.8,2.6-10.3c1.7-6.8,3.8-13.7,5.8-20.4
				c0.5-2,0.7-3.8,1.2-5.8c0.1-1.6,1.1-3.2,1-4.8c0.8-1.9,1.1-4.3,1.6-6.3c0.5-2,1.1-4.3,1.9-6.2c0.5-1.8,1.5-2.8,3-3.5
				c0.9-0.3,2.2-0.2,3.2,0l3,0.8c0.3-0.2,0.6-0.1,0.8-0.1l8.5,2.2c0.8,0.2,1.8,0.5,2.4,0.9c0.7,0.4,1.7,0.7,2.4,0.9l3.5,0.9
				c2.3,0.3,4.3,0.8,6.4,1.1l1.8,0.5c1.3,0.3,2.3,0.6,3.6,0.7l4.8,1.2c1.3,0.3,2.3,0.6,3.6,0.7c0.5,0.1,1.3,0.3,1.9,0.8l0.5,0.1
				c0.3-0.2,0.6-0.1,0.8-0.1c0.5,0.1,0.9,0.5,1.4,0.9c0.3,0.1,0.4,0.4,0.7,0.4c1.2,0.6,1.4,2,0.9,2.9c-0.2,0.7-0.2,1.8-0.4,2.6
				l-1.2,4.8c-0.3,1.3-0.9,2.4-1.2,3.7c-0.3,2.1-1.5,3.9-2,5.9c-0.4,0.7-0.8,1.1-1.6,1.2c-1.7,0.4-3.7-0.2-5.2-0.5l-1.8-0.5
				c-0.3,0.2-0.8,0.1-1.3-0.1l-3.3-0.8c-0.5-0.1-1-0.3-1.3-0.1l-3.3-0.8c-2.3-0.3-4.6-0.9-6.8-1.5l-4-1c-0.3,0.2-0.8,0.1-1.3-0.1
				c-0.9-0.5-1.3-0.1-1.5,0.7c-1.9,6.2-3.4,12.2-5.3,18.4c-0.3,1-0.8,1.9-0.8,3c0.4,0.4,0.9,0.5,1.4,0.6l3.3,0.8
				c2.1,0,3.8,0.7,5.9,1c0.5,0.1,0.7,0.4,1.2,0.6c1.3,0.3,2.6,0.1,3.9,0.5l2.8,0.7c0.9,0.5,1.5,1.5,2.4,2c0.6,0.9,0.4,1.7,0.1,2.7
				c-0.7,3.6-1.8,7-2.8,10.8c-0.3,1.3-0.6,2.5-1.2,3.7c-0.4,0.4-0.6,1.2-0.7,1.7c-0.3,1-0.9,1.4-1.8,1.7c-0.8,0.1-1.6,0.1-2.4-0.1
				c-1-0.3-2-0.5-3.3-0.6c-1-0.3-2-0.5-3.1-0.5l-0.5-0.1c-1-0.3-1.8-0.5-2.4-0.9c-1-0.3-1.6,0.1-2.6-0.1l-5.5-1.4
				c-0.2-0.1-0.2-0.1-0.6,0.1c-0.7,0.6-1,1.9-1.3,2.9l-3.6,14c-0.6,1.2-0.9,2.4-1.2,3.7l-1.7,6.8c0.1,0.6,0.4,0.6,0.6,0.7
				c3,0.8,5.8,1.5,8.8,2c1.6,0.1,3.1,0.5,4.6,0.9l1,0.3c0.3-0.2,0.6-0.1,0.8-0.1c0.2,0.1,0.7,0.2,0.9,0.5l1,0.3
				c0.8-0.1,1.8,0.2,2.6,0.4l6,1.5c0.3-0.2,0.8-0.1,1.1,0c1,0.3,1.5,1.5,2.5,1.7l0.6,0.9c0.1,0.6,0.2,1.1-0.1,1.6l-2.8,11
				c-0.5,2-1.5,3.9-2,5.9c-0.4,0.7-0.8,1.1-1.6,1.2c-1.7,0.4-3.7-0.2-5.4-0.6l-1.5-0.4c-0.8,0.1-1.6-0.1-2.3-0.3l-3-0.8
				c-1.4,0.2-2.6-0.4-3.9-0.5l-9.3-2.4c-0.5-0.1-1-0.3-1.3-0.1l-2.8-0.7c-0.9-0.5-2.2-0.8-3.4-1.4l-0.5-0.1c-0.8,0.1-1.9,0-2.6-0.1
				l-6.5-1.7c-0.6,0.1-1.3-0.1-1.8-0.2c-0.8-0.2-1.3-0.3-1.9-0.8c-1-0.3-2.1-1.3-2.3-2.5c-0.4-1.4-0.8-3.1-0.6-5l0.2-0.8
				c0.5-2,1.1-4.3,1.4-6.6l1.6-6.3c0.5-1.8,1.2-3.7,1.7-5.4c0.8-3.3,1.9-6.2,2.4-9.3l3.5-13.5c0.5-1.8,0.7-3.8,1.4-5.5
				c0.1-1.3,0.6-2.5,1-4C703.2,423.6,703.1,422.8,703.6,422.1z"/>
		</g>
		<g>
			<path class="st0" d="M659.6,555.4c-4-18.8,6.7-38.5,27.2-50.1c-149.3-26.5-302.2-26.5-451.5,0c3.7,3.3,19.6,18,19.9,40.8
				c0.3,23.6-16.3,38.8-19.9,42c73.6,9.9,147.8,15,222.1,15.2c76.7,0.2,153.4-4.9,229.4-15.2C683.3,586.2,663.9,575.6,659.6,555.4z
				 M354.5,529.9c-0.1,0.4-0.2,0.7-0.4,1.1c-0.7,0.6-1.7,1-2.7,1c-0.9,0-1.7,0.1-2.5,0.4c-1.2,0-2.4,0.2-3.6,0.4
				c-0.1,0.1-0.2,0.1-0.2,0.1c-0.2,0-0.5-0.2-0.7-0.4c-0.2-0.1-0.4-0.2-0.5-0.5c-0.1-0.5-0.6-0.7-0.6-1.2c0-0.2-0.1-0.4-0.1-0.6
				c0-0.2,0-0.5,0-0.6c-0.2-1-0.4-2-0.6-2.8c-0.1-0.8-0.6-1.5-1.2-2l-0.4-0.4c-0.5-0.5-1.1-0.9-1.8-1.1h-0.6
				c-1.3-0.2-2.6,0.3-3.5,1.3c-0.6,0.5-1.1,1.2-1.3,2l-0.7,1.5c-0.1,0.5-0.2,1-0.2,1.6v2.5c0,1.3-0.1,2.8-0.1,4.1
				c-0.4,4.5-0.4,10-0.4,14.5c0,0.6,0,1.2,0.2,1.8v3.4c0,2.5,0.7,7.3,3.3,8.7c0.3,0.3,0.8,0.5,1.2,0.6c0.5,0.1,1,0.1,1.5,0.2h0.2
				c0.7-0.2,1.4-0.6,2.1-1.1c1-0.9,1.8-2.1,2.3-3.4c0-0.1,0-0.1,0.1-0.2c0.4-0.7,0.5-1.5,0.4-2.3c0-1,0.1-2,0.2-2.9
				c0.1-0.7,0.6-1.1,1.5-1.2c0.8-0.1,1.5-0.1,2.3-0.2s2.1-0.1,3.1-0.1c0.4,0,0.6-0.4,1-0.2h1c0.2,0,0.5,0,0.7-0.1
				c0.5,0.4,0.7,1,0.7,1.6c-0.1,0.5,0,0.9-0.1,1.3c-0.1,0.2,0,0.6-0.1,1c0,0.8-0.1,1.6-0.2,2.4c0,0.3-0.1,0.7-0.2,1
				c-0.4,1.3-0.8,2.7-1.3,4c-0.1,0.7-0.4,1.4-0.7,2c-0.4,0.9-1.1,1.7-2,2.3c-0.7,0.5-1.4,1.1-2.1,1.7c-0.1,0.1-0.2,0.1-0.4,0.2
				c-1,0.7-2,1.3-3.2,1.7c0,0.1-0.1,0.1-0.2,0.1c-0.9,0.4-1.8,0.7-2.8,0.7h-3.6c-0.1,0.1-0.2,0.1-0.4,0.1c-0.2,0-0.4,0-0.5-0.1
				c-0.7,0-1.5,0-2.2-0.1h-0.2c-0.9-0.2-1.6-0.5-2.3-0.7c-0.4,0-0.9-0.2-1.2-0.5c-0.6-0.3-1.2-0.6-1.7-1c-0.2-0.2-0.4-0.4-0.6-0.5
				c-0.2,0-0.4-0.2-0.5-0.4c-1-0.9-1.8-1.9-2.5-2.9c-0.5-0.9-1-1.6-1.5-2.5c-0.5-1.3-0.9-2.6-1.1-3.9c-0.2-0.8-0.3-1.7-0.4-2.5
				c-0.1-1.1-0.1-2.3-0.1-3.4v-3.4c-0.1-1.1-0.1-2.3-0.1-3.4c0-1.8,0-3.6-0.1-5.5c0-1.1-0.1-2.3-0.1-3.4V530c0-0.6,0-1.2,0.1-1.8
				c0.1-0.2,0.1-0.6,0.2-0.8c0.1-0.1,0.1-0.2,0.1-0.4c0.4-1.3,0.9-2.5,1.7-3.6c0.8-1.3,1.7-2.6,2.7-3.8c0.6-0.4,1-1.1,1.7-1.3
				c0.5-0.6,1.2-0.7,1.7-1.2c0.7-0.5,1.5-0.8,2.3-1h0.5c1.6-0.6,3.3-0.9,5-0.7c0.7,0,1.5,0,2.2-0.1h0.6c0.5,0,1.1,0,1.6,0.1
				c1,0.2,2.1,0.4,3,0.8c0.8,0.4,1.7,0.9,2.4,1.5c0.6,0.5,1.3,1,2,1.3c0.7,0.5,1.3,1,1.8,1.6c0.1,0.1,0.2,0.2,0.4,0.4
				c0.2,0.1,0.3,0.3,0.4,0.5c0.4,0.7,0.9,1.5,1.3,2.3c0.1,0.2,0,0.6,0.2,0.8c0.2,0.3,0.4,0.7,0.5,1.1c0,0.3,0.1,0.6,0.2,0.9
				C354.5,527.6,354.6,528.7,354.5,529.9L354.5,529.9z M399.4,521.3c0,0.6-0.1,1.2-0.1,1.8c0,1-0.1,2-0.2,2.9
				c-0.1,0.4-0.2,0.6-0.6,0.7c-0.8,0.3-1.6,0.4-2.4,0.4h-0.8c-0.2,0.1-0.4,0.2-0.6,0.1H393c-0.2,0-0.4,0-0.6,0.1h-1.6
				c-1.1,0.1-2.2,0.1-3.3,0.1h-2c-0.2,0.1-0.4,0.1-0.6,0.1c-0.5-0.1-0.6,0.1-0.6,0.5c-0.1,3-0.1,5.9-0.2,9c-0.1,0.5-0.1,1,0,1.5
				c0.2,0.1,0.5,0.1,0.7,0.1h1.6c0.9-0.1,1.9-0.2,2.8-0.2c0.2,0,0.4,0.1,0.6,0.1c0.6,0,1.2-0.2,1.8-0.2h1.3c0.5,0.1,0.8,0.5,1.3,0.6
				c0.3,0.3,0.4,0.8,0.4,1.2c0.1,1.7,0,3.4,0,5.2c0,0.6,0,1.2-0.1,1.8c-0.1,0.3-0.1,0.6-0.1,0.8c0,0.4-0.2,0.8-0.6,1
				c-0.3,0.1-0.7,0.2-1.1,0.2c-0.5,0-1.1,0-1.6,0.1c-0.5,0-1,0-1.5,0.1h-0.2c-0.4,0-0.8,0-1.2-0.1c-0.5,0-0.7,0.2-1.2,0.2h-2.7
				c-0.1,0-0.1,0-0.2,0.1c-0.2,0.5-0.3,1-0.2,1.5v6.8c-0.1,0.6-0.1,1.2-0.1,1.8v3.3c0.1,0.2,0.2,0.2,0.4,0.2c1.5,0,2.8,0,4.2-0.1
				c0.7-0.1,1.5-0.1,2.2-0.1h0.5c0.1-0.1,0.2-0.1,0.4-0.1c0.2,0,0.3,0,0.5,0.1h0.5c0.4-0.1,0.8-0.1,1.2-0.1h2.9
				c0.1-0.1,0.3-0.1,0.5-0.1c0.5,0,0.8,0.5,1.3,0.5l0.4,0.4c0.2,0.2,0.2,0.5,0.1,0.7v5.3c0,1-0.2,2-0.2,2.9
				c-0.1,0.3-0.3,0.6-0.6,0.7c-0.8,0.3-1.7,0.4-2.5,0.4h-0.7c-0.4,0.1-0.7,0.1-1.1,0.1h-1.4c-0.6,0.1-1.2,0.2-1.8,0.2h-4.5
				c-0.2,0-0.5,0-0.6,0.1h-1.3c-0.5-0.1-1.1-0.1-1.7-0.2H382c-0.4,0.1-0.8,0.2-1.2,0.2h-3.2c-0.3,0.1-0.6,0.1-0.8,0.1
				c-0.3,0-0.7,0-1-0.1c-0.6,0-1.1-0.4-1.3-0.8c-0.4-0.7-0.7-1.4-0.8-2.2v-0.4c0-1.1,0-2.1-0.1-3.2v-3c0-0.8,0.1-1.8,0.1-2.7
				c0-1.6,0.1-3,0-4.5v-6.5c-0.1-0.9-0.1-1.8,0-2.7c-0.1-0.7-0.1-1.3,0-2c-0.1-0.4-0.1-0.7,0-1.1c0.1,0,0.1-0.1,0.1-0.2
				c-0.1-1.7,0-3.3,0-5c0-3.3,0.1-6.7,0.2-9.9c0-1-0.1-1.8-0.1-2.8c0-0.8,0-1.5-0.1-2.3c0.1-1,0.1-2,0-3c0-1,0-2,0.1-3
				c0-0.8,0.3-1.5,1-2c0.4-0.2,0.9-0.4,1.5-0.4h1.5c0.1-0.1,0.2-0.1,0.4-0.1h4.1c0.4,0,0.8,0,1.2,0.1c0.4,0.1,0.8,0.1,1.2,0.1h1.7
				c1.1-0.1,2.1-0.1,3-0.2h0.8c0.6,0,1.1,0,1.7-0.1h2.3c0.6,0,1.1,0,1.7-0.1c0.3,0,0.7,0,1,0.1h0.2c0.1-0.1,0.2-0.1,0.4-0.1
				c0.3,0,0.5,0.1,0.7,0.2c0.1,0,0.2,0.1,0.4,0.1c0.5,0.1,0.9,0.7,0.7,1.2c0,0,0,0,0,0c0,0.4,0.1,0.8,0.1,1.2L399.4,521.3z
				 M453.1,552.7c0,0.8,0,1.5,0.1,2.3v12.5c0,0.4,0,0.9-0.1,1.3v2.2c-0.1,0.7-0.3,1.4-0.7,2c-0.1,0.1-0.2,0.2-0.4,0.2
				c-0.3,0.2-0.6,0.4-1,0.5c-0.1,0-0.1,0.1-0.2,0h-0.5c-0.7,0-1.3,0.1-2.1,0.1h-2.4c-0.5,0-1-0.1-1.3-0.5c-0.2-0.2-0.4-0.5-0.6-0.7
				c-0.4-0.8-0.8-1.6-1.1-2.4c-0.5-1.1-1.1-2.2-1.6-3.3c-0.2-0.4-0.4-0.7-0.6-1c-0.1-0.2-0.1-0.6-0.2-0.8c-0.6-1.3-1.2-2.8-1.8-4.1
				c-0.8-2.2-1.7-4.3-2.9-6.3c-0.1-0.2-0.1-0.4-0.1-0.6c-0.2-0.5-0.5-1.1-0.8-1.6l-1.5-3.3c-0.5-0.9-1-1.8-1.3-2.8
				c-0.4-0.4-0.7-0.9-0.7-1.5c-0.2-0.5-0.5-0.9-0.8-1.3v2.5c0.1,1,0,1.8,0.1,2.7c0.1,0.1,0.1,0.3,0,0.5c-0.1,0.8-0.1,1.6,0,2.4
				c-0.1,0.6-0.1,1.2,0,1.8v1.6c0.1,1.7,0.1,3.3,0.1,4.8v7.3c0,0.5-0.1,1.1-0.1,1.6c-0.1,0.6-0.1,1.1-0.1,1.7
				c0.1,0.7-0.2,1.5-0.6,2.1c0,0.1-0.1,0.1-0.2,0.2c-0.1,0.1-0.6,0.4-0.8,0.5c-0.2,0.1-0.3,0.1-0.5,0.1h-2.5c-0.2,0-0.4-0.1-0.5,0
				c-0.4,0.1-0.7,0.1-1.1,0.1h-1.1c-0.4-0.1-0.8-0.2-1.1-0.5c-0.6-0.7-1-1.5-1.2-2.3c0-0.1-0.1-0.4-0.1-0.5c0-1.7-0.1-3.3-0.1-4.8
				v-5.1c-0.1-1.8-0.1-3.6-0.2-5.5v-1.6c0-1.1-0.1-2.3-0.1-3.5c0-1.2,0-2.3-0.1-3.5v-6c0.1-0.4,0.1-0.7,0-1.1
				c-0.1,0-0.1-0.1-0.1-0.2c0.1-0.8,0.1-1.7,0.1-2.5c0.1-0.7,0.1-1.3,0-2c0-0.8-0.1-1.8-0.1-2.8v-2.8c0-1-0.1-2-0.1-2.9
				c-0.1-2.1-0.2-4.1-0.2-6.2c0-0.7,0.3-1.4,0.7-2c0.2-0.2,0.5-0.4,0.7-0.5c0.3,0,0.5-0.1,0.7-0.2c0.2,0,0.5-0.1,0.7-0.1h3.8
				c0.4,0,0.9,0,1.3-0.1c0.9-0.1,1.8,0.1,2.5,0.5c0.3,0.2,0.6,0.2,1,0.2c0.2-0.1,0.4,0,0.6,0.1c0.5,0.5,1,1,1.2,1.7
				c0.1,0.7,0.4,1.3,0.8,1.8c0.1,0.1,0,0.4,0.1,0.6c0.3,0.7,0.6,1.4,0.8,2.2c0.4,0.7,0.7,1.4,1,2.2c0.1,0.4,0.4,0.8,0.7,1
				c0,0.5,0.1,1,0.4,1.4c0.2,0.5,0.5,1.1,0.7,1.7c0.1,0.2,0.2,0.6,0.5,0.7c0.1,0.2,0.2,0.4,0.2,0.6c0.1,0.5,0.3,0.9,0.5,1.3
				c0.7,1.3,1.3,2.6,1.8,3.9c0.4,0.9,0.8,1.8,1.3,2.7c0.1,0.2,0.2,0.6,0.4,0.8c0.1,0.2,0.1,0.5,0.4,0.5s0.1-0.1,0.1-0.2
				c0.1-0.1,0.1-0.2,0.1-0.4c-0.1-0.8-0.1-1.5-0.1-2.3c-0.1-0.2,0-0.6,0-0.9c0.1-0.4,0.1-0.7,0-1.1v-0.5c0.1-0.4,0.1-0.8,0-1.2v-2.1
				c0-2.7-0.1-5.3-0.4-8c-0.1-1.5,0-2.9-0.1-4.2c0-1.1,0.7-2,1.7-2.4c1-0.2,2.1-0.3,3.2-0.4h3.6c0.6,0,1.2,0,1.8,0.2
				c0.5,0.5,0.7,1.1,0.6,1.8c0.1,0.6,0.1,1.1,0,1.7v19.2c0.1,2.4,0.1,4.7,0.1,7c0,0.6,0,1.1,0.1,1.7c0,0.3,0,0.6-0.1,0.9v1.4
				C453.1,551.7,453.1,552.3,453.1,552.7L453.1,552.7z M503.8,520c0.1,0.8,0.1,1.5,0,2.3c-0.1,0.5-0.1,1-0.1,1.4
				c0,0.6,0,1.1-0.1,1.7c-0.1,0.4-0.2,0.9-0.2,1.3c0,0.4-0.2,0.7-0.6,0.8c-0.4,0.1-0.9,0.2-1.3,0.2c-0.7,0-1.3,0-2,0.1
				c-0.1,0.1-0.2,0-0.5,0h-0.4c-0.6,0.1-1.3,0.1-2,0.1h-1c-0.5,0-1,0-1.5,0.2c-0.1,0-0.1,0.2-0.1,0.4v14.4c0.1,1.6,0.1,3,0.2,4.6
				c0.1,1.6-0.1,3.2,0,4.6c0.1,1.4-0.1,2.7,0,4V567c0,1.1,0,2.3-0.1,3.4c0,0.8-0.3,1.5-0.8,2.1c-0.4,0.4-1,0.6-1.6,0.6h-2.5
				c-0.7,0.1-1.6,0.1-2.3,0.2c-0.5,0-1-0.2-1.3-0.6c-0.8-0.9-1.3-2-1.3-3.1v-4.2c-0.1-2.1-0.1-4.1-0.1-6.2c-0.1-1.3,0-2.8-0.1-4.1
				c-0.1-1.3-0.1-2.8-0.1-4.2v-2.9c-0.1-0.6-0.1-1.2-0.1-1.8c0-0.1-0.1-0.2,0-0.4c0.1-0.7,0.1-1.3,0-2v-4.2c0-0.7-0.1-1.3-0.1-2.1
				v-6.9c0-0.8,0-1.6-0.1-2.4c-0.1,0-0.1-0.1-0.2-0.1c-0.2-0.1-0.5-0.1-0.7-0.1c-0.1,0-0.3,0-0.4,0.1h-0.4c-0.4-0.1-0.7-0.1-1.1-0.1
				h-1.8c-0.4,0-0.7,0-1.1-0.1c-0.2-0.1-0.5,0.1-0.7,0.1h-1.9c-0.6,0-1.1-0.3-1.3-0.9c-0.4-0.7-0.6-1.4-0.6-2.2v-2.7
				c-0.2-1.1,0.1-2.2,0-3.2c0.4-0.5,1-0.6,1.3-0.8v-0.2c0.2-0.2,0.5-0.2,0.7-0.4c1.7-0.1,3.4-0.2,5.1-0.2c0.6,0,1.2-0.1,1.7-0.1h0.4
				c0.3,0.1,0.6,0.1,0.8,0.1c0.7,0,1.3-0.1,2-0.2h0.1c1,0,2-0.2,2.9-0.2h2.6c0.7-0.2,1.5-0.2,2.2,0c0.1,0,0.4,0.1,0.5,0.1h0.8
				c0.1,0,0.2-0.1,0.5-0.1c0.2,0.1,0.4,0.1,0.6,0.1c0.5,0,1-0.1,1.3-0.1c0.3,0,0.7,0,1,0.1c0.1,0,0.4,0.1,0.5,0
				c0.3-0.1,0.7-0.1,1-0.1h1c0.2,0,0.4,0,0.5,0.1h0.5c0.1-0.1,0.3-0.1,0.5-0.1c0.2,0,0.4,0,0.6,0.1c0.3,0.2,0.7,0.4,1.1,0.5
				c0.5,0.5,0.7,0.8,0.5,1.5C503.9,519.3,503.9,519.7,503.8,520L503.8,520z M549,521.2c0,0.6-0.1,1.2-0.1,1.8c0,1-0.1,2-0.2,2.9
				c-0.1,0.4-0.2,0.6-0.6,0.7c-0.8,0.3-1.6,0.4-2.4,0.4h-0.8c-0.1,0.1-0.4,0.1-0.6,0.1h-1.6c-0.2,0-0.4,0-0.6,0.1h-1.6
				c-1.1,0.1-2.2,0.1-3.3,0.1h-2c-0.2,0.1-0.4,0.1-0.6,0.1c-0.5-0.1-0.6,0.1-0.6,0.5c-0.1,3-0.1,5.9-0.2,9c-0.1,0.5-0.1,1,0,1.5
				c0.2,0.1,0.5,0.1,0.7,0.1h1.6c0.9-0.1,1.8-0.2,2.8-0.2c0.2,0,0.4,0.1,0.6,0.1c0.6,0,1.2-0.2,1.8-0.2h1.3c0.5,0.1,0.9,0.5,1.3,0.6
				c0.3,0.3,0.4,0.8,0.4,1.2c0.1,1.7,0,3.4,0,5.2c0,0.6,0,1.2-0.1,1.8c-0.1,0.3-0.1,0.6-0.1,0.8c0,0.4-0.2,0.8-0.6,1
				c-0.3,0.1-0.7,0.2-1.1,0.2c-0.5,0-1.1,0-1.6,0.1c-0.5,0-1,0-1.5,0.1h-0.2c-0.4,0-0.8,0-1.2-0.1c-0.5,0-0.7,0.2-1.2,0.2h-2.6
				c-0.1,0-0.1,0-0.2,0.1c-0.2,0.5-0.3,1-0.2,1.5v6.8c-0.1,0.6-0.1,1.2-0.1,1.8v3.3c0.1,0.2,0.2,0.2,0.4,0.2c1.5,0,2.8,0,4.2-0.1
				c0.7-0.1,1.5-0.1,2.2-0.1h0.5c0.1-0.1,0.2-0.1,0.4-0.1c0.2,0,0.3,0,0.5,0.1h0.5c0.4-0.1,0.8-0.1,1.2-0.1h2.9
				c0.1-0.1,0.3-0.1,0.5-0.1c0.5,0,0.8,0.5,1.3,0.5l0.4,0.4c0.2,0.2,0.2,0.5,0.1,0.7v5.3c0,1-0.2,2-0.2,2.9
				c-0.1,0.3-0.3,0.6-0.6,0.7c-0.8,0.3-1.7,0.4-2.5,0.4h-0.7c-0.4,0.1-0.7,0.1-1.1,0.1h-1.5c-0.6,0.1-1.2,0.2-1.8,0.2h-4.5
				c-0.2,0-0.4,0-0.6,0.1h-1.3c-0.5-0.1-1.1-0.1-1.7-0.2h-0.2c-0.4,0.1-0.8,0.2-1.2,0.2h-3.1c-0.3,0.1-0.6,0.1-0.8,0.1
				c-0.3,0-0.7,0-1-0.1c-0.6,0-1.1-0.4-1.3-0.8c-0.4-0.7-0.7-1.4-0.8-2.2v-0.4c0-1.1,0-2.1-0.1-3.2v-3c0-0.8,0.1-1.8,0.1-2.7
				c0-1.6,0.1-3,0-4.5v-6.5c-0.1-0.9-0.1-1.8,0-2.7c-0.1-0.7-0.1-1.3,0-2c-0.1-0.4-0.1-0.7,0-1.1c0.1,0,0.1-0.1,0.1-0.2
				c-0.1-1.7,0-3.3,0-5c0-3.3,0.1-6.7,0.2-9.9c0-1-0.1-1.8-0.1-2.8c0-0.8,0-1.5-0.1-2.3c0.1-1,0.1-2,0-3c0-1,0-2,0.1-3
				c0-0.8,0.4-1.5,1-2c0.4-0.2,0.9-0.4,1.5-0.4h1.5c0.1-0.1,0.2-0.1,0.4-0.1h4.1c0.4,0,0.8,0,1.2,0.1c0.4,0.1,0.8,0.1,1.2,0.1h1.7
				c1.1-0.1,2.1-0.1,3-0.2h0.8c0.6,0,1.1,0,1.7-0.1h2.3c0.6,0,1.1,0,1.7-0.1c0.3,0,0.7,0,1,0.1h0.2c0.1-0.1,0.2-0.1,0.4-0.1
				c0.3,0,0.5,0.1,0.7,0.2c0.1,0,0.2,0.1,0.4,0.1c0.5,0.1,0.9,0.7,0.7,1.2c0,0,0,0,0,0c0,0.4,0.1,0.8,0.1,1.2L549,521.2z
				 M601.7,572.6c-0.2,0.4-0.6,0.7-1.1,0.7c-0.9,0-1.9,0.1-2.8,0.2c-0.6,0-1.1,0-1.7,0.1h-3.3c-0.3,0-0.7-0.1-1-0.2
				c-0.4-0.2-0.8-0.4-1.2-0.6c-0.1-0.1-0.2-0.4-0.4-0.5c-0.1-0.1,0-0.4-0.1-0.5c-0.6-1.1-1.1-2.1-1.7-3.1l-1.8-3.6
				c-0.5-1-1.1-2.1-1.6-3l-2.2-4.4c-1-2-1.8-3.9-2.7-5.7c0-0.1,0-0.2-0.2-0.4c-0.1,0.1,0,0.4,0,0.5v4.2c0.1,0.3,0.1,0.7,0,1
				c-0.1,0.6-0.1,1.1,0,1.7c0.1,1,0.1,2,0,2.9v5.9c0,1,0,2-0.1,2.9c0,1.2-0.8,2.3-2,2.7c-0.1,0-0.2,0.1-0.4,0h-0.5
				c-0.7,0-1.3,0.1-2,0.1h-2.5c-1.7,0-2.7-2.3-2.7-3.8s-0.1-3.1-0.1-4.8v-7.4c0-0.6-0.1-1.2-0.1-1.8c-0.1-0.5-0.1-1-0.1-1.5v-5.1
				c-0.1-0.9-0.1-1.8-0.1-2.7c-0.1-0.4-0.1-0.8,0-1.2c0.1-0.1,0.1-0.1,0.1-0.2c-0.2-1.9-0.2-3.8-0.1-5.7c-0.1-2,0-3.9,0-5.8
				c0-1.1,0-2.3-0.1-3.4c0-0.9-0.1-1.7-0.1-2.4c-0.1-1.3-0.1-2.7-0.2-4v-4.2c0-0.7,0.4-1.4,1-1.8c0.4-0.4,0.9-0.5,1.5-0.5
				c0.7,0,1.4-0.1,2.1-0.2h4c0.4,0,0.8,0,1.2,0.1c0.3,0,0.7,0,1,0.1c0.1,0,0.2-0.1,0.4,0h0.8c0.7,0,1.3,0,2-0.1
				c0.2,0,0.4,0.1,0.6,0.1c0.2,0.1,0.4,0.1,0.6,0c0.1,0,0.3,0,0.4,0.1c1,0.2,2,0.5,3,0.7c0.7,0.2,1.6,0.6,2.3,0.8
				c0.5,0.3,0.9,0.5,1.5,0.7c0.1,0,0.1,0,0.2,0.1c0.2,0.3,0.6,0.5,1,0.6c0.3,0.1,0.5,0.3,0.6,0.5c0.2,0.5,0.7,0.7,1.1,1.1
				c0.5,0.5,0.9,1,1.2,1.6c0.1,0.2,0.4,0.6,0.5,0.8c0.9,2.2,1.6,4.5,2,6.9c0.2,0.8,0.3,1.6,0.1,2.4c-0.1,1-0.2,1.8-0.4,2.7
				c-0.8,3-3.4,8.6-6.4,9.7c-0.3,0.2-0.6,0.4-0.9,0.6c0.3,0.7,0.6,1.4,1,2.1c1.1,2.3,2.4,4.5,3.5,6.8c0.3,0.5,0.5,1,0.6,1.6
				c0,0.1,0.1,0.2,0.1,0.2c0.4,0.5,0.7,1.1,1,1.7c0.3,0.7,0.6,1.4,1,2.1c0.8,1.5,1.6,2.9,2.3,4.4c0.4,1,1,1.9,1.6,2.8
				c0.1,0.2,0.1,0.4,0.2,0.5c0.4,0.3,0.7,0.9,0.6,1.4c0,0.3,0,0.6-0.1,0.9v0.4C602.3,572,601.8,572.2,601.7,572.6L601.7,572.6z"/>
		</g>
		<g>
			<path class="st0" d="M581.4,528.5c-0.2,0-0.4,0-0.6-0.1c-0.3,0-0.7,0-1,0.2v9.8c0,0.1,0.1,0.2,0.1,0.4c0.1,0.1,0.3,0.1,0.5,0.1
				h0.7c0.2,0,0.5,0,0.7-0.1c0.1-0.1,0.5-0.1,0.7-0.2c1.1-0.3,2.1-0.8,2.9-1.5c0.7-0.5,1.2-1.2,1.3-2.1c0.1-0.5,0.1-1,0.2-1.5
				c0.2-1,0-2.1-0.5-2.9C585.8,528.9,583.1,528.5,581.4,528.5z"/>
		</g>
		<g>
			<path class="st3" d="M307.6,279.8c-21.4,4.5-42.5,10-63.3,16.7c-20.7,6.7-41.1,14.5-61,23.4c20.5-7.3,41.2-13.9,62.1-19.5
				c5.2-1.4,10.5-2.8,15.7-4.1c2.6-0.6,5.3-1.3,7.9-2l7.9-1.8l3.9-0.9l3.9-0.8l7.9-1.7c5.3-1,10.6-2.1,15.9-3.1
				c9.1-1.6,18.2-3,27.3-4.3v-7.2C326.6,276.1,317,277.8,307.6,279.8z"/>
		</g>
		<g>
			<polygon class="st3" points="327.6,280.4 342,203.9 336.4,281.6 			"/>
		</g>
		<g>
			<path class="st3" d="M594.6,276.9c8.1,1.7,16.3,3.6,24.8,5.7c15.4,3.9,28.3,7.7,38.5,11c34.3,10.8,64.6,23,64.4,23.6
				s-24.9-8.8-65.6-19.7c-6.3-1.7-11.7-3.1-15.7-4.1c-2.6-0.6-5.3-1.3-7.9-2l-7.9-1.8l-3.9-0.9l-3.9-0.8l-7.9-1.7
				c-5.3-1-10.6-2.1-15.9-3c-9.1-1.6-18.2-3-27.3-4.3v-7.1C575.6,273.2,585.1,274.9,594.6,276.9z"/>
		</g>
		<g>
			<polygon class="st3" points="566.9,277.6 561.3,200 575.6,276.5 			"/>
		</g>
		<g>
			<path class="st3" d="M705.5,513c0.6-0.2,1.3,0.2,1.4,0.8c0,0,0,0.1,0,0.1c0.8,2,1.6,4,2.5,6c0.2,0.4,0.5,0.8,0.9,1
				c1.5,0.5,2.9,0.9,4.1-0.7c0.7-0.8,1.4-1.5,2.2-2.1c2.7-2.5,2.7-2.5,5.8-0.7c0.4,0.3,0.7,0.8,0.7,1.3c-0.2,2.2-0.6,4.5-0.8,6.7
				c-0.2,1.3,1.8,3.1,3.2,2.8c2.2-0.5,4.4-1.2,6.6-1.5c2-0.3,1.7,1.8,2.7,2.7c0.5,0.3,0.7,1,0.3,1.5c-0.1,0.1-0.1,0.2-0.2,0.2
				c-1.4,1.7-2.8,3.4-4,5.2c-0.3,0.5-0.4,1.2-0.3,1.8c0.1,1.5,1.3,2.7,2.8,2.8c0.9,0.2,1.9,0.5,2.8,0.8c1.1,0.3,2.6,0.4,3.1,1.1
				c0.5,0.7,0.2,2.3,0.4,3.5c0.1,0.8-0.2,1.1-0.9,1.3c-2,0.8-4,1.6-6,2.5c-1.4,0.8-1.9,2.7-1.1,4.1c0,0.1,0.1,0.1,0.1,0.2
				c1.5,1.6,2.9,3.1,4.5,4.7c0.2,0.3,0.6,0.7,0.5,1c-0.5,1.3-1.2,2.5-1.8,3.7c-0.1,0.2-0.6,0.2-1,0.1c-2-0.2-4-0.5-6-0.8
				c-1.6-0.3-3.1,0.8-3.4,2.4c-0.1,0.4-0.1,0.9,0.1,1.3c0.3,1.1,0.5,2.2,0.8,3.3s1,2.5,0.6,3.4c-0.4,0.9-1.9,1.3-2.8,2.1
				c-0.4,0.4-1.1,0.4-1.6,0c0,0,0,0-0.1-0.1c-1.7-1.3-3.4-2.7-5.1-3.9c-0.5-0.3-1.1-0.4-1.8-0.4c-1.5,0-2.7,1.2-2.8,2.8
				c-0.2,0.9-0.5,1.8-0.8,2.7c-1,3.5-1,3.5-4.7,3.6c-0.6,0.1-1.2-0.3-1.4-0.9c-0.8-2-1.6-3.9-2.4-5.9c-0.2-0.7-0.8-1.2-1.6-1.4
				c-1.3-0.6-2.8-0.2-3.6,1c-0.7,0.7-1.4,1.4-2.1,2c-2.7,2.5-2.7,2.6-6,0.7c-0.4-0.3-0.6-0.7-0.6-1.2c0.2-2.2,0.5-4.4,0.8-6.6
				c0-1.7-1.4-3-3.1-3c-0.1,0-0.1,0-0.2,0c-2.4,0.6-4.9,1.1-7.3,1.7c-0.7-1.1-1.4-2.2-2.1-3.1c-0.4-0.6-0.3-1,0.1-1.5
				c1.2-1.5,2.3-3,3.5-4.5c0.9-0.9,1.1-2.2,0.6-3.3c-0.2-0.8-0.9-1.5-1.8-1.7c-1.2-0.3-2.3-0.7-3.4-1c-3.6-1-3.6-1-3.7-4.8
				c-0.1-0.6,0.3-1.1,0.9-1.2c2.1-0.8,4.1-1.6,6.1-2.5c0.4-0.2,0.8-0.5,1-0.9c0.6-1.6,0.7-3-0.9-4.2c-0.7-0.6-1.4-1.3-2-2.1
				c-2.5-2.6-2.4-2.6-0.8-5.8c0.2-0.6,0.9-1,1.6-0.7c2.1,0.3,4.3,0.6,6.4,0.9c0.5,0.1,0.9-0.1,1.3-0.3c1.2-1,2.1-2.2,1.4-3.9
				c-0.3-0.9-0.6-1.9-0.7-2.8c-0.9-3.6-0.9-3.6,2.3-5.5c0.4-0.4,1.1-0.3,1.5,0.1c1.7,1.3,3.4,2.7,5.1,3.9c1.4,0.8,3.3,0.4,4.1-1
				c0.1-0.1,0.1-0.2,0.2-0.3c0.7-2.4,1.4-4.7,2.2-7.1C703.1,513.1,704.3,513.1,705.5,513z M701.3,562.6c8.9,2.6,18.1-2.5,20.7-11.4
				c2.6-8.9-2.5-18.1-11.4-20.7c-8.8-2.6-18.1,2.5-20.7,11.3C687.4,550.7,692.4,559.9,701.3,562.6
				C701.3,562.6,701.3,562.6,701.3,562.6z"/>
		</g>
		<g>
			<path class="st0" d="M288.1,103.6l14.3,14.3c2.8,2.8,2.8,7.4,0,10.2l-7.3,7.3c-2.8,2.8-7.4,2.8-10.2,0l-14.3-14.3
				c-2.8-2.8-2.8-7.4,0-10.2l7.3-7.3C280.7,100.8,285.3,100.8,288.1,103.6z"/>
		</g>
		<g>
			<path class="st0" d="M620.7,125.1l-14.3,14.3c-2.8,2.8-7.4,2.8-10.2,0l-7.3-7.3c-2.8-2.8-2.8-7.4,0-10.2l14.3-14.3
				c2.8-2.8,7.4-2.8,10.2,0l7.3,7.3C623.5,117.7,623.5,122.3,620.7,125.1z"/>
		</g>
		<g>
			<path class="st3" d="M209.7,512c0.6-0.2,1.3,0.2,1.4,0.8c0,0,0,0.1,0,0.1c0.8,2,1.6,4,2.5,6c0.2,0.4,0.5,0.8,0.9,1
				c1.5,0.5,2.9,0.9,4.1-0.7c0.7-0.8,1.4-1.5,2.2-2.1c2.7-2.5,2.7-2.5,5.8-0.7c0.4,0.3,0.7,0.8,0.7,1.3c-0.2,2.2-0.6,4.5-0.8,6.7
				c-0.2,1.3,1.9,3.1,3.2,2.8c2.2-0.5,4.4-1.2,6.6-1.5c2-0.3,1.7,1.8,2.7,2.7c0.5,0.3,0.7,0.9,0.4,1.4c-0.1,0.1-0.1,0.2-0.2,0.2
				c-1.4,1.7-2.8,3.4-4,5.2c-0.8,1.5-0.2,3.4,1.3,4.2c0.4,0.2,0.7,0.3,1.1,0.3c0.9,0.2,1.9,0.5,2.8,0.8c1.1,0.3,2.6,0.4,3.1,1.1
				s0.2,2.3,0.4,3.5c0.1,0.8-0.2,1.1-0.9,1.3c-2,0.8-4,1.6-6,2.5c-1.4,0.8-1.9,2.7-1.1,4.1c0,0.1,0.1,0.1,0.1,0.2
				c1.5,1.6,2.9,3.1,4.4,4.7c0.3,0.3,0.6,0.7,0.5,1c-0.5,1.2-1.2,2.5-1.8,3.6c-0.1,0.2-0.6,0.2-1,0.1c-2-0.2-4-0.5-6-0.8
				c-1.6-0.3-3.1,0.8-3.4,2.4c-0.1,0.4-0.1,0.9,0.1,1.3c0.3,1.1,0.5,2.2,0.8,3.3c0.2,1.1,1,2.5,0.6,3.4c-0.4,0.9-1.9,1.3-2.8,2.1
				c-0.4,0.4-1.1,0.4-1.6,0c0,0,0,0-0.1-0.1c-1.7-1.4-3.4-2.7-5.1-3.9c-0.5-0.3-1.2-0.4-1.8-0.4c-1.5,0-2.7,1.2-2.8,2.8
				c-0.2,0.9-0.4,1.8-0.8,2.7c-1,3.5-1,3.5-4.7,3.6c-0.6,0.1-1.2-0.3-1.4-0.9c-0.8-2-1.6-3.9-2.4-5.9c-0.2-0.7-0.8-1.2-1.6-1.4
				c-1.3-0.6-2.8-0.2-3.6,1c-0.7,0.7-1.4,1.4-2.1,2c-2.7,2.5-2.7,2.6-6,0.7c-0.4-0.3-0.6-0.7-0.6-1.2c0.2-2.2,0.6-4.4,0.8-6.6
				c0-1.7-1.4-3-3-3c-0.1,0-0.1,0-0.2,0c-2.4,0.6-4.9,1.1-7.3,1.7c-0.7-1.1-1.3-2.2-2.1-3.1c-0.4-0.6-0.3-1,0.1-1.5
				c1.2-1.5,2.3-3,3.5-4.5c0.9-0.9,1.1-2.2,0.6-3.3c-0.2-0.8-0.9-1.5-1.8-1.7c-1.2-0.3-2.3-0.7-3.4-1c-3.6-1-3.6-1-3.7-4.8
				c-0.1-0.6,0.3-1.1,0.9-1.2c2.1-0.8,4.1-1.6,6.1-2.5c0.4-0.2,0.8-0.5,1-0.9c0.6-1.5,0.7-3-0.9-4.2c-0.7-0.6-1.4-1.3-2-2.1
				c-2.5-2.6-2.4-2.6-0.8-5.8c0.2-0.6,0.9-1,1.6-0.7c2.1,0.3,4.3,0.6,6.4,0.9c0.5,0.1,0.9-0.1,1.3-0.3c1.2-1,2.2-2.2,1.4-3.9
				c-0.3-0.9-0.6-1.9-0.7-2.8c-0.9-3.6-0.9-3.6,2.3-5.5c0.4-0.4,1.1-0.3,1.5,0.1c1.7,1.3,3.4,2.7,5.1,3.9c1.4,0.8,3.3,0.4,4.1-1
				c0.1-0.1,0.1-0.2,0.2-0.3c0.7-2.4,1.4-4.7,2.2-7.1C207.4,512.1,208.5,512.1,209.7,512z M205.5,561.5c8.9,2.6,18.1-2.5,20.7-11.4
				c2.6-8.9-2.5-18.1-11.4-20.7c-8.8-2.6-18.1,2.5-20.7,11.3C191.6,549.6,196.6,558.9,205.5,561.5
				C205.5,561.5,205.5,561.5,205.5,561.5z"/>
		</g>
		<g>
			<path class="st0" d="M442.2,7c-5.2,0.9-10.4,2.2-15.4,3.7c-5,1.5-9.9,3.4-14.6,5.5c-9.4,4.2-18.2,9.7-26.1,16.4
				c-7.8,6.8-14.4,14.7-19.7,23.6C361,65.4,356.7,75,353.4,85c1.1-10.7,4.1-21.2,8.8-30.9c4.9-9.8,11.7-18.6,19.9-25.8
				c8.3-7.1,17.9-12.7,28.2-16.3c5.1-1.8,10.4-3.1,15.7-4C431.4,7.1,436.8,6.8,442.2,7z"/>
		</g>
		<g>
			<path class="st0" d="M519.1,35.7c4,3.1,7.6,6.8,10.7,10.8c6.3,8.1,10.7,17.5,13,27.5c1.1,5,1.6,10.1,1.4,15.2
				c-1.4-4.9-2.8-9.6-4.4-14.3c-3.2-9.3-7.4-18.2-12.5-26.7C524.7,44,521.9,39.9,519.1,35.7z"/>
		</g>
		<g>
			<path class="st3" d="M217.7,46.4c-3.5-3.3-7.3-6.3-11.4-8.7c-2-1.2-4.1-2.3-6.3-3.2c-2.1-0.9-4.4-1.6-6.6-2.1l-1.7-0.4
				c-0.6-0.2-1.1-0.3-1.7-0.3l-3.4-0.5c-1.1-0.1-2.3-0.1-3.5-0.2c-0.6,0-1.2-0.1-1.7-0.1l-1.7,0.1c-4.7,0.2-9.3,0.9-13.7,2.2l-3.3,1
				c-1.1,0.4-2.2,0.8-3.3,1.2c-2.2,0.7-4.3,1.9-6.5,2.8c-1.1,0.5-2.1,1.1-3.1,1.6c-1.1,0.5-2.1,1.1-3.1,1.7c-2,1.3-4.1,2.4-6,3.8
				c-7.9,5.5-15.1,11.9-21.7,18.9c5.2-8.4,11.8-15.8,19.5-21.9c3.9-3.1,8-5.9,12.4-8.3l3.3-1.7c1.1-0.6,2.3-1.1,3.4-1.5
				c1.2-0.5,2.3-1,3.5-1.3l3.6-1.1c1.2-0.4,2.4-0.7,3.7-0.9l1.9-0.4c0.6-0.1,1.2-0.3,1.9-0.3l3.8-0.4c1.3-0.1,2.5-0.1,3.8-0.1h1.9
				c0.6,0,1.3,0.1,1.9,0.1c1.3,0.1,2.5,0.2,3.8,0.4l3.7,0.7c0.6,0.1,1.2,0.3,1.8,0.5l1.8,0.6c4.8,1.5,9.3,3.9,13.2,7
				C211.5,38.7,214.9,42.3,217.7,46.4z"/>
		</g>
		<g>
			<path class="st3" d="M675.2,46.9c2.8-4.1,6.2-7.7,10.1-10.7c3.9-3.1,8.4-5.5,13.2-7l1.8-0.6c0.6-0.2,1.2-0.4,1.8-0.5l3.7-0.7
				c1.2-0.2,2.5-0.3,3.8-0.4l1.9-0.1h1.9c1.3,0,2.5,0,3.8,0.1l3.8,0.4c0.6,0.1,1.3,0.2,1.9,0.3l1.8,0.4c1.2,0.2,2.5,0.5,3.7,0.9
				l3.6,1.1c1.2,0.4,2.3,0.9,3.5,1.3c1.2,0.4,2.3,0.9,3.4,1.5l3.3,1.7c4.4,2.4,8.5,5.1,12.4,8.3c7.7,6.2,14.2,13.6,19.4,21.9
				c-6.6-7-13.8-13.3-21.7-18.9c-2-1.4-4-2.6-6-3.8c-1-0.7-2.1-1.1-3.1-1.7s-2.1-1.1-3.1-1.6c-2.2-1-4.2-2.1-6.5-2.8
				c-1.1-0.4-2.2-0.9-3.3-1.2l-3.4-1c-4.5-1.3-9.1-2.1-13.7-2.2l-1.7-0.1c-0.6,0-1.2,0-1.7,0.1c-1.1,0.1-2.3,0-3.5,0.2l-3.4,0.5
				c-0.6,0.1-1.1,0.2-1.7,0.3l-1.7,0.4c-2.3,0.5-4.5,1.2-6.6,2.1c-2.2,0.9-4.3,2-6.3,3.2C682.5,40.7,678.7,43.6,675.2,46.9z"/>
		</g>
	</g>
</g>
</svg>
