<svg id="Layer_1" data-name="Layer 1" xmlns="http://www.w3.org/2000/svg" viewBox="0 0 1129.77 536.45"><defs><style>.cls-1{font-size:431.56px;font-family:COCOGOOSE-DemiBold, COCOGOOSE;font-weight:300;}.cls-1,.cls-2,.cls-7{fill:#142c52;}.cls-2{font-size:32.5px;font-family:TTNorms-Medium, TT Norms;font-weight:500;}.cls-3{letter-spacing:-0.04em;}.cls-4{letter-spacing:-0.08em;}.cls-5{letter-spacing:-0.06em;}.cls-6{fill:#c32032;}.cls-8{fill:#eb2027;}</style></defs><title>project1</title><text class="cls-1" transform="translate(316.37 375.78) scale(1.03 1)">P</text><text class="cls-1" transform="matrix(-1.03, 0, 0, 1, 1051.98, 381.31)">P</text><text class="cls-2" transform="translate(348.21 431.03) scale(1.03 1)"><tspan xml:space="preserve">PROMISING  INN</tspan><tspan class="cls-3" x="268.98" y="0">O</tspan><tspan class="cls-4" x="295.63" y="0">V</tspan><tspan class="cls-5" x="316.42" y="0">A</tspan><tspan x="338.19" y="0" xml:space="preserve">TIVE  PROCEDURES</tspan></text><polygon class="cls-6" points="684.36 379.23 645.48 379.23 643.67 206.68 682.56 206.68 684.36 379.23"/><polygon class="cls-7" points="723.25 379.23 684.36 379.23 682.56 206.68 721.45 206.68 723.25 379.23"/><path class="cls-7" d="M1235.45,781.25c-11.87-9.3-23.45-18.91-35-28.52s-23-19.37-34.4-29.23-22.75-19.7-34-29.67-22.47-20-33.64-30.08l8.1-2.15q-7.28,22.3-14.78,44.53c-5.05,14.81-10.08,29.62-15.37,44.34l-7.88,22.11-8.07,22c-5.53,14.65-11,29.32-16.95,43.83,3.78-15.22,8-30.29,12.2-45.38l6.5-22.55,6.7-22.5c4.44-15,9.12-29.93,13.79-44.86s9.5-29.8,14.37-44.66l2.4-7.32,5.7,5.17q16.7,15.18,33.24,30.52t32.86,30.93c10.92,10.35,21.7,20.85,32.47,31.37S1225,770.35,1235.45,781.25Z" transform="translate(-935.12 -631.77)"/><path class="cls-7" d="M1093,661.71q-40.29,82-80.57,164.11l92.18-2.32c-10.18-32.87-10.23-58.63-8.64-75.52,3.86-40.86,21.59-74.77,9.16-84.35C1101.37,660.72,1096.21,661.14,1093,661.71Z" transform="translate(-935.12 -631.77)"/><path class="cls-7" d="M1235.15,945.64c-9.42,11.67-19.17,23-28.9,34.39l-14.75,16.91c-4.92,5.64-9.93,11.19-14.89,16.78l-7.46,8.38-7.52,8.32c-5,5.55-10.07,11-15.11,16.57l-15.21,16.48L1116,1079.85l-5.4,5.78-2.89-7.37q-7.95-20.29-15.72-40.68T1076.8,996.7c-2.46-6.85-5-13.65-7.4-20.52l-7.23-20.59c-4.7-13.78-9.42-27.54-13.73-41.47,6.35,13.13,12.28,26.41,18.24,39.69l8.75,20c2.93,6.66,5.71,13.38,8.57,20.06q8.58,20.05,16.77,40.27T1117,1074.6l-8.29-1.59,15.38-16.31,15.49-16.22c5.2-5.37,10.36-10.78,15.59-16.12l7.83-8,7.89-8c5.27-5.31,10.49-10.66,15.8-15.93l16-15.78C1213.39,966.23,1224.1,955.77,1235.15,945.64Z" transform="translate(-935.12 -631.77)"/><path class="cls-7" d="M1107,1077l-94.7-156.38,92-5.8c-8.32,45.15-2.85,78,4.32,100.32,6.86,21.41,20.49,49.41,10.27,58.88C1115.54,1077.06,1110.64,1077.28,1107,1077Z" transform="translate(-935.12 -631.77)"/><circle class="cls-7" cx="293.93" cy="319.97" r="25.91"/><circle class="cls-7" cx="183.13" cy="443.48" r="27.33"/><circle class="cls-7" cx="166.59" cy="28.27" r="27.33"/><circle class="cls-6" cx="120.13" cy="242.6" r="87.97"/><circle class="cls-7" cx="295.51" cy="150.83" r="25.91"/><path class="cls-7" d="M1043.73,681.73l-8.41,22.56-8.49,22.53-8.52,22.52-8.61,22.48-.29.76-.83.45A146.54,146.54,0,0,0,994,781.86c-2.37,1.55-4.59,3.32-6.85,5-1.12.87-2.18,1.81-3.27,2.71L982.25,791l-1.56,1.43A111.31,111.31,0,0,0,969,804.57a109.56,109.56,0,0,0-9.74,13.72,111.66,111.66,0,0,0-12.71,30.94,98.42,98.42,0,0,0-2.68,16.39c-.05.69-.08,1.36-.11,2l0,1v1l.12,4.21.26,4.2c.1,1.4.26,2.79.38,4.19a120,120,0,0,0,7.9,32.34,99.37,99.37,0,0,0,7.5,14.72,103.72,103.72,0,0,0,9.81,13.3,106.34,106.34,0,0,0,11.63,11.71,57.3,57.3,0,0,0,6.39,4.74,51.54,51.54,0,0,0,7,3.63c5,2.23,10.61,4.15,16.26,7.13a43.46,43.46,0,0,1,8.2,5.51,38.75,38.75,0,0,1,3.64,3.61,43.62,43.62,0,0,1,3,3.93c1.83,2.65,3.34,5.31,4.78,7.8l4.32,7.52,8.6,15.09,17.21,30.24a32.87,32.87,0,0,1,3.85,9.76,25.27,25.27,0,0,1,.36,2.78q.11,1.34.09,2.67a32.11,32.11,0,0,1-.47,5.29c-.15.87-.34,1.73-.56,2.59s-.52,1.75-.66,2.29c-.35,1.24-.71,2.48-1,3.74s-.44,2.52-.65,3.79-.28,2.54-.3,3.81a41.18,41.18,0,0,0,.38,7.61,42.31,42.31,0,0,0,1.7,7.45,47.75,47.75,0,0,0,2.94,7.11,57.76,57.76,0,0,0,4,6.62,59.48,59.48,0,0,0,24.34,19.45,57.64,57.64,0,0,0,15.14,4.36,60.27,60.27,0,0,0,7.84.71c1.31,0,2.62-.1,3.94-.13.65,0,1.31,0,2-.09l2-.26,2-.25a16.17,16.17,0,0,0,2-.32l3.87-.86a14.72,14.72,0,0,0,1.91-.54l1.89-.6,1.9-.59c.62-.22,1.23-.5,1.84-.75a64.56,64.56,0,0,0,14-7.59l3.23-2.38,3-2.62c.49-.45,1-.85,1.5-1.33l1.41-1.43,1.41-1.42a15.79,15.79,0,0,0,1.37-1.47l2.59-3.07a15.71,15.71,0,0,0,1.22-1.6l1.17-1.63,1.17-1.63c.4-.54.7-1.14,1.06-1.71l2.07-3.44,1.78-3,3.13,0,45.6.3c15.2.11,30.39.17,45.59.37l45.6.51c15.2.16,30.4.32,45.6.58l45.59.69,45.6.85q45.59.85,91.19,2.21-45.6,1.37-91.19,2.28l-45.6.88-45.59.71q-22.8.38-45.6.58l-45.6.51c-15.2.19-30.39.26-45.59.37l-45.6.3,4.91-2.93-2.35,4c-.4.66-.76,1.36-1.2,2l-1.33,1.92-1.34,1.91a22.5,22.5,0,0,1-1.38,1.87l-3,3.6a23.19,23.19,0,0,1-1.56,1.73l-1.62,1.68-1.62,1.67c-.54.57-1.15,1-1.73,1.58l-3.52,3.06-3.75,2.8a76.07,76.07,0,0,1-16.39,9c-.72.3-1.44.62-2.17.89l-2.24.72-2.24.72a22.33,22.33,0,0,1-2.26.64l-4.6,1a20.63,20.63,0,0,1-2.33.4l-2.34.31-2.34.31c-.79.08-1.58.09-2.37.13-1.57.06-3.15.17-4.73.16a72.84,72.84,0,0,1-9.44-.79,69.67,69.67,0,0,1-18.13-5.15,71.33,71.33,0,0,1-29.34-23.28,60.75,60.75,0,0,1-8.64-17.12,54.38,54.38,0,0,1-2.11-9.46,53.35,53.35,0,0,1-.44-9.7c0-1.62.24-3.23.4-4.83s.46-3.2.84-4.77.76-3.12,1.21-4.66c.24-.86.41-1.31.55-1.87s.26-1.1.36-1.66a19.88,19.88,0,0,0,.32-3.34c0-.56,0-1.11,0-1.66s-.11-1.12-.18-1.53a21.94,21.94,0,0,0-2.57-6.29l-17-30.18L1025,1003.8l-4.23-7.58c-1.41-2.54-2.75-4.94-4.18-7.06a33.26,33.26,0,0,0-2.22-3,29.7,29.7,0,0,0-2.49-2.53,32.49,32.49,0,0,0-6.13-4.21c-4.56-2.52-9.91-4.46-15.45-7A61.64,61.64,0,0,1,982,968a67,67,0,0,1-7.47-5.69,115.29,115.29,0,0,1-12.65-13.06,106,106,0,0,1-18.44-31.13A129.34,129.34,0,0,1,935.63,883c-.1-1.49-.23-3-.31-4.46l-.17-4.47,0-4.47v-1.19l0-1.2c.05-.77.11-1.54.18-2.3a103.23,103.23,0,0,1,3.31-17.76,119.13,119.13,0,0,1,14.58-32.62A114.17,114.17,0,0,1,964,800.32a116.81,116.81,0,0,1,12.71-12.46l1.69-1.44,1.76-1.36c1.18-.9,2.32-1.84,3.53-2.7,2.43-1.68,4.81-3.44,7.34-5a152,152,0,0,1,15.45-8.54l-1.12,1.21,9.49-22.13,9.57-22.09,9.61-22.07Z" transform="translate(-935.12 -631.77)"/><path class="cls-6" d="M1978.08,694.12v375.09h86.8V694.12Zm22.51,36.53h36.48v-13.2h8.73V753.7h-8.73V740.53h-36.48Zm0,57.27h45.21v34h-8.73v-24h-9V816.6h-8.7V797.83h-10v24.73h-8.7Zm45.51,244.91a19.8,19.8,0,0,1-1.51,4.33,23.85,23.85,0,0,1-1.77,3,9.53,9.53,0,0,1-1.56,1.82l-.63.58-6.15-5.92a15.33,15.33,0,0,0,1.09-1.08,13.46,13.46,0,0,0,1.72-2.91,10.48,10.48,0,0,0,1.07-4.57,6.93,6.93,0,0,0-1.42-4.56,4.29,4.29,0,0,0-3.43-1.72,4.13,4.13,0,0,0-3.65,2.33,24.58,24.58,0,0,0-2.31,5.67q-.94,3.33-2.21,6.69a13.25,13.25,0,0,1-4.16,5.72,11.29,11.29,0,0,1-7.35,2.35,12.84,12.84,0,0,1-10.24-4.65q-4-4.65-4-12.83a24.73,24.73,0,0,1,.78-6.23,21.4,21.4,0,0,1,1.84-5,28.71,28.71,0,0,1,2.18-3.43,13.18,13.18,0,0,1,1.86-2.12l.78-.74,5.81,6c-.34.3-.78.73-1.31,1.27a15.4,15.4,0,0,0-2.16,3.66,13.47,13.47,0,0,0-1.36,5.92,8.64,8.64,0,0,0,1.64,5.59,5.14,5.14,0,0,0,4.16,2,4.16,4.16,0,0,0,3.66-2.33,23.64,23.64,0,0,0,2.32-5.7q.93-3.38,2.19-6.7a13.31,13.31,0,0,1,4.16-5.68,11.27,11.27,0,0,1,7.35-2.35,12,12,0,0,1,9.36,4.49q3.89,4.48,3.88,11.67A23,23,0,0,1,2046.1,1032.83Zm-45.51-87.46v-9.92h45.21v9.92h-18.1v19.76h18.1V975h-45.21v-9.89H2019V945.37Zm45.23-57.3a20.66,20.66,0,0,1-2.26,5.39,36.48,36.48,0,0,1-2.64,3.73,15.15,15.15,0,0,1-2.24,2.34l-1,.74-6.15-6.28.71-.53a14.41,14.41,0,0,0,1.56-1.51,15.53,15.53,0,0,0,1.94-2.56,17.47,17.47,0,0,0,1.55-3.64,15.33,15.33,0,0,0,.71-4.6,14.84,14.84,0,0,0-4.26-10.82,15.08,15.08,0,0,0-21.19,0,14.87,14.87,0,0,0-4.25,10.82A17,17,0,0,0,2009,886a16.09,16.09,0,0,0,1.61,3.81,25.45,25.45,0,0,0,1.88,2.68,10,10,0,0,0,1.64,1.67l.66.51-6.15,6a10.76,10.76,0,0,1-1-.79,26.16,26.16,0,0,1-2.18-2.35,25,25,0,0,1-2.74-3.89,25.59,25.59,0,0,1-2.16-5.44,26.1,26.1,0,0,1,5.94-24.79,22.73,22.73,0,0,1,33.31,0,24.86,24.86,0,0,1,6.91,17.82A25.31,25.31,0,0,1,2045.82,888.07Z" transform="translate(-935.12 -631.77)"/><path class="cls-8" d="M1584.51,742.14" transform="translate(-935.12 -631.77)"/><path class="cls-6" d="M1590.76,740.92l13.81-6.42c0,1.1,0,2.06-.07,3,0,.21-.39.46-.66.57-3,1.33-6.1,2.63-9.39,4,1.29.58,2.37,1.08,3.46,1.54,1.9.81,3.8,1.61,5.71,2.38.58.23.89.5.82,1.18s0,1.53,0,2.49c-1.37-.63-2.63-1.19-3.88-1.78-2.87-1.36-5.72-2.79-8.63-4.07-.93-.41-1.3-.89-1.15-1.85A6.59,6.59,0,0,0,1590.76,740.92Z" transform="translate(-935.12 -631.77)"/><path class="cls-7" d="M1618.2,812.52a71.15,71.15,0,1,1,71.15-71.15A71.22,71.22,0,0,1,1618.2,812.52Zm0-135.3a64.15,64.15,0,1,0,64.15,64.15A64.22,64.22,0,0,0,1618.2,677.22Z" transform="translate(-935.12 -631.77)"/><path class="cls-7" d="M1649,735.62l4.75.06v1.22l-.36,29.63a4.94,4.94,0,0,1-5.35,5.25l-25.15-.3h-1.38l0,2.69c1.75.17,3.48.27,5.18.53,2,.3,4,.73,6,1.14.8.16,1.07.66,1,1.5-.07,2.16,0,2.27-2.2,2.66a46.33,46.33,0,0,1-7.12.88c-5.71.13-11.43.23-17.13,0a95.66,95.66,0,0,1-10.89-1.4,2.38,2.38,0,0,1-1.55-3.49,1.91,1.91,0,0,1,1.19-.66c1.92-.36,3.85-.69,5.79-.93,1.69-.2,3.4-.26,5.16-.39l0-2.71h-1.26l-25-.3c-3.58,0-5.52-2-5.47-5.57.16-14.25.38-28.5.47-42.75a5.21,5.21,0,0,1,5.49-5.45c11.19.25,22.37.31,33.56.45h1.15l-.06,4.74h-1.28L1582,722c-1.57,0-1.6,0-1.62,1.56q-.24,20.5-.49,41c0,1.59.06,1.67,1.65,1.69l64.94.77h1c.76,0,1.17-.3,1.15-1.09,0-.25,0-.51,0-.76q.16-14.12.34-28.21Z" transform="translate(-935.12 -631.77)"/><path class="cls-6" d="M1645.78,704.47l8.6,8.92-5.28,5.1c-2.74,2.66-5.55,5.26-8.22,8-1.15,1.17-2.61,1.33-4,1.75-2.28.7-4.58,1.31-6.88,1.94-1.58.43-2.29-.26-1.82-1.82.93-3.12,1.9-6.22,2.88-9.32a2.4,2.4,0,0,1,.6-1q6.9-6.7,13.81-13.36A1.79,1.79,0,0,1,1645.78,704.47Zm-12.75,16c-.42,1.38-.91,2.92-1.38,4.47-.27.87.63,2,1.44,1.85,1.7-.41,3.38-.92,4.77-1.31-.25-1.52-.48-2.89-.7-4.26Z" transform="translate(-935.12 -631.77)"/><path class="cls-7" d="M1607.68,754.26c1.11-2.6,2.15-5.1,3.22-7.58,2.35-5.43,4.73-10.85,7-16.3a1.14,1.14,0,0,1,1.34-.86c1,.08,2,0,3.09.05-.18.47-.31.85-.48,1.23q-4.92,11.38-9.84,22.76c-.23.55-.48.8-1.1.76C1610,754.25,1608.92,754.28,1607.68,754.26Z" transform="translate(-935.12 -631.77)"/><path class="cls-6" d="M1636.05,742.41c-3.14-1.42-6-2.75-8.86-4-.89-.38-1.33-.84-1.17-1.84a16.23,16.23,0,0,0,0-2c.83.39,1.57.72,2.3,1.08,3.54,1.74,7.05,3.54,10.62,5.2,1.08.51.59,1.3.71,2s-.25.92-.82,1.17c-4.1,1.79-8.19,3.62-12.28,5.44-.19.08-.39.14-.72.26,0-1,0-1.91.07-2.8,0-.28.42-.63.72-.75,2.61-1.06,5.24-2.08,7.86-3.11Z" transform="translate(-935.12 -631.77)"/><path class="cls-6" d="M1659.13,708.58l-8.42-8.63c.42-.33.91-.69,1.36-1.09a2.76,2.76,0,0,1,3.76-.12,59.4,59.4,0,0,1,4.71,4.81,2.75,2.75,0,0,1-.28,3.91Z" transform="translate(-935.12 -631.77)"/><path class="cls-6" d="M1647.27,702.77l1.73-1.5,8.56,8.78-1.64,1.57Z" transform="translate(-935.12 -631.77)"/><path class="cls-7" d="M1544.6,695.87a83.81,83.81,0,0,1,29.54-33.31,80.62,80.62,0,0,1,43.21-13.71A77.58,77.58,0,0,1,1661,661.27l2.36,1.62c.78.54,1.59,1.05,2.32,1.67,1.47,1.21,3,2.31,4.4,3.62s2.79,2.58,4.08,4,2.59,2.76,3.76,4.24A66.81,66.81,0,0,1,1689,695.81a83.13,83.13,0,0,0-30.8-29.86,81.74,81.74,0,0,0-40.69-10.11c-14.08.17-28,4.38-40.48,11.36A105.74,105.74,0,0,0,1544.6,695.87Z" transform="translate(-935.12 -631.77)"/><path class="cls-7" d="M1573.7,649.47a70.66,70.66,0,0,1,20.18-11.5,71.75,71.75,0,0,1,23-4.74,65,65,0,0,1,11.82.72c1,.13,1.94.38,2.91.56l1.45.3,1.43.39c1,.27,1.91.49,2.85.8l2.79,1a57.7,57.7,0,0,1,19.63,12.47,85.47,85.47,0,0,0-20.63-9.51,69.34,69.34,0,0,0-22.12-2.74,71,71,0,0,0-11.15,1.15,95.55,95.55,0,0,0-11,2.55A119.21,119.21,0,0,0,1573.7,649.47Z" transform="translate(-935.12 -631.77)"/><path class="cls-7" d="M1125.68,707.75c7.75,4.63,15.2,9.66,22.55,14.82s14.58,10.47,21.7,15.92,14.16,11,21,16.8,13.69,11.63,20.18,17.92c-7.75-4.63-15.21-9.66-22.55-14.82s-14.58-10.48-21.7-15.93-14.15-11-21-16.81S1132.17,714,1125.68,707.75Z" transform="translate(-935.12 -631.77)"/><path class="cls-7" d="M1131.45,1023.43c5.9-6.13,12.11-11.87,18.43-17.47s12.77-11.07,19.31-16.4,13.21-10.52,20-15.53,13.68-9.94,20.89-14.45c-5.89,6.13-12.1,11.87-18.43,17.48s-12.76,11.06-19.31,16.38-13.21,10.52-20,15.53S1138.65,1018.91,1131.45,1023.43Z" transform="translate(-935.12 -631.77)"/></svg>