<?xml version="1.0" encoding="utf-8"?>
<!-- Generator: Adobe Illustrator 23.0.1, SVG Export Plug-In . SVG Version: 6.00 Build 0)  -->
<svg version="1.1" id="Layer_1" xmlns="http://www.w3.org/2000/svg" xmlns:xlink="http://www.w3.org/1999/xlink" x="0px" y="0px"
	 viewBox="0 0 661.1 662.9" style="enable-background:new 0 0 661.1 662.9;" xml:space="preserve">
<style type="text/css">
	.st0{enable-background:new    ;}
	.st1{fill:#E52929;}
	.st2{fill:#C1272D;}
	.st3{fill:none;}
</style>
<g>
	<title>project2</title>
	<g class="st0">
		<path d="M67.1,429.3c1.2,1.2,1.4,2.3,0.8,3.4c-0.6,1.1-1.5,1-2.6-0.3c-0.6-0.3-0.6-0.7,0-1.2c1-0.3,1.2-0.9,0.6-1.7
			c-0.2,0-0.3-0.2-0.3-0.5l0-0.2l-0.3,0c-1,0.3-1.5,0.7-1.5,1.2s0.2,1.1,0.5,2c0.4,0.8,0.6,1.4,0.6,1.6s-0.4,0.2-1.2-0.2
			c-1-0.3-1.4-0.2-1.2,0.6c0.2,0.7,1,1.4,2.6,2.1c1.2,0.5,1.9,1,2.2,1.5c0.3,0.5,0,0.6-0.7,0.2c-1.2-0.2-1.9,0-2.1,0.7
			c0,0.8,0.2,1.2,0.6,1.2c1.4,0,1.8,0.6,1.3,1.7c-0.5,1.1-1.5,1.8-2.8,1.9c-1.4,0-2.1,0.4-2.1,1.2c0.2,0.8-0.4,1-1.8,0.4
			c-0.4-0.3-0.5-0.4-0.4-0.1c0.1,0.2,0.6,0.5,1.6,0.9c1.6,0.9,2.5,1.3,2.9,1.3c0.4,0,0.6-0.6,0.6-1.7c0-1.1,0.4-1.5,1.2-1.2
			c1,0.5,1,0.9,0,1.2c-0.2,0.3-0.3,0.6-0.2,0.8c0.1,0.2,0.1,0.5,0.1,0.9c1,0.8,1.8,0.8,2.5-0.1c0.7-0.9,0.6-1.9-0.4-3.1
			c-0.4-0.3-0.6-0.7-0.6-1.1c0-0.4,0.1-0.6,0.3-0.6c0.8,0,1.1,0.4,0.9,1c-0.6,0.5-0.3,0.7,0.9,0.8c0.2,0,0.8-0.9,1.7-2.8
			c0.9-1.8,1.8-4,2.6-6.4c1.4-2.4,2.9-4.8,4.4-7.1c1.5-2.3,3-4.5,4.5-6.6c1.5-2.1,2.9-3.8,4.2-5.2c1.3-1.4,2.4-2.4,3.1-2.8
			c0.8-0.5,2-0.8,3.7-1c1.7-0.2,3.4-0.3,5.2-0.4c1.8,0,3.4,0,5,0.2c1.6,0.2,2.7,0.6,3.5,1.1c1,0.4,2,1.1,3,2.1
			c1.1,1.1,1.9,2.2,2.4,3.3c1.1,1.7,2.2,3.9,3.1,6.6c0.9,2.8,1.9,6.6,3,11.4c1.1,4.8,2.3,10.8,3.6,18.1c1.3,7.3,2.9,16.2,4.6,26.8
			c1.4,8.8,2.8,16,4.1,21.5c1.4,5.5,2.4,8.3,3.2,8.3c0.6,0,2-2.1,4.2-6.2c2.2-4.2,4.7-9.4,7.4-15.6c7.2-18.1,14.1-33.6,20.5-46.3
			c6.4-12.7,12.9-23.6,19.3-32.7c1.4-2.4,3.3-5,5.6-7.9c2.3-2.9,4.7-5.6,7.1-8.1c2.4-2.5,4.7-4.8,6.8-6.8c2.1-2,3.6-3.2,4.6-3.7
			c2.8-1.2,5.6-1.8,8.4-1.7c2.8,0.1,5.1,0.7,6.9,1.9c1.5,1,2.7,2.3,3.5,4c0.7,1.6,1.2,4.3,1.5,7.9c0.2,3.7,0.1,8.6-0.4,14.7
			c-0.5,6.2-1.3,14.2-2.3,24.3c-1.2,11-2.1,21.2-2.8,30.5c-0.7,9.3-1.1,18-1.3,26.1c-0.2,8.1-0.1,15.7,0.1,22.7
			c0.2,7.1,0.7,13.9,1.4,20.6c0.6,8.4,2.1,15.7,4.6,21.9c2.4,6.1,5.6,11.1,9.4,15c3.1,2.5,5.5,3.7,7.3,3.5c1.8-0.2,4.1-1.9,6.9-5.1
			c1.6-1.6,2.8-2.5,3.6-2.8c0.8-0.3,2.3-0.5,4.4-0.6c2.9-0.1,4.6,0.2,4.8,0.8c0.3,0.7-0.4,2.2-2,4.6c-1.8,2.7-4.2,4.6-7.2,5.8
			c-3,1.1-6.8,1.8-11.5,2c-5.3,0.2-9.7-0.4-13.1-1.7c-3.4-1.3-6.8-3.6-10.3-6.9c-6.4-5.8-11.3-12.9-14.7-21.2
			c-3.5-8.3-5.6-18.3-6.5-30.1c-0.8-11.8-0.3-25.7,1.7-41.7c2-16,5.3-34.7,9.8-55.9c2-9.8,3.4-17.8,4.5-24c1-6.1,1.3-9.9,1-11.2
			c-0.6-1-1.6-0.9-2.9,0.3c-1.4,1.2-4.1,3.8-8.1,7.7c-9,10-17.9,23.2-26.5,39.6c-8.7,16.4-17.6,36.3-26.7,59.5
			c-2.1,5.1-4.1,9.5-6,13.1c-1.9,3.6-3.9,6-5.9,7.3c-1,0.8-2.1,1.3-3.3,1.5c-1.2,0.2-3,0.5-5.3,0.7c-2.7-0.1-4.6-0.2-5.4-0.5
			c-0.9-0.3-2.1-0.9-3.6-1.9c-2.3-1.5-4.3-3.9-6-7.1c-1.7-3.2-3.3-7.5-4.9-12.9c-1.6-5.4-3.1-12-4.6-19.9c-1.5-7.9-3-17.4-4.6-28.5
			c-1.4-10.9-2.5-18.3-3.5-22.3c-1-4-2.1-5.9-3.3-5.8c-0.4,0-1.1,0.5-2.1,1.7c-1,1.1-2.2,2.6-3.5,4.5c-1.3,1.9-2.7,4.1-4.1,6.5
			c-1.4,2.4-2.7,4.9-4,7.4c-1,1.9-2,4-3.1,6.2c-1,2.2-2,4.4-2.8,6.5c-0.8,2.1-1.5,3.9-2,5.3c-0.5,1.4-0.8,2.3-0.8,2.4
			c0,0.2-0.3,0.8-0.9,2c-0.6,1.2-1.2,2.7-1.9,4.5c-0.8,1.8-1.8,4.4-3,8c-1.2,3.5-2.2,6.8-3,9.9c-0.8,2.7-1.5,5.1-2.1,7.1
			c-0.5,2-1,4-1.3,5.8c-0.3,1.9-0.7,3.9-1,6.1c-0.3,2.2-0.6,4.7-0.9,7.6c-0.4,1.3-0.7,2.5-1,3.5c-0.2,1.1-0.5,1.7-0.9,1.8
			c-0.2,0.2-0.3,0.8-0.2,2.1c0.1,1.2,0.1,2.5,0.1,3.8c0.4,1.6,0.5,3.3,0.5,5.1c0,1.8-0.3,3.2-0.7,4.4c-0.2,1.1-0.4,2.6-0.5,4.4
			c-0.1,1.8-0.1,3.4,0,4.9c-0.1,4-0.3,7.7-0.5,10.9c-0.3,3.2-0.6,5-1,5.3c0,0.2,0,0.5,0.1,1.1c0.1,0.6,0.3,1.3,0.7,2.1
			c0.6,1.6,0.8,2.6,0.7,2.9c-0.1,0.3-0.8,0.3-2.2-0.1c-0.6-0.2-1.1-0.3-1.6-0.3c-0.5,0-0.6,0.1-0.5,0.5c0.2,0.8-0.3,1.7-1.5,2.8
			c-1.2,1-2.5,1.7-3.9,2c-2.2,0.3-3.6,1.1-4.2,2.6s-0.1,2.8,1.7,4.2c0.8,0.5,1,1.1,0.7,1.7c-0.3,0.6-0.8,0.8-1.3,0.5
			c-0.6-0.3-0.6,0,0,1c1,1.3,1.4,2.1,1.3,2.5c-0.1,0.3-1.1,0.9-3.1,1.6c-2.6,1.2-3.6,2.2-3,2.8c0.6,0.5,1.2,0.6,1.8,0.3l0.6-0.5
			l-0.3,1.2c-0.2,0.6-0.4,1.2-0.6,1.6c-0.2,0.4-0.2,0.8,0,1.1c-0.2,0.3-1.2,0.5-3,0.5c-1.8,0-3.1-0.1-4.1-0.5
			c-0.4-0.2-0.7-0.4-1-0.6c-0.3-0.2-0.3-0.5-0.1-0.9c0-0.5-0.7-0.7-2-0.8c-0.6,0-1.3-0.2-2.2-0.4c-0.9-0.3-1.6-0.6-2.2-0.9l-4.6-3
			l-3.5-2l3.2,0.8c1.6,0.2,2.4,0.3,2.5,0.2c0.1-0.1-0.3-0.4-1.3-0.9c-1-0.8-1.9-1.1-2.9-0.8c-1.4,0.3-1.6,0.2-0.6-0.3
			c-0.2-0.3-0.5-0.7-1-1.2c-0.5-0.5-0.9-1-1.3-1.5c-1.6-0.9-2.4-1.6-2.5-2.4c-0.1-0.7,0.7-0.9,2.2-0.6c1.9,0.9,2.1,0.8,0.6-0.2
			c-1.4-1-1.9-1.8-1.7-2.4c0.2-0.6,1.1-0.8,2.7-0.8c1,0,1.6,0,1.9,0s0.3,0.4,0.1,1.2c0,0.5,0.1,0.8,0.4,0.9c0.3,0.1,1.1,0,2.5-0.3
			c1.2-0.3,2-0.4,2.5-0.3c0.5,0.1,1,0.3,1.6,0.6c0.2,0.8,0.9,1.4,2,1.8c0.4,0.2,0.6,0.1,0.7-0.1c0.1-0.2-0.2-0.6-1-1.1
			c-0.4-0.3-0.8-0.7-1.3-1.1c-0.5-0.4-1.1-0.6-1.9-0.7c-0.6-0.2-1.5-0.6-2.6-1.3c-1.2-0.7-2.3-1.5-3.5-2.4c-1.2-0.9-2.2-1.8-3.2-2.6
			c-1-0.8-1.4-1.5-1.4-2c-0.2-0.3-0.5-0.7-0.9-1.2c-0.4-0.5-1-0.8-1.8-0.8c-1-0.4-1.7-0.8-2-1.3c-0.4-0.5-0.1-0.9,0.9-1.2
			c1-0.3,2.3,0,3.8,0.8c1,0.7,1.6,1.1,1.9,1.1c0.3,0.1,0.2,0-0.1-0.4c-1-0.7-1-1,0-1c0.6-0.1,0.8-0.4,0.8-0.7c-0.1-0.3-0.8-1-2.2-2
			c-4.4-4-6.2-6.6-5.1-7.7c0.4-0.5,0.3-1.7-0.2-3.8c-0.5-2-1.3-3.9-2.2-5.5c-1.2-1.2-1.2-2-0.2-2.4c0.8-0.5,0.9-1.2,0.3-2.2
			c0-1,0.4-1.3,1.2-0.9c0.4,0,0.6-0.1,0.7-0.3c0.1-0.2,0.1-0.4-0.1-0.4c-0.4-0.3-0.3-1.1,0.3-2.4c0.4-0.6,1-0.6,1.8,0
			c0.4,0.3,0.3-0.1-0.3-1.2c-0.6-0.5-1.1-1-1.4-1.6c-0.4-0.6-0.8-1-1.1-1.4c-1.4-0.8-2.1-1.6-2.2-2.4c-0.1-0.7,0.3-1.7,1.1-2.8
			c1.6-1.6,1.4-2.8-0.5-3.7c-1.4-0.4-2-0.7-2-1c0-0.5,0.3-0.6,0.9-0.5c0.4,0.3,0.5,0.3,0.4-0.1c-0.1-0.4-0.4-0.9-1-1.4
			c-0.4-0.8-0.7-1.6-0.8-2.3c-0.2-0.7-0.2-1.3,0-1.6c0-0.5,0.1-0.8,0.3-1c0.2-0.2,0.3-0.1,0.3,0.3c0.2,0.2,0.5,0.3,1,0.5
			c0.5,0.2,0.9,0.1,1.3-0.2c1.2-0.1,1.4-0.5,0.6-1.2c-1.2-1-1.5-1.7-1.1-2c0.6-0.8,0.5-1.4-0.3-2c0-0.8,0.2-2,0.7-3.6
			c0.4-0.8,0.8-1.6,1.1-2.5c0.3-0.9,0.3-1.7-0.1-2.3c-0.2-1.3,0.1-2.3,0.8-2.9c0.7-0.6,1.2-0.5,1.6,0.3c0.4,0.7,0.9,1,1.5,1
			c0.2,0,0.4-0.4,0.6-1.1c0.2-0.7,0.3-1.6,0.3-2.5c0-1,0-1.9-0.1-2.8c-0.1-0.9-0.2-1.5-0.4-1.8c-0.6-1.1-0.4-2.3,0.4-3.4
			c1-0.9,1.1-1.4,0.3-1.5c-0.8,0-1.4-0.2-1.8-0.5c0.4-0.3,0.5-0.6,0.2-0.7c-0.3-0.2-0.6-0.3-1-0.3c-1,0-1.5-0.4-1.5-1
			c-0.4-0.5-0.3-0.8,0.2-1c0.5-0.1,1-0.2,1.6-0.2c2-0.1,3-0.4,3.3-1c0.2-0.6-0.2-1.5-1.1-2.8c-0.8-1.2-1.5-1.7-2.3-1.8
			c-0.6,0.5-0.6,1,0,1.5c0.4,0.2,0.1,0.4-0.9,0.7c-1,0-1.5-0.5-1.4-1.5c0.2-1,0.6-2,1.2-3c0.6-1,1-1.2,1.2-0.6
			c0,0.2,0.3,0.3,0.9,0.5c0.6,0.2,1.1,0.3,1.5,0.3c1.2,0,1.8-0.1,1.8-0.4c0-0.2,0-0.4,0-0.9c0-0.4,0.1-0.8,0.3-1.1
			c0-0.6-1-1.2-2.9-1.8c-1.4-0.4-2.2-0.8-2.6-1.3c-0.4-0.5,0-0.7,1.2-0.7c1,0,1.6-0.4,1.9-1.3c0.3-0.9,0.2-1.8-0.4-2.8
			c-1-1-0.7-1.5,0.9-1.4c2.6-0.3,2.8-1.6,0.7-4.1c-1-1.3-1-2.1-0.2-2.4c0.4-0.3,0.2-0.6-0.6-1c-0.6-0.2-0.7-0.3-0.4-0.4
			c0.3-0.1,0.6-0.1,1-0.1c1.6,0,1.9-0.5,0.9-1.7c-0.8-1.8-1.7-1.9-2.9-0.3l-0.6,1.2l-0.3-1.2c-0.4-1.6-0.1-2.6,0.6-2.9
			c1-0.6,1.4-1.7,1.2-3.3c-0.2-1.5-0.7-2.5-1.7-2.8c-0.2,0-0.4-0.2-0.7-0.6c-0.3-0.4-0.4-0.8-0.4-1.1c0-0.8,0.1-0.9,0.3-0.2
			c0.6,0.5,1.6,0.6,2.9,0.3c1.8-0.3,2.8-0.7,3.1-1.1c0.3-0.5-0.3-0.7-1.9-0.5c-2,0.1-3.1-0.4-3.5-1.5c-0.4-1.1-0.2-1.6,0.6-1.4
			c0.4,0.3,0.7,0.4,1,0.1c0.3-0.2,0.3-0.5-0.1-0.9c0-0.3-0.1-0.6-0.3-1c-0.2-0.3-0.4-0.5-0.6-0.5c-0.6,0-0.9-0.2-0.9-0.5
			c0.4-0.5,1.2-0.7,2.4-0.7c0.6,0.2,1,0.1,1.2-0.1c0.2-0.2,0.1-0.4-0.3-0.6c-0.2-0.7-0.8-1-1.7-1c-0.2-0.2-0.4-0.4-0.6-0.7
			c-0.2-0.3-0.4-0.7-0.6-1c-0.2-0.3-0.3-0.7-0.3-1.2c-0.8-1.5-0.8-2.2-0.2-2.3c0.6-0.1,2,0.4,4.1,1.4l3.8,1.3l-3.2-1.8
			c-1.7-1.5-2.4-2.7-2-3.7c0.2-1.1,0.3-2,0.2-2.7c-0.1-0.6-0.3-0.7-0.7-0.3c-1,0-1.6-0.5-1.7-1.5c-0.8-0.8-1-1.3-0.6-1.5
			c0.4-0.2,1.1,0.2,2,1c1.2,0.4,1.7,0.3,1.5-0.2c-0.6-0.7-0.2-0.7,1.2,0c1.2,0.7,1.8,0.7,2.1,0.1c-0.2-0.2-0.4-0.4-0.6-0.6
			c-0.2-0.2-0.6-0.5-1.2-0.9c-0.4-0.2-0.9-0.5-1.5-1c-0.6-0.5-1.4-1.2-2.3-2c-1-1-1.4-1.6-1.4-1.7c0-0.2,0.4-0.2,1.2-0.2
			c0.8,0,1-0.4,0.6-1.2c-0.4-0.8-0.4-1.2,0-1.2c0.4,0,1,0.4,1.7,1c1,0.5,1.8,0.4,2.4-0.4c0.4-0.5,0.6-0.9,0.6-1.2
			c0-0.3-0.2-0.3-0.6,0c-0.4,0-0.9-0.8-1.4-2.5c-0.6-1.6-1.1-3.6-1.6-5.9c-0.9-3.8-1.4-6.1-1.5-7.1c-0.1-1,0.3-2,1.1-3.1
			c1.4-1.1,1.6-2.2,0.7-3.4c-0.8-1.2-0.5-2,0.6-2.7c0.6-0.6,0.8-1,0.6-1c-1,0.5-1.5,0.4-1.5-0.3c0.4-0.1,0.8-0.4,1.3-0.7
			c0.5-0.3,1-0.6,1.6-0.9c1.6-0.8,2-1.3,1.2-1.7c-0.2,0-0.4-0.1-0.7-0.4c-0.3-0.3-0.2-0.6,0.2-1.1c-0.4-0.3-0.4-0.5-0.1-0.6
			c0.3-0.1,0.6,0,1,0.1c1,0.5,0.9-0.1-0.3-1.7c-0.2-0.8-0.4-1.5-0.5-2.2c-0.2-0.7-0.1-1.2,0.3-1.7c0-1.1-0.4-2-1.1-2.7
			c-0.6-1-0.8-2.3-0.8-3.9c0.2-0.8,0.4-1.6,0.5-2.4c0.1-0.8,0.1-1.5-0.1-2.2c-0.6-1.3-0.3-2,0.9-1.9c1.8-0.1,4.3,0.2,7.5,1
			c3.2,0.8,5.5,1.6,6.9,2.5c1.3,1.2,2,1.4,2,0.5c-0.2-0.3-0.1-0.7,0.2-1c0.3-0.3,0.6-0.5,1-0.5c0.8,0,1.2,0.5,1.1,1.5
			c-0.2,0.5-0.3,0.8-0.2,0.8c0.1,0.1,0.2-0.1,0.5-0.6c0.4-0.8,1.3-1,2.8-0.7c1.5,0.4,3,1,4.5,2.1c1.2,0.8,2,1.6,2.5,2.4
			c0.5,0.7,0.3,1.1-0.5,1.1c-0.2,0-0.4,0.1-0.6,0.4c-0.2,0.2-0.1,0.5,0.3,0.9c0.2,1.1,0.7,1.7,1.7,1.7c1,0,1.1-0.2,0.3-0.7
			c-0.8-0.8-0.5-1.2,0.9-1.2c1-0.1,1.4,0.4,1.1,1.5c0.2,1.6,1.3,2.3,3.5,2l0.6,0.3c-0.4,0.3-0.4,0.7,0,1.2c0.4,0.5,0.8,1.1,1.1,1.7
			c0.6,0.7,1.1,1.2,1.6,1.7c0.5,0.5,0.6,0.7,0.4,0.7l-0.6,0c-0.2,0-0.4,0-0.6,0.1c-0.2,0.1-0.4,0.1-0.6,0.1
			c-1.2,0.3-1.8,0.6-1.9,0.9c-0.1,0.3,0.5,1.1,1.9,2.2c1.4,0.8,2.2,2.1,2.6,3.7c-0.2,0.6-0.1,0.6,0.3,0c0.4-1,1.2-0.9,2.4,0.1
			c0.6,0.5,0.7,0.7,0.3,0.7c-1,0-1.3,0.5-0.9,1.4c0.4,0.7,0.4,1,0,1c-0.6,0-0.7,0.6-0.3,1.7c0.8,0.8,0.6,1.8-0.4,2.9
			c-0.8,0.5-1.1,0.7-1,0.8c0.1,0.1,0.6,0.1,1.6-0.1c0.4-0.1,0.9-0.1,1.5,0c0.6,0.2,0.9,0.4,0.9,0.8c0.6,0.5,0.1,0.7-1.5,0.4
			c-1,0-1.3,0.1-0.9,0.5c1,0.5,1.7,1.3,2.2,2.4c0.5,1.1,0.2,1.7-0.8,1.8c-1,0.5-1.3,1.1-0.9,1.9c0.4,0.8,1.1,1.7,2.3,2.5
			c1.6,0.5,2.4,1.2,2.6,2c0.2,0.8-0.4,1-1.8,0.7c-1.6-0.7-1.9-0.4-0.9,1c0.6,0.5,0.4,1.3-0.6,2.4l-2.1,1.7l2.7-0.9
			c1.8-0.6,2.9-0.9,3.3-0.8c0.4,0.1,0.4,0.5,0,1.3c-0.4,0.8-1.1,1-2.1,0.7c-1-0.3-1.1,0.1-0.3,1.2c0.2,0.3,0.5,0.6,0.9,0.9
			c0.4,0.3,0.6,0.3,0.6,0.1c0.6-0.1,0.9,0.9,1,3.1c0.1,2.2-0.1,4-0.6,5.5c-0.4,1.6-0.5,2.8-0.1,3.6l2.6,2.7c0.4,0.8,0.5,1.5,0.3,2
			c-0.2,0.5-0.8,1-1.8,1.4L67.1,429.3z M12.2,453.9c-0.2,0-0.7-0.4-1.4-1.3c-0.8-0.8-0.5-0.9,0.9-0.2
			C12.2,453.3,12.4,453.8,12.2,453.9z M13,562.9c0,0.3-0.2,0.5-0.6,0.5c-0.6,0-0.9-0.2-0.9-0.5c-0.6-0.5-0.4-0.7,0.6-0.7
			C12.3,562.2,12.6,562.4,13,562.9z M15.7,575.6c0.6,0,1.2,0.3,1.8,0.8c0.2,0.2,0.3,0.4,0.4,0.6c0.1,0.2-0.1,0.4-0.4,0.4
			c-0.4,0-0.7-0.1-1-0.4c-0.3-0.3-0.6-0.5-1-0.6C14.8,575.9,14.9,575.6,15.7,575.6z M37.1,576.2c0.6,0,0.3-0.3-0.7-0.9
			c-1.1-0.6-2-0.9-2.8-0.9c-0.2,0-0.5,0.1-1,0.5c-0.5,0.3-0.9,0.8-1.4,1.4c-1.2,1.3-2.1,1.6-2.7,0.9c-0.4,0-0.3,0.2,0.3,0.7
			c1.7,0.9,2.4,1.8,2,2.7c-0.4,0.8-0.4,1.4,0,1.7c0.4,0.3,1.4,0.9,2.9,1.8l4.1,1.6l0.1-2.9c0.4-1.3,0.3-2.2-0.2-2.7
			c-0.4-0.3-0.7-1.1-0.8-2.2C36.6,576.7,36.7,576.2,37.1,576.2z M30.6,563.6c-0.8-0.2-1.2-0.1-1.2,0.2c0.2,0.7,0.7,1,1.5,1l0.6,0
			c0.2,0,0.3-0.1,0.3-0.2L30.6,563.6z M31.4,568.5c-0.4-0.2-0.7-0.2-1-0.1c-0.3,0.1-0.3,0.3,0.1,0.6c0.4,0.8,1,1.2,1.7,1.3
			c1.2,0,1.8-0.2,1.8-0.7c-0.2-0.2-0.3-0.3-0.3-0.5l0-0.2c-0.2,0-0.5,0-1,0C32.2,568.8,31.8,568.7,31.4,568.5z M33.5,579.7
			c-0.2-1.8,0.1-2.5,0.8-2.2c0.7,0.3,1.3,1.4,1.8,3.2c0,0.5,0,0.9,0.1,1.2c0.1,0.3,0.1,0.6,0.1,1l0,1c-0.2-0.2-0.4-0.3-0.6-0.5
			c-0.2-0.2-0.5-0.4-0.9-0.8C34,581.8,33.5,580.9,33.5,579.7z M39.7,568c-0.4,0.5-0.3,0.7,0.3,0.7c0.6,0,0.9-0.2,0.9-0.7l-0.6-0.7
			C39.9,567.2,39.7,567.5,39.7,568z M44.2,577.6c0.2-0.5-0.1-0.7-0.9-0.8c-0.6,0-0.9,0.2-0.9,0.7c0,0.6,0.3,1,0.9,1
			C43.1,578.5,43.4,578.2,44.2,577.6z M48.2,568.2c1-0.6,1.7-1,2.1-1c0.4-0.1,1,0.2,1.7,0.9c1.3,1.5,2,2.7,1.8,3.7
			c-0.1,1-1,0.9-2.5-0.3c-0.6-0.5-0.9-1.2-0.8-2c0-0.6-0.6-0.7-1.8-0.3c-0.8,0.1-1.3,0.2-1.5,0.2C47.1,569.4,47.4,569,48.2,568.2z
			 M54.3,380.8c-1.4-0.8-2-0.9-2.1-0.1c0.2,0.3,0.5,0.6,0.9,0.8c0.4,0.2,0.8,0.3,1.2,0.5c0.8,0.3,1.2,0.4,1.3,0.2
			C55.7,381.9,55.3,381.5,54.3,380.8z M53.2,580.7c0.4,0,0.8,0.4,1.2,1.2l0,1.2c-0.4,0-0.8-0.4-1.2-1.2
			C52.6,581.1,52.6,580.7,53.2,580.7z M54.8,415.8c-0.2,0.2-0.4,0.3-0.6,0.3c-0.2,0.1-0.2,0.3,0,0.6c0,0.2,0.1,0.3,0.3,0.5
			c0.2,0.2,0.4,0.2,0.6,0c0.8,0,1.2-0.1,1.2-0.5l-0.6-0.5c-0.2-0.2-0.3-0.3-0.4-0.3C55.1,416.1,55,416,54.8,415.8z M61.2,419.6
			c-1,0-1.3,0.3-0.9,1c0.6,0.5,1.1,0.6,1.6,0.4c0.5-0.2,0.6-0.7,0.5-1.3C62.3,419.2,62,419.2,61.2,419.6z M61.6,413.3
			c-0.2,0-0.4,0.1-0.7,0.2c-0.3,0.2-0.4,0.3-0.2,0.5c0.4,0.5,1,0.8,1.8,0.8c0,1.8,0.7,2.5,2.3,2c0.6,0,0.5-0.8-0.2-2.4
			c-0.4-0.3-0.7-0.7-0.9-1.1c-0.2-0.4-0.4-0.5-0.6-0.1C62.5,413.1,62,413.2,61.6,413.3z M62.4,414.3l0,0.5
			C62.6,414.2,62.6,414,62.4,414.3z M66.4,452.1c0.4-0.3,0.2-0.8-0.6-1.6c-0.8-0.7-1.5-1-2-0.9c-0.8,0-1.1,0.3-0.9,1
			c0.8,0.7,0.8,1.1,0,1.2c-0.6,0.6-0.2,1,1.2,1c0.4-0.1,0.8-0.3,1.3-0.5C65.9,452.2,66.2,452.1,66.4,452.1z M65.8,421.9
			c0-0.5,0.3-0.7,0.9-0.7c0.6,0,0.9,0.3,0.9,0.8c0,0.6-0.1,1-0.3,1C66.3,422.9,65.8,422.6,65.8,421.9z M66.4,434.8
			c0-0.3,0.3-0.5,0.9-0.5c0.6-0.1,0.9-0.1,0.9,0.3c0.4,0.7,0.3,1.1-0.3,1.2C67.5,435.8,67,435.5,66.4,434.8z"/>
		<path d="M375.6,488.7c1.2-0.3,1.9-0.4,2.1-0.2c0.2,0.2,0.3,0.7,0.3,1.7c0,0.7-0.1,2.1-0.4,4.5c-0.2,2.3-0.6,5.1-1,8.1
			c-0.5,3.1-1,6.3-1.7,9.7c-0.7,3.4-1.4,6.5-2.3,9.4c-2.1,6.3-3.6,10.9-4.4,13.8c-0.8,2.9-2.1,5.1-3.7,6.5c-1,0.9-1.7,1.8-2.1,2.6
			c-0.4,0.8-1,1.5-1.7,2.1c-0.7,0.6-1.6,1.2-2.8,1.6c-1.2,0.5-3,0.7-5.3,0.8c-2,0.1-3.5,0.2-4.7,0.1c-1.2,0-2.2-0.1-3.1-0.1
			c-0.9,0-1.8-0.1-2.6-0.2c-0.9-0.1-2-0.3-3.4-0.7c-1-0.2-2.3-0.5-4-1.1c-1.7-0.5-3.5-1.2-5.4-2.1c-0.2,0-0.3,0-0.3,0.1
			c0,0.1-0.1,0.1-0.3,0.1c-0.4,0-1.1-0.1-2.1-0.2c-1-0.1-2-0.3-2.9-0.7c-1-0.2-2.1-0.6-3.4-1.2c-1.3-0.6-2.5-1.2-3.6-1.7
			c-1.2-0.5-2.1-1-2.9-1.5c-0.8-0.5-1.2-0.8-1.2-1c0.6-0.5,0.5-0.7-0.3-0.7c-0.8,0-1.2-0.9-1.1-2.7c-0.2-2.1-0.7-3-1.7-2.7
			c-0.4,0.2-0.7,0.1-0.9,0c-0.2-0.2-0.1-0.4,0.3-0.7c0-0.6-0.3-1-0.9-1c-0.8,0.1-1.3-0.4-1.4-1.5c0.2-1-0.3-2-1.4-3
			c-1-0.8-1.6-1.7-1.9-2.7c-0.3-1,0.1-1.8,1.1-2.4c0.8-0.3,0.3-0.9-1.4-1.7c-0.8-0.5-0.8-0.7,0-0.7c0.8,0.3,1.4,0.3,1.8-0.2
			l-0.3-0.5l-0.3,0c-0.4,0-0.8-0.5-1.1-1.5c-0.8-0.7-0.9-1-0.3-1c0.6,0,0.9-0.1,0.9-0.5l0-0.2c0-0.5-0.1-0.9-0.3-1.2
			c-1.4,0.1-2.2-0.2-2.3-1c0.2-0.8,0.9-1.2,2.1-1.2l0-0.5c-0.2,0-0.3-0.1-0.3-0.3c-1-0.8-1.1-1.4-0.6-1.7c0.6-0.1,0.6-0.6,0-1.5
			c-1-0.8-1-1.3,0-1.5l0.3,0l0-1l-0.6,0c-0.8,0.6-1.2,0.5-1.2-0.3c0-0.3,0.4-0.6,1.2-0.9l0.6,0l0-2.4l-0.6-0.5
			c-1.2-0.5-1.1-1.2,0.3-1.9l0.3-0.2l0-1.7c-0.6,0.5-0.9,0.1-0.9-1.2c0.5-3.2,0.9-5.6,1.3-7.1c0.4-1.5,0.7-3.1,1-4.7
			c0-0.5,0.2-1,0.6-1.7c0.3-3.4,0.7-5.1,1.3-5.1c0.4-0.1,0.7-0.8,0.9-1.9c0.2-1.1,0.5-2.5,1-4.1c0.4-1.6,0.7-2.9,0.8-4
			c0.1-1,0.1-1.5-0.1-1.3c-0.2,0.3-1.3,1.9-3.3,4.8c-2,2.9-4.4,6.3-7.3,10.3c-3,4.3-5.6,8-7.7,11c-2.1,3-4.1,5.7-5.9,7.9
			c-1.8,2.2-3.5,4.2-5.1,6c-1.6,1.7-3.4,3.4-5.4,5c-4.6,3.9-8.5,6.4-11.6,7.5c-3.2,1.1-7.3,1.4-12.4,0.9c-2.3-0.4-3.9-0.7-4.5-1
			c-0.7-0.3-1.5-1-2.5-2.4c-2.3-3-2.7-8.6-1.1-16.8c0.6-2.3,1.2-4.3,1.7-6c0.5-1.8,1.2-3.5,2-5.3c0.8-1.8,1.8-3.6,3.1-5.4
			c1.2-1.8,2.7-3.9,4.5-6.3c7.3-9.4,16-17.4,26.4-23.9c6-3.6,11.6-6.1,16.9-7.6c5.3-1.5,11.3-2.2,18-2.2c2.9-0.1,4.5-1.4,4.8-4
			l1.5-2.2c0.6-0.6,1.1-1,1.5-1.2c0.4-0.2,0.8,0.2,1.2,1c0.6,0.3,0.9,0.4,1,0.3c0.1-0.2,0.1-0.8-0.1-1.9c-0.2-1.1-0.1-1.8,0.2-1.9
			c0.3-0.2,1.2-0.1,2.8,0.1c2.2,0.2,4.4,0.7,6.6,1.5c2.2,0.8,3.8,1.8,4.8,2.9c0.8,1,1.4,1.3,2,1c0.4,0,0.6,0.1,0.6,0.3
			c0,0.3,0.9,1.2,2.6,2.7c1.2,0.8,1.9,1.4,2.2,1.8c0.3,0.3,0.2,0.8-0.2,1.5c-0.6,1-0.5,1.3,0.3,1c0.4-0.3,0.9,0.3,1.4,1.7
			c0,1.1,0.6,1.9,2,2.2c0.8,0.3,1.2,0.6,1.3,0.9c0.1,0.2-0.1,0.5-0.5,0.8c-0.4,0.2-0.7,0.3-1,0.6c-0.3,0.2-0.6,0.3-1,0.3
			c-0.6,0-1.2,0.2-1.8,0.7c-0.6,0.6-0.4,1.1,0.6,1.5c0.8,0,1.1,0.4,0.9,1c0,0.7-0.6,0.7-1.8,0.2c-1-0.2-1.5-0.2-1.5-0.2
			c0,0.1,0.3,0.4,0.9,0.9c0.8,1.3,1.3,2.1,1.7,2.5c0.6,0.7,0.9,1.6,1.1,2.7c0.2,1.1,0,1.5-0.6,1.2c-0.4-0.3-1-0.1-1.8,0.6
			c-0.8,0.7-1,1.2-0.6,1.6c0.2,0,0.5,0.1,1,0.1c0.5,0.1,1,0,1.6-0.3l1.5-0.4l-0.6,0.5c-0.8,0.6-1.2,1.1-1.1,1.4c0.1,0.3,0.4,1,1,2
			c1.2,1.3,1.3,2.3,0.5,2.9c-0.6,0.5-0.9,1.1-0.9,1.9c0.2,0.7-0.6,1.5-2.3,2.6c-1.7,1.1-2.9,1.6-3.7,1.6c-0.6-0.2-0.9,0-0.9,0.5
			c0,0.8,0.5,1.1,1.5,0.8c1-0.5,1.9-0.2,2.6,0.8c0.6,0.2,0.2,0.5-1.2,0.9c-0.4,0.3-0.7,0.5-1,0.5c-0.3,0-0.3-0.1-0.1-0.2
			c0.2-0.5-0.2-0.6-1.2-0.3c-1.6,0-1.8,0.2-0.6,0.7c0.6,0.5,1,1.2,1.1,2c0.2,0.8-0.1,1.1-0.9,1c-0.8,0-1.2,0.3-1.2,0.9
			c0,0.5,0.3,0.7,0.9,0.8c0.8,0,1.5,0.1,2.1,0.3c0.8,0.2,0.8,0.6,0,1.2c-0.6,0.6-0.2,1.2,1.1,1.7c1,0.7,1.1,1.1,0.3,1.2
			c-0.6,0.5-1.5,0.4-2.6-0.3c-0.4-0.3-0.7-0.3-0.9,0.1c-0.2,0.4-0.3,1.5-0.4,3.3c0,1.3-0.1,2.7-0.2,4.3c-0.1,1.5-0.2,2.8-0.2,3.8
			c0.4,0.8,0.6,1.8,0.7,2.8c0.1,1.1,0.1,2,0.1,2.8c0,0.8,0.1,1.7,0.2,2.6c0.2,0.9,0.2,1.5,0,1.8c0.3,3.1,1.3,6.6,2.9,10.5
			c1.6,3.9,3.5,7.6,5.8,11.1c0.2,0.5,0.3,1,0.3,1.5l0.3,0c1.6,0.9,2.9,1.3,4.1,1.4c1.2,0.1,2.3-0.4,3.3-1.5c1-1.3,2.3-3.3,4-6.2
			c1.6-2.9,2.9-6.3,3.7-10.1l4.6-23.2c0.4-2.7,1.1-4.4,1.9-4.9C373.4,489,374.4,488.7,375.6,488.7z M305.1,454.4
			c1.6-2.2,2.9-4.1,3.9-5.5c1-1.4,1.4-2.2,1.2-2.4c-0.4,0.2-0.9,0.3-1.5,0.4c-0.6,0.1-1.9,0.5-3.8,1.1c-5.9,2.3-11.8,5.5-17.6,9.7
			c-5.8,4.2-11,8.9-15.6,14.1c-4.6,5.2-8.5,10.7-11.5,16.4c-3.1,5.7-5,11.2-5.9,16.5c-0.2,1.8-0.4,3.5-0.5,5.1
			c-0.1,1.6,0,2.8,0.4,3.7l0.5,2l3-1.6c0.8-0.5,2-1.4,3.6-2.8c1.6-1.4,3.2-2.9,4.8-4.5c8.2-6.9,16.7-17.8,25.7-32.7
			c2.2-3.2,4.6-6.7,7.1-10.5C301.4,459.4,303.4,456.4,305.1,454.4z M302.5,522.9c0,1.1-0.1,1.7-0.3,1.7c-0.6,0-1-0.2-1.2-0.5
			c-0.2-0.2,0-0.6,0.6-1.4c0.2-0.5,0.4-0.7,0.6-0.7C302.4,521.9,302.5,522.3,302.5,522.9z M303,528.8c1.2-1.1,2-0.8,2.3,0.8
			c0.4,1,0.4,1.5,0.1,1.6c-0.3,0.1-0.9-0.1-1.9-0.7C302.8,530.1,302.6,529.6,303,528.8z M342.7,498.9c0.4-0.3,0.7-0.5,0.9-0.5l0,0.2
			l0.3,0.5c0,0.5-0.3,0.7-0.9,0.7C342.4,499.8,342.3,499.5,342.7,498.9z M344.8,452.4l0,0.5l0,0.5c0.2,0,0.6-0.2,1.2-0.7
			c0.4-0.2,0.5-0.3,0.5-0.5c-0.1-0.2-0.3-0.3-0.7-0.3C345.1,452,344.8,452.1,344.8,452.4z M350.9,458.9c-0.8,0-1-0.3-0.6-0.7
			c0.6-0.1,1-0.1,1.2,0C352.3,458.7,352.1,458.9,350.9,458.9z"/>
		<path d="M414.4,459.8c0.4-0.5,0.4-0.7,0-0.7c-0.4,0-1,0.3-1.8,0.9l0.6,1c0.6,1.2,1.2,1.7,2,1.8c0.4-0.2,0.5-0.1,0.3,0.3
			c-0.2,0.3-0.6,0.6-1.2,0.9c-0.6,0.6-1.2,1.1-1.6,1.5c-0.5,0.4-0.7,0.7-0.8,0.8c0,0.5,0.5,0.9,1.4,1.4c1,0.4,1.8,0.6,2.3,0.4
			c0.4,0,0.2,0.3-0.6,1c-0.4,0.3-0.6,0.8-0.6,1.4c0.2,0,0.8-0.4,1.8-1.3c1-0.9,2.1-1.9,3.3-3.2c5.8-6.5,11.9-9.5,18.1-9
			c4.9,0.3,8.4,3.1,10.4,8.5c0.4,1,1.1,3.5,2.1,7.5c1,4,1.9,8.4,2.8,13.1c0.7,3.3,1.6,7.6,2.5,13c1,5.4,2.1,10.7,3.5,15.9
			c1.4,5.2,2.9,9.7,4.7,13.5c1.8,3.8,3.8,5.7,5.9,5.7c0.8,0,1.7-1.3,2.9-4.1c1.1-2.7,2.3-6,3.6-9.9c1.3-3.9,2.5-7.8,3.6-12
			c1.2-4.1,2.1-7.5,2.7-10.3c0.6-1.9,1.1-3.1,1.4-3.4c0.3-0.3,1-0.5,2.2-0.4l2.6,0.1l-0.7,4.8c-0.2,1.5-0.6,3.5-1,6.1
			c-0.4,2.6-0.9,5.2-1.5,7.9c-0.5,2.7-1.1,5.1-1.6,7.3c-0.5,2.2-0.9,3.6-1.1,4.2c0,0.3-0.2,1-0.5,2.1c-0.3,1-0.6,2.2-1,3.4
			c-0.3,1.2-0.7,2.4-1.1,3.5c-0.4,1.1-0.7,1.8-0.9,2.2c-1,0.8-2,1.3-3.1,1.5c-1.1,0.2-2.7,0.4-4.9,0.5c-2.4,0.1-4.1,0.1-5.1-0.1
			c-1.1-0.2-2.4-0.7-3.9-1.6c-3.9-2.2-6.9-5.4-8.9-9.5c-2.1-4.1-3.8-8.7-5-13.7c-1.3-5.1-2.2-10.3-2.8-15.6
			c-0.6-5.4-1.1-10.4-1.6-15.1c-0.8-6.7-1.7-11.6-2.5-14.8c-0.8-3.2-1.8-5.4-3-6.8l-2-2l-3,1.4c-1,0.5-2.3,1.4-4,2.7
			c-1.7,1.3-3.3,2.8-4.8,4.3c-1.5,1.5-2.8,2.9-3.9,4.3c-1.1,1.4-1.5,2.2-1.1,2.5c0.4,0.3,0,1-1.2,1.9c-1,0.8-1.5,1.5-1.5,2.2
			c0.2,0.5,0,1-0.6,1.4c-1,0-1.5,0.5-1.5,1.4c0,1.3-0.5,2.2-1.5,2.6c-1.2,0.9-1.8,2-1.8,3.1c0,1.3,0.4,1.6,1.2,0.8
			c1-0.5,1.3-1.1,0.9-1.9c-0.2-0.3,0.1-0.2,0.9,0.3c1,0.8,1,1.3,0.3,1.5c-0.4,0.6-0.6,1.4-0.6,2.2c0,0.8,0.2,1.2,0.6,1.2
			c0.6,0,0.9,0.3,0.9,1c0,0.8-0.7,1.2-2.1,1.2c-1.6,0-2.2,0.2-1.8,0.7c0,0.8,0.6,1.1,1.8,0.8c0.8,0,1.2,0.2,1.2,0.5
			c0,0.5-0.3,0.7-0.8,0.7c-0.5,0-1.5-0.3-3.1-0.8c-1.8-0.4-2.6-0.4-2.6-0.1c0,0.3,0.4,0.7,1.3,1c0.9,0.3,1.9,0.5,3.1,0.6
			c1,0,1.5,0.3,1.5,0.8c0,0.7,0.4,0.7,1.2,0c0.8,0,1.2,0.2,1.2,0.5c0,0.6,0.3,0.8,0.9,0.5c0.6-0.5,0.9-0.4,0.9,0.3
			c0,0.5,0.3,0.6,0.9,0.3c0.6-0.1,0.6,0.1,0,0.7c-0.6,0.6-1.1,1-1.5,1.2c-0.4,0.2-0.4-0.1,0-0.7c0.4-0.5,0.2-0.8-0.6-1
			c-0.8-0.2-1.6,0-2.4,0.4c-0.6,0.3-1,0.9-1.2,1.8c-0.2,0.9,0,1.3,0.6,1.4c0.2,0,0.5-0.2,0.9-0.7c0.2-0.5,0.8-0.4,1.8,0.3
			c0.6,0.7,0.9,1.4,1,2.3c0.1,0.9-0.3,1.4-1.1,1.6c-0.4,0.2-0.6-0.2-0.6-1c0.2-1-0.5-1.6-2-1.8c-1.8-0.4-2.8-0.4-3.2-0.1
			c-0.6,0.3-1,0.9-1.4,1.7c-0.3,0.8-0.3,1.3,0.1,1.5c0.6,0.3,0.9,0.3,0.9-0.2c0-1,0.9-1,2.6,0.1c0.8,0.3,1,0.9,0.6,1.7
			c-0.4,0.8-1.1,0.9-2.1,0.2c-1.2-1-1.4-1-0.6,0c0,0.5-0.1,0.7-0.3,0.7c-0.6,0-1.2,0.9-1.8,2.9c-0.8,1.8-0.8,2.9-0.1,3.4
			c0.8,0.5,0.6,0.7-0.6,0.7c-0.8,0-1.2,0-1.2,0.1c0,0.1,0.5,0.5,1.4,1.1c0.8,0.3,1.4,0.7,1.9,1c0.5,0.3,0.9,0.5,1.3,0.5
			c0.4,0,1,0.6,1.7,1.7c0.6,1.1,0.4,1.7-0.6,1.7c-1.6,0.1-2.7,0.1-3.2-0.2c-0.6-0.3-1.4-0.9-2.3-1.9c-1.2-1-1.9-1.3-2.3-1
			c-0.4,0.5-0.2,0.9,0.6,1.2c1,0.3,1.4,0.7,1.2,1c-0.2,0.2-0.1,0.4,0.3,0.6c0.4,0.3,0.9,0.5,1.5,0.6c0.8,0.3,1.5,0.8,2,1.4
			c0.6,0.6,0.9,1,0.9,1.4c0.4,1.1,0.9,1.7,1.7,1.7c1,0,1.3,0.4,0.9,1c-0.4,0.8-0.3,1.2,0.3,1.2c0.8,0,0.8,0.3,0,1
			c-1.2,0.6-1.2,1.4,0,2.4c1,0.8,1.5,1.7,1.7,2.5c0.2,0.8-0.1,1.1-0.9,0.7c-0.8-0.5-0.9-0.1-0.3,1.2c0.4,1.1,0.2,1.9-0.6,2.2
			c-0.4,0.3-0.2,0.7,0.6,1.2c1,0.7,1.2,1.5,0.7,2.3c-0.5,0.9-1.6,1.6-3.1,2.2c-1.8,0.8-2.7,1.6-2.7,2.6c0,1-0.4,1.4-1.2,1.2
			c-0.4-0.2-1-0.3-1.8-0.3c0-0.2,0.1-0.3,0.3-0.5c0-0.2,0.2-0.4,0.6-0.7c0.6-0.6,0.7-1,0.3-1.1c-0.4-0.1-1.7-0.2-3.8-0.2
			c-2,0-2.8,0.2-2.4,0.7c0.8,0.7,1.2,1.8,1.4,3.4c0.2,1.6,0,2.4-0.6,2.4c-0.4,0-0.6-0.1-0.7-0.3c-0.1-0.2-0.3-0.3-0.7-0.5
			c-0.4-0.7-1.2-0.9-2.3-0.7c-1.2,0.2-1.7,0.6-1.5,1.3c0,0.8-0.3,1.3-0.9,1.4c-0.4,0-0.7,0-1,0.1c-0.3,0.1-0.6,0.1-1,0.1
			c-0.2,0.2-0.7,0.2-1.5,0.2c-0.2,0-0.1,0.4,0.3,1.2c0.6,0.7,0.8,1.1,0.6,1.2c0,0.3-0.1,0.4-0.3,0.4c-0.2-0.1-0.4-0.3-0.6-0.6
			c-0.2-0.3-0.7-0.5-1.5-0.5c-0.4,0.3-0.4,0-0.1-1c0.3-1,0.7-1.8,1.1-2.4c1.2-0.9-0.3-1.5-4.4-1.6c-2.2,0.1-2.9-0.1-2.3-0.5
			c0-0.8,0.8-1,2.4-0.7c1.4,0.4,2.1,0.2,2.1-0.4c0-0.5-0.4-0.7-1.2-0.8c-1,0-1.6-0.3-1.8-0.8c-0.2-0.7-0.6-0.7-1.2,0
			c-0.4,0.6-0.9,0.7-1.3,0.3c-0.5-0.4-0.5-0.9-0.1-1.6c0.6-0.5,0.3-0.7-0.9-0.8c-1,0-2.1-0.4-3.2-1.1c-1.4-0.8-2-1-2-0.5
			s0.3,0.7,0.9,0.8c0.6,0,0.9,0.3,0.9,0.8c0,0.2-0.3,0.1-0.9-0.1c-0.6-0.3-1.3-0.6-2-1.1c-1.6-1-2.5-1.9-2.9-2.6
			c-0.4-0.7-0.2-1.1,0.6-1.1c0.6,0,0.8-0.2,0.6-0.7c-0.6-0.3-1-0.4-1.2-0.3c-0.8,0.3-1.5-0.1-2-1.3c-0.6-1.1-0.6-2.2-0.2-3.2
			c0.4-0.8,0.6-1.2,0.5-1.3c-0.1-0.1-0.3,0-0.7,0.3c-0.6,0.6-0.8,0.5-0.6-0.3c0.4-1,0.9-1.4,1.5-1.2c0.4,0.2,0.6,0.2,0.7,0
			c0.1-0.2,0-0.3-0.4-0.5c0-0.5-0.5-0.6-1.5-0.3c-1.4,0.5-1.9-0.4-1.4-2.5c0-0.3,0-0.7-0.1-1.1c-0.1-0.4-0.3-0.8-0.7-1.1
			c-0.6-0.8-0.4-1.6,0.6-2.4c1.2-0.6,1.9-0.9,2.1-0.9c0.6,0,0.9-0.2,0.9-0.7s-0.4-0.7-1.2-0.8s-1.3-0.6-1.6-1.7
			c-0.3-1.1-0.1-1.8,0.5-1.9c0.6-0.1,0.7-0.5,0.3-1.2c-0.8-0.8-1.1-3.8-1-8.8c0-0.6-0.1-1.3-0.3-2c-0.2-0.7-0.4-1-0.6-1
			c-0.6-0.5-0.7-1.1-0.3-1.7c0.4-0.3,0.7-0.8,0.8-1.3c0.1-0.6,0.3-1.2,0.5-1.8c0.2-0.8,0.4-1.5,0.5-2.2c0.1-0.6,0.4-1,0.8-1.2
			c0.4-0.6,0.2-1.3-0.5-2c-0.6-0.8-0.8-1.3-0.6-1.5c0.4-0.1,0.4-0.7,0-1.7l-1.1-3.7c-0.4-1.3-0.1-1.8,0.9-1.4c0.6,0.2,0.9,0.2,0.9,0
			c0-0.2-0.4-0.7-1.1-1.5c-0.8-1-1.1-1.6-1.1-1.7c0-0.2,0.5-0.1,1.5,0.3c1.8,0.5,2.1,0,0.9-1.7c-0.4-0.7-0.4-1.1,0-1.5
			c0.4-0.3,0.6-1.2,0.6-2.7c0.4-1.6,0.9-2.7,1.5-3.1c0.6-0.6,0.4-1-0.6-1.2c-0.6-0.3-1-0.8-1.2-1.2c-0.2-0.5-0.3-1.6-0.2-3.4
			c0.2-2.3,0.4-3.7,0.5-4.4c0.1-0.6,0.3-0.9,0.5-0.7c0.6,0.3,0.9,0,1.1-1.1c0.1-1,0-1.8-0.4-2.3c-1-0.5-1.2-0.9-0.6-1.2
			c0.2-0.2,0.5-0.2,0.9-0.2c0-1.1-0.2-1.7-0.6-1.7c-0.2-0.2-0.3-0.4-0.3-0.7c-0.2-0.3-0.3-1-0.3-2c0-1.9,0.4-2.9,0.9-2.9
			c0.6,0,0.7-0.3,0.3-1c-0.4-0.7-0.1-1.1,0.9-1.4l0.3-0.2c-0.4-0.3-0.5-0.9-0.4-1.6c0.1-0.7,0.6-1.4,1.4-2c0.4-0.3,0.6-0.6,0.6-0.7
			c-0.2,0-0.4,0-0.6,0.1c-0.2,0.1-0.4,0.1-0.6,0.1c-0.4,0-0.2-0.3,0.6-1c0.4-0.2,0.6-0.3,0.7-0.5c0.1-0.2,0.3-0.3,0.5-0.5
			c0-0.5,0.2-0.9,0.6-1.2l0-1.9c0-0.6,0.4-1.1,1.2-1.4c0.8-0.1,1.2,0.1,1.2,0.8c0,0.8,0.4,0.7,1.2-0.5c0.6-1,1.8-1.6,3.6-1.9
			c1.4,0,3-0.1,5-0.4c1.6-0.1,2.2,0,1.8,0.3c-0.2,0.6,0.3,0.7,1.5,0c1.4-0.5,2.4-0.3,2.9,0.6c0.6,0.7,1.7,0.9,3.5,0.6
			c1.2-0.3,2.2-0.1,2.9,0.6c0,0.3,0.2,0.5,0.6,0.6c0.4,0.1,0.8,0.1,1.2,0.2c0.4,0,1.2,0.2,2.3,0.7c1.2,0.4,2.3,1,3.5,1.7
			c1.2,0.7,2.2,1.3,3.1,1.9c0.9,0.6,1.3,1,1.3,1.1c0,0.5-0.3,0.5-0.9,0c-0.6-0.2-0.9-0.1-0.9,0.2l2.6,0.1c-0.6,0.5-0.9,0.9-0.9,1.2
			c0,0.5-0.1,0.9-0.3,1.2c0.8,0.7,0.7,1.2-0.3,1.5l-0.3,0.2c0.2,0.2,0.4,0.3,0.6,0.5c0.2,0.2,0.5,0.4,0.9,0.8
			c1.3,1.3,2.5,1.7,3.5,1.1c1-0.5,1.7-0.5,2.1-0.2c0.4,0.2-0.1,0.5-1.5,0.9c-1.4,0.5-2.3,0.5-2.7,0.2c-0.6,0-0.7,0.6-0.3,1.7
			c0.4,1.1,0.7,1.7,1.1,1.7c0.4-0.2,0.6-0.1,0.7,0c0.1,0.2,0,0.3-0.2,0.5c-0.4,0.5-1.2,0.5-2.4-0.1l-0.3,0l-0.3,0.5
			c0.4,0.7,0.4,1.1,0,1.2c0.4,0.3,0.9,0.3,1.5-0.2c1-0.8,1.5-0.9,1.6-0.3c0.1,0.6-0.4,1.3-1.4,2c-0.4,0.5-0.8,0.8-1,0.8
			C414.3,460.2,414.2,460.1,414.4,459.8z M386.6,543.2c0.8-1,1.2-1.6,1.2-1.9c0-0.3-0.6,0-1.8,0.9c-1.2,1.1-1.8,1.8-1.7,2
			C384.4,544.5,385.2,544.2,386.6,543.2z M388,545c0.4-0.1,0.5-0.3,0.5-0.5c-0.1-0.2-0.3-0.3-0.7-0.3c-0.6,0-0.9,0.2-0.9,0.7
			s0.2,0.7,0.6,0.7l0.3-0.2c0-0.2,0.1-0.2,0.2-0.2C388,545.2,388,545.1,388,545z M391.5,546.5c1.2,0,1.5-0.2,0.9-0.7
			c-0.4-0.5-0.9-0.8-1.5-0.8c-0.4,0-0.6,0.2-0.6,0.7S390.7,546.5,391.5,546.5z M394.7,547.8c1.3,1.2,1.9,0.7,1.8-1.4
			c-0.2-1.3-0.4-2.1-0.7-2.3c-0.3-0.3-0.9-0.2-1.9,0.1c-0.8,0.5-1.2,0.7-1.2,0.8c0,0.1,0.4,0.1,1.2,0.2c1.2,0,1.5,0.4,0.9,1
			C393.8,546.7,393.7,547.3,394.7,547.8z M398.3,558.4c0.6-0.6,1-0.5,1.2,0.3c0.8,1.5,0.4,2-0.9,1.4
			C398,559.7,397.9,559.2,398.3,558.4z M400.9,548.5c0.2-0.2,0-0.6-0.6-1.2c-0.8-0.8-1-0.8-0.6,0.2
			C400.3,548.3,400.7,548.6,400.9,548.5z M400.8,553.6c0.6-0.5,1.1-0.6,1.5-0.4c0.2,0.2-0.2,0.5-1.2,0.9c-0.4,0.1-0.6,0.2-0.7,0.1
			C400.2,554.1,400.4,553.9,400.8,553.6z M406,442c0-0.6-0.1-1-0.4-1c-0.3,0-1.2,0.1-2.8,0.4c-0.4,0-0.1,0.3,1,1
			c1.1,0.7,1.8,1,2.2,1L406,442z M404.4,551c0.6,0,0.9,0.3,0.9,0.8c0,0.2-0.3,0.5-0.9,1s-0.9,0.2-0.9-0.8
			C403.5,551.3,403.8,551,404.4,551z M404.3,553.7c0.6,0,0.9,0.3,0.9,0.8c0,0.5-0.2,0.7-0.6,0.7c-0.2,0-0.3-0.1-0.3-0.3
			c-0.2-0.2-0.3-0.3-0.3-0.5C403.4,553.9,403.5,553.6,404.3,553.7z M406.7,538.1c-1.2-0.2-1.7,0.9-1.5,3.1c0.4,0.8,0.7,1.4,0.9,1.6
			c0.2,0.2,0.8,0.3,1.8,0.2c1.2,0,2.2-0.4,3-1.4c0.8-0.8,0.9-1.4,0.3-1.9c-0.6,0-0.7-0.7-0.3-2.2c0.2-1.1-0.1-1.7-0.8-1.7
			c-1.2,0-1.1-0.4,0.3-1c1.2-0.6,1.4-0.9,0.6-1c-0.8,0-1.5,0.3-2.2,0.9c-0.7,0.6-1.1,1.4-1.1,2.2c0.2,0.5,0.2,0.9,0,1.2
			C407.4,538.5,407.1,538.5,406.7,538.1z M408.7,540.6c-1.6,0.9-2.4,0.9-2.4-0.1c0-0.5,0.3-0.8,0.9-1.1c0.6-0.2,1.2-0.2,1.8,0.2
			C409.6,540,409.5,540.3,408.7,540.6z M407.8,480.8c0.8-0.6,1.2-1.2,1.2-1.7l0-0.7c-0.2,0-0.7,0.5-1.5,1.4
			C406.8,480.6,406.8,480.9,407.8,480.8z M408.9,530.2c-1.6,1.9-1.7,2.9-0.4,2.9c0.6,0,1.1-0.8,1.5-2.4l0.3-1.9L408.9,530.2z
			 M410.3,490.1c0.8,0.8,1.2,0.8,1.2-0.2c0-0.6-0.3-0.9-0.9-0.8c-0.2,0-0.3,0.1-0.4,0.4C410.1,489.7,410.1,489.9,410.3,490.1z
			 M413.9,472.4c0.4-0.6,0.5-1,0.3-1.1c-0.2-0.1-0.8,0-1.8,0.3c-1,0.3-1.5,0.7-1.5,1.2s0.4,0.7,1.2,0.8
			C412.7,473.6,413.3,473.2,413.9,472.4z M412.8,513.7c0.4,0,0.6,0.1,0.7,0.1c0.1,0.1,0,0.1-0.1,0.1c-0.4,0.6-0.3,1.2,0.3,1.7
			c0.8,1.5,0.3,1.7-1.5,0.7c-0.8-0.7-1.1-1.3-0.8-1.8C411.5,514,412,513.7,412.8,513.7z M413.9,532.7c-0.4,0-0.6,0.1-0.6,0.5
			c0,0.5,0.2,0.7,0.6,0.7c0.6,0,0.9-0.1,0.9-0.5C414.7,533.3,414.4,533.1,413.9,532.7z M414.9,449.6c0-1.1,0.1-1.7,0.3-1.7
			c0.6,0,1.2,0.2,1.9,0.7c0.7,0.4,1,0.8,1,1.1c0,0.5-0.3,0.5-0.9,0c-0.6-0.2-1.2,0-1.8,0.4C415.1,450.5,414.9,450.4,414.9,449.6z
			 M418.1,540.1c0.8,0.5,0.7,0.7-0.3,0.7c-1,0-1.5-0.1-1.5-0.3c-0.4-0.3-0.5-0.9-0.4-1.8c0.1-0.9,0.4-1.3,0.8-1.3
			c0.4,0,0.6,0.7,0.5,2l0.3,0.3C417.5,540,417.7,540.1,418.1,540.1z M417.5,455.7c-0.6,0-0.9-0.3-0.9-0.8c0-0.3,0.3-0.5,0.9-0.5
			c0.6,0.3,0.9,0.6,0.9,0.8C418.3,455.6,418.1,455.7,417.5,455.7z M417.8,512.9c1-0.1,1.5,0,1.5,0.5c0,0.8-0.3,1.3-0.8,1.4
			c-0.5,0.2-0.9-0.1-1.3-0.8c-0.6-1-0.5-2.1,0.4-3.4c0.8-1.4,1.2-1.7,1.2-0.7s-0.4,1.8-1.2,2.4C416.5,513.2,416.6,513.3,417.8,512.9
			z"/>
		<path d="M567,498.8c1.2-0.1,1.8,0.2,1.7,1c0.2,0.7,0.1,1.9-0.4,3.6c-0.4,1.8-1,3.9-1.7,6.3c-0.7,2.4-1.6,5-2.7,7.7
			c-1,2.7-2.1,5.4-3.1,8c-1.6,3.2-3.1,6-4.3,8.5c-1.2,2.5-2.6,4.6-4.2,6.3c-3.8,4.6-8.2,7.9-13.1,9.8c-4.9,1.9-10.1,2.6-15.3,2.2
			c-5.3-0.5-10.6-1.9-15.8-4.4c-5.2-2.5-9.9-5.9-13.9-10.2c-1.2-1.3-2.6-3.4-4.3-6.2c-1.7-2.8-3.3-5.6-4.7-8.5
			c-1.4-2.9-2.5-5.4-3.2-7.6c-0.7-2.2-0.9-3.5-0.5-3.8c0.6-0.3,0.9-0.7,0.9-1.1c0-0.4-0.4-0.6-1.2-0.6c-1,0-1.5-0.3-1.5-0.8
			c0-0.2,0.1-0.3,0.3-0.5c0-0.2,0.1-0.2,0.3-0.2c0.2,0,0.4-0.3,0.5-1c0.1-0.6,0.2-1.4,0.2-2.2c0-0.8,0-1.5-0.1-2.2
			c-0.1-0.6-0.2-1.1-0.4-1.2c0-0.2,0-0.4,0-0.9c0-0.4,0.2-0.8,0.6-1.1c0.6-1,0.5-2-0.2-3.2c-0.4-1.6-0.4-2.6-0.2-2.9
			c0-0.5-0.1-0.7-0.3-0.7c-0.6,0-0.7-0.4-0.4-1.2c0.3-0.8,0.9-1.4,1.7-1.7c0.4-0.3,0.3-0.7-0.3-1.2c-0.6-0.7-0.8-1.9-0.7-3.7
			c0.1-1.8,0.5-2.7,1.1-2.9c0.8-0.3,1.2-0.7,1.2-1.2s-0.4-0.6-1.2-0.3c-0.4,0.2-0.7-0.1-0.9-0.6c-0.2-0.6-0.3-1.2-0.3-2
			c0-0.7,0.1-1.4,0.3-2.1c0.2-0.6,0.5-1.1,0.9-1.4c1-0.8,1.5-1.6,1.5-2.4c0.4-1.3,0.6-2,0.6-2.2l0-0.5c0-0.5,0.1-0.9,0.3-1.2
			c0-0.8,0.6-1.2,1.8-1.2c0.6,0.2,1,0.1,1.2-0.1c0.2-0.2,0.1-1-0.2-2.3c-0.4-1-0.5-1.6-0.4-1.8c0.1-0.2,0.3-0.1,0.7,0.4
			c1,0.8,1.2,0.8,0.6-0.2c-0.4-1-0.6-1.6-0.5-2c0-0.5-0.4-0.7-1.2-0.8c-0.8,0-1.2-0.1-1.2-0.2c0-0.1,0.4-0.4,1.2-1.1
			c0.6-0.5,0.9-1,0.9-1.7c-0.8-0.3-0.8-0.5,0-0.5c0.6,0,0.8-0.6,0.6-1.8c-0.2-1.2-0.5-2-1.1-2.3c-0.8-0.3-0.9-0.8-0.3-1.5
			c0-0.2,0.2-0.3,0.4-0.4c0.3-0.1,0.5,0,0.7,0.1c0.6,0.3,0.9,0.1,0.9-0.7c0-0.6,0.4-1,1.2-0.9c0.8,0,1.7-0.4,2.7-1.4
			c0.8-1,0.8-1.5,0-1.7c-0.2-0.2-0.3-0.3-0.4-0.3c-0.1,0-0.1,0.1,0.1,0.2c0.6,0.5,0.4,1-0.5,1.6c-0.9,0.5-1.8,0.6-2.8,0.3
			c-2-0.4-2.2-1.1-0.8-2.2c1.2-0.9,1.6-1.7,1.2-2.2c-0.4-1,0-1.5,1.2-1.4c1-0.3,1.2-0.9,0.6-1.9c-0.6-1-0.6-1.5,0-1.5
			c0.6,0,0.9,0.3,0.9,1c0,1.6,1.5,2.1,4.7,1.6c1.4-0.3,2.4,0,2.9,0.8c0.8,0.7,1.5,1,2.3,1c1,0,1.2,0.3,0.6,0.7s-0.2,0.7,1.2,0.8
			c1.2,0,1.9,0.5,2.3,1.5c0.2,0.7,0.5,1.1,1,1.2c0.5,0.2,0.7-0.1,0.8-0.7l0.6-0.2c0.2,0,0.4,0,0.7-0.1c0.3-0.1,0.6-0.1,1-0.1
			c1.4,0,1.9,0.4,1.5,1c-0.4,0.6-0.2,1,0.6,1c0.6,0,0.9-0.2,0.9-0.7s0.5-0.1,1.5,1c1.2,1,1.3,1.8,0.5,2.4c-0.4,0.6-1,0.8-1.8,0.4
			c-0.6-0.2-1.3,0.1-2.1,0.7c-0.8,0.6-1,1.1-0.6,1.4c0.2,0.2,0.7,0.1,1.5-0.2c1-0.5,1.7-0.6,2.1-0.4c0.2,0.2,0.3,0.1,0.3-0.2
			c0-0.6,0.7-0.9,2.1-0.7c1.4,0.2,2,0.7,2,1.5c0,0.8-0.3,1.2-0.9,1.2c-0.6,0-0.3,0.5,0.9,1.5c1.2,1,1.8,1.7,1.9,2.1
			c0.1,0.4-0.4,0.4-1.3,0.1c-0.8-0.3-1.2-0.3-1.2,0.2c-0.4,2.3-0.6,4.3-0.6,6.1c0.1,1.8,0.2,2.8,0.4,2.9c0.6,0,0.7,0.4,0.3,1.2
			c-0.2,0.6,0.1,0.9,0.9,0.8c0.6-0.1,0.9-0.1,0.9,0c0,0.2-0.2,0.9-0.6,2.2c-0.6,1.4-1.3,2.6-2.1,3.6c-1,0.5-1.3,0.9-0.9,1.2
			c0.4,0.5,0.2,1.1-0.6,1.7c-0.8,0.6-1.2,1.1-1.2,1.3c0,0.2,0.4,0.7,1.2,1.4c0.8,0.8,1.2,1.3,1.1,1.5c0,0.2-0.4,0.1-1.2-0.3
			c-1-0.2-1.7,0.2-2.1,1.2c-0.4,1.3-0.2,1.5,0.6,0.5c0.6-0.6,1.3-0.7,2.1-0.2c0.4,0.3,0.7,0.5,1,0.6c0.3,0.1,0.4,0.1,0.4-0.1
			c0.2-0.2,0.3,0.2,0.3,1c0,0.8-0.3,1.2-0.9,1.2c-0.8-0.2-1,0-0.6,0.5c0.2,0.7-0.2,1.2-1.2,1.7c-1,0.1-1.5,0.2-1.6,0.3
			c-0.1,0.1,0.2,0.4,1,0.9c1.2,0.5,1.3,1.1,0.3,1.7c-1,0.5-1.1,0.7-0.3,0.7c0.8,0,1.1,0.3,0.9,0.8c-0.4,0.3-1,0.5-1.8,0.4
			c-1,0-1.3-0.2-0.9-0.5c0.4-0.5,0.3-1-0.3-1.5c-0.6-0.5-1.4-0.8-2.3-0.8c-0.2,0,0,0.2,0.6,0.7c0.4,0.2,0.6,0.3,0.7,0.5
			c0.1,0.2-0.1,0.2-0.4,0.2c-0.8,0.6-1,1.3-0.6,1.9c0.4,0.8,0.9,1.1,1.5,0.8c0.8-0.3,1.4-0.1,1.8,0.5c0.2,0.7-0.1,1.1-0.8,1.3
			c-0.7,0.2-1.4,0.2-2.2-0.2c-0.6,0-0.9,0.1-0.9,0.2c0,0.5,0.6,0.9,1.7,1.3c1,0.2,1.4,1.3,1.4,3.2c0,1.8,0.4,2.9,1.4,3.2
			c1.2,0.5,1.3,1.1,0.6,1.7c-0.8,0.8-0.9,1.3-0.3,1.5c0.8,0.3,1.2,1.1,1.1,2.2c0,1.3,0.3,2,0.8,2c0.6,0,0.6,0.3,0,0.7
			c-1,0.5-1,1.2,0,2.2c0.8,0.7,0.9,1.6,0.5,2.7c-0.4,1.3-0.5,2.1-0.3,2.4c0.4,0.3-0.1,0.8-1.5,1.4c-1.2,0.6-1.5,1.3-0.9,1.9
			c0.8,0.7,1,1.2,0.6,1.5c0,0.6,0.4,1.2,1.1,1.7c0.8,0.5,1.3,1.6,1.7,3.2c0.4,1.6,0.3,3.1-0.1,4.4c0,0.5,0.3,0.6,0.9,0.3
			c0.6-0.3,0.8-0.1,0.6,0.5c-0.6,1.1-0.4,1.4,0.6,0.7c0.8-0.1,1.2,0.1,1.2,0.6c0,0.6-0.4,1.2-1.2,1.8c-0.6,0.6-0.5,1,0.3,1
			c0.6,0,0.5,0.3-0.3,1c-1.2,0.6-1.4,0.9-0.6,1c0.6,0,0.9,0.6,0.8,1.7c0,0.7,0.5,1.2,1.6,1.7c1.1,0.5,2.4,0.9,4.1,1.2
			c1.7,0.3,3.4,0.4,5.1,0.4c1.8,0,3.3-0.2,4.7-0.5c2.2-0.6,4-1.5,5.6-2.8c1.6-1.3,3.5-3.5,5.7-6.7c2.8-3.7,5.4-7.9,7.6-12.6
			c2.3-4.7,4.5-9.9,6.8-15.5c0.8-2.4,1.6-4.5,2.3-6.3c0.7-1.8,1.3-2.6,1.7-2.6c0.2,0.2,0.5,0.2,1,0C566.2,499.1,566.6,499,567,498.8
			z M488.1,442.1c-0.2,0-0.3-0.1-0.3-0.3l0-0.5c0-0.5,0.3-0.7,0.9-0.7c0.8,0,0.9,0.3,0.3,0.7C489,441.9,488.7,442.1,488.1,442.1z
			 M488.1,439.9c-0.2,0-0.3-0.1-0.3-0.3l0-0.5c0-0.5,0.3-0.7,0.9-0.7c0.4,0,0.6,0.1,0.7,0.3c0.1,0.2-0.1,0.3-0.5,0.5
			C489,439.7,488.7,440,488.1,439.9z M490.2,454.6c0.4,0,0.6-0.2,0.6-0.7c0-0.5-0.1-0.7-0.3-0.7c-0.2,0-0.3,0.1-0.3,0.2
			c0,0.2-0.2,0.3-0.6,0.5C489,454.3,489.2,454.6,490.2,454.6z M495.5,439.4c0,1.1-0.6,1-1.8-0.3c-0.8-1-0.7-1.2,0.3-0.7
			C495,438.7,495.5,439.1,495.5,439.4z M498.5,435.1c-3.3-2-4.4-5.8-3.3-11.3c0.5-3.2,1-5.9,1.5-8.1c0.5-2.2,1.2-4.1,2-5.7
			c0.8-1.6,1.9-2.9,3.2-3.9c1.3-1,2.8-2,4.6-2.9c1.8-1.1,3.3-1.7,4.5-2c1.2-0.2,2.8-0.3,5-0.2c1.4,0,2.6,0.1,3.7,0.2
			c1.1,0.1,1.8,0.3,2.2,0.7c0.6,0.5,0.9,1.6,1,3.2c0.1,1.6-0.1,3.6-0.6,5.9c-0.4,2.3-1,4.9-1.8,7.7c-0.7,2.8-1.7,5.7-3,8.6
			c-1.9,4.3-3.4,7-4.7,8c-1.3,1-3.6,1.5-6.9,1.4C502.1,436.6,499.7,436.1,498.5,435.1z M500.4,488.7c0.8,0.3,1.3,0.5,1.5,0.4
			c0.2-0.1,0.1-0.4-0.3-0.9c-0.4-0.7-0.9-0.8-1.5-0.5C499.9,488.2,500,488.5,500.4,488.7z M513.2,512.1c0,1.9,0.1,2.8,0.5,2.4
			c0.6-0.5,0.9-1.3,0.9-2.4c0-1.5-0.3-2.1-0.8-2c-1,0-1.7-0.2-2-0.5c-0.4-0.3-0.6-0.5-0.7-0.5c-0.1,0,0,0.2,0.4,0.7
			c0.8,1,0.9,1.6,0.3,1.7c0,0.3,0.2,0.3,0.6,0C512.9,511.4,513.2,511.6,513.2,512.1z M517.6,539.9c0.8,0,0.8-0.5,0-1.5
			c-0.4-1-0.8-1.5-1.1-1.5c-0.6,0-0.6,0.2,0,0.7c0.4,0.2,0.5,0.3,0.4,0.5c-0.1,0.2-0.4,0.2-0.7,0.2c-0.4,0-0.6,0.2-0.6,0.7
			c0.4,0.2,0.7,0.3,1,0.5C516.9,539.8,517.2,539.9,517.6,539.9z"/>
		<path d="M566.2,551.6c2.4-4.3,5.7-8.1,9.6-11.4c4-3.3,8.5-6.4,13.4-9.2c5-2.8,10.2-5.5,15.6-8c5.4-2.5,10.7-5.2,15.9-8l0-0.5
			c-0.4-2-0.7-3.3-1.1-4c-0.4-0.7-1.1-1.4-2-2.1c-1.6-0.8-3.3-1.3-5.3-1.3c-2,0-4.6,0.3-8,1c-1.2,0.5-2.3,0.8-3.3,1.1
			c-1,0.3-2,0.7-3,1.3c-1,0.5-2.2,1.2-3.6,2c-1.4,0.8-3.1,1.9-5.1,3.3c-2.6,1.4-4.4,2.2-5.3,2.3c-1,0.1-2-0.3-2.9-1.3
			c-0.4-0.5-0.7-0.7-0.9-0.8c-0.2,0-0.7,0.1-1.5,0.5c-1,0.8-1.9,0.8-2.6-0.1c-0.8-0.5-1.8-0.5-2.9-0.1s-2.1,0.7-2.7,0.7
			c-0.6,0-0.6-0.3,0-1c0.8-0.5,0.8-0.7,0-0.7c-0.8,0.1-1.2,0-1.2-0.5c0.8-1.6,1.2-3,1.3-4.3c0-1.3-0.4-2-1.1-2
			c-0.6-0.2-0.6-0.8,0-1.9l0-1.7c-0.2,0-0.7,0.3-1.5,0.9c0,0.8-0.5,0.7-1.5-0.3l-1.2-1.2l1.8-0.9c1.6-0.3,2.6-0.4,3-0.4
			c1,0.5,1.4,0.6,1.3,0.2c-0.1-0.4-0.6-1-1.6-1.9c-1-0.7-1.5-1.3-1.6-2c-0.1-0.6,0.4-0.9,1.3-0.7c0.8,0,0.8-0.2,0-0.7
			c-0.6-0.5-0.4-1.4,0.6-2.8c1-1.4,2-1.8,3-1.3c0.6,0.3,0.8-0.3,0.6-1.9c-0.2-1.3,0.1-1.9,0.9-1.9c0.6,0.3,0.9,0.2,0.9-0.5
			c0.2-0.2,0.1-0.5-0.3-1c-0.2,0-0.1-0.3,0.2-0.8c0.3-0.6,1-1.2,2-2c0.8-0.8,1.5-1.4,2.1-1.9c0.6-0.5,1-0.6,1.2-0.5
			c0.6,0,1.3-0.6,2.1-1.9c0.6-1.3,1.6-2.5,2.9-3.6c1.3-1.1,2.1-1.5,2.5-1.2c0.2,0.2,0.5,0.3,0.9,0.3l-0.9-0.5
			c0.4-0.3,0.8-0.7,1.1-1.3c0.3-0.6,0.6-1.1,0.8-1.6c0.4-2.3,0.8-3.6,1-4c0.2-0.4,0.5-0.4,0.9-0.1c0.4,0.8,0.5,0.5,0.3-1
			c0.2-0.6,0.4-1,0.6-1c0.8,0.3,1.2,0.1,1.2-0.7c0.8-1,0.8-1.4,0-1.5c-0.4-0.3,0.2-1,1.8-1.9c1-0.8,2-1,3-0.7c0.4,0,0.6-0.1,0.6-0.5
			c0-0.5-0.5-0.7-1.5-0.5c-1,0.3-1.5,0.1-1.5-0.6s0.5-1.7,1.5-3c2.4-2,4.1-2.7,5-1.8c0.2,0,0.2,0.1,0,0.4c-0.2,0.2-0.6,0.4-1.2,0.6
			c-0.8,0-1.1,0.5-0.9,1.7c0.2,0.8,0.3,1.2,0.4,1.2c0.1,0,0.6-0.4,1.6-1.2c1.4-0.9,1.8-1.7,1.2-2.4c-0.4-1.1-0.3-1.7,0.3-1.7
			c0.2-0.2,0.1-0.7-0.3-1.7c-0.4-0.3-0.5-0.6-0.4-0.9c0.1-0.2,0.3-0.4,0.4-0.4c0.6-0.3,1-0.9,1.2-1.9c0.2-1,0.1-1.5-0.3-1.7
			c-0.2,0.3-1.5,0.7-4,1.1c-2.5,0.4-7.9,0.9-16.4,1.5c-0.6,1.8-1.7,4.1-3.2,7.1c-1.5,3-3.1,5.9-4.7,8.8c-1.6,2.9-3.2,5.5-4.7,7.8
			c-1.5,2.3-2.6,3.8-3.2,4.4c-1,1.3-2.2,1.8-3.6,1.6c-0.4,0-0.8-0.3-1.2-0.8c-0.4-0.5-0.7-0.9-0.9-1.2c0.4-2.4,2-6,4.6-10.7
			c2.6-4.7,5.2-10.5,7.7-17.2c-4.3-1.1-7.4-3.3-9.4-6.6c-2-3.3-3-6.8-3.2-10.7c-0.1-3.8,0.6-7.5,2.3-11c1.6-3.5,3.9-6.1,6.9-7.9
			c1.6-0.8,3.7-1.2,6.4-1.2c2.6,0,4.5,0.3,5.4,1c2.7,1.9,4.3,4.9,4.8,9.1c0.3,2.8,0.2,6-0.3,9.7c-0.6,3.7-1.1,7.2-1.5,10.4
			c3.5-0.2,7.7-0.6,12.5-1.1c4.8-0.5,9.6-1,14.3-1.3c2.8-0.3,5.2,0,7.5,0.7c2.2,0.7,3.2,1.4,2.8,2c-0.2,0.2-0.2,0.3,0,0.5
			c0.2,0.2,0.6,0.2,1.2,0c0.4-0.1,0.5,0.3,0.3,1.3c-0.2,1.1-0.1,2.1,0.2,3.3c0.5,2.3,1.1,2.9,1.7,1.7c0.8-0.8,1.3-1.1,1.6-1.1
			c0.3,0.1,0.1,0.5-0.5,1.3c0,0.5,0.1,0.7,0.3,0.5c0.8-0.3,1.1-0.3,1,0.1c-0.1,0.4-0.7,0.8-1.6,1.3c-2.2,1.4-2.7,2.3-1.5,2.6
			c0.8,0,1.2-0.7,1.2-2.2l0.6-0.2c0.4,0.8,0.5,1.4,0.3,1.7c0,0.8,0.5,1,1.5,0.5c1,0,1.2,0.3,0.6,0.7c-0.6,0.5-0.3,0.7,0.9,0.8
			c0.8,0.3,1.1,0.8,0.9,1.2c0,0.8,0.2,1.2,0.6,1.2c0.6,0,0.9,0.3,0.9,1c-0.2,0.2-0.6,0.2-1.2,0.2c-0.6,0-1.1,0.7-1.5,2.2
			c-0.8,1.4-0.8,2.2,0,2.2c0.4,0,0.6,0.4,0.6,1.2c-0.2,0.8-0.6,1.2-1.2,1.2c-0.4-0.5-0.6-0.4-0.7,0.2c-0.1,0.6-0.1,1.4,0.1,2.2
			c0.4,0.7,0.3,1.2-0.3,1.7c-0.8,0.6-0.9,1-0.3,1.2c0.6,0.3,0.7,0.8,0.3,1.5c-0.6,0.5-0.7,1.2-0.3,2.2c0.4,0.5,0.4,0.9,0,1.2
			c-0.2,0.2-0.4,0.1-0.7-0.1c-0.3-0.3-0.3-0.5-0.1-0.9c0-1.1-0.3-1.7-0.8-1.7c-1,0-1.1,0.1-0.3,0.5c0,0.3,0.1,0.7,0.3,1
			c0.2,0.3,0.1,0.7-0.3,1c-0.4,0.5-0.3,1,0.3,1.5c0.6,0,0.7,0.2,0.3,0.5c-0.4,0.3-0.2,0.8,0.6,1.5c0.4,0.7,0.5,0.9,0.3,0.7
			c-0.8,0-1.3-0.3-1.5-0.8c-0.4-0.7-1.1-0.9-2-0.8c-1,0.1-1.6,0.6-1.8,1.4c-0.4,1.4-0.9,2.8-1.4,4c-0.5,1.2-1,1.9-1.4,2
			c-0.4,0.3-0.4,0.2,0-0.5c0.2-0.2,0.3-0.4,0.2-0.6c-0.1-0.2-0.1-0.4-0.1-0.6c-0.6-0.5-0.9,0.1-0.9,1.7l0,0.2l0.9,0.3
			c-0.8,1-1.3,1.3-1.5,1.2c-0.2-0.2-0.4,0-0.6,0.5c0,0.8,0.6,1.2,1.7,1c0.4,0.2,0.7,0.3,1,0.3c0.3,0,0.2,0.2-0.2,0.5
			c0,0.7-0.5,0.8-1.5,0.5c-1-0.5-1.2-0.3-0.6,0.7c0.4,0.5,0.3,1-0.3,1.5c-0.4,0.3-0.6,0.2-0.6-0.3c0-0.2-0.1-0.2-0.3-0.3
			c-0.2,0-0.4,0.2-0.6,0.5c-0.8,0.6-1,1.4-0.6,2.4c0,0.8-0.5,1.6-1.5,2.3c-1,0.7-2.2,1.1-3.6,1.3c-0.8,0.1-0.7,0.3,0.3,0.5
			c1,0.2,1.4,0.5,1.2,1c-0.6,0.5,0.1,0.7,2,0.8c1-0.1,1.8-0.1,2.5,0.2c0.7,0.3,1.1,0.5,1.3,0.6c0.6,0.7,0.8,0.6,0.6-0.2
			c0-0.5,0.3-0.6,0.9-0.5c0.6,0.2,1.8,0.9,3.8,2c1.2,0.8,2.3,1.5,3.3,2c1.1,0.5,2.3,1.4,3.6,2.5c1.4-0.8,2.6-1.6,3.7-2.5
			c1.1-0.9,2.2-1.8,3.4-2.7c3.8-3.1,7-6.6,9.8-10.2c2.7-3.7,4.7-7.8,6-12.5c0.4-0.8,0.9-1.3,1.4-1.5c0.5-0.2,1-0.4,1.6-0.6
			c0.8-0.1,1.6,0,2.3,0.5c0.8,0.5,1,1.4,0.5,2.7c-1.4,9.9-6.4,18.4-14.9,25.7c-3,2.4-6.1,4.6-9.3,6.6c0.7,1.8,1.4,3.4,2,4.8
			c0.6,1.4,0.9,2.7,1.1,4c0,0.6,0,1.3,0,2.1c0,0.7-0.1,1.3-0.3,1.6c-0.2,0.8-0.3,1.9-0.4,3.4c0,1.5,0.1,2.4,0.5,2.7
			c0.2,0,0.1,0-0.1,0.1c-0.3,0.1-0.6,0.1-1,0.1c-0.8,0-1.2,0.2-1.2,0.7c0,0.8,0.2,1.1,0.6,0.7c0.6-0.5,0.9-0.3,0.9,0.5
			c-0.4,0.5-0.8,0.6-1.2,0.5c-1,1.9-1.7,3.5-2.2,4.7c-0.4,1.2-0.8,2.4-1.2,3.5c-0.4,1.1-0.6,1.9-0.6,2.4c0,0.2-0.4,0.4-1.2,0.7
			c-0.4,0.2-0.8,0.8-1.2,1.9c-0.4,1-0.9,1.4-1.5,1.4c-0.2,0-0.7,0.6-1.7,1.7c-0.9,1.1-1.8,2.2-2.6,3.3c-0.6,1.3-1.3,2.3-2,3
			c-0.7,0.7-1.2,1-1.6,0.8c-0.4,0-0.9,0.4-1.5,1.2c-0.2,0.3-0.8,0.8-1.8,1.5c-1,0.7-2,1.4-3,2.2c-1.2,0.8-2.2,1.5-3.1,2.1
			c-0.9,0.6-1.3,1.1-1.4,1.4c0,0.5-0.4,0.6-1.2,0.2c-0.4-0.3-0.7-0.4-0.9-0.3c-0.2,0.2-0.3,0.4-0.3,0.7c-0.4,0.6-0.9,0.9-1.5,0.7
			c-1.2,0-1.8,0.1-1.8,0.4c0,0.2-0.5,0.2-1.5,0.2c-0.8-0.5-1.7-0.4-2.7,0.4c-0.4,0.1-1,0.3-1.8,0.4c-0.8,0.1-1.5,0.2-2.1,0.2
			c-0.6,0-1.2,0-1.9,0c-0.7,0-1.2,0.1-1.6,0.4c-0.2,0.2-1,0.2-2.4,0.1c-1.4-0.1-2.9-0.3-4.6-0.5c-1.7-0.2-3.1-0.4-4.4-0.6
			c-1.3-0.2-1.9-0.4-1.9-0.5l-0.6-0.5c-0.2-0.2-0.4-0.3-0.6-0.3c-0.2,0-0.5-0.1-0.9-0.3c-1.4-0.4-2.4-0.9-3.2-1.5
			c-0.4-0.5-1.2-1-2.3-1.6c-1.2-0.6-2-1-2.6-1.2c-0.6,0-1.3-0.8-2-2.2c-0.8-1.5-1.3-2.7-1.7-3.7c-0.2-0.7-0.3-1.2-0.4-1.7
			c-0.1-0.5-0.1-1.1-0.1-1.9C565.6,553.1,565.8,552.2,566.2,551.6z M579,443.4c0.4-1.8,0.9-4.1,1.3-7c0.4-2.9,0.8-5.8,0.9-8.6
			c0.2-2.8,0.1-5.3-0.3-7.3c-0.4-2-1.1-3.1-2.3-3.1c-2.4-0.1-4,1-4.9,3.3c-0.9,2.3-1.4,4.8-1.3,7.8c0,2.9,0.6,5.8,1.7,8.7
			C575.2,440,576.9,442.1,579,443.4z M575.8,512.7c0.4,0.2,0.7,0.2,0.9,0.1c0.2-0.1,0.2-0.1,0-0.1c0-0.6-0.5-0.8-1.5-0.5
			C575.1,512.3,575.3,512.5,575.8,512.7z M575.9,552.6c0.2,0.2,0.3,0.3,0.3,0.5c0,0.2,0.1,0.4,0.3,0.7c0.4,0.7,0.8,1.2,1.1,1.6
			c0.4,0.4,0.7,0.7,0.9,0.9c1,0.5,2.2,0.8,3.7,0.9c1.5,0.1,2.5,0,3.1-0.3c0.8-0.8,1.4-1,1.8-0.7c0,0.5,0.2,0.4,0.6-0.2
			c0-0.6,0.3-0.7,0.9-0.2c0.2,0.2,0.9-0.2,2.1-1.2c1-0.8,1.7-1.2,2.1-1.2c0.2,0.2,0.5,0.1,0.9-0.2c0-0.3,0.1-0.5,0.3-0.6
			c0.2-0.1,0.4,0,0.6,0.4c0.6,0.2,1.2-0.1,1.8-0.9c0.4-1,1-1.4,1.8-1.2c1.2,0.4,1.9,0,2.1-1.2c0.2-0.3,0.5-0.7,0.9-1.2
			c0.4-0.5,0.7-0.9,0.9-1.2c0.4-0.1,0.7-0.3,0.9-0.5c0.2-0.2,0.4-0.2,0.6-0.2l0.3,0c0,0.2,0.6,0.1,1.8-0.2c1.2-0.3,1.8-0.8,1.8-1.4
			c-0.4-0.7,0.3-1.7,2.1-3.1c3.2-2.5,5.1-4.6,5.7-6.2c0.2-0.3,0.5-0.8,0.9-1.6c0.4-0.7,0.8-1.3,1.2-1.8c0.2-0.2,0.5-0.5,0.9-1
			c0.4-0.5,0.8-1,1.2-1.7l1.9-7c-4.8,2.5-9.5,4.9-14.3,7.3c-4.8,2.4-9.2,4.8-13.2,7.1c-4.1,2.3-7.7,4.8-10.9,7.3
			C579.7,547,577.4,549.7,575.9,552.6z M580.6,497.7c0.6,0,0.9,0,1,0c0.1,0,0-0.2-0.4-0.5c-1.3-1.5-2-1.7-2.1-0.5
			C579.1,497.2,579.6,497.5,580.6,497.7z M580.5,514.2l0.6-0.7c0-0.3-0.2-0.7-0.6-1c-0.8,0-0.9,0.2-0.3,0.7l0,0.7
			C580.2,514.1,580.3,514.2,580.5,514.2z M588.3,494.7c-0.4-0.2-0.3-0.5,0.3-1c0.8-0.1,0.8-0.3,0-0.5c-1.2,0-1.6,0.4-1.2,1.4
			c0.4,0.3,0.8,0.5,1.2,0.5C588.9,495.2,588.9,495.1,588.3,494.7z M595.2,486.4c0.2,0.3,0.5,0.6,0.9,0.8c0.4,0.2,0.7,0.1,0.9-0.2
			l-0.3-0.3c-0.2-0.2-0.3-0.3-0.4-0.3c-0.1,0-0.2-0.1-0.4-0.3C595.2,485.8,595,485.9,595.2,486.4z M598,553.1c0,0.2,0.1,0.2,0.3,0.1
			c0.2-0.1,0.4-0.3,0.6-0.6c0-0.5-0.2-0.7-0.6-0.7c-0.2,0.2-0.3,0.3-0.3,0.5C597.4,552.8,597.4,553.1,598,553.1z M605.8,502
			c0.4,0,0.5-0.1,0.4-0.4c-0.1-0.2-0.2-0.4-0.4-0.4c-0.8,0-1.2,0.2-1.2,0.7c-0.6,0.5-0.6,0.7,0,0.7C605,502.7,605.4,502.4,605.8,502
			z M608.8,452.2c-0.6,0-0.9,0.1-0.9,0.5l0,0.5l0,0.2c0.2,0,0.6-0.2,1.2-0.7C609.3,452.7,609.2,452.5,608.8,452.2z M614.4,496.8
			c-0.8,0.3-1.2,0.5-1.2,0.7c0,0.3,0.1,0.5,0.3,0.6c0.2,0.1,0.4,0,0.6-0.4c0.8-0.1,1.3-0.3,1.5-0.5c0-0.3-0.1-0.6-0.3-0.7
			C615.1,496.4,614.8,496.5,614.4,496.8z M623.3,482.2l-0.6,0l0-0.2l-0.3,0l-0.6,0c-0.4,0.2-0.5,0.3-0.3,0.5c-0.4,0.3-0.4,0.6,0,1
			c0,0.8,0.3,0.8,0.9,0l0-0.7C623,482.7,623.2,482.5,623.3,482.2z M621.8,481.9c-0.2,0.2-0.3,0.3-0.3,0.5l0.6,0l0.3,0.3l0.3-0.5
			l-0.3-0.3L621.8,481.9z M625.6,482.8c0,0.2,0.1,0.3,0.3,0.4c0.2,0.1,0.3,0.2,0.3,0.4c0,0.2-0.3,0.2-0.9,0.2
			c-0.4,0-0.6-0.3-0.6-0.7C624.9,482.7,625.2,482.6,625.6,482.8z M631.1,474.6c-0.4-0.2-0.6-0.4-0.6-0.7c0.8,0,0.8-0.5,0-1.5
			c-0.2-0.7,0-0.7,0.6-0.2C632.4,473.8,632.4,474.7,631.1,474.6z M632.4,468.1c0.6,0,0.9,0.3,0.9,0.8c-0.2,0.2-0.3,0.3-0.3,0.4
			c0,0.1-0.1,0.2-0.3,0.4c-0.2,0.2-0.3,0.3-0.3,0.5c-0.6,0-0.9-0.3-0.9-0.8c0.2-0.3,0.4-0.6,0.6-0.7
			C632.3,468.4,632.4,468.2,632.4,468.1z"/>
	</g>
	<g class="st0">
		<path class="st1" d="M25.3,611.2c3.6,0,6.6,1.2,9,3.5s3.6,5.3,3.6,8.8c0,3.5-1.2,6.5-3.6,8.8c-2.4,2.4-5.4,3.6-8.9,3.6H14.8v14.6
			h-4.2v-39.3H25.3z M14.8,615.2V632h10.6c2.5,0,4.5-0.8,6.1-2.3c1.5-1.5,2.3-3.6,2.3-6.1c0-2.5-0.8-4.6-2.3-6.1
			c-1.5-1.5-3.5-2.3-6.1-2.3H14.8z"/>
		<path class="st1" d="M67.9,611.2H72v17.4h21.7v-17.4h4.2v39.3h-4.2v-18H72v18h-4.2V611.2z"/>
		<path class="st1" d="M162.4,645.2c-3.9,3.9-8.6,5.9-14.2,5.9c-5.6,0-10.3-2-14.2-5.9s-5.8-8.7-5.8-14.3s1.9-10.4,5.8-14.3
			c3.9-3.9,8.6-5.9,14.2-5.9c5.6,0,10.3,2,14.2,5.9c3.9,3.9,5.8,8.7,5.8,14.3S166.3,641.3,162.4,645.2z M137,642.5
			c3.1,3.1,6.8,4.7,11.3,4.7c4.5,0,8.2-1.6,11.3-4.7c3.1-3.1,4.6-7,4.6-11.6s-1.5-8.5-4.6-11.6c-3.1-3.1-6.8-4.7-11.3-4.7
			c-4.5,0-8.2,1.6-11.3,4.7c-3.1,3.1-4.6,7-4.6,11.6S133.9,639.4,137,642.5z"/>
		<path class="st1" d="M222.5,611.2v4h-12.2v35.4h-4.2v-35.4h-12.2v-4H222.5z"/>
		<path class="st1" d="M282.3,645.2c-3.9,3.9-8.6,5.9-14.2,5.9c-5.6,0-10.3-2-14.2-5.9s-5.8-8.7-5.8-14.3s1.9-10.4,5.8-14.3
			c3.9-3.9,8.6-5.9,14.2-5.9c5.6,0,10.3,2,14.2,5.9c3.9,3.9,5.8,8.7,5.8,14.3S286.1,641.3,282.3,645.2z M256.8,642.5
			c3.1,3.1,6.8,4.7,11.3,4.7c4.5,0,8.2-1.6,11.3-4.7c3.1-3.1,4.6-7,4.6-11.6s-1.5-8.5-4.6-11.6c-3.1-3.1-6.8-4.7-11.3-4.7
			c-4.5,0-8.2,1.6-11.3,4.7c-3.1,3.1-4.6,7-4.6,11.6S253.7,639.4,256.8,642.5z"/>
		<path class="st1" d="M321.7,616.6c3.9-3.9,8.6-5.9,14.2-5.9c2,0,3.9,0.3,5.7,0.8c1.8,0.6,3.3,1.2,4.5,2s2.2,1.6,3.1,2.4
			s1.5,1.5,1.9,2.1l0.6,0.9l-2.8,2.5c-0.1-0.2-0.3-0.4-0.5-0.7c-0.2-0.3-0.7-0.8-1.5-1.6c-0.8-0.8-1.7-1.4-2.6-2
			c-0.9-0.6-2.2-1.1-3.7-1.6c-1.5-0.5-3.1-0.7-4.8-0.7c-4.5,0-8.2,1.6-11.3,4.7c-3.1,3.1-4.6,7-4.6,11.6s1.5,8.5,4.6,11.6
			c3.1,3.1,6.8,4.7,11.3,4.7c1.6,0,3-0.2,4.5-0.6c1.4-0.4,2.6-0.8,3.5-1.3c0.9-0.5,1.7-1,2.4-1.5s1.2-0.9,1.5-1.3l0.5-0.5v-7.6h-8.9
			v-3.9h13.1V643c-0.1,0.2-0.4,0.5-0.7,0.9c-0.3,0.4-1,1-2,1.9s-2.1,1.8-3.3,2.5c-1.2,0.7-2.7,1.4-4.6,2c-1.9,0.6-3.8,0.9-5.8,0.9
			c-5.6,0-10.3-2-14.2-5.9s-5.8-8.7-5.8-14.3S317.9,620.5,321.7,616.6z"/>
		<path class="st1" d="M399.3,611.2c3.4,0,6.3,1.1,8.6,3.4c2.3,2.3,3.4,5.1,3.4,8.4c0,1.7-0.3,3.2-0.8,4.6c-0.6,1.4-1.2,2.5-2,3.3
			c-0.8,0.8-1.6,1.5-2.4,2s-1.5,0.9-2,1.1l-0.8,0.3l9.2,16.3h-4.7l-8.6-15.7h-11.1v15.7h-4.2v-39.3H399.3z M387.9,615.2v15.7h11.4
			c2.4,0,4.3-0.7,5.7-2.1s2.1-3.3,2.1-5.7c0-2.4-0.7-4.3-2.1-5.7s-3.3-2.1-5.7-2.1H387.9z"/>
		<path class="st1" d="M446.9,639.6l-4.5,10.9H438l16.1-39.3h3.9l16.1,39.3h-4.4l-4.5-10.9H446.9z M456.1,617.1l-7.5,18.5h15
			L456.1,617.1z"/>
		<path class="st1" d="M517.2,611.2c3.6,0,6.6,1.2,9,3.5s3.6,5.3,3.6,8.8c0,3.5-1.2,6.5-3.6,8.8c-2.4,2.4-5.4,3.6-8.9,3.6h-10.6
			v14.6h-4.2v-39.3H517.2z M506.7,615.2V632h10.6c2.5,0,4.5-0.8,6.1-2.3c1.5-1.5,2.3-3.6,2.3-6.1c0-2.5-0.8-4.6-2.3-6.1
			c-1.5-1.5-3.5-2.3-6.1-2.3H506.7z"/>
		<path class="st1" d="M559.8,611.2h4.2v17.4h21.7v-17.4h4.2v39.3h-4.2v-18H564v18h-4.2V611.2z"/>
		<path class="st1" d="M634.6,632.3l11.7-21.1h4.8l-14.5,25.6v13.8h-4.2v-13.8l-14.4-25.6h4.7l11.7,21.1H634.6z"/>
	</g>
	<g>
		<polygon points="406.7,277.7 406.7,277.7 406.7,277.7 		"/>
	</g>
	<g>
		<path class="st2" d="M324.5,59.6c-51.6-1.2-95.9,41.9-96.4,93.8s43,95.8,94.7,95.4c51.1-0.4,93-42.4,93.3-93.7
			S375.1,60.8,324.5,59.6z M304.4,171.4c-15.7,0.1-28.9-13.2-28.7-29s13.6-28.8,29.3-28.5c15.3,0.3,27.9,13.5,27.8,29
			C332.6,158.6,320,171.2,304.4,171.4L304.4,171.4z M349.7,188.5c-10.2,0.1-18.5-8-18.7-18.2c-0.1-10.2,8-18.5,18.2-18.7
			c10.2-0.1,18.5,8,18.7,18.2c0,0.1,0,0.3,0,0.4C367.7,180.2,359.7,188.3,349.7,188.5L349.7,188.5z"/>
	</g>
	<g>
		<path class="st3" d="M387.2,34.2c-3.8-7.1-7.6-14.2-11.5-21.3c-0.7-0.8-1.8-1.3-2.9-1.3c-33.3-0.1-66.6-0.1-99.9,0
			c-1,0-2,0.4-2.6,1.2c-3.3,6.6-6.4,13.2-10,20.7c20.6-10.4,41.6-15.3,63.7-15.1S367.1,24.1,387.2,34.2z"/>
	</g>
	<g>
		<path class="st3" d="M322.7,33.8c-66.1-0.1-120,53.4-120.1,119.3c-0.1,66.4,53.6,120.3,119.8,120.2
			c66.1-0.1,119.6-53.6,119.7-119.7C442.1,87.7,388.4,33.9,322.7,33.8z"/>
	</g>
	<g>
		<rect x="105.4" y="244.9" width="139.5" height="16.2"/>
	</g>
	<g>
		<rect x="406.4" y="47.8" width="139.5" height="15.7"/>
	</g>
	<g>
		<path d="M104.8,261.2l-0.3-140c-0.2-13.9-0.4-27.8-0.6-41.7c10.3,60.5,20.6,121,30.8,181.6L104.8,261.2z"/>
	</g>
	<g>
		<path class="st3" d="M322.7,33.8c-66.1-0.1-120,53.4-120.1,119.3c-0.1,66.4,53.6,120.3,119.8,120.2
			c66.1-0.1,119.6-53.6,119.7-119.7C442.1,87.7,388.4,33.9,322.7,33.8z"/>
	</g>
	<g>
		<path class="st3" d="M387.2,34.2c-3.8-7.1-7.6-14.2-11.5-21.3c-0.7-0.8-1.8-1.3-2.9-1.3c-33.3-0.1-66.6-0.1-99.9,0
			c-1,0-2,0.4-2.6,1.2c-3.3,6.6-6.4,13.2-10,20.7c20.6-10.4,41.6-15.3,63.7-15.1S367.1,24.1,387.2,34.2z"/>
	</g>
	<g>
		<path d="M220.7,64.5l18.6-17.7C237.8,47.6,230,52.2,220.7,64.5z"/>
	</g>
	<g>
		<path d="M220.7,64.5c9.3-12.3,17.1-16.9,18.6-17.7l0.3-0.1v-0.1v-0.1c-0.6,0.3-1.3,0.7-1.8,1.1c-3,1.9-9.2,6.6-16.4,15.9
			c-0.3,0.4-0.7,0.8-1,1.3h0.1h0.1C220.5,64.8,220.6,64.6,220.7,64.5z"/>
	</g>
	<g>
		<path class="st3" d="M387.2,34.2c-3.8-7.1-7.6-14.2-11.5-21.3c-0.7-0.8-1.8-1.3-2.9-1.3c-33.3-0.1-66.6-0.1-99.9,0
			c-1,0-2,0.4-2.6,1.2c-3.3,6.6-6.4,13.2-10,20.7c20.6-10.4,41.6-15.3,63.7-15.1S367.1,24.1,387.2,34.2z"/>
	</g>
	<g>
		<path class="st3" d="M442.1,153.5c0-65.8-53.7-119.6-119.4-119.7c-66.1-0.1-120,53.4-120.1,119.3
			c-0.1,66.4,53.6,120.3,119.8,120.2C388.5,273.1,442,219.6,442.1,153.5z"/>
	</g>
	<g>
		<path d="M400.2,263.6c0.7-0.5,1.3-1,1.9-1.6c9.2-7.9,19-15.5,26.4-25.2c7-8.9,12.8-18.7,17.5-29c7.4-16.7,11.2-34.7,11.3-53
			c0.3-34.5-11.2-64.7-34-91.3h39.8l0,0l18.4-0.1c-0.8-5.2-1.6-10.3-2.4-15.5H475c-21.5,0-43.1,0-64.6,0c-1.9,0-3.1-0.3-4-2.2
			c-7.6-14.4-15.3-28.7-22.9-43c-1-1.9-2.1-2.8-4.4-2.8c-37.5,0.1-75,0.1-112.5,0c-1.9-0.2-3.7,0.9-4.4,2.7
			c-6.3,13.3-12.6,26.7-19.2,39.8c-0.8,1.6-2,3-3.5,4.1v0.1l-0.3,0.1l-18.6,17.7c-0.1,0.1-0.2,0.3-0.3,0.4h-0.1
			c-21.9,26.2-33.3,55.9-33,89.9c0.3,34.6,12.6,64.6,35.9,90.7H181l-17.2-0.1l2,15.6h4.2c22,0,44,0,65.9,0c3-0.1,5.9,0.9,8.3,2.7
			c18.1,13,39.2,21.2,61.3,24c22,2.7,44.3,0,65-7.8C380.8,275.7,391.4,270.7,400.2,263.6z M270.3,12.8c0.7-0.8,1.6-1.2,2.6-1.2
			c33.3,0,66.6,0,99.9,0c1.1,0,2.2,0.5,2.9,1.3c3.9,7,7.7,14.2,11.5,21.3c-20.1-10.1-41-15.5-63.3-15.8s-43.1,4.7-63.7,15.1
			C263.8,26,267,19.4,270.3,12.8z M322.4,273.2c-66.3,0.1-119.9-53.7-119.8-120.2c0.1-65.8,54-119.3,120.1-119.3
			c65.7,0.1,119.4,54,119.4,119.7C442,219.6,388.5,273.1,322.4,273.2z"/>
	</g>
	<g>
		<polygon points="427.2,242.9 427.2,242.9 427.2,242.9 		"/>
	</g>
	<g>
		<path d="M425,244.8l-20.2,17.6C409.3,259.1,420.3,249.1,425,244.8z"/>
	</g>
	<g>
		<path d="M545.9,47.8c0.5,46.7,0.9,93.4,1.4,140.1l0.9,41.7C537.6,169,527,108.4,516.4,47.8L545.9,47.8z"/>
	</g>
	<g>
		<path class="st2" d="M457,39.8l1.8-14.1h28.4c0.7,4.7,1.5,9.4,2.2,14.1H457z"/>
	</g>
</g>
</svg>
