<?xml version="1.0" encoding="utf-8"?>
<!-- Generator: Adobe Illustrator 23.0.1, SVG Export Plug-In . SVG Version: 6.00 Build 0)  -->
<svg version="1.1" id="Layer_1" xmlns="http://www.w3.org/2000/svg" xmlns:xlink="http://www.w3.org/1999/xlink" x="0px" y="0px"
	 viewBox="0 0 1038.1 567.3" style="enable-background:new 0 0 1038.1 567.3;" xml:space="preserve">
<style type="text/css">
	.st0{fill:#149030;}
	.st1{fill:#49B260;}
</style>
<title>project4</title>
<g>
	<g>
		<path class="st0" d="M308.2,384.8H368c13.1,0,24,4.2,32.7,12.6c8.7,8.4,13,18.8,13,31.1c0,5.8-1,11.2-3,16.3
			c-2,5.1-4.4,9-7.1,11.9c-2.8,2.9-5.5,5.4-8.3,7.6c-2.8,2.2-5.2,3.7-7.1,4.5l-2.9,1.3l32.5,56.8h-24.4L363,472.1h-32.5v54.8h-22.3
			V384.8z M384.6,411.8c-4.5-4.5-10-6.7-16.6-6.7h-37.6v46.7H368c6.6,0,12.1-2.2,16.6-6.7c4.5-4.5,6.7-10,6.7-16.6
			C391.3,421.8,389.1,416.2,384.6,411.8z"/>
		<path class="st0" d="M593.1,506.5v20.3H490.7V384.8h100.5v20.3H513v37.6h61.9V463H513v43.6H593.1z"/>
		<path class="st0" d="M792.9,384.8h19.3v142.1h-22.3V423.4l-51.8,64.9l-51.7-64.9v103.4h-22.3V384.8h19.2l54.8,69.1L792.9,384.8z"
			/>
		<path class="st0" d="M956.1,475.3c-2.8-2.9-6.4-5.3-10.8-6.9c-4.4-1.7-9.3-3.2-14.6-4.6c-5.3-1.4-10.7-3-16.1-5
			c-5.3-2-10.2-4.4-14.6-7.1c-4.4-2.8-8-6.7-10.8-11.8c-2.8-5.1-4.2-11.3-4.2-18.5c0-11,4.2-20.1,12.6-27.5c8.4-7.4,19.8-11,34.1-11
			c5.3,0,10.4,0.6,15.2,1.9c4.9,1.3,8.9,2.8,12.1,4.6c3.2,1.8,6,3.5,8.4,5.3c2.4,1.8,4.2,3.3,5.3,4.5l1.6,2l-14.2,14.3
			c-0.3-0.3-0.6-0.7-1.1-1.3c-0.5-0.6-1.6-1.6-3.4-3c-1.8-1.4-3.6-2.6-5.6-3.7c-2-1.1-4.7-2.1-7.9-2.9c-3.3-0.9-6.7-1.3-10.4-1.3
			c-7.3,0-13.2,1.8-17.7,5.4c-4.5,3.6-6.7,7.9-6.7,12.8c0,4.4,1.4,8,4.2,11c2.8,3,6.4,5.3,10.8,7c4.4,1.7,9.3,3.2,14.6,4.6
			c5.4,1.4,10.7,3,16.1,5c5.4,1.9,10.2,4.3,14.6,7.1c4.4,2.8,8,6.7,10.8,11.9c2.8,5.2,4.2,11.3,4.2,18.4c0,12.6-4.5,22.8-13.5,30.7
			c-9,7.9-21.4,11.9-37.3,11.9c-6.5,0-12.6-0.8-18.5-2.3c-5.8-1.6-10.7-3.4-14.4-5.5c-3.8-2.1-7-4.3-9.8-6.5c-2.8-2.2-4.8-4-6-5.4
			l-2-2.5l14.2-14.2c0.3,0.4,0.7,1,1.3,1.7c0.6,0.8,2,2.1,4.3,4c2.2,1.9,4.6,3.5,7.2,5c2.6,1.4,6,2.7,10.3,3.9s8.8,1.7,13.5,1.7
			c8.8,0,15.7-2.1,20.8-6.4c5.1-4.3,7.6-9.6,7.6-16C960.3,481.9,958.9,478.2,956.1,475.3z"/>
	</g>
	<g id="XMLID_1_">
		<path id="XMLID_3_" class="st1" d="M983.8,277.4c-10-4.4-23.9-4.2-30.7,5.5c-1.4,2-4,3.1-6.9,5.3c0-4.6,0-7.6,0-11.1
			c-204.1,0-407.9,0-611.6,0c-1.4-13-8.2-20.8-20.1-22.2c-3.7-0.4-7.9,0.5-11.3,2.1c-7,3.3-9.3,10.4-11.5,17.3
			c-0.6-0.2-1-0.3-1.3-0.5c-4.4-3.6-8.9-7.1-13.1-10.9c-2.2-2-3.9-2.2-6.4-0.7c-4.5,2.7-9.2,5.1-13.9,7.5c-3.5,1.8-7.2,3.3-10.8,4.9
			c0.6-1.9,1.6-3.2,2.6-4.4c20.6-24.1,24-51.6,14.3-80.8c-17.3-52-87.3-69.1-128.8-31.7c-17.3,15.6-26.4,35-26.7,58.4
			c-0.1,4.8,0,9.6,0,14.6c-35.2-9.7-83.6,14.6-86,62.4c-0.9,18.2,3.6,35,15.6,49.1c18.8,22.1,42.9,28.8,71,23.7
			c-6.6,41.6,19.1,74.3,45.5,85.9c31.8,14,67.2,9.1,90-15.7c33.4-36.3,31.5-74.7,2.5-113.6c2.2,1,4.2,1.7,6.1,2.7
			c6.3,3.2,12.5,6.4,18.7,9.8c2.3,1.2,4.1,1.1,6.2-0.8c4.6-4.1,9.5-8,14.7-12.3c1.5,6.3,2.7,12.2,7.9,16.3c5.2,4,11,5.2,17.2,4
			c10.1-1.9,16.4-10.3,16.8-21.9c161.1,0.6,322,1.1,483.2,1.7c0,0.1,0,0.2,0,0.2h129.2c0-1.2-0.1-2.2,0-3.1c0.2-1.9,0.6-3.8,1-5.7
			c1.7,1.1,3.5,2.2,5.2,3.4c0.9,0.6,1.6,1.5,2.3,2.2c5.9,5.7,12.8,7.7,20.9,6.3c11.2-1.9,20-11.1,21.6-22.4
			C998.6,293.2,992.3,281.1,983.8,277.4z M192.8,274.3c0.3,2.2,0.1,4.4,0.1,6.7c-0.5,0.2-1,0.5-1.4,0.7c-1.8-1.4-4-2.6-5.2-4.4
			c-8-11.8-23.6-8.5-30.6,2.4c-7,11.1-6.7,28.2,0.9,38.4c8.2,11,21.3,11.3,29.9,0.8c1.3-1.6,3.1-2.7,4.6-4.1
			c0.4,0.2,0.8,0.4,1.1,0.6c0,4.1,0,8.1,0,12.6c19.8,3.4,34.8,13.1,42.4,32c5.4,13.4,5.1,27.1-1.2,40.2
			c-12.6,26.6-45.3,37.2-70.7,22.8c-14.9-8.4-23.5-21.5-25.8-38.3c-2.4-16.9,4.3-31,15.9-43.3c-9.2-8.1-18.1-16-26.9-23.8
			c-3.2,3-6.1,5.9-9.3,8.7c-12.9,11.3-27.2,13.2-41.7,5.8c-15.1-7.7-23.6-22.6-22.1-38.8c1.6-16.9,18-32.3,35.2-33.4
			c14.3-0.9,25.6,4.5,34.3,15.7c0.7,1,1.5,1.9,2.7,3.4c9.4-8.1,18.5-15.9,26.9-23.1c-4.2-7.7-9-14.7-12.1-22.4
			c-13.1-33.1,15.5-67.5,48.2-66.6c25.5,0.7,47.3,19.9,50.2,44.6c3,26.2-13.4,49.3-39.9,55.5C194,268.2,192.2,269.8,192.8,274.3z"/>
		<polygon id="XMLID_2_" class="st1" points="689.3,300.9 689.3,200.9 730.2,186.6 750.6,200.9 750.6,293.7 758,293.7 758,130.6 
			811.5,130.6 811.5,291.8 819.3,291.8 819.3,39.7 879.1,72 879.1,170.1 846.1,186.3 846.1,293.2 852.3,293.2 852.3,192.1 
			879.1,180.4 918.4,180.4 918.4,293.2 		"/>
	</g>
</g>
</svg>
