<?xml version="1.0" encoding="utf-8"?>
<!-- Generator: Adobe Illustrator 23.0.1, SVG Export Plug-In . SVG Version: 6.00 Build 0)  -->
<svg version="1.1" id="Layer_1" xmlns="http://www.w3.org/2000/svg" xmlns:xlink="http://www.w3.org/1999/xlink" x="0px" y="0px"
	 viewBox="0 0 988.4 395.8" style="enable-background:new 0 0 988.4 395.8;" xml:space="preserve">
<style type="text/css">
	.st0{fill:#274B5B;}
</style>
<title>poject3</title>
<g>
	<g>
		<path class="st0" d="M533.3,280.7c-4.5,7.3-11.1,13.2-19.9,17.7c-8.8,4.4-19.4,6.7-32,6.7c-12.4,0-23.5-2.1-33.3-6.2
			c-9.8-4.1-17.6-10-23.5-17.8c-5.9-7.7-9.2-16.8-10-27.1h37.2c0.8,6.9,3.7,12.7,8.6,17.3c4.9,4.6,11.4,6.9,19.5,6.9
			c7.3,0,12.9-1.9,16.8-5.7c3.9-3.8,5.8-8.7,5.8-14.6c0-5.3-1.6-9.7-4.7-13.2c-3.1-3.5-7.1-6.3-11.9-8.4c-4.8-2.1-11.4-4.5-19.9-7.3
			c-10.9-3.5-19.9-7.1-26.8-10.5c-6.9-3.5-12.9-8.5-17.7-15.1c-4.9-6.6-7.3-15.3-7.3-25.9c0-14.7,5.4-26.3,16.3-34.7
			c10.8-8.5,25.2-12.7,43.1-12.7c18.5,0,33.3,4.4,44.3,13.1c11,8.7,17.2,20.3,18.7,34.9h-37.7c-1-6.1-3.6-11.2-7.9-15.1
			c-4.3-4-10.2-5.9-17.6-5.9c-6.5,0-11.7,1.7-15.6,5c-4,3.3-6,8.1-6,14.4c0,5,1.5,9.2,4.6,12.5c3.1,3.3,6.9,6,11.7,8.1
			c4.7,2.1,11.1,4.4,19.2,7c11.2,3.9,20.4,7.5,27.4,10.9c7,3.4,13,8.5,18,15.3s7.4,15.7,7.4,26.6C540,265.3,537.8,273.3,533.3,280.7
			z"/>
		<path class="st0" d="M600.8,132.4v170.9h-35V132.4H600.8z"/>
		<path class="st0" d="M821.4,134.3v169h-34.7V185.4l-44.4,117.9H712l-44.4-117.4v117.4h-35v-169H675l52.6,127.1l51.6-127.1H821.4z"
			/>
		<path class="st0" d="M966.8,280.7c-4.5,7.3-11.1,13.2-19.9,17.7c-8.8,4.4-19.4,6.7-32,6.7c-12.4,0-23.5-2.1-33.3-6.2
			c-9.8-4.1-17.6-10-23.4-17.8c-5.9-7.7-9.2-16.8-10-27.1h37.2c0.8,6.9,3.7,12.7,8.6,17.3c4.9,4.6,11.4,6.9,19.5,6.9
			c7.3,0,12.9-1.9,16.8-5.7c3.9-3.8,5.8-8.7,5.8-14.6c0-5.3-1.6-9.7-4.7-13.2c-3.1-3.5-7.1-6.3-11.9-8.4c-4.8-2.1-11.4-4.5-19.9-7.3
			c-10.9-3.5-19.9-7.1-26.8-10.5c-6.9-3.5-12.9-8.5-17.7-15.1c-4.9-6.6-7.3-15.3-7.3-25.9c0-14.7,5.4-26.3,16.3-34.7
			c10.8-8.5,25.2-12.7,43.1-12.7c18.5,0,33.3,4.4,44.3,13.1c11,8.7,17.2,20.3,18.7,34.9h-37.7c-1-6.1-3.6-11.2-7.9-15.1
			c-4.3-4-10.2-5.9-17.6-5.9c-6.5,0-11.7,1.7-15.6,5c-4,3.3-6,8.1-6,14.4c0,5,1.5,9.2,4.6,12.5c3.1,3.3,6.9,6,11.7,8.1
			c4.7,2.1,11.1,4.4,19.2,7c11.2,3.9,20.4,7.5,27.4,10.9c7,3.4,13,8.5,18,15.3c5,6.8,7.4,15.7,7.4,26.6
			C973.5,265.3,971.3,273.3,966.8,280.7z"/>
	</g>
	<path class="st0" d="M318.6,308.8c-17.1-8.6-33.5-16.8-49.3-24.7c28.8-60.9,57.9-122.6,86.8-183.8c17,8.3,33.6,16.4,49.6,24.1
		C377.2,184.8,348.1,246.4,318.6,308.8z"/>
	<path class="st0" d="M413.1,113.3c-17.1-8.6-33.7-16.8-51.1-25.6c6.1-12,12-25.6,19.6-38c7.4-12,25-15.2,37.1-8.3
		c12.5,7.2,17.6,21.9,11.8,35.3C425.1,89.1,419,101,413.1,113.3z"/>
	<path class="st0" d="M261.6,294.5c17.9,8.7,34.6,16.9,52.1,25.5c-1.4,1.6-2.8,3.5-4.5,5c-13,11.5-26.1,23-39.3,34.2
		c-2.1,1.8-5.5,2-8.2,3c-0.9-2.6-2.5-5.2-2.5-7.8C259.8,334.6,260.8,314.8,261.6,294.5z"/>
	<path class="st0" d="M31.4,304.2c0-67.3,0-134.8,0-202.5c2.7,0,5.6,0,8.9,0c0,1.3,0,2.6,0,4c0,57.6,0,115.1,0,172.7
		c0,1.1,0,2.1,0,3.2c0.1,6,2.9,8.6,8.8,8c8.7-0.9,17.4-2,26.1-3.1c22.9-2.7,45.7-5.6,68.7-7.8c16.2-1.6,32,1.5,46.7,8.6
		c4.9,2.4,8.9,2.5,13.8,0.1c11.4-5.6,23.3-8.3,35.6-8.9l6.6-13.4c-12.9-0.2-25.6,1.8-38,6.1c-1.3,0.5-2.6,0.9-4.4,1.5
		c0-1.8,0-2.9,0-4.1c0-62.5,0-124.9-0.1-187.4c0-3.1,0.9-4.5,3.7-5.6c17-7,34.5-8.5,52.6-6.2c23,2.9,46,5.5,68.9,8.2
		c3,0.3,5.9,0.7,9,1.1l6.2-12.6c-3.2-0.4-6.4-0.7-9.6-1.1c-24.7-2.9-49.5-5.6-74.2-8.7c-20.8-2.6-40.8-0.3-60,8.2
		c-2.2,1-4,1.1-6.2,0c-18.7-8.4-38.3-10.9-58.6-8.5c-29.4,3.5-58.8,6.9-88.1,10.4c-5.3,0.6-7.4,2.9-7.5,8.2c0,4.4,0,8.8,0,13.5
		c-4.7,0-9,0.2-13.3,0c-4.2-0.2-7.3,1.1-9.2,5c0,73.3,0,146.5,0,219.8c1.7,3.6,4.4,5,8.4,5c64.8,0,129.6,0,194.4,0l6.7-13.6
		C162.1,304.2,96.8,304.2,31.4,304.2z M53.8,79.1c11.5-1.4,23-2.8,34.4-4.1c17.4-2,34.8-4.1,52.2-6c16.6-1.8,32.6,0.7,48,7.3
		c1.7,0.7,2.6,1.5,2.6,3.6c-0.1,63.6,0,127.3-0.1,190.9c0,0.6-0.1,1.1-0.2,2.2c-10.7-4-21.2-6.4-32.1-7.4c-11.8-1-23.3,0.7-34.9,2
		c-22.8,2.6-45.5,5.4-68.2,8c-0.5,0.1-0.9,0-1.7,0C53.8,210.1,53.8,144.7,53.8,79.1z"/>
	<path class="st0" d="M71.6,202.5c14.6-1.7,29.3-3.4,43.9-5.2c20-2.4,39.9-5.7,59.9-0.3c4.1,1.1,7.4-1.1,8.2-4.6
		c0.9-3.9-1.2-7.3-5.7-8.1c-9-1.7-18.2-3-27.2-4.4c-0.1,0.2-0.1,0.5-0.2,0.7c-3.2,0.2-6.3,0.2-9.4,0.6c-23.6,2.7-47.1,5.4-70.7,8.1
		c-4.8,0.6-7.5,3.4-7.2,7.4C63.5,200.7,66.8,203,71.6,202.5z"/>
	<path class="st0" d="M71.5,111.4c17.5-2,35.1-3.9,52.6-6.1c17-2.2,33.9-3.9,50.8,0.8c4.3,1.2,7.9-1.1,8.7-4.8
		c0.8-3.9-1.4-7.2-5.9-8c-8.3-1.5-16.6-2.8-24.8-4.1c0,0.2-0.1,0.3-0.1,0.5c-2.8,0.1-5.6,0.1-8.4,0.4c-16.3,1.7-32.5,3.5-48.8,5.3
		c-8.7,1-17.4,2.1-26.1,3.2c-3.2,0.4-5.5,2-6.1,5.3C62.4,108.6,65.9,112,71.5,111.4z"/>
	<path class="st0" d="M71.1,172.2c16.5-1.9,33-3.9,49.4-5.8c14.6-1.7,29.2-4.2,44-1.7c4,0.7,8,1.5,11.4,2.2c4.2,0.2,7-1.8,7.6-5
		c0.7-3.6-1.1-6.9-5-7.7c-7.2-1.4-14.5-3.3-21.7-3.4c-11.1-0.1-22.2,0.9-33.2,2c-18,1.8-36,4.1-54,6.3c-4.5,0.5-7,3.6-6.5,7.5
		C63.7,170.3,66.9,172.7,71.1,172.2z"/>
	<path class="st0" d="M178,214.6c-14.3-3.6-28.8-4.3-43.5-2.5c-14.8,1.9-29.7,3.5-44.6,5.2c-6.7,0.8-13.5,1.5-20.2,2.4
		c-4.6,0.6-7,3.7-6.5,7.5c0.5,3.8,3.4,5.8,8,5.6c0.5,0,0.9,0,1.4-0.1c14.7-1.7,29.5-3.5,44.2-5.2c11.1-1.3,22.3-2.5,34.7-3.8
		c7.1,1.1,15.3,2.4,23.5,3.7c4.4,0.7,7.7-1,8.6-4.5C184.5,219.1,182.3,215.7,178,214.6z"/>
	<path class="st0" d="M70.9,141.9c18.1-2.1,36.2-4.2,54.3-6.4c13.4-1.6,26.7-3.4,40.2-1c3.8,0.7,7.5,1.5,10.7,2.1
		c4.2,0.1,7-1.9,7.5-5.1c0.6-3.6-1.1-6.6-5-7.7c-10.4-2.9-21.1-4.3-31.9-3.6c-12.3,0.9-24.7,2.4-37,3.8c-13.5,1.5-26.9,3.1-40.4,4.8
		c-4.3,0.5-6.7,3.6-6.1,7.5C63.7,139.9,66.9,142.3,70.9,141.9z"/>
	<path class="st0" d="M217.6,214.5c-4.7,1.3-7.1,4.2-6.2,8.1c0.9,4,4.1,5.5,9.1,4.7c7-1.1,14.1-3,21.1-2.8c8,0.3,16.1,1,24.1,1.8
		l6.3-12.9c-2.1-0.3-4.3-0.5-6.4-0.8C249.5,210.6,233.4,210.2,217.6,214.5z"/>
	<path class="st0" d="M243.1,149.8c-7.8,1.3-17.3,2.6-26.6,4.4c-3.9,0.7-5.9,4-5.2,7.5c0.7,3.6,3.4,5.5,7.5,5.2
		c1-0.1,2.1-0.4,3.1-0.5c8.6-0.9,17.3-3.1,25.7-2.4c15.5,1.3,31,3,46.4,4.8l6.2-12.6c-7-0.8-14.1-1.7-21.1-2.5
		C267.8,152.3,256.4,151.2,243.1,149.8z"/>
	<path class="st0" d="M243.6,180.1c-7.5,1.1-15.9,2.2-24.3,3.6c-6.3,1.1-8.9,4.2-7.9,8.5c1,4.4,4.6,5.9,10.8,4.4
		c8.9-2.2,18-3.3,27.1-2.4c10.2,1,20.4,2.1,30.6,3.3l6.2-12.7c-2.5-0.3-5.1-0.6-7.6-0.9C267.2,182.6,256,181.5,243.6,180.1z"/>
	<path class="st0" d="M322.1,98c-15.2-1.8-30.4-3.6-45.6-5.3c-11.3-1.3-22.5-2.3-34.4-3.6c-8.1,1.3-16.6,2.6-25.1,4.2
		c-3,0.5-5.5,2.3-5.6,5.4c0,2.1,0.9,4.9,2.4,6c1.7,1.2,4.6,1.5,6.8,1.1c9.7-2,19.4-3.7,29.2-2.7c19.3,2,38.6,4.3,57.8,6.5
		c4.9,0.6,9.7,1.2,14.6,1.6l5.9-12c-0.6-0.3-1.2-0.5-1.9-0.7C324.9,98.3,323.5,98.2,322.1,98z"/>
	<path class="st0" d="M245.6,119.6c0,0.2,0,0.5,0,0.7c-3.2,0-6.4-0.3-9.5,0.1c-6.5,0.9-12.9,1.9-19.3,3.3c-4.2,0.9-6.2,4.1-5.4,7.7
		c0.8,3.8,3.8,5.7,8.2,5.1c0.7-0.1,1.4-0.3,2-0.5c9.3-2.1,18.7-3.6,28.2-2.5c19.5,2.1,38.9,4.3,58.4,6.5l6.2-12.6
		c-11.9-1.4-23.8-2.8-35.6-4.2C267.7,122,256.6,120.8,245.6,119.6z"/>
	<line class="st0" x1="365.9" y1="37" x2="365.9" y2="37"/>
</g>
</svg>
