<?xml version="1.0" encoding="utf-8"?>
<!-- Generator: Adobe Illustrator 23.0.1, SVG Export Plug-In . SVG Version: 6.00 Build 0)  -->
<svg version="1.1" id="Layer_1" xmlns="http://www.w3.org/2000/svg" xmlns:xlink="http://www.w3.org/1999/xlink" x="0px" y="0px"
	 viewBox="0 0 988.4 395.8" style="enable-background:new 0 0 988.4 395.8;" xml:space="preserve">
<style type="text/css">
	.st0{fill:#32CD33;}
	.st1{fill:#29ABE2;}
	.st2{enable-background:new    ;}
</style>
<title>project9</title>
<g>
	<g>
		<path class="st0" d="M340.1,183.7c2.7,0.4,5.4,0.7,8.1,1.3c6.7,1.5,12.8,4.2,16.9,10c1.3,1.8,2.5,3.7,3.3,5.7
			c4.8,12.2,5.3,25.7,1.4,38.2c-1.9,6.2-5.5,11.8-10.4,16.1c-7.4,6.8-16.2,10.3-26.3,9.5c-5.6-0.4-10.9-2.2-15.6-5.2
			c-4.4-2.8-8.1-6.4-11.1-10.7c-3.9-5.6-6.4-12.1-7-18.9c-0.3-3.5-0.9-7-0.5-10.4c0.6-5.5,1.2-11.2,2.9-16.4
			c2.9-9,9.3-14.9,18.5-17.3c3.5-0.9,7.2-1.3,10.8-2L340.1,183.7z"/>
	</g>
	<g>
		<path class="st0" d="M87.7,181.7c2.7,0.4,5.4,0.7,8.1,1.3c6.7,1.5,12.8,4.2,16.9,10c1.3,1.7,2.4,3.6,3.3,5.6
			c4.8,12.2,5.3,25.7,1.4,38.3c-1.9,6.2-5.5,11.8-10.4,16.1c-7.4,6.8-16.2,10.3-26.3,9.5c-5.6-0.4-10.9-2.2-15.6-5.2
			c-10.2-6.6-16.9-17.5-18.1-29.6c-0.3-3.5-0.9-7-0.5-10.4c0.6-5.5,1.2-11.2,2.9-16.4c2.9-9,9.3-14.9,18.5-17.3
			c3.5-0.9,7.2-1.3,10.8-2L87.7,181.7z"/>
	</g>
	<g>
		<path class="st0" d="M404.1,311.1c-0.5-6.6-0.9-13.2-3.8-19.3c-1-2.2-2.2-4.3-3.5-6.3c-4-6.1-10.2-9.3-16.8-11.8
			c-7.5-2.7-15.3-4.6-23.1-5.7c-0.7-0.1-1.3,0-1.9,0.4c-4.2,3.8-9.3,5.5-14.8,6c-8.4,0.8-16.4-0.1-23.4-5.6c-0.5-0.5-1.2-0.9-2-0.9
			c-10.1,1.8-20.2,3.7-29.5,8.4c-0.4,0.2-0.7,0.4-1.1,0.6c12.9,2.6,24.3,9.9,33.2,21.2c10.6,13.5,17,32.3,18.1,51.2h1.6
			c15.8-0.2,33.3-1.2,50.1-7.2c6.4-2.3,12.7-5.1,17.1-10.7c0.5-0.6,0.8-1.4,0.9-2.2C404.7,323.2,404.5,317.1,404.1,311.1z"/>
	</g>
	<g>
		<path class="st0" d="M135.4,275.3c-2.5-1.4-5.1-2.6-7.8-3.6c-7.5-2.7-15.3-4.6-23.2-5.7c-0.7-0.1-1.3,0-1.9,0.4
			c-4.2,3.8-9.3,5.5-14.8,6c-8.4,0.9-16.5-0.1-23.4-5.6c-0.6-0.5-1.4-1-2-0.9c-10.1,1.8-20.2,3.6-29.5,8.4
			c-7,3.4-12.4,9.4-14.9,16.8c-1.6,4.6-2.6,9.4-3.1,14.3c-0.7,7.3-0.7,14.7-1,22.1c0,0.8,0.3,1.6,0.8,2.2c2.9,3.2,6.4,5.7,10.3,7.6
			c7.1,3.4,14.7,5.8,22.5,7.1c10.8,1.9,21.7,2.8,32.6,2.9c1.3-18.4,7.7-36.8,18.1-50.1C107.8,284.7,120.7,277.2,135.4,275.3z"/>
	</g>
	<g>
		<path class="st1" d="M329.5,365.9c-0.5-9.3-0.8-14.5-1.8-20.3c-1-5.7-2.4-11.3-4.3-16.8l0,0c0.5,1.5,1,2.9,1.4,4.4
			c3.5,11.3-0.7,21.7-10.8,28c-9.3,5.9-19.5,9.2-30,11.3c-0.3,0.6-0.6,1.2-0.9,1.8c-1.8,3.4-5.2,5.8-9.1,6.3
			c-1.9,0.3-3.9,0.4-5.8,0.6l-1.8,0.1c-0.6,0-1.1,0.2-1.6,0.5c-0.6,0.4-1.3,0.7-2,0.9c-0.3,0.1-0.5,0.2-0.7,0.2l-0.3,0.1l-2-0.4
			l-0.2-0.1c-1.6-0.9-2.7-2.6-2.7-4.4c0-0.6,0.1-1.1,0.2-1.6c-4,0.5-8,0.9-12.1,1.2c-0.4,0.4-0.9,0.7-1.4,0.9
			c-0.3,0.1-0.7,0.2-1,0.3l-0.7,0.2l-2.1-0.4l-0.2-0.1l-0.6-0.4c-34.5,2.7-69.2,1.1-103.3-4.9c-10.5-1.9-20.7-5.1-30.5-9.4
			c-15.7-6.8-20.3-18.3-14.9-34.5c0.3-1,0.7-2,1.1-3l0,0c-5.6,15.3-7.7,31.6-6.1,47.8c0,0,47.5,23.7,121.7,21.4
			c41.9,0.7,83.6-6.4,122.8-21.1C329.8,372.5,329.7,369.5,329.5,365.9z"/>
	</g>
	<g>
		<path class="st1" d="M105.3,364c9.8,4.3,20,7.4,30.5,9.4c34.1,6,68.8,7.6,103.3,4.9c-0.8-0.6-1.4-1.4-1.8-2.3
			c-0.1-0.1-0.3-0.2-0.4-0.2c-0.8-0.4-1.6-0.8-2.4-1.2c-1.5-0.7-3-1.4-4.4-2.3c-4.5-2.5-6.7-6.5-6.7-11.9c0.1-4.8,1.2-9.6,3.1-14
			c2-4.9,4.8-9.4,8.1-13.6c1.1-1.3,2.3-2.6,3.4-3.8c0.6-0.6,1.3-1.3,1.9-2c0.1-0.1,0.2-0.3,0.3-0.5l0.2-0.4c0.1-0.2,0.2-0.4,0.3-0.7
			c0.3-0.7,0.7-1.3,1.3-1.8c4.1-3.4,9-5.7,14.3-6.6c0-0.3,0-0.6,0-0.9c0-0.6,0.2-1.1,0.4-1.6c0.2-0.5,0.4-0.9,0.6-1.3
			c0.4-0.7,0.9-1.2,1.5-1.7c-0.9-11.2-6.4-21.5-15.1-28.5c-1.1,0.2-2.2,0.4-3.3,0.6c-1.5,0.3-3,0.6-4.5,0.9
			c1.6,6.2,1.4,12.7-0.6,18.8c-4.3,12.7-15.3,18.1-17.5,19.1c-1.7-6.4-3.3-12.7-4.8-19c0-1.1,0.4-2.1,1.1-2.9
			c2.6-3.2,3.4-6.8,3.2-10.9h-20.6c-0.4,3.9,0.8,7.7,3.2,10.8c0.7,0.8,1.1,1.9,1.1,3c-1.5,6.3-3.2,12.5-4.8,18.9
			c-7.7-3.9-13.7-10.4-16.9-18.4c-2.5-6.4-3-13.5-1.4-20.2c-1.8-0.3-3.5-0.6-5.2-0.9c-4.1,5-14.2,18.9-12.4,37.3
			c0.5,4.8,1.7,9.4,3.6,13.8c1.6,0.3,3,1.4,3.5,3c0.2,0.6,0.2,1.2,0.1,1.7h0.1c6.3,1.2,10.4,7.3,9.2,13.6c-1.1,5.5-5.8,9.4-11.4,9.4
			c-0.7,0-1.5-0.1-2.2-0.2c-6.3-1.2-10.5-7.3-9.3-13.6c0.5-2.7,2-5.1,4.1-6.9c-0.6-0.7-1-1.6-1-2.6c0-1,0.3-1.2,0.3-2.3
			c0-0.7-0.3-1.2-1-2.9c-0.3-0.6-0.7-1.6-1.3-2.8c-1.5-4.5-2.4-9.1-2.7-13.8c-1-16.3,5.7-29,9.2-34.7c-6.9-0.5-13.9-0.2-20.8,0.9
			c-8.7,1.3-16.4,2.5-24.4,7.7c-7.4,4.8-13.4,11.7-18,20.7c-2.5,5-4.8,10.1-6.6,15.3c-0.4,1-0.8,2-1.1,3
			C85,345.7,89.6,357.2,105.3,364z"/>
	</g>
	<g>
		<path class="st0" d="M100.4,156.7c-0.8-12.6-1.3-25.2-1.8-37.8s-1-25.2-1.3-37.8l-0.6-18.9l-0.4-18.9C96,30.7,95.7,18.1,95.5,5.5
			l-0.1-4.8l4.9,0l21.5-0.3l21.5-0.2C157.8,0.1,172.2,0,186.5,0H208c7.2,0,14.4,0,21.5,0.1c14.3,0.1,28.7,0.2,43,0.4h2.1l1.4,1.4
			c7.1,7,14.2,14.1,21.2,21.2l21.2,21.3l1.2,1.2l-0.1,1.5l-0.7,24.4l-0.4,12.2l-0.5,12.2c-0.3,8.1-0.6,16.3-1,24.4
			s-0.8,16.3-1.3,24.4c-0.5-8.1-0.9-16.2-1.3-24.4c-0.4-8.1-0.7-16.3-1-24.4l-0.4-12.2l-0.4-12.2l-0.7-24.4l1.2,2.7l-22-20.3
			c-7.3-6.8-14.6-13.6-21.9-20.4l3.4,1.4c-14.3,0.2-28.7,0.3-43,0.4c-7.2,0.1-14.4,0.1-21.5,0.1h-21.5c-14.3,0-28.7,0-43.1-0.2
			L122,10.6l-21.5-0.3l4.8-4.8c-0.2,12.6-0.4,25.2-0.7,37.8l-0.4,18.9l-0.6,18.9c-0.3,12.6-0.8,25.2-1.3,37.8
			S101.2,144.1,100.4,156.7z"/>
	</g>
	<g>
		<path class="st0" d="M269.5,5.5v46.1l46.2-1.1L269.5,5.5z"/>
	</g>
	<g>
		<polygon class="st0" points="122.3,24.5 214.4,29.5 122.3,34.5 		"/>
	</g>
	<g>
		<polygon class="st0" points="122.3,49.6 250.3,54.6 122.3,59.6 		"/>
	</g>
	<g>
		<polygon class="st0" points="122.3,73.3 230.2,78.3 122.3,83.3 		"/>
	</g>
	<g>
		<polygon class="st0" points="122.3,98.1 298.7,103.1 122.3,108.1 		"/>
	</g>
	<g>
		<path class="st1" d="M88.2,74.6c-2.4,0.3-4.9,0.5-7.3,0.8s-4.9,0.5-7.3,0.6c-4.9,0.4-9.8,0.7-14.6,1l-14.6,0.6
			c-4.9,0.2-9.8,0.3-14.6,0.4l3.3-3.3c0.1,7.8,0.2,15.5,0.1,23.3s-0.2,15.5-0.4,23.3c-0.1,3.9-0.3,7.8-0.5,11.6s-0.4,7.8-0.6,11.6
			c-0.5,7.8-1.1,15.5-2,23.3c-0.9-7.8-1.5-15.5-2-23.3c-0.2-3.9-0.5-7.8-0.6-11.6s-0.4-7.8-0.5-11.6c-0.2-7.7-0.4-15.5-0.4-23.3
			c-0.1-7.8,0-15.5,0.1-23.3v-3.4l3.3,0.1c4.9,0.1,9.8,0.2,14.6,0.4l14.6,0.6c4.9,0.3,9.8,0.5,14.6,1c2.4,0.2,4.9,0.4,7.3,0.6
			S85.8,74.3,88.2,74.6z"/>
	</g>
	<g>
		<path class="st1" d="M327.9,74.6c2.4-0.3,4.9-0.5,7.3-0.8c2.4-0.2,4.9-0.4,7.3-0.6c4.9-0.4,9.8-0.7,14.6-1l14.6-0.6
			c4.9-0.2,9.8-0.3,14.6-0.4l3.3-0.1v3.4c0.1,7.8,0.2,15.5,0.1,23.3s-0.2,15.5-0.4,23.3c-0.1,3.9-0.3,7.8-0.5,11.6
			s-0.4,7.8-0.6,11.6c-0.5,7.8-1.1,15.5-2,23.3c-0.9-7.8-1.5-15.5-2-23.3c-0.2-3.9-0.5-7.8-0.6-11.6s-0.4-7.8-0.5-11.6
			c-0.2-7.7-0.4-15.5-0.4-23.3c-0.1-7.8,0-15.5,0.1-23.3l3.3,3.3c-4.9-0.1-9.7-0.2-14.6-0.4L357,76.9c-4.9-0.3-9.8-0.5-14.6-1
			c-2.4-0.2-4.9-0.4-7.3-0.6C332.7,75.1,330.3,74.9,327.9,74.6z"/>
	</g>
	<g>
		<polygon class="st1" points="42.4,94.6 84.8,97.6 42.4,100.6 		"/>
	</g>
	<g>
		<polygon class="st1" points="42.4,112.6 71.5,115.6 42.4,118.6 		"/>
	</g>
	<g>
		<polygon class="st1" points="373.7,100.6 331.3,97.6 373.7,94.6 		"/>
	</g>
	<g>
		<polygon class="st1" points="373.7,118.6 344.7,115.6 373.7,112.6 		"/>
	</g>
	<g>
		<path class="st1" d="M324.8,333.2c-0.5-1.5-0.9-2.9-1.4-4.4c-1.9-5.7-4.2-11.3-6.9-16.7c-5.1-10.2-11.9-18.1-20.8-23.2
			c-6.5-3.7-12.1-4.6-19.1-5.7c-7.8-1.2-15.8-1.6-23.7-1c4.1,3.6,7.4,7.9,9.9,12.7c1.2,2.5,2.2,5,2.9,7.7c0.8,2.9,1.4,5.8,1.6,8.8
			c1.1,0.7,1.9,1.7,2.4,2.9c0.4,1.1,0.5,2.3,0.4,3.5c0,0.2,0,0.4-0.1,0.6c-0.1,0.4-0.2,0.9-0.4,1.3c3.2,1.8,6,4.4,8.2,7.3
			c1,1.3,1.9,2.6,2.7,4c0.5,0.8,0.7,1.7,0.7,2.6c-0.1,0.9,0.1,1.9,0.6,2.7l0.2,0.4c3.5,8.1,5,16.9,4.4,25.6c-0.2,3.5-1,6.9-2.3,10.1
			c10.5-2.2,20.7-5.4,30-11.3C324.1,354.8,328.3,344.5,324.8,333.2z"/>
	</g>
	<g>
		<path class="st1" d="M277.4,344.4c-0.5-1.6-1.1-3.2-1.8-4.7l-0.7-1.8c-1.3-0.6-2.4-1.6-3-2.9c-1.5-2.6-3.5-4.8-5.9-6.6
			c-0.7-0.5-1.4-0.9-2.1-1.2c-1.2-0.6-2.6-0.9-3.9-1c-1.2-0.1-2.5,0.1-3.7,0.4c-2.8,0.8-5.5,2.1-7.8,3.9c-1.1,0.9-2.4,1.5-3.8,1.6
			c0,0-0.1,0.1-0.3,0.3c-3.8,3.7-7.1,7.9-9.6,12.6c-2.5,4.4-4.1,9.3-4.6,14.3c-0.3,3.2,0.4,5.2,2.4,6.5c1.3,0.8,2.6,1.6,4,2.3
			c0.6,0.3,1.2,0.6,1.8,0.9c0.1,0,0.2,0.1,0.3,0.1c0.2,0.1,0.4,0.2,0.6,0.3c0.5,0.3,1.1,0.4,1.6,0.2c2.5-0.6,5,0.9,5.7,3.4
			c0.4,1.7-0.1,3.6-1.4,4.8c4-0.4,8-0.8,12.1-1.2c0.4-1.2,1.3-2.3,2.5-2.8c1.6-0.9,3.7-0.7,5.1,0.6c0.2,0.2,0.5,0.3,0.8,0.3
			c0.8-0.1,1.7-0.2,2.5-0.2c1.6-0.1,3.3-0.3,5-0.5c1.8-0.2,3.4-1.4,4.2-3.1c1.6-3.5,2.4-7.3,2.3-11.2
			C279.7,354.4,278.9,349.3,277.4,344.4z M270.5,350.9c0,1-0.1,1.9-0.1,2.9c0.1,1-0.6,1.8-1.6,1.9c-0.1,0-0.3,0-0.4,0
			c-2.1,0-4.2,0-6.3,0c-0.7,0-0.7,0-0.7,0.7c0,0,0,0.1,0,0.2c0,1.8,0.1,3.5,0.1,5.3c0,0.4,0,0.7-0.1,1.1c-0.1,0.9-0.9,1.7-1.9,1.6
			c-1.4,0-2.9,0-4.3,0c-1,0.1-1.9-0.7-2-1.8c0,0,0-0.1,0-0.1c-0.1-0.5-0.1-0.9-0.1-1.4c0-1.7,0-3.4,0-5.2c0-0.3-0.1-0.4-0.3-0.4
			c-0.6,0-1.2-0.1-1.8-0.1c-1.4,0-2.8,0.1-4.1,0.1c-0.6,0-1.2-0.1-1.8-0.3c-0.5-0.2-0.8-0.7-0.8-1.3c-0.1-1.7-0.1-3.4,0-5.1
			c0-0.7,0.4-1.3,1.1-1.4c0.5-0.1,1-0.2,1.6-0.2c2,0,3.9,0,5.9,0h0.3c0-0.1,0-0.2,0-0.3l-0.1-6c0-0.3,0-0.5,0.1-0.8
			c0-0.9,0.8-1.6,1.7-1.6c0.3,0,0.6,0,0.9,0c1.1,0,2.1,0,3.2,0c0.4,0,0.9,0.1,1.3,0.2c0.6,0.2,1.1,0.7,1.2,1.3
			c0,0.3,0.1,0.6,0.1,0.9c0,1.8,0,3.6,0,5.4c0,0.2,0,0.5,0,0.7s0.1,0.3,0.3,0.4h6.3h0.6c0.8,0,1.5,0.6,1.6,1.4
			C270.4,349.5,270.5,350.2,270.5,350.9L270.5,350.9z"/>
	</g>
	<g class="st2">
		<path class="st1" d="M443.9,149.6h48.1c10.7,0,19.6,3.4,26.7,10.3c7,6.9,10.6,15.3,10.6,25.3c0,4.3-0.7,8.4-2,12.2
			c-1.4,3.8-3,6.8-4.8,9.2c-1.8,2.3-3.7,4.3-5.6,6c-1.9,1.7-3.6,2.8-4.9,3.4l-2,1.1l23.2,41.1h-24.8l-20.9-38h-20.1v38h-23.3V149.6z
			 M501.7,174.7c-2.8-2.8-6.3-4.2-10.6-4.2h-24v28.7h24c4.2,0,7.8-1.4,10.6-4c2.8-2.7,4.2-6,4.2-10
			C505.9,181,504.5,177.5,501.7,174.7z"/>
		<path class="st1" d="M635.4,237.2v20.9h-81.4V149.6h79.8v21h-56.5v21.7h44.1v20.9h-44.1v24.1H635.4z"/>
		<path class="st1" d="M656.9,258.1V149.6h23.3v87.6h50.3v20.9H656.9z"/>
		<path class="st1" d="M748.4,149.6h23.3v108.5h-23.3V149.6z"/>
		<path class="st1" d="M880.9,237.2v20.9h-81.4V149.6h79.8v21h-56.5v21.7h44.1v20.9h-44.1v24.1H880.9z"/>
		<path class="st1" d="M982.3,149.6v21h-56.5v24h44.1v21h-44.1v42.6h-23.3V149.6H982.3z"/>
	</g>
	<g class="st2">
		<path class="st0" d="M457.6,116.2h-6V47.4h24c2.9,0,5.6,0.5,8.1,1.6c2.5,1.1,4.7,2.6,6.6,4.5c1.9,1.9,3.4,4.1,4.5,6.6
			c1.1,2.5,1.6,5.2,1.6,8.1s-0.5,5.6-1.6,8.1s-2.6,4.8-4.5,6.6c-1.9,1.9-4.1,3.4-6.6,4.4c-2.5,1.1-5.2,1.6-8.1,1.6h-18V116.2z
			 M475.6,83.1c2,0,4-0.4,5.8-1.2c1.8-0.8,3.4-1.8,4.7-3.2c1.3-1.3,2.4-2.9,3.2-4.7c0.8-1.8,1.2-3.8,1.2-5.8c0-2-0.4-4-1.2-5.8
			c-0.8-1.8-1.8-3.4-3.2-4.7c-1.3-1.3-2.9-2.4-4.7-3.2c-1.8-0.8-3.7-1.2-5.8-1.2h-18v29.7H475.6z"/>
	</g>
	<g class="st2">
		<path class="st0" d="M521.5,47.4h5.1c2.5,5.8,5,11.6,7.6,17.3c2.5,5.7,5,11.4,7.5,17.1c2.5,5.7,5,11.4,7.5,17.1
			c2.5,5.7,5,11.5,7.5,17.3h-2.7c-1.2,0-2.2-0.3-3.2-0.9c-0.9-0.6-1.7-1.5-2.1-2.5L543,99.9h-38l-5.5,12.8c-0.4,1.1-1.2,1.9-2.1,2.5
			c-1,0.6-2.1,0.9-3.2,0.9h-2.7L521.5,47.4z M507.7,93.9h32.6l-15.4-35.3c-0.2-0.4-0.3-0.8-0.4-1.2c-0.1-0.5-0.2-0.9-0.3-1.3
			c-0.1-0.5-0.2-1-0.2-1.4c-0.1,0.5-0.1,1-0.2,1.4c-0.1,0.4-0.2,0.9-0.3,1.3c-0.1,0.5-0.2,0.9-0.4,1.2L507.7,93.9z"/>
	</g>
	<g class="st2">
		<path class="st0" d="M547.6,53.4v-6h51.3v6h-22.7v62.8h-6V53.4H547.6z"/>
		<path class="st0" d="M616.4,116.2h-6V47.4h6V116.2z"/>
		<path class="st0" d="M675.7,116.2h-41V47.4h41v6h-35v25.1h28.3v6h-28.3v25.7h35V116.2z"/>
		<path class="st0" d="M743.7,116.2h-6l-41.5-59.4c-0.2-0.2-0.3-0.4-0.4-0.7s-0.2-0.5-0.3-0.8c-0.1-0.3-0.2-0.6-0.3-0.9v61.7h-6
			V47.4h4.2c1.3,0,2.3,0.2,3,0.5c0.8,0.3,1.4,0.8,1.9,1.5l38,54.4c0.2,0.4,0.4,0.7,0.6,1.1c0.2,0.4,0.3,0.7,0.4,1
			c0.1,0.4,0.2,0.7,0.3,1.1V47.4h6V116.2z"/>
		<path class="st0" d="M753.5,53.4v-6h51.3v6h-22.7v62.8h-6V53.4H753.5z"/>
		<path class="st0" d="M840.7,56.4c-0.7-0.5-1.4-1-1.9-1.4c-0.6-0.4-1.2-0.8-1.8-1.2c-0.6-0.3-1.4-0.6-2.2-0.8
			c-0.8-0.2-1.9-0.3-3.1-0.3c-1.9,0-3.6,0.3-5.3,0.9s-3.1,1.5-4.4,2.5c-1.3,1.1-2.3,2.3-3,3.7c-0.7,1.4-1.1,2.9-1.1,4.5
			c0,1.8,0.2,3.3,0.7,4.4s1.2,2.2,2.4,3c1.1,0.9,2.6,1.7,4.4,2.4c1.8,0.8,4,1.6,6.7,2.5c1.4,0.5,2.7,1,3.9,1.4
			c1.2,0.4,2.4,0.9,3.5,1.4s2.1,1,3,1.5c0.9,0.5,1.8,1.1,2.7,1.8c2.2,1.7,3.8,3.8,4.7,6.3s1.4,5.2,1.4,8.2c0,3-0.6,5.7-1.8,8.1
			c-1.2,2.4-2.8,4.4-4.8,6.1c-2,1.7-4.4,3-7.1,3.9c-2.7,0.9-5.6,1.3-8.6,1.3c-6,0-11-1.8-15.1-5.3c-1.1-1-2.1-2-2.9-3
			s-1.4-1.9-1.9-2.8l0.7-0.4c1.1-0.6,2.1-0.9,3-0.9c0.8,0,1.5,0.1,2.2,0.3c0.7,0.2,1.3,0.6,1.9,1.1c1.3,1.2,2.5,2.2,3.6,2.8
			c1.1,0.7,2.1,1.1,3,1.4c0.9,0.3,1.9,0.5,2.7,0.6c0.9,0.1,1.8,0.1,2.7,0.1c1.9,0.1,3.8-0.2,5.8-0.6c1.9-0.5,3.7-1.3,5.2-2.4
			c1.6-1.1,2.8-2.5,3.8-4.2c1-1.7,1.5-3.7,1.5-6.1c0-2.6-0.4-4.7-1.2-6.3c-0.8-1.6-1.8-2.9-3.2-3.9c-1.4-1-3-1.8-4.8-2.5
			c-1.9-0.7-3.9-1.4-6-2.2c-2.7-1.1-5.2-2.1-7.4-3c-2.2-0.9-4.2-2-5.7-3.3c-1.6-1.3-2.8-2.8-3.7-4.7c-0.9-1.9-1.3-4.3-1.3-7.2
			c0-2.7,0.6-5.1,1.8-7.3c1.2-2.2,2.7-4,4.6-5.6s4-2.8,6.3-3.6c2.4-0.8,4.7-1.3,7.1-1.3c2,0,3.8,0.3,5.5,0.8c1.6,0.5,3.2,1.2,4.5,2
			c1.4,0.8,2.6,1.7,3.7,2.8c1.1,1,2.1,2,3,3l-1.5,1.1c-0.4,0.3-0.8,0.5-1.3,0.7s-1.1,0.3-1.8,0.3C842.6,57.2,841.5,57,840.7,56.4z"
			/>
	</g>
	<g class="st2">
		<path class="st0" d="M714.3,327.9v26.5c-1.6,1.4-3.3,2.6-5.2,3.6c-1.9,0.9-3.9,1.7-6,2.3c-2.1,0.6-4.4,0.9-6.7,1.2
			c-2.3,0.2-4.6,0.3-7,0.3c-4.9,0-9.4-0.9-13.7-2.8c-4.3-1.8-8-4.4-11.2-7.5c-3.2-3.2-5.7-6.9-7.6-11.2c-1.8-4.3-2.8-8.8-2.8-13.7
			c0-4.9,0.9-9.4,2.8-13.7c1.8-4.3,4.4-8,7.6-11.2c3.2-3.2,6.9-5.7,11.2-7.5c4.3-1.8,8.8-2.8,13.7-2.8c4.8,0,9.3,0.9,13.4,2.6
			c4.1,1.7,7.8,4.2,11,7.3l-0.5,0.4c-0.6,0.6-1.3,1.1-1.9,1.4c-0.7,0.3-1.5,0.5-2.3,0.5c-1.1,0-2.1-0.3-3.1-1
			c-2.4-1.6-4.9-2.9-7.7-3.8c-2.8-0.9-5.7-1.4-8.9-1.4c-2.7,0-5.3,0.3-7.8,1c-2.5,0.7-4.8,1.7-7,3c-2.2,1.3-4.1,2.8-5.9,4.6
			c-1.8,1.8-3.3,3.7-4.6,5.9c-1.3,2.2-2.2,4.5-3,7c-0.7,2.5-1.1,5.1-1.1,7.8c0,2.7,0.4,5.3,1.1,7.8c0.7,2.5,1.7,4.8,3,7
			c1.3,2.2,2.9,4.1,4.7,5.9c1.8,1.8,3.8,3.3,6,4.6c2.2,1.3,4.6,2.3,7.1,3c2.5,0.7,5.1,1,7.8,1c3.3,0,6.5-0.4,9.6-1.3
			c3.1-0.9,6-2.2,8.8-4v-16.5h-6.1c-0.9,0-1.7-0.2-2.4-0.5c-0.7-0.3-1.3-0.7-1.8-1.3c-0.5-0.5-0.9-1.1-1.2-1.8
			c-0.3-0.7-0.4-1.4-0.4-2.2v-0.2H714.3z"/>
	</g>
	<g class="st2">
		<path class="st0" d="M736.2,360.9h-6v-68.8h24.1c2.7,0,5.2,0.5,7.5,1.5c2.3,1,4.4,2.4,6.1,4.1c1.7,1.7,3.1,3.8,4.1,6.1
			c1,2.3,1.5,4.8,1.5,7.5c0,2.4-0.4,4.7-1.2,6.9s-1.9,4.2-3.3,6c-1.4,1.8-3.1,3.2-5.1,4.3c-2,1.1-4.1,1.8-6.5,2.1l22.8,30.3h-2.8
			c-3.3,0-5.7-1.2-7.3-3.6l-20-26.6h-13.9V360.9z M736.2,298.1v26.5h18.1c1.8,0,3.5-0.3,5.2-1c1.6-0.7,3-1.6,4.2-2.8
			c1.2-1.2,2.2-2.6,2.9-4.2c0.7-1.6,1.1-3.3,1.1-5.2s-0.4-3.5-1.1-5.1c-0.7-1.6-1.7-3-2.9-4.2s-2.6-2.2-4.2-2.9
			c-1.6-0.7-3.3-1.1-5.2-1.1H736.2z"/>
	</g>
	<g class="st2">
		<path class="st0" d="M783.8,326.5c0-4.9,0.9-9.4,2.8-13.7c1.8-4.3,4.4-8,7.6-11.2c3.2-3.2,6.9-5.7,11.2-7.5
			c4.3-1.8,8.8-2.8,13.7-2.8c4.9,0,9.4,0.9,13.7,2.8c4.3,1.8,8,4.4,11.2,7.5c3.2,3.2,5.7,6.9,7.5,11.2c1.8,4.3,2.8,8.8,2.8,13.7
			c0,4.9-0.9,9.4-2.8,13.7c-1.8,4.3-4.4,8-7.5,11.2c-3.2,3.2-6.9,5.7-11.2,7.5c-4.3,1.8-8.8,2.8-13.7,2.8c-4.9,0-9.4-0.9-13.7-2.8
			c-4.3-1.8-8-4.4-11.2-7.5c-3.2-3.2-5.7-6.9-7.6-11.2C784.8,335.9,783.8,331.3,783.8,326.5z M789.8,326.5c0,2.7,0.4,5.3,1.1,7.8
			c0.7,2.5,1.7,4.8,3,7c1.3,2.2,2.8,4.1,4.6,5.9c1.8,1.8,3.7,3.3,5.9,4.6c2.2,1.3,4.5,2.3,7,3c2.5,0.7,5.1,1,7.8,1
			c2.7,0,5.3-0.3,7.8-1c2.5-0.7,4.8-1.7,7-3c2.2-1.3,4.1-2.8,5.9-4.6c1.8-1.8,3.3-3.7,4.6-5.9s2.3-4.5,3-7c0.7-2.5,1-5.1,1-7.8
			c0-4-0.8-7.8-2.3-11.4s-3.6-6.6-6.3-9.3c-2.6-2.6-5.7-4.7-9.3-6.3c-3.5-1.5-7.3-2.3-11.4-2.3c-2.7,0-5.3,0.3-7.8,1
			c-2.5,0.7-4.8,1.7-7,3c-2.2,1.3-4.1,2.8-5.9,4.6c-1.8,1.8-3.3,3.7-4.6,5.9c-1.3,2.2-2.2,4.5-3,7
			C790.2,321.2,789.8,323.8,789.8,326.5z"/>
		<path class="st0" d="M872.1,334.4c0,2.9,0.6,5.7,1.7,8.3c1.1,2.6,2.6,4.8,4.6,6.7s4.2,3.4,6.7,4.6c2.6,1.1,5.3,1.7,8.3,1.7
			c2.9,0,5.7-0.6,8.2-1.7c2.6-1.1,4.8-2.6,6.7-4.6s3.4-4.2,4.6-6.7c1.1-2.6,1.7-5.3,1.7-8.3v-42.3h6v42.3c0,3.8-0.7,7.3-2.1,10.6
			c-1.4,3.3-3.4,6.2-5.8,8.7c-2.5,2.5-5.4,4.4-8.7,5.8c-3.3,1.4-6.9,2.1-10.6,2.1c-3.7,0-7.3-0.7-10.6-2.1c-3.3-1.4-6.2-3.4-8.7-5.8
			c-2.5-2.5-4.4-5.4-5.9-8.7c-1.4-3.3-2.1-6.9-2.1-10.6v-42.3h6V334.4z"/>
		<path class="st0" d="M943.2,360.9h-6v-68.8h24c2.9,0,5.6,0.5,8.1,1.6c2.5,1.1,4.7,2.6,6.6,4.5c1.9,1.9,3.4,4.1,4.5,6.6
			c1.1,2.5,1.6,5.2,1.6,8.1s-0.5,5.6-1.6,8.1s-2.6,4.8-4.5,6.6c-1.9,1.9-4.1,3.4-6.6,4.4c-2.5,1.1-5.2,1.6-8.1,1.6h-18V360.9z
			 M961.2,327.8c2,0,4-0.4,5.8-1.2c1.8-0.8,3.4-1.8,4.7-3.2c1.3-1.3,2.4-2.9,3.2-4.7c0.8-1.8,1.2-3.8,1.2-5.8c0-2-0.4-4-1.2-5.8
			c-0.8-1.8-1.8-3.4-3.2-4.7s-2.9-2.4-4.7-3.2c-1.8-0.8-3.7-1.2-5.8-1.2h-18v29.7H961.2z"/>
	</g>
	<g>
		<circle class="st1" cx="165.1" cy="350.7" r="5"/>
	</g>
	<g>
		<path class="st1" d="M213,164.5c3.8,0.6,7.6,1,11.3,1.8c9.4,2.1,17.8,5.9,23.6,14c1.8,2.4,3.4,5.1,4.6,7.9
			c6.9,17.6,7.2,35.5,1.9,53.5c-2.7,8.7-7.7,16.5-14.5,22.6c-10.4,9.5-22.6,14.3-36.8,13.3c-7.7-0.5-15.2-3-21.8-7.2
			c-6.1-3.9-11.4-9-15.5-15c-5.5-7.8-8.9-16.9-9.8-26.4c-0.4-4.8-1.2-9.8-0.7-14.5c0.8-7.7,1.7-15.6,4-23c4-12.6,13-20.8,25.9-24.1
			c4.9-1.3,10-1.9,15.1-2.8L213,164.5z"/>
	</g>
	<g>
		<path class="st0" d="M29.2,265.4c-5.2,3.6-9.8,7.2-13.4,11.3c-1.7,2.1-3.3,4.3-4.6,6.6c-0.6,1.1-1.2,2.3-1.7,3.5
			c-0.5,1.2-0.9,2.5-1.3,3.8c-0.8,2.6-1.3,5.4-1.9,8.3c-0.3,1.5-0.6,2.9-0.9,4.4l-1,4.3c-1.2,5.8-2.2,11.7-3.6,17.8H0.3
			c-0.2-3-0.3-6.1-0.3-9.1c0-3,0.2-6.1,0.5-9.1s0.7-6,1.1-9.1c0.4-3,1-6,1.8-9c0.8-3,2.1-5.8,3.8-8.4c1.7-2.6,3.7-4.9,6-7
			c2.3-2.1,4.8-3.8,7.5-5.3c2.7-1.4,5.5-2.6,8.4-3.5L29.2,265.4z"/>
	</g>
	<g>
		<path class="st0" d="M386,266.9c6.5,0.3,12.9,2.6,18.1,6.5c2.7,2,5.1,4.5,7.1,7.3c1,1.4,1.8,2.9,2.6,4.5c0.7,1.6,1.3,3.2,1.8,4.8
			c0.4,1.6,0.8,3.2,1.1,4.8s0.5,3.2,0.6,4.7s0.3,3.1,0.3,4.6c0,0.8,0.1,1.5,0.1,2.3v2.4c0.1,6.3-0.9,12.6-3,18.6h-0.5
			c0.2-3,0.2-6.1,0.1-9.1s-0.3-6-0.6-9.1s-0.8-6-1.2-9c-0.4-3-1-5.9-1.8-8.9c-0.8-2.9-2-5.7-3.6-8.2c-1.6-2.5-3.5-4.9-5.7-6.9
			c-2.2-2-4.7-3.8-7.3-5.3c-2.6-1.5-5.4-2.7-8.2-3.7L386,266.9z"/>
	</g>
</g>
</svg>
