<svg id="Layer_1" data-name="Layer 1" xmlns="http://www.w3.org/2000/svg" viewBox="0 0 978.12 704.94"><defs><style>.cls-1,.cls-3{font-size:281.8px;}.cls-1,.cls-2,.cls-5{fill:#0071bc;}.cls-1,.cls-2{font-family:CocoGothic-Fat, Coco Gothic;font-weight:900;}.cls-2{font-size:384.68px;}.cls-3,.cls-4,.cls-6,.cls-7{fill:#ed1c24;}.cls-3,.cls-7{font-family:CocoGothic, Coco Gothic;}.cls-4{font-size:101.86px;font-family:TTNorms-Regular, TT Norms;}.cls-7{font-size:384.68px;}.cls-8{fill:#ec1c24;}</style></defs><title>project6</title><text class="cls-1" transform="translate(371.4 504.45)">O</text><text class="cls-2" transform="translate(606.76 443.71) rotate(-33.15)">D</text><text class="cls-3" transform="translate(699.25 526.58)">O</text><text class="cls-4" transform="translate(83.03 657.14)"><tspan xml:space="preserve">S  O  L  U  T  I  O  N  S</tspan></text><path class="cls-5" d="M1119.05,910.76c7.17-17,14.86-33.68,22.71-50.3s16-33.1,24.21-49.5,16.65-32.73,25.24-49c4.25-8.13,8.62-16.2,12.94-24.3s8.73-16.16,13.19-24.18l2.9-5.23,4.93,3q13.33,8.2,26.54,16.59T1278,744.85q13.13,8.55,26.09,17.35c8.64,5.88,17.23,11.83,25.72,18-9.44-4.53-18.77-9.25-28.06-14s-18.51-9.69-27.69-14.66-18.33-10-27.44-15.07-18.19-10.22-27.23-15.42l7.83-2.2c-4.14,8.2-8.41,16.33-12.62,24.48s-8.52,16.26-12.88,24.34q-12.91,24.31-26.38,48.35T1148,863.76C1138.61,879.57,1129.09,895.31,1119.05,910.76Z" transform="translate(-1012.46 -547.51)"/><path class="cls-5" d="M1939.6,879.27a92,92,0,0,1,10,10.13,123.9,123.9,0,0,1,8.64,11.42,128.85,128.85,0,0,1,13.21,25.66,126,126,0,0,1,1.1,86.14,120,120,0,0,1-5.63,13.5c-1.06,2.2-2.2,4.34-3.37,6.47s-2.45,4.2-3.77,6.24a127.06,127.06,0,0,1-18.21,22.39,123.35,123.35,0,0,1-10.83,9.38,92,92,0,0,1-11.88,7.84,184.94,184.94,0,0,0,18.27-21.11,165.17,165.17,0,0,0,14.48-23.22,143.62,143.62,0,0,0,10.9-104.71,167,167,0,0,0-9.39-25.71A184,184,0,0,0,1939.6,879.27Z" transform="translate(-1012.46 -547.51)"/><path class="cls-6" d="M1552.12,657.2a136,136,0,0,1,13.71-10.63c4.76-3.32,9.72-6.33,14.76-9.25a200.32,200.32,0,0,1,31.85-14.5,174,174,0,0,1,34.29-8.36,156.84,156.84,0,0,1,17.75-1.38A138.57,138.57,0,0,1,1700,617a140.92,140.92,0,0,1,17,5.49A135.12,135.12,0,0,1,1748,640l3.5,2.71c1.17.91,2.27,1.9,3.4,2.84,2.27,1.87,4.4,3.91,6.55,5.91,1.07,1,2.08,2.08,3.11,3.11s2.09,2.06,3,3.16c2,2.18,4,4.31,5.78,6.59a175.73,175.73,0,0,1,19.48,28.77A293.49,293.49,0,0,0,1769.41,668c-4.09-3.93-8.41-7.58-12.78-11.12s-8.94-6.79-13.64-9.81a146.88,146.88,0,0,0-29.7-14.83,137.06,137.06,0,0,0-32.16-7.41,155.84,155.84,0,0,0-33.17,0,202.25,202.25,0,0,0-33,6.24A265.5,265.5,0,0,0,1583,642.15,281.14,281.14,0,0,0,1552.12,657.2Z" transform="translate(-1012.46 -547.51)"/><text class="cls-7" transform="translate(62 453.4) rotate(27.33)">D</text><path class="cls-8" d="M1421.19,1060.38c1.86,1.08,3.72,2.11,5.63,3.06s3.78,1.94,5.71,2.82c3.85,1.8,7.71,3.53,11.66,5a179,179,0,0,0,24,7.63,152.88,152.88,0,0,0,49.44,4.07,134.17,134.17,0,0,0,24.43-4.23l3-.8a30.85,30.85,0,0,0,3-.88l5.92-2c1-.3,2-.69,2.93-1.08l2.9-1.16c1.93-.77,3.91-1.46,5.77-2.4,15.28-6.8,29.61-15.88,43.32-26.14a150.19,150.19,0,0,1-40.57,31.8c-1.88,1.1-3.88,2-5.85,2.9l-3,1.38c-1,.46-2,.92-3,1.29l-6.13,2.34c-1,.41-2.06.73-3.11,1l-3.14,1-3.14,1c-1.06.29-2.14.51-3.2.76-2.14.48-4.27,1-6.42,1.44l-6.5,1c-2.17.32-4.37.47-6.55.7a133.84,133.84,0,0,1-26.25-.45,135.45,135.45,0,0,1-25.56-5.55,144.87,144.87,0,0,1-23.92-10.13c-3.8-2-7.53-4.24-11.1-6.64A91.76,91.76,0,0,1,1421.19,1060.38Z" transform="translate(-1012.46 -547.51)"/></svg>